/* XPM */
static char * yamcs_11_32_xpm[] = {
"32 32 691 2",
"  	c None",
". 	c #E9E9E9",
"+ 	c #E8E3E1",
"@ 	c #E6E2DA",
"# 	c #E9E9E8",
"$ 	c #E8E8E8",
"% 	c #E7E7E7",
"& 	c #E6DFD3",
"* 	c #BDAA8E",
"= 	c #4C4334",
"- 	c #73664F",
"; 	c #D0B894",
"> 	c #D4BD94",
", 	c #DBC8AB",
"' 	c #E0D7CA",
") 	c #E7E4E2",
"! 	c #E8E5E6",
"~ 	c #CCCCDC",
"{ 	c #9797C4",
"] 	c #6B6BB0",
"^ 	c #4F4FA4",
"/ 	c #7070B3",
"( 	c #CACADA",
"_ 	c #EAE9E8",
": 	c #DFCEB7",
"< 	c #D3AF72",
"[ 	c #473924",
"} 	c #000000",
"| 	c #473823",
"1 	c #BE9256",
"2 	c #C29458",
"3 	c #AB8D64",
"4 	c #64543C",
"5 	c #6A5C44",
"6 	c #806E52",
"7 	c #AAA195",
"8 	c #C1BDC3",
"9 	c #CCC8C9",
"0 	c #E2DFD4",
"a 	c #E6E3DD",
"b 	c #C3C3D7",
"c 	c #40409D",
"d 	c #0B0B85",
"e 	c #ADADCE",
"f 	c #E9E9E7",
"g 	c #E4DBCB",
"h 	c #D8BA88",
"i 	c #665335",
"j 	c #544126",
"k 	c #564125",
"l 	c #4E3C25",
"m 	c #513E25",
"n 	c #513F28",
"o 	c #17120D",
"p 	c #2F2518",
"q 	c #8B714D",
"r 	c #7B6244",
"s 	c #53422C",
"t 	c #30291D",
"u 	c #655742",
"v 	c #AE9367",
"w 	c #D6C3A8",
"x 	c #E3E1E6",
"y 	c #2B2B93",
"z 	c #1E1E8D",
"A 	c #E4E4E6",
"B 	c #E6DCD1",
"C 	c #D9BD90",
"D 	c #CDA566",
"E 	c #2D2214",
"F 	c #84653E",
"G 	c #BE955F",
"H 	c #BD945F",
"I 	c #AF8755",
"J 	c #A07F56",
"K 	c #9B7E58",
"L 	c #B99564",
"M 	c #B58F60",
"N 	c #BC925D",
"O 	c #9E7F57",
"P 	c #050402",
"Q 	c #352A1B",
"R 	c #BE9864",
"S 	c #D6C7B4",
"T 	c #8F8FC0",
"U 	c #000080",
"V 	c #B2B2D0",
"W 	c #E9E6E7",
"X 	c #E8E3DD",
"Y 	c #DEC091",
"Z 	c #B28E59",
"` 	c #493A23",
" .	c #755B36",
"..	c #6F5230",
"+.	c #4E3B22",
"@.	c #483823",
"#.	c #654C2B",
"$.	c #93734C",
"%.	c #BD986C",
"&.	c #B9915B",
"*.	c #B68B52",
"=.	c #BA905B",
"-.	c #B48D5D",
";.	c #564228",
">.	c #493922",
",.	c #3E3221",
"'.	c #A58A5F",
").	c #B58B52",
"!.	c #D0BCA1",
"~.	c #C0C0D6",
"{.	c #8E8EC0",
"].	c #E8E6E6",
"^.	c #EAE9E9",
"/.	c #E9E8E7",
"(.	c #E4D2B9",
"_.	c #D2AC70",
":.	c #C69959",
"<.	c #A07C4E",
"[.	c #5C482D",
"}.	c #1E1810",
"|.	c #1F1911",
"1.	c #50412A",
"2.	c #503F2B",
"3.	c #4B3C29",
"4.	c #463522",
"5.	c #443421",
"6.	c #4B3923",
"7.	c #5F4F36",
"8.	c #362D20",
"9.	c #010100",
"0.	c #7D6746",
"a.	c #C09F6F",
"b.	c #AC8553",
"c.	c #CFC0AA",
"d.	c #CDCCDB",
"e.	c #8A89BE",
"f.	c #E6E6E6",
"g.	c #EBE8E9",
"h.	c #E7DFD4",
"i.	c #DABB87",
"j.	c #79613E",
"k.	c #241C10",
"l.	c #3C2F1C",
"m.	c #604B2E",
"n.	c #896E49",
"o.	c #846742",
"p.	c #655234",
"q.	c #473825",
"r.	c #3C3327",
"s.	c #4C3A25",
"t.	c #57442A",
"u.	c #5C482F",
"v.	c #684E2E",
"w.	c #7C5E38",
"x.	c #755C37",
"y.	c #8F7752",
"z.	c #BA9661",
"A.	c #B18B57",
"B.	c #A78358",
"C.	c #D5C7B6",
"D.	c #BFBCD5",
"E.	c #9F9CC6",
"F.	c #E7E6E6",
"G.	c #ECE8E9",
"H.	c #DFD2B8",
"I.	c #CFAD79",
"J.	c #C49E69",
"K.	c #BA925B",
"L.	c #906F41",
"M.	c #5E4C2E",
"N.	c #3A3022",
"O.	c #1E180F",
"P.	c #392E20",
"Q.	c #493C28",
"R.	c #292116",
"S.	c #403422",
"T.	c #5D4931",
"U.	c #6D5435",
"V.	c #5A452B",
"W.	c #614E31",
"X.	c #C19F68",
"Y.	c #B7935E",
"Z.	c #9E7644",
"`.	c #9C764C",
" +	c #D3C8B9",
".+	c #9B98C4",
"++	c #C5C1D7",
"@+	c #E9E5E6",
"#+	c #DDCAB2",
"$+	c #BE965E",
"%+	c #AC7E4C",
"&+	c #A47444",
"*+	c #AB814E",
"=+	c #AF8851",
"-+	c #C4A26F",
";+	c #B08C59",
">+	c #846A46",
",+	c #5B4A2F",
"'+	c #53452E",
")+	c #534630",
"!+	c #5A482E",
"~+	c #584A37",
"{+	c #342B1B",
"]+	c #3F3222",
"^+	c #C0A57B",
"/+	c #BF9B64",
"(+	c #A9814F",
"_+	c #986E43",
":+	c #997044",
"<+	c #D2C5B4",
"[+	c #6362AC",
"}+	c #131388",
"|+	c #E7E3E5",
"1+	c #EAE7E8",
"2+	c #ECE8E6",
"3+	c #B48651",
"4+	c #A37448",
"5+	c #9C724A",
"6+	c #9C7046",
"7+	c #9F7749",
"8+	c #A47848",
"9+	c #A47846",
"0+	c #A27847",
"a+	c #AB844F",
"b+	c #A87D48",
"c+	c #9D7B49",
"d+	c #745F3D",
"e+	c #564936",
"f+	c #584933",
"g+	c #A98F5D",
"h+	c #C5A675",
"i+	c #A77B48",
"j+	c #9B7245",
"k+	c #936A3E",
"l+	c #946E42",
"m+	c #CBBAA3",
"n+	c #1F1E8E",
"o+	c #5655A5",
"p+	c #E7E3E4",
"q+	c #E8E4E5",
"r+	c #EAE8E8",
"s+	c #DBC4A0",
"t+	c #B4874F",
"u+	c #A27548",
"v+	c #966B44",
"w+	c #986E44",
"x+	c #694B73",
"y+	c #503BA0",
"z+	c #4F3A9D",
"A+	c #5A4391",
"B+	c #6D5181",
"C+	c #7C5B6B",
"D+	c #926C59",
"E+	c #A47D4F",
"F+	c #A98252",
"G+	c #AE8752",
"H+	c #BA9454",
"I+	c #B28E56",
"J+	c #9E7443",
"K+	c #976F44",
"L+	c #90693E",
"M+	c #956E44",
"N+	c #A297A9",
"O+	c #A9A6C9",
"P+	c #E8E4E1",
"Q+	c #EBE9E8",
"R+	c #D9BF9B",
"S+	c #B98E53",
"T+	c #A47B50",
"U+	c #9C734A",
"V+	c #8D6744",
"W+	c #402DA0",
"X+	c #4231B0",
"Y+	c #5A4288",
"Z+	c #5C438C",
"`+	c #4332AD",
" @	c #4232B1",
".@	c #4434B1",
"+@	c #4835A9",
"@@	c #563D90",
"#@	c #795C7A",
"$@	c #AA854F",
"%@	c #A98453",
"&@	c #997149",
"*@	c #8E6941",
"=@	c #8D673F",
"-@	c #99744A",
";@	c #464394",
">@	c #23228F",
",@	c #E4E0E3",
"'@	c #E7E3E0",
")@	c #E6E2E1",
"!@	c #EAE8E9",
"~@	c #EBE8E7",
"{@	c #DDC8A9",
"]@	c #BA9262",
"^@	c #A3774D",
"/@	c #A07951",
"(@	c #926E4D",
"_@	c #4635A8",
":@	c #4131AE",
"<@	c #886653",
"[@	c #846560",
"}@	c #3F2EAB",
"|@	c #4937A1",
"1@	c #86665F",
"2@	c #614884",
"3@	c #4231AC",
"4@	c #5C479E",
"5@	c #A68557",
"6@	c #A37F53",
"7@	c #926D45",
"8@	c #8B683F",
"9@	c #906B43",
"0@	c #7C5B4C",
"a@	c #020280",
"b@	c #8A87B8",
"c@	c #E5E0DF",
"d@	c #E3DFDC",
"e@	c #E3DFDE",
"f@	c #ECE8E7",
"g@	c #E9E9E5",
"h@	c #E0D0B8",
"i@	c #C59F6C",
"j@	c #A97E4F",
"k@	c #9B724C",
"l@	c #97734F",
"m@	c #4433A8",
"n@	c #4030AD",
"o@	c #8F6C51",
"p@	c #83655B",
"q@	c #4031AE",
"r@	c #4D3AA1",
"s@	c #89633B",
"t@	c #6B4F67",
"u@	c #4535B1",
"v@	c #5A408F",
"w@	c #A17F4E",
"x@	c #9F7B4C",
"y@	c #957047",
"z@	c #8E6B46",
"A@	c #8B6741",
"B@	c #2B1F69",
"C@	c #1F1E8C",
"D@	c #DBD6D6",
"E@	c #E1DCD9",
"F@	c #DFDBD8",
"G@	c #DFDBDA",
"H@	c #ECE8E5",
"I@	c #EAEAE5",
"J@	c #DCC29C",
"K@	c #A5817C",
"L@	c #87646F",
"M@	c #9F7B54",
"N@	c #926A42",
"O@	c #775758",
"P@	c #684C71",
"Q@	c #93704D",
"R@	c #906F4D",
"S@	c #4C399D",
"T@	c #402FAA",
"U@	c #644C84",
"V@	c #563E8B",
"W@	c #4132AF",
"X@	c #5E4892",
"Y@	c #9B7343",
"Z@	c #9B7545",
"`@	c #916C43",
" #	c #83603A",
".#	c #624851",
"+#	c #010180",
"@#	c #928DB0",
"##	c #DAD5D1",
"$#	c #D9D4D1",
"%#	c #D9D5D2",
"&#	c #DAD6D5",
"*#	c #EBE9E5",
"=#	c #946E6F",
"-#	c #4834AE",
";#	c #594298",
">#	c #84625F",
",#	c #8D6847",
"'#	c #8F6A49",
")#	c #926F4B",
"!#	c #8A6641",
"~#	c #917459",
"{#	c #6C557E",
"]#	c #4F3D9B",
"^#	c #4332A8",
"/#	c #412EA4",
"(#	c #745672",
"_#	c #9C7445",
":#	c #997243",
"<#	c #8D6A41",
"[#	c #836042",
"}#	c #110C76",
"|#	c #302877",
"1#	c #CCC4BD",
"2#	c #D2CDCA",
"3#	c #D1CCC8",
"4#	c #D3CECA",
"5#	c #E2D1B2",
"6#	c #BD9460",
"7#	c #8F6562",
"8#	c #594095",
"9#	c #4432AC",
"0#	c #5B4389",
"a#	c #8A6957",
"b#	c #937148",
"c#	c #957048",
"d#	c #835C35",
"e#	c #866038",
"f#	c #926E46",
"g#	c #98754F",
"h#	c #8F673F",
"i#	c #9A7244",
"j#	c #A78151",
"k#	c #987346",
"l#	c #8C6940",
"m#	c #302365",
"n#	c #0A077B",
"o#	c #826551",
"p#	c #C7BCB4",
"q#	c #C8C2BD",
"r#	c #C9C3BF",
"s#	c #CAC5C1",
"t#	c #CBC6C2",
"u#	c #ECE9E4",
"v#	c #EEEAE6",
"w#	c #E6D6BB",
"x#	c #C9A26D",
"y#	c #AE8252",
"z#	c #9F764C",
"A#	c #7D5A65",
"B#	c #513C9A",
"C#	c #4333AA",
"D#	c #624A7E",
"E#	c #937158",
"F#	c #8E683F",
"G#	c #926B44",
"H#	c #957248",
"I#	c #896238",
"J#	c #966D3E",
"K#	c #A27C4F",
"L#	c #A47E4E",
"M#	c #977348",
"N#	c #523D56",
"O#	c #01017F",
"P#	c #533B49",
"Q#	c #886B48",
"R#	c #9C8B7B",
"S#	c #B4A79E",
"T#	c #BCB3AC",
"U#	c #C0B7B1",
"V#	c #C0BBB7",
"W#	c #EFEBE6",
"X#	c #E4D0B0",
"Y#	c #BD9367",
"Z#	c #936F6D",
"`#	c #7F5C69",
" $	c #795B76",
".$	c #664D7C",
"+$	c #4B38A2",
"@$	c #402FAC",
"#$	c #4E3EAF",
"$$	c #5E4684",
"%$	c #725675",
"&$	c #816260",
"*$	c #906F4E",
"=$	c #96734A",
"-$	c #A07A49",
";$	c #A8824D",
">$	c #725856",
",$	c #04037E",
"'$	c #352559",
")$	c #785834",
"!$	c #7B6448",
"~$	c #85745E",
"{$	c #988878",
"]$	c #A99C92",
"^$	c #B1A49C",
"/$	c #B5ACA5",
"($	c #EDEAE5",
"_$	c #F0ECE7",
":$	c #DDC499",
"<$	c #9F7B77",
"[$	c #4A38B0",
"}$	c #422FAB",
"|$	c #4635B0",
"1$	c #4634A6",
"2$	c #4E3A9D",
"3$	c #584393",
"4$	c #5D4484",
"5$	c #574394",
"6$	c #4736A6",
"7$	c #4233B1",
"8$	c #4433AA",
"9$	c #574399",
"0$	c #816577",
"a$	c #846654",
"b$	c #0A087C",
"c$	c #271C67",
"d$	c #745532",
"e$	c #755D40",
"f$	c #77634B",
"g$	c #83725A",
"h$	c #918171",
"i$	c #9F9387",
"j$	c #ADA098",
"k$	c #B0A79E",
"l$	c #EDE9E7",
"m$	c #EEECE4",
"n$	c #DFC898",
"o$	c #BB9567",
"p$	c #916A5F",
"q$	c #8F6751",
"r$	c #936C4A",
"s$	c #946B41",
"t$	c #98744B",
"u$	c #956F49",
"v$	c #967249",
"w$	c #93714A",
"x$	c #94724B",
"y$	c #89685A",
"z$	c #75576E",
"A$	c #685089",
"B$	c #584383",
"C$	c #0D0A7C",
"D$	c #20176C",
"E$	c #775635",
"F$	c #765D3E",
"G$	c #745F47",
"H$	c #79654D",
"I$	c #877562",
"J$	c #97897C",
"K$	c #A79B8F",
"L$	c #B1A8A1",
"M$	c #ECE8E4",
"N$	c #E8E0D6",
"O$	c #C8AC86",
"P$	c #A97E4D",
"Q$	c #9E764D",
"R$	c #966C42",
"S$	c #9B7750",
"T$	c #957142",
"U$	c #8D673A",
"V$	c #87643A",
"W$	c #937147",
"X$	c #8B6841",
"Y$	c #9A784F",
"Z$	c #926D44",
"`$	c #6B4F53",
" %	c #09077D",
".%	c #2C2374",
"+%	c #8A6A4B",
"@%	c #775735",
"#%	c #765F44",
"$%	c #76614A",
"%%	c #7D6A53",
"&%	c #8F806D",
"*%	c #A19586",
"=%	c #ADA298",
"-%	c #B3A8A1",
";%	c #E9E5E4",
">%	c #E9E5E3",
",%	c #E7DFDC",
"'%	c #C3B9BF",
")%	c #C3B4AA",
"!%	c #BEAA97",
"~%	c #AF9883",
"{%	c #A2876C",
"]%	c #907252",
"^%	c #836041",
"/%	c #866240",
"(%	c #86633B",
"_%	c #815D3A",
":%	c #8E6C44",
"<%	c #4E3B60",
"[%	c #02027F",
"}%	c #35276B",
"|%	c #9B784D",
"1%	c #927049",
"2%	c #775E43",
"3%	c #735F47",
"4%	c #7A6750",
"5%	c #887761",
"6%	c #9D9080",
"7%	c #ACA096",
"8%	c #B2A9A2",
"9%	c #B7AEA7",
"0%	c #B8AFA8",
"a%	c #E8E4E2",
"b%	c #E7E1DE",
"c%	c #D7CED0",
"d%	c #8F87AE",
"e%	c #D2C6BF",
"f%	c #CCC1B7",
"g%	c #CABBB3",
"h%	c #C4B6AB",
"i%	c #BBAD9E",
"j%	c #B2A191",
"k%	c #A38F7A",
"l%	c #7B6765",
"m%	c #261E75",
"n%	c #412F59",
"o%	c #956E42",
"p%	c #A07D4D",
"q%	c #8B704B",
"r%	c #79624B",
"s%	c #7D6951",
"t%	c #897761",
"u%	c #9A8A79",
"v%	c #AC9F97",
"w%	c #B7ADA4",
"x%	c #BBB2AB",
"y%	c #BBB4AE",
"z%	c #BCB4AF",
"A%	c #E8E4E3",
"B%	c #E7E2E0",
"C%	c #E5DEDB",
"D%	c #5451A0",
"E%	c #ACA6BB",
"F%	c #D6CDC9",
"G%	c #D3C9C2",
"H%	c #CFC5BE",
"I%	c #CBC0B7",
"J%	c #A59BA9",
"K%	c #4D4891",
"L%	c #040481",
"M%	c #211E88",
"N%	c #958A9E",
"O%	c #B5A693",
"P%	c #B6A38C",
"Q%	c #AC957A",
"R%	c #998572",
"S%	c #938372",
"T%	c #998B7A",
"U%	c #A5988A",
"V%	c #B2A79C",
"W%	c #BFB4AF",
"X%	c #C4BBB8",
"Y%	c #C5BDBB",
"Z%	c #C4BFBB",
"`%	c #C3BEBA",
" &	c #E8E4E4",
".&	c #E7E3E1",
"+&	c #E7E2DF",
"@&	c #C2BECF",
"#&	c #161689",
"$&	c #3B3A97",
"%&	c #5C5AA4",
"&&	c #4D4B9C",
"*&	c #21208B",
"=&	c #181789",
"-&	c #7974A8",
";&	c #CABEBB",
">&	c #CCC0B7",
",&	c #CABFB3",
"'&	c #C9BDB3",
")&	c #C7BBB3",
"!&	c #C4B8B0",
"~&	c #C2B6AF",
"{&	c #C3BAB3",
"]&	c #C8C1BB",
"^&	c #CEC7C2",
"/&	c #D2CDC9",
"(&	c #D0CBC8",
"_&	c #E6E2DF",
":&	c #E6E1DE",
"<&	c #E4DFDC",
"[&	c #CCC8D2",
"}&	c #6B69AC",
"|&	c #3C3B98",
"1&	c #3D3C99",
"2&	c #615FA8",
"3&	c #A29FC2",
"4&	c #DFDAD9",
"5&	c #E2DDD9",
"6&	c #E0DBD7",
"7&	c #DCD6D3",
"8&	c #D9CFCC",
"9&	c #D4CAC5",
"0&	c #CFC6BF",
"a&	c #CAC1BC",
"b&	c #CBC2BF",
"c&	c #D0C9C6",
"d&	c #D5CFCB",
"e&	c #D9D4D0",
"f&	c #DCD7D4",
"g&	c #DBD6D3",
"h&	c #DAD5D2",
"                                                                ",
"                                                                ",
"        . . . . . . + @ # . $ $ $ . $ . % $ $ $ $ $ $ $         ",
"      . . . . . $ & * = - ; > , ' ) ! . $ ~ { ] ^ / ( $ $       ",
"    . . . . . _ : < [ } | 1 2 3 4 5 6 7 8 9 0 a b c d e $ $     ",
"    . . f f f g h i j k l m n o } p q r s t u v w x y z A $     ",
"    . . # # B C D E } F G H I J K L M N O P } Q R S T U V W     ",
"    . . _ X Y Z `  ...+.@.#.$.%.&.*.=.-.;.>.,.'.).!.~.U {.].    ",
"    . ^./.(._.:.<.[.}.|.1.2.3.4.5.6.7.8.} 9.0.a.b.c.d.U e.f.    ",
"    ^.g.h.i.j.k.l.m.n.o.p.q.r.s.t.u.v.w.x.y.z.A.B.C.D.U E.F.    ",
"    g.G.H.I.J.K.L.M.N.O.P.7.Q.R.S.T.U.V.W.X.Y.Z.`. +.+U ++@+    ",
"    . $ #+$+%+&+*+=+-+;+>+,+'+)+!+~+{+]+^+/+(+_+:+<+[+}+|+@+    ",
"    1+2+: 3+4+5+6+7+8+9+0+a+b+c+d+e+f+g+h+i+j+k+l+m+n+o+p+q+    ",
"    . r+s+t+u+v+w+x+y+z+A+B+C+D+E+F+G+H+I+J+K+L+M+N+U O+P+P+    ",
"    . Q+R+S+T+U+V+W+X+Y+Z+`+ @.@+@@@#@$@%@&@*@=@-@;@>@,@'@)@    ",
"    !@~@{@]@^@/@(@_@:@<@[@}@|@1@2@3@4@5@6@7@8@9@0@a@b@c@d@e@    ",
"    f@g@h@i@j@k@l@m@n@o@p@q@r@s@t@u@v@w@x@y@z@A@B@C@D@E@F@G@    ",
"    H@I@J@K@L@M@N@O@P@Q@R@S@T@U@V@W@X@Y@Z@`@ #.#+#@###$#%#&#    ",
"    H@*#{@=#-#;#>#,#'#)#!#~#{#]#^#/#(#_#:#<#[#}#|#1#2#3#4#4#    ",
"    H@2+5#6#7#8#9#0#a#b#c#d#e#f#g#h#i#j#k#l#m#n#o#p#q#r#s#t#    ",
"    u#v#w#x#y#z#A#B#C#D#E#F#G#H#I#J#K#L#M#N#O#P#Q#R#S#T#U#V#    ",
"    v#W#X#Y#Z#`# $.$+$@$#$$$%$&$*$=$-$;$>$,$'$)$!$~${$]$^$/$    ",
"    ($_$:$<$[$}$|$1$2$3$4$5$6$7$8$9$0$a$b$c$d$e$f$g$h$i$j$k$    ",
"    l$m$n$o$p$q$r$s$t$u$v$w$x$y$z$A$B$C$D$E$F$G$H$I$J$K$^$L$    ",
"    H@M$N$O$P$Q$R$S$T$U$V$W$X$Y$Z$`$ %.%+%@%#%$%%%&%*%=%-%/$    ",
"    ;%>%,%'%)%!%~%{%]%^%/%(%_%:%<%[%}%|%1%2%3%4%5%6%7%8%9%0%    ",
"    q+a%b%c%d%e%f%g%h%i%j%k%l%m%a@n%o%p%q%r%s%t%u%v%w%x%y%z%    ",
"    q+A%B%C%D%E%F%G%H%I%J%K%L%M%N%O%P%Q%R%S%T%U%V%W%X%Y%Z%`%    ",
"       &.&+&@&#&$&%&&&*&U =&-&;&>&,&'&)&!&~&{&]&^&/&2#/&(&      ",
"        _&:&<&[&}&|&1&2&3&4&5&6&7&8&9&0&a&b&c&d&e&f&g&h&        ",
"                                                                ",
"                                                                "};
