<?xml version="1.0" standalone="no"?>
<!DOCTYPE svg PUBLIC "-//W3C//DTD SVG 20010904//EN"
 "http://www.w3.org/TR/2001/REC-SVG-20010904/DTD/svg10.dtd">
<svg version="1.0" xmlns="http://www.w3.org/2000/svg"
 width="4158.000000pt" height="4158.000000pt" viewBox="0 0 4158.000000 4158.000000"
 preserveAspectRatio="xMidYMid meet">
<metadata>
Created by potrace 1.11, written by Peter Selinger 2001-2013
</metadata>
<g transform="translate(0.000000,4158.000000) scale(0.100000,-0.100000)"
fill="#000000" stroke="none">
<path d="M31558 41575 c-2 -1 -61 -6 -133 -9 -71 -4 -143 -9 -160 -11 -16 -2
-62 -7 -102 -10 -71 -6 -109 -10 -188 -19 -22 -3 -67 -8 -100 -12 -33 -3 -69
-8 -80 -10 -11 -2 -40 -6 -65 -9 -25 -3 -56 -8 -70 -10 -41 -8 -93 -16 -120
-20 -14 -2 -64 -10 -110 -19 -47 -8 -101 -18 -120 -21 -19 -3 -42 -8 -50 -10
-8 -2 -31 -7 -50 -10 -19 -3 -73 -15 -120 -25 -47 -10 -96 -21 -110 -23 -31
-6 -193 -44 -240 -57 -46 -12 -272 -71 -285 -74 -154 -36 -942 -292 -1060
-345 -11 -5 -92 -37 -180 -71 -170 -66 -449 -184 -587 -248 -46 -21 -98 -45
-117 -53 -59 -24 -561 -275 -666 -332 -55 -30 -130 -70 -167 -90 -37 -20 -88
-50 -115 -65 -26 -16 -55 -31 -63 -35 -8 -5 -24 -13 -35 -20 -11 -7 -59 -34
-105 -61 -47 -27 -92 -55 -100 -62 -8 -6 -39 -24 -68 -39 -29 -15 -55 -31 -57
-36 -3 -4 113 33 257 82 238 82 366 124 543 179 121 37 500 151 515 155 8 2
71 19 140 38 174 49 474 127 507 133 16 3 42 9 58 14 26 8 165 41 230 55 11 2
72 16 135 30 154 34 209 46 245 51 17 3 46 9 65 14 19 5 64 14 100 19 36 6 76
13 90 16 14 3 66 13 115 21 50 8 99 16 110 18 80 15 144 25 195 32 25 3 70 9
100 14 30 5 80 11 111 15 31 3 65 7 75 9 11 2 53 7 94 11 41 4 82 9 91 10 9 2
56 6 105 10 49 4 97 9 106 10 133 26 938 25 1108 0 14 -2 50 -6 80 -10 30 -3
80 -10 110 -15 30 -5 69 -11 85 -13 169 -24 442 -102 595 -169 139 -61 341
-181 454 -270 434 -343 723 -672 1008 -1149 64 -106 208 -387 261 -509 70
-163 91 -216 162 -417 65 -184 168 -547 204 -723 53 -259 70 -350 101 -545 6
-38 13 -86 15 -105 2 -19 6 -51 9 -70 20 -145 45 -394 52 -505 2 -38 6 -97 9
-130 26 -319 26 -1049 0 -1520 -5 -102 -17 -274 -21 -310 -2 -22 -6 -69 -9
-105 -9 -114 -15 -184 -20 -230 -6 -52 -14 -127 -20 -190 -2 -25 -7 -66 -10
-91 -4 -25 -8 -63 -10 -85 -6 -59 -15 -136 -20 -164 -4 -27 -12 -84 -20 -152
-3 -24 -8 -59 -11 -78 -5 -38 -12 -85 -20 -140 -2 -19 -9 -64 -15 -100 -6 -36
-12 -78 -15 -95 -2 -16 -5 -39 -8 -50 -2 -11 -7 -40 -11 -65 -3 -25 -9 -58
-11 -75 -5 -33 -38 -217 -59 -335 -22 -118 -53 -281 -90 -460 -19 -91 -36
-176 -39 -190 -2 -14 -10 -47 -16 -75 -15 -64 -19 -83 -25 -120 -3 -16 -10
-43 -15 -60 -5 -16 -12 -43 -15 -60 -8 -50 -26 -127 -81 -355 -20 -80 -37
-152 -39 -160 -3 -17 -103 -404 -140 -545 -13 -49 -32 -119 -43 -155 -11 -36
-32 -110 -47 -165 -15 -55 -37 -136 -50 -180 -14 -44 -47 -159 -75 -255 -78
-264 -227 -742 -284 -910 -14 -41 -26 -76 -26 -78 0 -2 -57 0 -127 4 -198 11
-207 11 -403 19 -133 5 -8536 10 -8990 6 l-55 -1 1 -1641 0 -1641 3765 -3
c2070 -1 3802 -5 3849 -9 47 -3 123 -8 170 -10 217 -12 507 -40 517 -50 3 -3
-3 -27 -15 -53 -42 -100 -202 -463 -252 -573 -29 -63 -58 -128 -65 -145 -57
-128 -318 -691 -379 -819 -42 -87 -76 -159 -76 -161 0 -14 -546 -1114 -561
-1129 -5 -6 -425 -10 -1071 -12 -958 -1 -1241 -5 -1478 -19 -41 -3 -118 -7
-170 -10 -52 -3 -117 -7 -145 -10 -27 -3 -81 -7 -120 -10 -86 -6 -178 -15
-225 -20 -19 -3 -64 -7 -100 -10 -57 -5 -121 -12 -260 -30 -89 -12 -321 -46
-370 -55 -30 -5 -68 -12 -85 -15 -16 -3 -43 -7 -60 -10 -16 -3 -40 -7 -51 -9
-12 -2 -39 -7 -60 -10 -67 -11 -352 -76 -514 -117 -604 -154 -1161 -391 -1585
-672 -69 -46 -236 -170 -279 -207 -112 -96 -155 -136 -263 -247 -423 -434
-729 -989 -924 -1677 -22 -77 -41 -149 -43 -160 -2 -12 -13 -59 -25 -106 -20
-84 -44 -203 -55 -270 -3 -19 -8 -48 -11 -65 -9 -55 -24 -150 -31 -200 -4 -27
-8 -55 -10 -61 -1 -6 -5 -42 -9 -80 -3 -38 -8 -82 -10 -99 -2 -16 -7 -64 -10
-105 -3 -41 -8 -88 -10 -105 -26 -220 -26 -994 0 -1270 1 -16 6 -64 9 -105 4
-41 9 -86 11 -100 2 -14 7 -50 10 -80 4 -30 9 -64 11 -75 2 -11 7 -40 10 -65
3 -25 17 -101 31 -170 13 -69 26 -136 29 -150 3 -14 23 -95 45 -180 230 -883
705 -1616 1376 -2122 178 -135 394 -271 573 -362 94 -48 94 -48 72 -72 -9 -10
-40 -48 -67 -84 -28 -36 -52 -67 -55 -70 -3 -3 -21 -25 -40 -50 -53 -68 -383
-484 -390 -490 -3 -3 -52 -63 -110 -135 -104 -130 -621 -753 -671 -810 -15
-16 -95 -111 -180 -210 -84 -99 -171 -200 -193 -225 -23 -25 -52 -59 -66 -76
-23 -27 -142 -164 -165 -190 -5 -6 -37 -42 -70 -79 -33 -38 -65 -73 -71 -79
-5 -6 -50 -56 -99 -111 -49 -55 -93 -105 -99 -111 -21 -21 -171 -187 -199
-219 -15 -18 -47 -53 -70 -77 -23 -24 -91 -98 -152 -163 -60 -65 -147 -157
-191 -204 -45 -48 -96 -102 -114 -121 -257 -281 -1264 -1288 -1560 -1560 -19
-18 -87 -81 -150 -140 -63 -59 -127 -118 -141 -131 -15 -13 -68 -62 -119 -109
-51 -47 -98 -89 -104 -95 -7 -5 -36 -32 -67 -60 -30 -27 -88 -79 -128 -115
-41 -36 -89 -78 -107 -95 -17 -16 -45 -41 -60 -54 -16 -14 -81 -70 -145 -125
-64 -56 -140 -121 -170 -146 -29 -25 -60 -52 -69 -60 -9 -8 -83 -71 -165 -140
-83 -68 -155 -129 -161 -135 -25 -23 -416 -338 -464 -375 -19 -14 -47 -36 -64
-50 -16 -14 -104 -82 -195 -152 -91 -70 -171 -131 -176 -136 -118 -98 -1102
-802 -1151 -823 -5 -2 -83 -53 -174 -113 -310 -205 -749 -473 -1025 -627 -44
-24 -88 -48 -97 -54 -119 -71 -883 -465 -902 -465 -2 0 -42 -17 -88 -39 -205
-95 -446 -198 -673 -286 -113 -45 -328 -124 -350 -129 -5 -2 -17 -6 -25 -9
-114 -49 -761 -235 -942 -271 -13 -3 -48 -10 -78 -16 -30 -6 -66 -13 -80 -16
-14 -3 -36 -7 -50 -10 -56 -11 -298 -53 -335 -58 -320 -43 -550 -60 -835 -59
-169 0 -419 10 -450 18 -8 2 -46 6 -83 10 -37 3 -76 8 -85 9 -9 2 -44 7 -77
11 -33 3 -78 10 -100 15 -22 5 -69 14 -105 20 -36 7 -78 16 -95 21 -16 4 -44
11 -60 13 -91 16 -390 110 -550 174 -297 118 -642 316 -874 500 -104 82 -340
313 -412 402 -24 30 -46 57 -50 60 -16 13 -149 197 -214 295 -329 499 -597
1145 -790 1908 -30 118 -62 249 -71 293 -9 43 -18 87 -20 96 -2 10 -6 28 -9
40 -4 19 -44 232 -70 373 -3 17 -14 91 -26 165 -11 74 -22 146 -24 160 -2 14
-11 81 -20 150 -8 69 -17 134 -19 145 -2 11 -7 56 -11 99 -3 44 -8 93 -10 110
-2 17 -6 58 -10 91 -3 33 -8 83 -10 110 -6 52 -10 117 -20 275 -4 52 -8 120
-10 150 -27 389 -27 1374 0 1800 2 36 7 110 10 165 4 55 8 125 10 155 2 30 6
80 9 110 3 30 8 87 11 125 3 39 8 90 10 115 2 25 7 74 10 110 4 36 8 76 10 90
2 14 7 59 10 100 4 41 9 84 11 95 2 11 6 45 10 75 3 30 7 66 9 80 8 54 15 107
20 150 4 25 8 56 10 70 2 14 9 63 15 110 6 47 13 96 16 110 2 14 7 41 9 60 3
19 14 87 25 150 11 63 22 131 25 150 3 19 10 60 16 90 6 30 12 66 15 80 2 14
7 36 9 50 5 23 9 43 20 108 2 12 6 30 9 40 3 9 7 33 10 52 3 19 26 127 51 240
26 113 48 216 51 230 3 14 7 33 10 42 3 9 6 25 8 35 9 42 90 356 118 453 16
58 32 113 33 123 2 9 7 22 10 27 3 6 3 10 0 10 -3 0 -13 -17 -22 -37 -8 -21
-30 -69 -48 -108 -41 -91 -179 -425 -217 -529 -145 -395 -244 -694 -338 -1026
-40 -141 -131 -488 -144 -550 -3 -14 -21 -95 -41 -180 -32 -138 -85 -389 -99
-463 -3 -15 -10 -54 -16 -87 -6 -33 -13 -72 -16 -87 -2 -16 -9 -51 -15 -79 -5
-28 -12 -64 -14 -80 -8 -47 -15 -88 -19 -110 -2 -12 -7 -45 -11 -74 -4 -29 -9
-62 -11 -74 -4 -22 -51 -343 -59 -408 -17 -130 -23 -183 -30 -243 -8 -76 -15
-136 -20 -175 -2 -19 -7 -71 -10 -115 -3 -44 -8 -91 -10 -105 -2 -14 -6 -65
-10 -115 -3 -49 -8 -106 -10 -125 -2 -19 -7 -82 -10 -140 -3 -58 -8 -130 -10
-160 -4 -52 -10 -179 -21 -445 -7 -171 -7 -878 0 -1081 6 -165 10 -252 21
-439 12 -191 15 -232 20 -295 4 -36 8 -90 10 -120 5 -55 11 -122 20 -215 3
-27 7 -70 9 -95 3 -25 7 -67 11 -95 3 -27 10 -84 15 -125 6 -41 12 -95 15
-120 3 -25 8 -56 10 -70 2 -14 7 -46 10 -72 4 -40 16 -125 30 -213 2 -11 6
-42 10 -70 4 -27 9 -52 10 -55 2 -3 6 -26 10 -50 6 -45 21 -133 30 -180 3 -14
9 -50 15 -80 13 -71 18 -94 30 -155 6 -27 12 -59 14 -70 17 -81 62 -281 87
-385 17 -69 32 -132 34 -140 49 -223 251 -863 361 -1145 146 -372 342 -785
509 -1070 74 -127 251 -403 292 -455 6 -8 52 -67 101 -131 49 -64 103 -132
118 -150 16 -18 47 -53 68 -78 83 -97 368 -370 470 -451 153 -121 362 -264
484 -330 15 -8 49 -28 76 -44 53 -31 361 -186 370 -186 3 0 29 -11 58 -24 87
-39 171 -73 198 -81 14 -4 39 -13 55 -20 35 -16 250 -85 350 -114 313 -89 693
-157 1040 -187 306 -26 916 -26 1165 0 19 2 68 7 108 10 125 11 242 24 277 31
11 2 47 7 80 10 33 4 69 8 80 11 11 2 36 6 55 8 207 26 687 124 1009 207 108
28 201 52 206 53 6 1 44 13 85 25 41 12 129 38 195 58 256 75 866 287 1050
364 17 6 35 13 40 15 15 3 433 178 497 208 31 14 59 26 61 26 6 0 341 153 492
225 139 65 516 254 655 327 52 28 138 73 190 101 52 27 100 53 105 57 6 4 44
25 85 47 41 22 98 53 125 68 28 16 66 37 85 48 746 416 1773 1083 2555 1658
272 201 937 708 955 729 3 3 59 48 125 100 66 52 122 97 125 100 3 3 39 32 80
65 41 32 80 64 86 70 6 5 30 26 54 45 24 19 89 73 144 119 56 46 121 100 145
120 24 20 49 41 55 46 6 6 38 32 71 60 33 27 65 54 71 60 6 5 38 33 70 60 116
100 425 368 448 390 11 11 175 157 235 210 19 16 53 47 75 68 23 21 74 69 115
105 40 36 86 78 101 92 15 14 56 52 91 84 569 524 1379 1324 1895 1872 232
245 296 313 319 339 15 17 71 77 124 134 53 57 103 112 111 121 8 9 53 59 100
110 47 51 93 102 103 114 10 12 37 41 60 66 23 25 60 66 82 90 22 25 72 81
111 125 104 116 241 271 304 345 30 35 60 68 65 74 6 6 23 27 39 46 15 19 45
53 65 75 20 22 58 67 86 100 27 33 62 74 76 90 68 75 626 746 721 866 15 19
38 48 51 64 20 24 345 428 390 485 103 129 264 337 430 555 114 149 210 275
214 280 12 15 134 178 296 398 81 108 147 199 147 201 0 2 -402 5 -892 5 -491
0 -931 3 -978 6 -47 2 -134 7 -195 10 -60 3 -128 8 -150 10 -22 2 -76 7 -120
11 -44 3 -89 8 -100 9 -11 2 -47 6 -80 10 -33 3 -69 8 -80 10 -11 2 -42 7 -69
10 -65 8 -257 41 -381 66 -362 73 -760 201 -1079 346 -56 25 -103 47 -105 49
-2 2 7 19 20 38 29 42 171 229 179 236 4 3 26 32 51 65 24 33 46 62 50 65 3 3
45 59 94 125 49 66 92 122 95 125 4 3 51 66 105 140 116 157 108 147 138 185
20 26 308 420 421 576 23 31 50 69 61 84 11 15 52 73 92 129 40 55 76 106 80
111 7 9 235 333 358 509 89 127 213 309 380 556 91 135 174 256 184 269 l18
23 45 -64 c57 -79 166 -182 241 -226 236 -141 629 -233 1132 -267 50 -4 108
-9 130 -12 22 -3 578 -7 1235 -9 657 -3 1212 -5 1232 -7 l37 -2 -95 -150 c-52
-82 -97 -157 -101 -165 -4 -8 -19 -33 -34 -55 -14 -22 -120 -186 -234 -365
-306 -477 -761 -1155 -1072 -1598 -46 -64 -87 -124 -93 -132 -36 -54 -458
-642 -482 -672 -16 -21 -27 -41 -25 -45 4 -6 9686 -10 9730 -4 8 1 4 10398 -5
10476 -3 28 -9 100 -13 160 -3 61 -8 130 -11 155 -7 73 -14 143 -19 180 -2 19
-12 91 -20 160 -9 69 -18 136 -20 150 -2 14 -7 43 -10 65 -8 55 -32 180 -57
300 -11 55 -21 107 -23 115 -2 8 -13 56 -25 105 -12 50 -23 97 -25 105 -12 54
-101 345 -134 442 -204 589 -494 1106 -874 1558 -86 103 -388 407 -476 480
-30 25 -61 52 -70 61 -9 9 -70 57 -136 108 -66 50 -124 95 -130 99 -75 58
-330 222 -345 222 -4 0 -15 -30 -25 -67 -9 -38 -35 -133 -57 -213 -21 -80 -41
-152 -43 -161 -4 -21 -93 -335 -106 -374 -5 -16 -27 -93 -50 -170 -142 -486
-254 -841 -432 -1370 -159 -470 -299 -867 -409 -1155 -32 -85 -61 -162 -63
-170 -19 -75 -547 -1390 -641 -1598 -13 -29 -24 -54 -24 -56 0 -2 -10 -25 -22
-52 -12 -27 -23 -51 -23 -54 -4 -14 -185 -426 -304 -692 -11 -24 -30 -68 -44
-98 -13 -30 -37 -82 -52 -115 -15 -33 -42 -91 -60 -130 -105 -226 -165 -354
-220 -470 -34 -71 -83 -177 -110 -235 -27 -58 -182 -369 -343 -692 l-294 -588
-1902 -1 c-1045 0 -1937 -2 -1981 -4 -169 -7 -330 -17 -337 -21 -29 -18 -2 40
94 202 61 104 119 203 128 219 9 17 88 154 175 305 87 151 174 304 193 340 19
36 38 67 41 70 3 3 14 21 23 40 10 19 31 60 49 90 17 30 45 80 62 110 16 30
62 114 102 185 40 72 86 155 102 185 17 30 41 75 55 100 26 47 76 139 148 275
24 44 57 107 75 140 88 164 118 221 185 350 40 77 94 181 120 230 26 50 77
149 113 220 l66 130 1928 -1 c1060 0 1930 3 1933 7 8 11 4 564 -5 669 -21 274
-48 443 -107 654 -176 637 -562 1057 -1197 1303 -283 109 -752 216 -1131 258
-30 3 -56 8 -58 9 -1 2 8 28 22 57 13 30 53 124 89 209 36 85 83 198 105 250
22 52 57 138 77 190 21 52 42 99 46 105 5 5 9 15 9 23 0 7 9 33 20 58 27 58
205 512 305 774 42 113 81 214 85 225 23 56 99 263 105 285 4 14 13 39 20 55
14 31 41 105 130 360 29 83 55 157 58 165 8 19 149 438 172 508 13 40 21 52
33 48 10 -3 49 -7 87 -11 39 -3 115 -10 170 -16 55 -5 120 -12 145 -15 25 -2
61 -7 80 -9 19 -3 53 -8 75 -10 22 -3 114 -17 205 -31 885 -137 1654 -389
2296 -754 58 -33 109 -59 111 -56 5 4 133 517 191 761 156 654 348 1638 417
2130 3 23 8 52 10 65 3 14 7 45 10 70 4 25 10 68 15 95 5 28 12 72 15 98 4 27
8 56 9 65 2 10 7 44 11 77 4 32 8 67 10 76 2 10 6 46 10 80 4 35 8 66 10 69 2
3 6 41 10 85 4 44 9 82 10 85 2 3 6 38 10 78 3 41 8 81 10 90 2 15 17 146 20
182 1 8 5 49 9 90 4 41 9 91 11 110 2 19 6 62 9 95 3 33 8 88 11 123 3 34 7
88 10 120 19 213 36 492 52 832 16 348 8 1472 -12 1685 -2 22 -6 90 -10 150
-6 108 -10 170 -20 270 -3 28 -7 77 -10 110 -6 72 -15 161 -20 195 -2 14 -6
55 -10 92 -3 37 -8 75 -10 86 -2 10 -6 45 -9 78 -8 74 -28 213 -46 324 -5 30
-11 71 -14 90 -3 19 -13 76 -21 125 -9 50 -18 99 -20 110 -9 65 -62 322 -92
450 -19 83 -36 157 -38 165 -14 63 -80 316 -95 365 -75 253 -127 419 -140 450
-4 11 -25 67 -45 125 -66 185 -199 516 -246 610 -4 8 -53 107 -108 220 -112
226 -129 257 -238 440 -103 174 -294 463 -338 513 -6 7 -42 53 -80 102 -290
374 -656 732 -1005 983 -47 34 -91 66 -98 73 -71 61 -403 241 -592 322 -137
58 -386 146 -465 163 -5 1 -62 16 -125 33 -178 46 -346 79 -555 106 -66 9
-131 18 -145 20 -14 2 -68 7 -120 10 -52 4 -111 9 -130 11 -40 5 -747 13 -752
9z m2823 -22448 c0 -14 0 -3137 -1 -3218 l0 -56 -1635 0 c-899 0 -1635 2
-1635 3 0 2 47 78 104 171 223 363 639 1062 771 1298 13 22 46 80 74 128 28
49 51 90 51 92 0 1 31 56 69 121 67 118 363 655 456 829 27 50 60 113 75 140
44 81 118 221 188 355 36 69 69 130 74 137 13 16 1408 16 1409 0z m-5810 -279
c-367 -611 -790 -1289 -1139 -1823 -154 -235 -357 -542 -373 -563 l-18 -24
-44 94 c-38 80 -76 179 -83 213 -1 6 -7 30 -14 55 -7 25 -14 54 -16 65 -2 11
-6 29 -8 40 -45 224 -49 602 -10 860 75 490 269 814 619 1032 64 41 265 127
365 158 119 36 291 78 370 90 14 2 63 11 108 19 46 9 87 15 90 14 4 -1 25 1
47 5 22 4 67 9 99 12 33 3 61 6 62 8 1 1 25 3 53 5 l50 2 -158 -262z"/>
<path d="M1283 34332 c-20 -3 -17 -10 40 -92 34 -49 118 -172 187 -272 68
-101 128 -184 132 -186 4 -2 8 -8 8 -14 0 -8 42 -73 73 -113 4 -5 85 -122 179
-260 94 -137 220 -323 282 -413 61 -90 116 -171 121 -180 6 -9 13 -19 16 -22
3 -3 59 -84 124 -180 140 -205 288 -422 401 -587 44 -65 129 -190 189 -277
184 -271 293 -430 315 -461 32 -45 421 -614 506 -740 41 -60 88 -130 105 -155
18 -25 75 -108 127 -185 53 -77 142 -207 198 -290 57 -82 160 -233 229 -335
70 -102 165 -241 212 -310 145 -212 393 -575 591 -865 82 -121 168 -247 192
-280 23 -33 167 -244 320 -470 154 -225 283 -414 288 -420 4 -5 66 -95 137
-200 71 -104 290 -426 488 -715 197 -289 371 -543 385 -565 15 -22 29 -42 32
-45 3 -3 43 -61 90 -130 98 -146 151 -224 375 -550 55 -79 153 -224 277 -405
41 -60 128 -188 194 -284 65 -96 169 -247 229 -336 61 -88 187 -272 280 -408
94 -137 177 -259 185 -272 8 -13 56 -84 106 -157 50 -73 125 -181 165 -241
154 -224 218 -317 340 -497 l126 -185 -1 -4770 c-1 -2623 2 -4774 5 -4780 5
-7 774 -10 2276 -9 l2268 0 2 4782 2 4781 34 48 c18 26 96 138 172 248 76 110
153 220 170 245 34 49 112 162 214 310 36 53 79 114 94 135 16 22 120 173 232
335 112 162 222 322 245 355 23 33 103 149 178 257 135 195 361 521 476 688
107 154 163 235 198 285 36 53 110 160 205 298 31 45 86 125 123 177 37 52
101 145 142 205 41 61 160 232 264 382 104 150 236 341 294 424 58 84 128 184
155 224 28 40 77 112 110 161 33 49 63 91 66 94 3 3 34 48 69 100 35 52 66 97
69 100 3 3 20 25 36 50 64 95 314 456 324 467 6 7 11 16 11 22 0 5 3 11 8 13
4 2 41 53 82 113 41 61 78 115 82 120 5 6 105 150 223 320 117 171 271 393
341 495 71 102 132 187 136 188 4 2 8 8 8 13 0 5 26 46 58 91 32 46 89 128
127 183 38 55 85 123 105 151 19 28 59 86 89 130 30 43 76 109 102 145 27 37
49 69 49 73 0 3 7 14 15 23 8 10 95 135 194 278 231 335 324 469 478 690 68
99 145 209 169 245 66 96 208 301 295 426 41 60 102 147 134 194 32 47 77 112
100 145 23 33 145 209 270 390 290 419 331 479 374 540 19 28 69 100 110 160
41 61 77 112 80 115 3 3 32 43 63 90 31 47 87 128 123 180 37 52 79 113 93
135 15 22 31 45 37 52 5 6 60 84 120 172 99 145 181 263 359 519 32 46 55 86
52 89 -5 6 -5275 8 -5280 2 -3 -4 -97 -148 -248 -379 -48 -74 -93 -142 -98
-150 -6 -8 -55 -82 -109 -165 -54 -82 -155 -238 -226 -345 -121 -183 -192
-292 -430 -655 -109 -166 -253 -386 -456 -695 -74 -112 -189 -288 -256 -390
-67 -102 -173 -264 -236 -360 -63 -96 -170 -258 -236 -360 -66 -102 -125 -192
-131 -200 -6 -8 -84 -127 -175 -265 -90 -137 -256 -392 -370 -565 -114 -173
-298 -454 -410 -625 -314 -478 -665 -1013 -837 -1275 -63 -96 -153 -233 -200
-305 -140 -214 -294 -450 -416 -635 -64 -96 -162 -247 -220 -335 -58 -88 -163
-249 -235 -358 l-130 -198 -84 128 c-45 70 -87 135 -93 143 -5 8 -53 83 -106
165 -53 83 -134 206 -178 275 -45 69 -232 358 -416 643 -184 284 -509 786
-722 1115 -213 328 -483 746 -599 927 -117 182 -217 332 -221 333 -4 2 -8 7
-8 12 0 4 -74 122 -164 262 -91 139 -213 327 -271 418 -175 272 -804 1244
-818 1263 -6 9 -40 61 -74 115 -120 186 -185 288 -279 432 -127 195 -212 326
-349 537 -107 167 -213 330 -270 418 -29 44 -173 267 -320 495 -148 228 -292
452 -322 498 -49 74 -57 82 -86 83 -130 2 -5057 3 -5074 1z"/>
</g>
</svg>
