<?xml version="1.0" encoding="UTF-8" standalone="no"?>
<svg
   xmlns:dc="http://purl.org/dc/elements/1.1/"
   xmlns:cc="http://creativecommons.org/ns#"
   xmlns:rdf="http://www.w3.org/1999/02/22-rdf-syntax-ns#"
   xmlns:svg="http://www.w3.org/2000/svg"
   xmlns="http://www.w3.org/2000/svg"
   viewBox="0 0 460.33331 213.63281"
   height="213.63281"
   width="460.33331"
   xml:space="preserve"
   id="svg966"
   version="1.1">
  <metadata
     id="metadata972">
    <rdf:RDF>
      <cc:Work
         rdf:about="">
        <dc:format>image/svg+xml</dc:format>
        <dc:type
           rdf:resource="http://purl.org/dc/dcmitype/StillImage" />
        <dc:title></dc:title>
      </cc:Work>
    </rdf:RDF>
  </metadata>
  <defs
     id="defs970">
    <clipPath
       id="clipPath982"
       clipPathUnits="userSpaceOnUse">
      <path
         id="path980"
         d="M 0,841.89 H 595.276 V 0 H 0 Z" />
    </clipPath>
    <clipPath
       id="clipPath1042"
       clipPathUnits="userSpaceOnUse">
      <path
         id="path1040"
         d="M 0,841.89 H 595.276 V 0 H 0 Z" />
    </clipPath>
    <clipPath
       id="clipPath1100"
       clipPathUnits="userSpaceOnUse">
      <path
         id="path1098"
         d="M 0,841.89 H 595.276 V 0 H 0 Z" />
    </clipPath>
    <clipPath
       id="clipPath1162"
       clipPathUnits="userSpaceOnUse">
      <path
         id="path1160"
         d="M 0,841.89 H 595.276 V 0 H 0 Z" />
    </clipPath>
  </defs>
  <g
     style="display:inline"
     transform="matrix(1.3333333,0,0,-1.3333333,-177.12173,1058.517)"
     id="g974">
    <g
       id="g976"
       style="opacity:1;stop-opacity:1">
      <g
         style="opacity:1;stop-opacity:1"
         id="g1405">
        <g
           transform="translate(259.9795,729.2018)"
           id="g984">
          <path
             id="path986"
             style="fill:#023158;fill-opacity:1;fill-rule:nonzero;stroke:none"
             d="M 0,0 -0.001,56.584 H 93.497 V 0 Z m 96.576,-8.103 c 3.374,0 6.112,2.736 6.112,6.11 v 60.57 c 0,3.374 -2.738,6.109 -6.112,6.109 H -3.08 c -3.374,0 -6.109,-2.735 -6.109,-6.109 v -60.57 c 0,-3.374 2.735,-6.11 6.109,-6.11 h 37.773 l 0.463,-10.349 c -4.031,-1.031 -9.154,-1.213 -9.154,-6.888 v -0.376 h 41.493 v 0.376 c 0,5.706 -5.4,5.927 -9.155,6.888 l 0.465,10.349 z" />
        </g>
        <g
           transform="translate(142.0303,717.7936)"
           id="g988">
          <path
             id="path990"
             style="fill:#023158;fill-opacity:1;fill-rule:nonzero;stroke:none"
             d="M 0,0 -0.001,56.583 93.498,66.768 V 10.184 Z m 96.577,2.417 c 3.374,0.367 6.111,3.4 6.111,6.774 v 60.57 c 0,3.374 -2.737,5.811 -6.111,5.444 L -3.08,64.35 c -3.374,-0.367 -6.109,-3.4 -6.109,-6.774 V -2.995 c 0,-3.373 2.735,-5.811 6.109,-5.443 l 37.773,4.114 0.463,-10.299 c -4.031,-1.471 -9.154,-2.21 -9.154,-7.885 v -0.376 l 41.494,4.519 v 0.376 c 0,5.706 -5.401,5.34 -9.156,5.891 l 0.465,10.4 z" />
        </g>
        <g
           transform="translate(375.4033,727.7335)"
           id="g992">
          <path
             id="path994"
             style="fill:#023158;fill-opacity:1;fill-rule:nonzero;stroke:none"
             d="M 0,0 -0.001,56.584 93.497,42.935 v -56.584 z m 96.576,-22.201 c 3.374,-0.493 6.112,1.843 6.112,5.217 v 60.57 c 0,3.374 -2.738,6.509 -6.112,7.001 L -3.08,65.135 c -3.374,0.493 -6.109,-1.843 -6.109,-5.217 v -60.57 c 0,-3.374 2.735,-6.509 6.109,-7.001 l 37.772,-5.514 0.464,-10.417 c -4.031,-0.443 -9.154,0.123 -9.154,-5.552 v -0.376 l 41.493,-6.057 v 0.376 c 0,5.705 -5.4,6.715 -9.155,8.224 l 0.465,10.282 z" />
        </g>
        <path
           id="path998"
           style="opacity:1;fill:#023158;fill-opacity:1;fill-rule:nonzero;stroke:none;stroke-width:1.33333;stop-opacity:1"
           d="m 234.56445,19.166016 c -21.8,0 -43.58247,15.020287 -45.23047,45.126953 -0.25466,4.617333 -3.45507,4.046411 -3.45507,12.205078 0.001,0.01467 0.003,0.03159 0.004,0.04492 -0.001,0.126666 -0.004,0.246906 -0.004,0.378906 0.38666,3.401333 0.88415,6.587979 1.52148,9.445313 0.044,0.203999 0.0881,0.407947 0.13477,0.613281 0.008,0.03467 0.0161,0.07142 0.0254,0.107422 0.64133,2.766666 1.48819,5.462109 2.63086,7.662109 1.47733,2.876 3.33163,4.702557 5.65429,5.087891 2.24934,9.942671 3.49182,19.138791 10.64649,24.828131 1.39866,1.11066 2.74808,2.12007 4.08008,3.08007 -13.54934,16.256 -61.40235,13.78809 -61.40235,49.85743 0,2.67333 -1.44934,30.82607 3.22266,32.83007 2.88305,1.23725 6.72974,2.29412 11.26172,3.19922 l -4.46485,-41.37304 c -0.30266,-2.79334 0.62917,-5.57935 2.5625,-7.66602 1.932,-2.08533 4.68489,-3.28125 7.57422,-3.28125 H 299.8711 c 2.89067,0 5.64346,1.19592 7.57813,3.28125 1.932,2.08667 2.86517,4.87268 2.5625,7.66602 l -4.20508,38.95507 c 3.5672,-0.69567 6.81053,-1.43368 9.57227,-2.22265 8.472,-2.42134 4.65234,-27.68467 4.65234,-31.38867 0,-35.87334 -47.98306,-33.76143 -61.40039,-49.85743 1.332,-0.96 2.68017,-1.96941 4.07617,-3.08007 7.15467,-5.68934 8.40106,-14.88546 10.65039,-24.828131 2.32134,-0.386667 4.17368,-2.211891 5.65235,-5.087891 1.14133,-2.2 1.99086,-4.895443 2.63085,-7.662109 0.008,-0.036 0.0161,-0.07276 0.0254,-0.107422 0.044,-0.205334 0.0908,-0.407948 0.13476,-0.613281 0.63733,-2.856 1.13615,-6.041313 1.52149,-9.445313 0,-0.132 -0.003,-0.25224 -0.006,-0.378906 0.003,-0.01333 0.005,-0.03025 0.006,-0.04492 0,-8.158667 -3.20042,-7.587745 -3.45508,-12.205078 -1.64534,-30.062666 -23.4814,-45.126953 -45.30274,-45.126953 z m 0.041,12.533203 c 16.34,-0.0013 32.67782,8.165766 32.89648,24.509765 -1.41866,-3.609333 -3.23954,-6.527375 -5.79687,-8.359375 -0.39734,-0.478666 -0.80585,-0.942005 -1.22852,-1.388671 -1.88933,-3.992 -6.87287,-6.177834 -12.6582,-7.3125 -3.06933,-0.729334 -8.1447,-1.095704 -13.2207,-1.095704 -5.07334,0 -10.14285,0.36637 -13.21485,1.095704 -5.78533,1.134666 -10.76887,3.3205 -12.6582,7.3125 -0.42133,0.446666 -0.83118,0.910005 -1.22852,1.388671 -2.55733,1.832 -4.37954,4.750042 -5.79687,8.359375 0.21867,-16.337333 16.56358,-24.508432 32.90625,-24.509765 z m 0.32226,148.597661 c -10.916,0 -19.76562,4.42033 -19.76562,9.875 0,5.45466 8.84962,9.87695 19.76562,9.87695 10.91734,0 19.76758,-4.42229 19.76758,-9.87695 0,-5.45467 -8.85024,-9.875 -19.76758,-9.875 z"
           transform="matrix(0.75000002,0,0,-0.75000002,132.8413,793.8878)" />
        <g
           transform="translate(409.9619,753.3888)"
           id="g1000">
          <path
             id="path1002"
             style="fill:#023158;fill-opacity:1;fill-rule:nonzero;stroke:none"
             d="M 0,0 C 4.577,2.409 5.86,7.958 3.671,11.477 2.418,10.842 -0.662,9.219 -3.864,7.525 l -2.205,3.397 c -0.39,0.601 -1.14,0.845 -1.675,0.546 -0.535,-0.3 -0.652,-1.03 -0.263,-1.631 L -5.831,6.485 C -8.925,4.848 -11.806,3.322 -12.904,2.754 -10.715,-0.766 -4.577,-2.409 0,0" />
        </g>
        <g
           transform="translate(422.3564,760.9738)"
           id="g1004">
          <path
             id="path1006"
             style="fill:#023158;fill-opacity:1;fill-rule:nonzero;stroke:none"
             d="M 0,0 C 1.746,-0.295 3.161,0.882 3.161,2.628 3.161,4.375 1.746,6.029 0,6.324 -1.747,6.619 -3.162,5.442 -3.162,3.695 -3.162,1.949 -1.747,0.295 0,0" />
        </g>
        <g
           transform="translate(434.6436,765.443)"
           id="g1008">
          <path
             id="path1010"
             style="fill:#023158;fill-opacity:1;fill-rule:nonzero;stroke:none"
             d="M 0,0 C -0.668,0.854 -1.09,1.892 -1.138,2.965 L -9.047,1.146 c 0.679,-0.847 1.112,-1.884 1.17,-2.957 z" />
        </g>
        <g
           transform="translate(449.7178,752.4889)"
           id="g1012">
          <path
             id="path1014"
             style="fill:#023158;fill-opacity:1;fill-rule:nonzero;stroke:none"
             d="M 0,0 -0.585,4.022 C -0.694,4.775 -1.324,5.425 -2.066,5.55 l -2.913,0.492 -3.326,5.98 c -0.629,-0.685 -1.522,-1.105 -2.547,-1.149 l 3.093,-5.561 -1.77,-2.261 c -0.39,-0.497 -0.349,-1.26 0.101,-1.853 l 2.515,-3.317 c 0.297,-0.39 0.713,-0.635 1.132,-0.706 0.348,-0.058 0.698,0.004 0.982,0.202 0.624,0.438 0.691,1.373 0.148,2.09 l -1.751,2.308 1.045,1.334 1.999,-0.338 0.394,-2.712 c 0.122,-0.84 0.885,-1.533 1.703,-1.549 C -0.442,-1.506 0.122,-0.839 0,0" />
        </g>
        <g
           transform="translate(437.9404,764.6969)"
           id="g1016">
          <path
             id="path1018"
             style="fill:#023158;fill-opacity:1;fill-rule:nonzero;stroke:none"
             d="M 0,0 C 1.746,-0.294 3.161,0.882 3.161,2.628 3.161,4.375 1.746,6.029 0,6.324 -1.747,6.619 -3.162,5.442 -3.162,3.696 -3.162,1.949 -1.747,0.295 0,0" />
        </g>
        <g
           transform="translate(436.6865,726.9069)"
           id="g1020">
          <path
             id="path1022"
             style="fill:#023158;fill-opacity:1;fill-rule:nonzero;stroke:none"
             d="M 0,0 C -2.57,0.434 -4.654,2.87 -4.654,5.44 -4.654,8.011 -2.57,9.743 0,9.31 2.571,8.875 4.655,6.44 4.655,3.869 4.655,1.298 2.571,-0.434 0,0 m -16.282,2.748 c -2.572,0.434 -4.655,2.87 -4.655,5.44 0,2.571 2.083,4.303 4.655,3.87 2.57,-0.434 4.654,-2.87 4.654,-5.441 0,-2.571 -2.084,-4.303 -4.654,-3.869 m -16.283,2.748 c -2.571,0.434 -4.655,2.87 -4.655,5.441 0,2.57 2.084,4.302 4.655,3.869 2.571,-0.434 4.655,-2.87 4.655,-5.441 0,-2.571 -2.084,-4.303 -4.655,-3.869 m 32.562,6.876 -6.051,7.311 c -0.992,1.198 -2.233,2.141 -3.585,2.753 l -2.465,10.603 c -0.655,-0.272 -1.415,-0.364 -2.226,-0.227 -0.248,0.042 -0.49,0.104 -0.728,0.183 l 2.262,-9.72 -7.791,1.314 c -2.176,0.368 -4.258,-0.167 -5.767,-1.481 l -6.073,-5.262 c -4.21,0.698 -7.676,-2.165 -7.676,-6.377 v -0.004 c 0,-4.22 3.503,-8.268 7.723,-8.98 l 32.308,-5.453 c 4.219,-0.712 7.68,2.16 7.68,6.381 v 0.002 c 0,4.198 -3.421,8.214 -7.611,8.957" />
        </g>
      </g>
    </g>
    <g
       transform="translate(168.2266,737.7311)"
       id="g1164"
       style="opacity:1;stop-opacity:1">
      <path
         id="path1166"
         style="fill:#023158;fill-opacity:1;fill-rule:nonzero;stroke:none"
         d="m 0,0 c -0.1,0.554 -0.235,1.111 -0.409,1.671 -0.712,2.29 -1.976,4.355 -3.62,6.091 1.099,0.038 2.162,0.047 3.18,0.027 C -0.369,6.59 1.016,5.806 2.338,6.02 3.202,6.159 3.838,6.693 4.098,7.39 5.132,7.225 6.026,7.012 6.74,6.758 7.787,6.386 8.441,5.931 8.583,5.476 8.724,5.021 8.402,4.408 7.676,3.749 6.833,2.983 5.45,2.165 3.677,1.382 2.573,0.895 1.338,0.433 0,0 M 2.663,8.555 C 2.829,8.022 2.488,7.512 1.903,7.417 1.319,7.323 0.708,7.679 0.543,8.211 0.377,8.744 0.718,9.254 1.303,9.349 1.887,9.443 2.497,9.087 2.663,8.555 m 15.674,-6.42 c 0.485,-1.56 -0.495,-3.052 -2.184,-3.325 -1.69,-0.274 -3.459,0.773 -3.944,2.334 -0.485,1.56 0.495,3.052 2.184,3.326 1.69,0.273 3.459,-0.774 3.944,-2.335 M -8.65,11.265 C -3.03,11.762 2.271,11.74 6.74,11.18 12.752,10.426 16.582,8.769 17.246,6.633 17.378,6.207 17.385,5.759 17.272,5.295 16.271,5.822 15.102,6.052 13.958,5.867 11.464,5.464 10.025,3.239 10.75,0.908 10.879,0.492 11.069,0.102 11.307,-0.258 11.026,-0.412 10.736,-0.564 10.437,-0.716 7.533,-2.191 3.972,-3.524 -0.016,-4.649 c 0.102,0.524 0.171,1.059 0.203,1.602 -3.108,-0.967 -6.695,-1.794 -10.498,-2.41 -3.278,-0.53 -6.503,-0.868 -9.498,-1.005 0.477,-1.022 0.994,-1.994 1.54,-2.89 2.631,0.213 5.336,0.541 8.064,0.983 3.42,0.553 6.701,1.256 9.75,2.08 0,0.002 7.161,1.984 11.742,4.309 0.371,0.188 0.727,0.377 1.071,0.568 1.155,-0.939 2.715,-1.421 4.229,-1.176 2.495,0.403 3.934,2.628 3.209,4.96 -0.229,0.739 -0.65,1.401 -1.197,1.948 0.327,0.866 0.364,1.718 0.106,2.549 -0.466,1.497 -1.833,2.761 -4.064,3.757 -2.003,0.895 -4.656,1.554 -7.883,1.958 -5.207,0.653 -11.5,0.595 -18.107,-0.146 -2.664,0.912 -5.552,1.218 -8.396,0.758 -4.806,-0.778 -3.903,-10.496 -0.681,-18.258 3.032,0.123 6.325,0.46 9.68,1.003 4,0.648 7.749,1.531 10.929,2.563 v 0.002 c 1.567,0.491 3.006,1.019 4.278,1.581 1.927,0.85 3.388,1.722 4.344,2.589 1.129,1.025 1.545,2.046 1.237,3.036 C 9.734,6.702 8.753,7.498 7.126,8.076 6.29,8.374 5.284,8.614 4.12,8.797 c -0.408,1.3 -1.865,2.174 -3.252,1.95 -0.933,-0.151 -1.6,-0.763 -1.815,-1.542 -1.432,0.03 -2.951,0.003 -4.531,-0.079 -0.973,0.818 -2.039,1.536 -3.172,2.139" />
    </g>
    <g
       transform="translate(167.0234,729.7286)"
       id="g1168"
       style="opacity:1;stop-opacity:1">
      <path
         id="path1170"
         style="fill:#023158;fill-opacity:1;fill-rule:nonzero;stroke:none"
         d="m 0,0 c -1.824,-3.423 -5.315,-5.969 -9.867,-6.706 -2.177,-0.352 -4.382,1.317 -6.299,3.994 2.487,0.216 5.035,0.532 7.599,0.947 C -5.59,-1.283 -2.715,-0.688 0,0" />
    </g>
    <g
       transform="translate(203.6182,740.3497)"
       id="g1172"
       style="opacity:1;stop-opacity:1">
      <path
         id="path1174"
         style="fill:#023158;fill-opacity:1;fill-rule:nonzero;stroke:none"
         d="m 0,0 c 0.114,0.547 -0.237,1.083 -0.785,1.197 -6.579,1.37 -10.818,7.839 -9.447,14.419 0.113,0.547 -0.238,1.083 -0.785,1.196 -0.547,0.115 -1.084,-0.237 -1.197,-0.784 C -13.812,8.355 -8.87,0.812 -1.197,-0.785 -0.65,-0.898 -0.114,-0.547 0,0" />
    </g>
    <g
       transform="translate(195.8379,755.4562)"
       id="g1176"
       style="display:inline;opacity:1;stop-opacity:1">
      <path
         id="path1178"
         style="fill:#023158;fill-opacity:1;fill-rule:nonzero;stroke:none"
         d="m 0,0 c -1.089,-5.229 2.28,-10.37 7.51,-11.46 0.547,-0.114 1.083,0.237 1.197,0.784 0.114,0.548 -0.237,1.083 -0.785,1.197 -4.136,0.863 -6.801,4.93 -5.941,9.066 C 2.096,0.134 1.744,0.67 1.197,0.784 0.65,0.898 0.114,0.547 0,0" />
    </g>
    <g
       transform="translate(199.8501,754.7096)"
       id="g1180"
       style="display:inline;opacity:1;stop-opacity:1">
      <path
         id="path1182"
         style="fill:#023158;fill-opacity:1;fill-rule:nonzero;stroke:none"
         d="m 0,0 c -0.131,-0.631 -0.008,-1.274 0.345,-1.814 l 2.544,-3.885 c 0.729,-1.107 2.226,-1.418 3.335,-0.695 10e-4,0 0.002,0 0.003,0.001 1.109,0.73 1.424,2.229 0.695,3.339 l -0.911,1.39 1.159,0.76 c 0.748,-1.013 1.533,-1.74 2.345,-2.126 0.969,-0.459 1.938,-0.428 2.727,0.091 l 2.014,1.319 0.847,-1.292 -1.379,-0.904 c -0.152,-0.1 -0.249,-0.252 -0.284,-0.417 -0.034,-0.165 -0.006,-0.345 0.094,-0.496 l 7.087,-10.813 c 0.2,-0.306 0.609,-0.392 0.915,-0.191 l 6.272,4.11 c 0.305,0.198 0.391,0.611 0.19,0.914 L 20.911,0.106 c -0.097,0.146 -0.246,0.249 -0.418,0.285 -0.172,0.036 -0.35,0.002 -0.497,-0.095 l -2.637,-1.729 -0.846,1.293 3.998,2.62 c 1.276,0.837 1.897,2.863 -0.18,6.029 -0.86,1.313 -1.779,2.208 -2.733,2.661 -0.969,0.46 -1.937,0.429 -2.726,-0.089 l -3.997,-2.619 -0.847,1.293 2.637,1.727 c 0.147,0.096 0.249,0.247 0.285,0.419 0.035,0.172 0.002,0.349 -0.095,0.496 L 5.767,23.212 C 5.671,23.359 5.521,23.461 5.349,23.497 5.177,23.533 4.999,23.499 4.852,23.403 L -1.419,19.292 C -1.572,19.191 -1.669,19.04 -1.703,18.874 -1.738,18.709 -1.71,18.53 -1.609,18.378 L 5.477,7.565 C 5.677,7.259 6.086,7.174 6.392,7.373 L 7.771,8.276 8.618,6.983 6.604,5.664 C 6.073,5.316 5.655,4.763 5.498,4.007 5.299,3.056 5.52,1.782 6.438,0.195 L 5.287,-0.56 4.376,0.829 C 4.023,1.369 3.482,1.738 2.851,1.868 2.22,2 1.577,1.878 1.04,1.525 0.5,1.173 0.131,0.631 0,0.001 Z" />
    </g>
  </g>
</svg>
