<!-- Generator: Adobe Illustrator 10.0, SVG Export Plug-In . SVG Version: 3.0.0 Build 76)  -->
<svg xmlns="http://www.w3.org/2000/svg" xmlns:xlink="http://www.w3.org/1999/xlink" xmlns:a="http://ns.adobe.com/AdobeSVGViewerExtensions/3.0/" width="100.997" height="100.997" viewBox="0 0 100.997 100.997" overflow="visible" enable-background="new 0 0 100.997 100.997" xml:space="preserve" preserveAspectRatio="xMidYMid meet" zoomAndPan="magnify" version="1.0" contentScriptType="text/ecmascript" contentStyleType="text/css">
	<g id="Layer_1">
		<path fill="#FFFFFF" stroke="#000000" stroke-width="0.5" d="M100.749,50.499c0,27.752-22.498,50.25-50.25,50.25    S0.249,78.25,0.249,50.499s22.498-50.25,50.25-50.25S100.749,22.747,100.749,50.499z"/>
		<path d="M54.897,53.221l24.539,38.277l2.75-2.063l3.063-2.75l3.5-3.688l3.5-4.563l2.313-3.938l2.875-6.125l1.625-5.125    l1.188-6.125l0.438-4.063l-0.006-4.559l-0.47-4.908l-0.681-4.455l-1.178-4.127l-1.692-4.651l-1.911-3.862l-1.813-2.875    l-2.655-3.692L72.458,32.125l2.282,4.374l-3.523,2.035l-2.272-4.002l-13.937,9.432l-4.198,2.938L54.897,53.221z"/>
		<path stroke="#000000" stroke-width="0.2537" d="M21.353,51.252H0.394v-1.842h20.958V51.252z"/>
		<path d="M51.499,55.707l24.25,38.292l-3.417,1.75l-3.583,1.583l-4.25,1.334l-5.583,1.25l-4.917,0.666l-6.583,0.084l-4.834-0.667    l-5.583-1.167l-5.167-1.75l-3.958-1.875l-4.25-2.5l-3.75-2.5l-3.5-3l-3.5-3.5l-2.75-3.25l-1.958-2.874L6.04,73.874l18.917-11.167    l3,3.917l3.333-2.334l-2.667-3.75l14.438-8.646l4.438-2.563L51.499,55.707z"/>
		<path fill="#FFFFFF" stroke="#959595" stroke-width="1.3615" d="M78.114,91.548l-2.349,1.468L23.302,9.059l2.349-1.467    L78.114,91.548z"/>
		<path fill="none" stroke="#000000" stroke-width="0.5" d="M79.282,91.694l-3.903,2.438L22.186,9.006l3.903-2.438L79.282,91.694z"/>
		<path fill="#FFFFFF" stroke="#000000" stroke-width="0.2471" d="M57.41,49.416h26.838v1.833H58.326l-0.193,0.548    c-1.304,2.992-4.234,5.077-7.641,5.077c-3.348,0-6.237-2.015-7.573-4.925l-0.22-0.7H21.416v-1.833h22.097l0.038,0.344    c0.004,0.015,0.044,0.259,0.048,0.274c0.819,3.077,3.567,5.152,6.833,5.152c3.335,0,6.133-2.174,6.883-5.354L57.41,49.416z"/>
	</g>
</svg>
