<!-- Generator: Adobe Illustrator 10.0, SVG Export Plug-In . SVG Version: 3.0.0 Build 76)  -->
<svg xmlns="http://www.w3.org/2000/svg" xmlns:xlink="http://www.w3.org/1999/xlink" xmlns:a="http://ns.adobe.com/AdobeSVGViewerExtensions/3.0/" width="39.771" height="23.5" viewBox="0 0 39.771 23.5" overflow="visible" enable-background="new 0 0 39.771 23.5" xml:space="preserve" preserveAspectRatio="xMidYMid meet" zoomAndPan="magnify" version="1.0" contentScriptType="text/ecmascript" contentStyleType="text/css">
	<g id="Layer_1">
		<g>
			<path fill="#FFFFFF" d="M6.271,23.042h28.167V0.292H5.604L4.479,1.417L3.771,1.042l-0.833-0.5L1.604,0.709l-0.5,0.583v0.25     L0.271,1.625v12.083h0.917l0.292,0.667l0.833,0.5l1.25,0.042l0.625-0.208l2.042,2.542L6.271,23.042z"/>
			<path fill="none" stroke="#000000" stroke-width="0.5" d="M5.438,0.25h29.083v23H6.146v-5.906"/>
			<path fill="none" stroke="#000000" stroke-width="0.5" d="M1.302,1.438H0.25v12.375l1.068,0.016"/>
			<path fill="none" stroke="#000000" stroke-width="0.5" d="M5.604,0.188l-1.333,1.17v13.801L6.396,17.5h9.813     c2.382,0,4.313-1.931,4.313-4.313c0-2.382-1.931-4.313-4.313-4.313"/>
			<path fill="#FFFFFF" stroke="#000000" stroke-width="0.5" d="M34.646,1.838h2.305l1.07-1.5h1.5v7.7h-1.375l-1.125-1.225h-2.25"/>
			<path fill="none" stroke="#000000" stroke-width="0.5" d="M1.101,13.723c0.162,0.667,0.661,1.175,1.275,1.266     c0.023,0.004,0.047,0.006,0.07,0.009c0.043,0.003,0.086,0.006,0.13,0.006h1.569"/>
			<path fill="none" stroke="#000000" stroke-width="0.5" d="M16.271,8.875h-12"/>
			<path fill="none" stroke="#000000" stroke-width="0.4924" d="M4.273,1.505C4.12,0.949,3.457,0.532,2.662,0.532     S1.203,0.95,1.05,1.505"/>
			<path fill="#FF3F62" stroke="#000000" stroke-width="0.5" d="M6.354,23.125h28.083"/>
		</g>
	</g>
</svg>
