<!-- Generator: Adobe Illustrator 10.0, SVG Export Plug-In . SVG Version: 3.0.0 Build 76)  -->
<svg xmlns="http://www.w3.org/2000/svg" xmlns:xlink="http://www.w3.org/1999/xlink" xmlns:a="http://ns.adobe.com/AdobeSVGViewerExtensions/3.0/" width="165.795" height="102.242" viewBox="0 0 165.795 102.242" overflow="visible" enable-background="new 0 0 165.795 102.242" xml:space="preserve" preserveAspectRatio="xMidYMid meet" zoomAndPan="magnify" version="1.0" contentScriptType="text/ecmascript" contentStyleType="text/css">
	<g id="Layer_1">
		<path fill="#FFFFFF" stroke="#000000" stroke-width="2.5" d="M69.567,66.837c0,18.866-15.295,34.161-34.162,34.161    S1.244,85.703,1.244,66.837c0-18.867,15.295-34.162,34.162-34.162S69.567,47.97,69.567,66.837z"/>
		<path fill="none" stroke="#000000" d="M42.255,67.155c0,3.778-3.058,6.84-6.831,6.84s-6.832-3.062-6.832-6.84    c0-3.775,3.059-6.834,6.832-6.834S42.255,63.38,42.255,67.155z"/>
		<path d="M35.425,56.218c0.364,0,0.724,0.02,1.08,0.055l2.456-16.917c-1.158-0.146-2.336-0.23-3.534-0.23    c-12.35,0-22.825,7.996-26.553,19.093l16.831,3.945C27.519,58.636,31.186,56.218,35.425,56.218z"/>
		<g>
			<path d="M44.988,72.448l11.19,13.532c4.508-4.978,7.254-11.583,7.254-18.834c0-6.412-2.156-12.317-5.776-17.038L44.725,61.428     c1.027,1.667,1.63,3.623,1.63,5.726C46.354,69.075,45.857,70.879,44.988,72.448z"/>
			<path d="M36.968,77.977c-0.505,0.071-1.018,0.121-1.542,0.121c-4.458,0-8.287-2.676-9.988-6.508L8.959,76.334     C12.76,87.31,23.171,95.19,35.427,95.19c2.08,0,4.104-0.234,6.055-0.664L36.968,77.977z"/>
		</g>
		<path fill="#FFFFFF" stroke="#000000" stroke-width="2.5" d="M164.551,66.672c0,18.892-15.292,34.192-34.157,34.192    c-18.863,0-34.156-15.301-34.156-34.192c0-18.875,15.293-34.17,34.156-34.17C149.259,32.502,164.551,47.797,164.551,66.672z"/>
		<path fill="none" stroke="#000000" d="M137.243,66.99c0,3.784-3.057,6.85-6.83,6.85c-3.772,0-6.831-3.065-6.831-6.85    c0-3.78,3.059-6.842,6.831-6.842C134.186,60.148,137.243,63.21,137.243,66.99z"/>
		<path d="M130.415,56.045c0.364,0,0.724,0.02,1.079,0.055l2.456-16.917c-1.158-0.146-2.336-0.23-3.534-0.23    c-12.348,0-22.822,7.996-26.549,19.093l16.829,3.946C122.508,58.463,126.176,56.045,130.415,56.045z"/>
		<g>
			<path d="M139.976,72.291l11.188,13.551c4.508-4.984,7.254-11.6,7.254-18.86c0-6.42-2.155-12.325-5.775-17.046l-12.931,11.319     c1.027,1.67,1.63,3.628,1.63,5.733C141.342,68.913,140.845,70.72,139.976,72.291z"/>
			<path d="M131.957,77.826c-0.505,0.071-1.018,0.122-1.542,0.122c-4.458,0-8.286-2.68-9.986-6.517l-16.476,4.75     c3.8,10.99,14.209,18.875,26.463,18.875c2.08,0,4.104-0.234,6.055-0.664L131.957,77.826z"/>
		</g>
		<path fill="none" stroke="#000000" stroke-width="2.5" d="M44.92,33.982h75.687"/>
		<path d="M95.266,11.878V0H69.927v11.844L82.09,23.339L95.266,11.878z"/>
	</g>
</svg>
