<!-- Generator: Adobe Illustrator 10.0, SVG Export Plug-In . SVG Version: 3.0.0 Build 76)  -->
<svg xmlns="http://www.w3.org/2000/svg" xmlns:xlink="http://www.w3.org/1999/xlink" xmlns:a="http://ns.adobe.com/AdobeSVGViewerExtensions/3.0/" width="68.604" height="48.517" viewBox="0 0 68.604 48.517" overflow="visible" enable-background="new 0 0 68.604 48.517" xml:space="preserve" preserveAspectRatio="xMidYMid meet" zoomAndPan="magnify" version="1.0" contentScriptType="text/ecmascript" contentStyleType="text/css">
	<g id="Layer_1">
		<g>
			<path fill="#FFFFFF" stroke="#000000" stroke-width="0.82" d="M51.996,23.61h16.198v24.497H0.41V23.61h13.827"/>
			<path fill="none" stroke="#000000" stroke-width="0.82" d="M36.468,23.61h8.155"/>
			<path fill="none" stroke="#000000" stroke-width="0.82" d="M21.499,23.61h7.82"/>
		</g>
		<g>
			<g a:adobe-knockout="true">
				<path fill="#FFFFFF" a:adobe-knockout="false" d="M38.275,8.636L33.29,0l-4.986,8.636H38.275z"/>
				<path fill="#FFFFFF" a:adobe-knockout="false" d="M28.272,13.968l4.986,8.636l4.986-8.636H28.272z"/>
			</g>
			<g a:adobe-knockout="true">
				<path fill="none" stroke="#000000" a:adobe-knockout="false" d="M33.274,15.427v-8.25"/>
				<path a:adobe-knockout="false" d="M38.275,8.636L33.29,0l-4.986,8.636H38.275z"/>
				<path a:adobe-knockout="false" d="M28.272,13.968l4.986,8.636l4.986-8.636H28.272z"/>
			</g>
		</g>
		<g>
			<g a:adobe-knockout="true">
				<path fill="#FFFFFF" a:adobe-knockout="false" d="M11.925,8.88L2.293,6.299l2.581,9.632L11.925,8.88z"/>
				<path fill="#FFFFFF" a:adobe-knockout="false" d="M8.623,19.724l9.632,2.581l-2.581-9.632L8.623,19.724z"/>
			</g>
			<g a:adobe-knockout="true">
				<path fill="none" stroke="#000000" a:adobe-knockout="false" d="M13.191,17.219l-5.834-5.834"/>
				<path a:adobe-knockout="false" d="M11.925,8.88L2.293,6.299l2.581,9.632L11.925,8.88z"/>
				<path a:adobe-knockout="false" d="M8.623,19.724l9.632,2.581l-2.581-9.632L8.623,19.724z"/>
			</g>
		</g>
		<g>
			<g a:adobe-knockout="true">
				<path fill="#FFFFFF" a:adobe-knockout="false" d="M61.696,15.954l2.581-9.632l-9.632,2.581L61.696,15.954z"/>
				<path fill="#FFFFFF" a:adobe-knockout="false" d="M50.853,12.65l-2.581,9.632l9.632-2.581L50.853,12.65z"/>
			</g>
			<g a:adobe-knockout="true">
				<path fill="none" stroke="#000000" a:adobe-knockout="false" d="M53.357,17.219l5.833-5.833"/>
				<path a:adobe-knockout="false" d="M61.696,15.954l2.581-9.632l-9.632,2.581L61.696,15.954z"/>
				<path a:adobe-knockout="false" d="M50.853,12.65l-2.581,9.632l9.632-2.581L50.853,12.65z"/>
			</g>
		</g>
	</g>
</svg>
