<!-- Generator: Adobe Illustrator 10.0, SVG Export Plug-In . SVG Version: 3.0.0 Build 76)  -->
<svg xmlns="http://www.w3.org/2000/svg" xmlns:xlink="http://www.w3.org/1999/xlink" xmlns:a="http://ns.adobe.com/AdobeSVGViewerExtensions/3.0/" width="30.739" height="43.238" viewBox="0 0 30.739 43.238" overflow="visible" enable-background="new 0 0 30.739 43.238" xml:space="preserve" preserveAspectRatio="xMidYMid meet" zoomAndPan="magnify" version="1.0" contentScriptType="text/ecmascript" contentStyleType="text/css">
	<g id="Layer_1">
		<path fill="none" stroke="#000000" stroke-width="0.5" d="M0.274,22.581c0.738,5.379,4.293,9.859,9.13,11.904v8.503H22.55    l-0.003-9.142c4.732-2.57,7.944-7.583,7.944-13.347c0-8.383-6.796-15.179-15.179-15.179c-2.738,0-5.306,0.725-7.523,1.993V0.25    H0.25L0.274,22.581z"/>
		<path fill="none" stroke="#000000" stroke-width="0.5" d="M15.312,15.989c2.686,0,4.864,2.178,4.864,4.863    c0,2.687-2.178,4.864-4.864,4.864c-2.686,0-4.863-2.177-4.863-4.864C10.448,18.167,12.626,15.989,15.312,15.989z"/>
		<path fill="none" stroke="#000000" stroke-width="0.5" d="M22.474,34.028c0,0-3.124,0.708-6.721-2.889    c-3.596-3.595-2.888-5.954-2.888-5.954"/>
		<path fill="none" stroke="#000000" stroke-width="0.5" d="M29.27,14.558c0,0-1.02,4.615-3.79,6.914    c-2.77,2.299-6.307,2.476-6.307,2.476"/>
		<path fill="none" stroke="#000000" stroke-width="0.5" d="M17.051,16.343c0,0,0.53-2.948-2.24-5.954    c-2.77-3.006-5.718-3.832-5.718-3.832"/>
		<path fill="none" stroke="#000000" stroke-width="0.5" d="M11.391,17.876c0,0-3.537,0.118-6.012,3.301    C2.903,24.36,1.96,27.72,1.96,27.72"/>
	</g>
</svg>
