<!-- Generator: Adobe Illustrator 10.0, SVG Export Plug-In . SVG Version: 3.0.0 Build 76)  -->
<svg xmlns="http://www.w3.org/2000/svg" xmlns:xlink="http://www.w3.org/1999/xlink" xmlns:a="http://ns.adobe.com/AdobeSVGViewerExtensions/3.0/" width="57.917" height="43.945" viewBox="0 0 57.917 43.945" overflow="visible" enable-background="new 0 0 57.917 43.945" xml:space="preserve" preserveAspectRatio="xMidYMid meet" zoomAndPan="magnify" version="1.0" contentScriptType="text/ecmascript" contentStyleType="text/css">
	<g id="Layer_1">
		<path fill="#1E90FF" d="M50.667,40.091h7.25v-5.166h-7.25V40.091z"/>
		<path fill="#1E90FF" d="M38.333,40.341h-18.5v-5.916h18.5V40.341z"/>
		<path fill="#1E90FF" d="M7.083,40.175H0v-5.417h7.083V40.175z"/>
		<path fill="#1E90FF" d="M38.167,9.258H20V3.591h18.167V9.258z"/>
		<path fill="#1E90FF" d="M50.833,9.174h7.083v-5.25h-7.083V9.174z"/>
		<path fill="#1E90FF" d="M7.167,9.174H0V3.841h7.167V9.174z"/>
		<path fill="#1E90FF" stroke="#000000" d="M50.585,11.884V1.207l-5.338,5.339L50.585,11.884z"/>
		<path fill="#1E90FF" stroke="#000000" d="M19.632,11.884V1.207l-5.339,5.339L19.632,11.884z"/>
		<path fill="#1E90FF" stroke="#000000" d="M38.413,1.208v10.677l5.338-5.339L38.413,1.208z"/>
		<path fill="#1E90FF" stroke="#000000" d="M7.451,1.208v10.677l5.339-5.339L7.451,1.208z"/>
		<path fill="none" stroke="#000000" d="M39.231,13.62h10.691l-5.347-5.339L39.231,13.62z"/>
		<path fill="none" stroke="#000000" d="M8.189,13.537h10.677l-5.339-5.339L8.189,13.537z"/>
		<path fill="#1E90FF" stroke="#000000" d="M50.541,32.056v10.683l-5.338-5.339L50.541,32.056z"/>
		<path fill="#1E90FF" stroke="#000000" d="M19.596,32.056v10.683l-5.339-5.339L19.596,32.056z"/>
		<path fill="#1E90FF" stroke="#000000" d="M38.367,42.738V32.055l5.338,5.346L38.367,42.738z"/>
		<path fill="#1E90FF" stroke="#000000" d="M7.414,42.738V32.055l5.339,5.346L7.414,42.738z"/>
		<path fill="none" stroke="#000000" d="M39.185,30.319h10.691l-5.346,5.343L39.185,30.319z"/>
		<path fill="none" stroke="#000000" d="M8.152,30.402h10.677l-5.339,5.344L8.152,30.402z"/>
		<path fill="none" stroke="#000000" d="M12.417,37.425H14.5"/>
		<path fill="none" stroke="#000000" d="M13.49,35.746v1.595"/>
		<path fill="none" stroke="#000000" d="M43.383,37.432h2.084"/>
		<path fill="none" stroke="#000000" d="M44.458,35.754v1.594"/>
		<g>
			<path fill="none" stroke="#000000" d="M12.48,6.543h2.082"/>
			<path fill="none" stroke="#000000" d="M13.553,6.627v1.595"/>
		</g>
		<g>
			<path fill="none" stroke="#000000" d="M43.549,6.543h2.084"/>
			<path fill="none" stroke="#000000" d="M44.624,8.222V6.627"/>
		</g>
		<path fill="none" stroke="#000000" d="M19.75,3.424h18.667"/>
		<path fill="none" stroke="#000000" d="M19.75,9.508h18.5"/>
		<path fill="none" stroke="#000000" d="M50.833,3.424h7.083"/>
		<path fill="none" stroke="#000000" d="M50.833,9.508h7.083"/>
		<path fill="none" stroke="#000000" d="M7.167,3.508H0"/>
		<path fill="none" stroke="#000000" d="M7,9.508H0"/>
		<path fill="none" stroke="#000000" d="M7.083,34.508H0"/>
		<path fill="none" stroke="#000000" d="M7,40.508H0"/>
		<path fill="none" stroke="#000000" d="M19.833,34.425h18.25"/>
		<path fill="none" stroke="#000000" d="M19.917,40.508H38"/>
		<path fill="none" stroke="#000000" d="M50.833,34.508h7.083"/>
		<path fill="none" stroke="#000000" stroke-width="0.9942" d="M50.833,40.425h7.084"/>
		<path fill="none" stroke="#000000" d="M13.5,13.41v17.098"/>
		<path fill="none" stroke="#000000" d="M44.5,13.746v16.596"/>
	</g>
</svg>
