<!-- Generator: Adobe Illustrator 10.0, SVG Export Plug-In . SVG Version: 3.0.0 Build 76)  -->
<svg xmlns="http://www.w3.org/2000/svg" xmlns:xlink="http://www.w3.org/1999/xlink" xmlns:a="http://ns.adobe.com/AdobeSVGViewerExtensions/3.0/" width="19" height="23.429" viewBox="0 0 19 23.429" overflow="visible" enable-background="new 0 0 19 23.429" xml:space="preserve" preserveAspectRatio="xMidYMid meet" zoomAndPan="magnify" version="1.0" contentScriptType="text/ecmascript" contentStyleType="text/css">
	<g id="Layer_1">
		<g>
			<path fill="#FFFFFF" d="M4.026,8.363L2.938,8.509l-0.65,0.099L1.735,8.806L1.573,9.135l0.163,0.197L1.93,9.497l0.52,0.132     l0.488-0.033l1.01-0.076L4.026,8.363z"/>
			<path fill="#FFFFFF" d="M12.135,20.525l0.5-0.021l0.333-0.125l0.438-0.229l0.417-0.375l0.479-0.563l0.292-0.583l0.313-0.771     l0.125-0.771l0.042-0.583l-0.021-0.375L13.385,14.4l-0.161-0.271h-0.234l-0.271,0.104l-0.188,0.188l-0.104,0.167l-0.146,0.083     l-0.396-0.667l-0.875-2.125l-0.438-0.896l-0.375-0.688l-0.354-0.292l-0.521-0.25L8.198,9.149L7.594,8.754L7.073,8.608     L6.469,8.379L6.427,9.17l0.104,1.063l0.667,0.542l0.375,0.375l0.292,0.5l0.188,0.417l0.083,0.375l-0.25,0.125l-0.646-0.063     l-0.396-0.125l-0.375-0.313l-0.5-0.583l-0.438-0.5l-0.542-0.333l-0.667-0.208l-0.208-0.013L3.989,10.42L3.906,9.962l-0.625,0.292     l-0.854,0.625l-0.5,0.563l-0.188,0.396l-0.01,0.401l0.203,0.219l0.281,0.125l0.266-0.125l0.156-0.12L2.62,12.535L2.593,12.67     l-0.146,0.162L2.417,13.16l0.031,0.219l0.141,0.188l0.313,0.078l0.234-0.125l0.125-0.058l-0.094,0.229l0.156,0.141l0.25,0.031     l0.328-0.156L3.698,11.92l0.125-0.146l0.406,0.417l0.781,0.813l0.656,0.844l0.531,0.656l0.896,0.625l0.458,0.479l0.563,0.438     l0.479,0.208l0.604,0.25l0.521,0.313l0.688,0.646l-0.104,0.375v0.375l0.021,0.333l0.271,0.292l1.511,1.761"/>
			<path fill="#B4B4B4" d="M6.76,10.462l0.928,0.823l0.343,1.135l-1.097-0.083l-0.412-0.465l-0.116-1.597"/>
			<path d="M3.26,20.441l-0.688-0.188H1.698l-1.063,0.375l-0.458,1l0.521,0.813l0.563,0.563l0.875,0.125l1.125-0.313l0.813-0.625     l0.5-0.688l0.813-1.375l0.563-2l0.25-2.313l0.469-0.844l-1.438-1.688L3.833,11.91l0.302,1.531l0.063,1.75l0.188,1.688     l-0.063,1.25l-0.188,1.125l-0.188,0.938l-0.313,0.375L3.26,20.441z"/>
			<g>
				<path fill="none" stroke="#000000" stroke-width="0.5" d="M6.448,14.941c-0.167,4.833-1.813,8.208-4.708,8.25      c-0.863,0.012-1.563-0.7-1.563-1.563s0.704-1.483,1.563-1.563c0.896-0.083,1.396,0.469,1.724,0.359"/>
				<path fill="none" stroke="#000000" stroke-width="0.5" d="M3.969,11.983c-0.188,0.688,1.12,7.677-0.552,8.458"/>
			</g>
			<path fill="none" stroke="#000000" stroke-width="0.5" d="M4.177,10.4C4.302,4.733,6.01,0.317,8.906,0.275     c0.863-0.012,1.563,0.7,1.563,1.563S9.765,3.321,8.906,3.4C8.01,3.483,7.51,2.932,7.182,3.041"/>
			<path fill="none" stroke="#000000" stroke-width="0.25" d="M6.51,11.926c0.042-0.75-0.859-8.078,0.813-8.859"/>
			<path fill="none" stroke="#000000" stroke-width="0.16" d="M15.18,16.189c0.009,0.354-0.017,0.723-0.081,1.099     c-0.346,2.038-1.684,3.51-2.988,3.289"/>
			<path fill="none" stroke="#000000" stroke-width="0.16" d="M12.385,14.691c0.25-0.646,0.968-0.825,0.938-0.438     c-0.231,2.972-3.688,6.5-3.031,3.313"/>
			<path fill="none" stroke="#000000" stroke-width="0.16" d="M10.26,18.629l4,4.25"/>
			<path fill="none" stroke="#000000" stroke-width="0.16" d="M13.26,14.129l2.125,2.25"/>
			<path fill="none" stroke="#000000" stroke-width="0.16" d="M15.354,16.348l0.766,0.266"/>
			<path fill="none" stroke="#000000" stroke-width="0.16" d="M16.057,16.582l2.891,2.474"/>
			<path fill="none" stroke="#000000" stroke-width="0.16" d="M6.114,8.233c0.755,0.318,1.033,0.198,1.821,0.671     c0.622,0.375,1.802,0.879,2.264,1.326c0.543,0.525,1.423,3.137,1.732,3.659c0.71,1.2,0.568,1.216,1.048,1.865"/>
			<path fill="none" stroke="#000000" stroke-width="0.1526" d="M3.963,9.598c-2.571,0.317-2.437-0.577-2.25-0.767     c0.376-0.385,1.448-0.447,2.344-0.483"/>
			<path fill="none" stroke="#000000" stroke-width="0.1725" d="M3.423,11.528c-0.01,0.237-0.295,0.282-0.424,0.534     c-0.257,0.503-0.868,0.677-1.172,0.348c-0.753-0.813,1.59-2.344,2.215-2.563"/>
			<path fill="none" stroke="#000000" stroke-width="0.1531" d="M4.318,12.352c-0.52,0.368,0.05-0.003-0.566,0.498     c-0.305,0.248-0.555,0.998-1.102,0.781c-0.386-0.153-0.357-0.735-0.031-1.095c0.155-0.171,0.522-0.655,0.859-0.891"/>
			<path fill="none" stroke="#000000" stroke-width="0.16" d="M4.521,13.165c0.015-0.028-1.158,1.376-1.458,0.375"/>
			<path fill="none" stroke="#000000" stroke-width="0.16" d="M11.18,18.516c-0.37-0.502-0.494-0.651-0.807-0.999     c-1.205-1.343-1.536-0.73-2.754-1.805c-0.899-0.793-1.859-1.646-2.312-2.35"/>
			<path fill="none" stroke="#000000" stroke-width="0.16" d="M5.495,13.645c-1.109-1.625-2.338-2.156-2.443-2.493     c-0.104-0.335-0.19-0.814,1.127-0.751c1.534,0.073,2.373,1.94,2.831,1.958"/>
			<path fill="none" stroke="#000000" stroke-width="0.1" d="M3.094,10.601c0.315-0.141,0.843,0.063,1.073,0.461     c0.217,0.376,0.202,0.614,0.03,1.083"/>
			<path fill="none" stroke="#000000" stroke-width="0.1" d="M7.614,11.585c-0.74,0.097-0.728,0.81-1.104,0.294"/>
			<path stroke="#000000" stroke-width="0.5" d="M4.344,10.191l0.104-2.063l0.25-1.5l0.375-1.5l0.375-1.375l0.5-1.25l0.625-1     l0.875-0.75l0.75-0.438l0.938-0.063l0.813,0.375l0.25,0.625l0.063,0.625l-0.188,0.438L9.76,2.754l-0.5,0.25L8.51,3.191     l-0.438-0.25l-0.5-0.25L7.198,2.754l-0.375,0.25L6.448,3.816l-0.25,1.063L6.073,5.754L6.01,6.941v1.25l0.063,1.438l0.063,1.25     l0.063,0.5L5.26,10.441l-0.292-0.125L4.344,10.191z"/>
			<path fill="none" stroke="#000000" stroke-width="0.16" d="M5.915,10.321c0.088-0.06-0.069-0.175,0.092-0.169     c0.264,0.012,1.878,0.852,2.045,2.29"/>
			<path fill="none" stroke="#000000" stroke-width="0.16" d="M8.185,15.522c-0.044,0.002-0.091,0.015-0.134,0.002     c-1.25-0.375-2-1-2.246-1.303"/>
			<path fill="none" stroke="#000000" stroke-width="0.16" d="M6.906,12.337c0.283,0.125,0.292,0.125,0.679,0.125     c0.179,0,0.394-0.045,0.509-0.104"/>
			<path fill="none" stroke="#000000" stroke-width="0.0941" d="M3.452,8.927c0.065,0.027,0.115,0.214,0.064,0.375     c-0.047,0.152-0.146,0.367-0.21,0.34"/>
			<path fill="none" stroke="#000000" stroke-width="0.09" d="M2.699,10.91c0.068-0.019,0.239,0.168,0.316,0.401     c0.073,0.219,0.152,0.554,0.084,0.572"/>
			<path fill="none" stroke="#000000" stroke-width="0.0941" d="M3.25,12.257c0.068-0.018,0.221,0.101,0.279,0.26     c0.055,0.149,0.107,0.38,0.039,0.398"/>
		</g>
	</g>
</svg>
