<!-- Generator: Adobe Illustrator 10.0, SVG Export Plug-In . SVG Version: 3.0.0 Build 76)  -->
<svg xmlns="http://www.w3.org/2000/svg" xmlns:xlink="http://www.w3.org/1999/xlink" xmlns:a="http://ns.adobe.com/AdobeSVGViewerExtensions/3.0/" width="75.22" height="87.254" viewBox="0 0 75.22 87.254" overflow="visible" enable-background="new 0 0 75.22 87.254" xml:space="preserve" preserveAspectRatio="xMidYMid meet" zoomAndPan="magnify" version="1.0" contentScriptType="text/ecmascript" contentStyleType="text/css">
	<g id="Layer_1">
		<path fill="none" stroke="#000000" stroke-width="3" d="M56.468,7.512v67.771"/>
		<path d="M25.877,51.323h20.63L75.22,36.587H55.027L25.877,51.323z"/>
		<path fill="#ABABAB" stroke="#000000" stroke-width="3" stroke-linejoin="round" d="M28.428,85.768c0,0-10.853-1.165-17.444-9.362    S1.5,57.76,1.5,57.76l0.321-24.594c0,0-0.482-4.34,4.983-11.091s8.397-8.474,8.397-8.474l14.107,7.915"/>
		<path fill="#ABABAB" stroke="#000000" stroke-width="3" stroke-linejoin="round" d="M29.63,21.753l-14.789-7.073l1.125-1.768    L38.31,1.5h5.304l13.619,7.111"/>
		<path fill="none" stroke="#000000" stroke-width="3" d="M29.469,20.827v66.348"/>
		<path fill="none" stroke="#000000" stroke-width="3" d="M30.234,85.851l26.599-11.856"/>
		<path fill="none" stroke="#000000" stroke-width="3" d="M30.234,70.731l26.239-12.938"/>
		<path fill="none" stroke="#000000" stroke-width="3" d="M30.234,39.051l26.239-13.297"/>
		<path fill="none" stroke="#000000" stroke-width="3" d="M28.795,22.13L56.113,8.833"/>
		<path d="M75.22,36.587v1.562L46.829,52.294H28.236"/>
	</g>
</svg>
