<!-- Generator: Adobe Illustrator 10.0, SVG Export Plug-In . SVG Version: 3.0.0 Build 76)  -->
<svg xmlns="http://www.w3.org/2000/svg" xmlns:xlink="http://www.w3.org/1999/xlink" xmlns:a="http://ns.adobe.com/AdobeSVGViewerExtensions/3.0/" width="83.264" height="52.049" viewBox="0 0 83.264 52.049" overflow="visible" enable-background="new 0 0 83.264 52.049" xml:space="preserve" preserveAspectRatio="xMidYMid meet" zoomAndPan="magnify" version="1.0" contentScriptType="text/ecmascript" contentStyleType="text/css">
	<g id="Layer_1">
		<path fill="#FF7100" d="M52.336,33.046v-3.262L36.451,10.637h-6.099l-8.793,5.957L10.354,28.65l-7.943-4.964L25.53,0.142H41.84    l26.522,27.373l1.419,1.986l1.134,1.702v1.812L52.336,33.046z"/>
		<path stroke="#000000" d="M39.854,45.244v6.306h42.909v-7.015L71.482,33.331H51.627L39.854,45.244z"/>
		<path d="M39.146,5.602c0,3.094-2.508,5.603-5.603,5.603c-3.094,0-5.602-2.508-5.602-5.603C27.941,2.508,30.449,0,33.543,0    C36.637,0,39.146,2.508,39.146,5.602z"/>
		<path d="M11.205,27.728c0,3.094-2.508,5.603-5.603,5.603S0,30.822,0,27.728s2.508-5.603,5.603-5.603S11.205,24.634,11.205,27.728z    "/>
		<path fill="none" stroke="#000000" stroke-width="3" d="M7.943,31.203l8.084,8.084"/>
		<path fill="none" stroke="#000000" stroke-width="3" d="M4.255,32.196l1.985,12.339"/>
	</g>
</svg>
