<!-- Generator: Adobe Illustrator 10.0, SVG Export Plug-In . SVG Version: 3.0.0 Build 76)  -->
<svg xmlns="http://www.w3.org/2000/svg" xmlns:xlink="http://www.w3.org/1999/xlink" xmlns:a="http://ns.adobe.com/AdobeSVGViewerExtensions/3.0/" width="20.899" height="18.031" viewBox="0 0 20.899 18.031" overflow="visible" enable-background="new 0 0 20.899 18.031" xml:space="preserve" preserveAspectRatio="xMidYMid meet" zoomAndPan="magnify" version="1.0" contentScriptType="text/ecmascript" contentStyleType="text/css">
	<g id="Layer_1">
		<path fill="#D3D3D3" d="M17.89,1.163H3.009v14.23H17.89V1.163z"/>
		<path fill="none" stroke="#000000" stroke-width="2" d="M16.101,11.002H4.066V1h12.035V11.002z"/>
		<path fill="none" stroke="#000000" stroke-width="1.0016" d="M17.483,0.006v12.053"/>
		<path fill="none" stroke="#000000" stroke-width="3" d="M0,16.532h20.899"/>
		<path fill="none" stroke="#000000" stroke-width="2" d="M2.149,12.954v2.114"/>
		<path fill="none" stroke="#000000" stroke-width="2" d="M18.956,13.035v2.114"/>
		<path fill="none" stroke="#000000" stroke-width="2" d="M2.95,11.956v2.114"/>
		<path fill="none" stroke="#000000" stroke-width="2" d="M17.875,11.956v2.114"/>
		<path fill="#969696" d="M13.905,8.888H6.018V3.033h7.888V8.888z"/>
		<path fill="none" stroke="#000000" d="M3.497,13.523h13.661"/>
		<path fill="none" stroke="#000000" d="M6.505,11.49v1.871"/>
		<path fill="none" stroke="#000000" d="M8.539,11.652v1.626"/>
		<path fill="none" stroke="#000000" d="M10.49,11.652v1.545"/>
		<path fill="none" stroke="#000000" d="M12.523,11.734v3.497"/>
		<path fill="none" stroke="#000000" d="M14.475,11.652v1.545"/>
		<path fill="none" stroke="#000000" d="M5.448,13.767v1.545"/>
		<path fill="none" stroke="#000000" d="M8.457,13.929v1.383"/>
		<path fill="none" stroke="#000000" d="M10.49,13.848v1.626"/>
		<path fill="none" stroke="#000000" d="M15.532,13.604v1.626"/>
	</g>
</svg>
