<!-- Generator: Adobe Illustrator 10.0, SVG Export Plug-In . SVG Version: 3.0.0 Build 76)  -->
<svg xmlns="http://www.w3.org/2000/svg" xmlns:xlink="http://www.w3.org/1999/xlink" xmlns:a="http://ns.adobe.com/AdobeSVGViewerExtensions/3.0/" width="110.472" height="75.979" viewBox="0 0 110.472 75.979" overflow="visible" enable-background="new 0 0 110.472 75.979" xml:space="preserve" preserveAspectRatio="xMidYMid meet" zoomAndPan="magnify" version="1.0" contentScriptType="text/ecmascript" contentStyleType="text/css">
	<g id="Layer_1">
		<path fill="#5E9F2B" stroke="#5E9238" stroke-width="2" stroke-linecap="round" stroke-linejoin="round" d="M1,69.229l3.782,5.749    l8.775-8.623l1.361-1.513c0,0,3.631-3.631,6.354-3.782c2.422-0.135,7.564,2.571,7.564,2.571l1.361,1.815    c0,0,1.816,1.514,2.572,2.118s3.631,0.151,3.631,0.151l2.42,1.815c0,0,4.841,2.572,7.11,2.572s8.169-0.605,9.077-0.757    s5.144-4.538,6.959-4.387s3.631-0.303,3.631-0.303s2.094-1.059,3.479-2.27c1.211-1.059,4.69-1.361,4.69-1.361l2.42-2.118    c0,0,3.934-3.782,4.388-5.446s0.907-2.572,1.513-2.572s1.059-1.211,1.664-1.815s6.012-4.341,6.808-5.144s-0.302-3.933-0.15-4.841    s3.591-2.979,4.084-3.479s0.454-7.111,0.454-7.111s-0.038-10.089,0.454-11.195s3.782-4.841,3.782-4.841l2.571-2.723l7.716-9.833    c0,0-36.309-1.664-42.209-0.908c-3.679,0.472-13.767,0.303-13.767,0.303s-5.749-0.606-6.657,0.151s-3.592,3.131-4.387,4.085    l-3.026,0.756c0,0-3.187-0.157-3.782,0.908c-0.566,1.013-2.874,3.177-2.874,3.177s-6.354,0.303-6.808,1.815    s-4.69,5.597-4.69,5.597s-2.057,3.902-1.361,5.295c0.302,0.605-0.605,2.42-1.362,2.269s-2.572,1.059-2.875,2.118    s-0.142,14.012,0.151,15.28c0.454,1.967-0.605,11.045,0.454,11.498s-3.934,4.387-3.934,4.387s-4.084,3.328-4.841,4.992    S1,69.229,1,69.229z"/>
		<g>
			<path fill="#5E9F2B" stroke="#5E9238" stroke-width="6" stroke-linecap="round" stroke-linejoin="round" d="M21.931,53.803     c0,0,10.287-12.409,12.557-16.645c2.269-4.236,19.516-15.734,23.147-16.49c3.63-0.756,33.736-15.128,33.736-15.128"/>
			<path fill="#5E9F2B" stroke="#5E9238" stroke-width="6" stroke-linecap="round" stroke-linejoin="round" d="M28.04,46.084     c0,0,7.413-14.07,8.774-29.653"/>
			<path fill="#5E9F2B" stroke="#5E9238" stroke-width="6" stroke-linecap="round" stroke-linejoin="round" d="M37.059,38.52     c0,0,16.188,11.045,25.417,9.532"/>
			<path fill="#5E9F2B" stroke="#5E9238" stroke-width="6" stroke-linecap="round" stroke-linejoin="round" d="M43.716,33.527     c0,0,6.353-4.084,15.583,2.421c9.228,6.505,20.725,0.756,20.725,0.756"/>
			<path fill="#5E9F2B" stroke="#5E9238" stroke-width="6" stroke-linecap="round" stroke-linejoin="round" d="M58.845,25.812     c0,0,11.8,2.118,23.751,0.605"/>
			<path fill="#5E9F2B" stroke="#5E9238" stroke-width="6" stroke-linecap="round" stroke-linejoin="round" d="M42.959,25.66     c0,0,7.412-7.261,7.262-15.128"/>
			<path fill="#5E9F2B" stroke="#5E9238" stroke-width="6" stroke-linecap="round" stroke-linejoin="round" d="M58.241,20.365     c0,0,3.327-9.38,3.327-13.162"/>
			<path fill="#5E9F2B" stroke="#5E9238" stroke-width="6" stroke-linecap="round" stroke-linejoin="round" d="M71.401,11.742     c0,0,0.757-3.631,3.631-5.295"/>
			<path fill="#5E9F2B" stroke="#5E9238" stroke-width="6" stroke-linecap="round" stroke-linejoin="round" d="M68.225,16.432     c0,0,17.7,0,22.995-1.664"/>
		</g>
		<g>
			<path fill="none" stroke="#000000" stroke-width="2" d="M21.877,53.647c0,0,10.288-12.406,12.557-16.642     s19.516-15.734,23.146-16.49S91.317,5.387,91.317,5.387"/>
			<path fill="none" stroke="#000000" stroke-width="2" d="M27.986,45.932c0,0,7.414-14.069,8.775-29.652"/>
			<path fill="none" stroke="#000000" stroke-width="2" d="M37.006,38.368c0,0,16.188,11.043,25.416,9.531"/>
			<path fill="none" stroke="#000000" stroke-width="2" d="M43.663,33.375c0,0,6.353-4.084,15.582,2.421s20.726,0.756,20.726,0.756"/>
			<path fill="none" stroke="#000000" stroke-width="2" d="M58.791,25.66c0,0,11.801,2.118,23.752,0.605"/>
			<path fill="none" stroke="#000000" stroke-width="2" d="M42.906,25.508c0,0,7.413-7.261,7.262-15.128"/>
			<path fill="none" stroke="#000000" stroke-width="2" d="M58.186,20.213c0,0,3.328-9.38,3.328-13.162"/>
			<path fill="none" stroke="#000000" stroke-width="2" d="M71.348,11.59c0,0,0.757-3.631,3.631-5.295"/>
			<path fill="none" stroke="#000000" stroke-width="2" d="M68.171,16.28c0,0,17.7,0,22.995-1.664"/>
		</g>
	</g>
</svg>
