<!-- Generator: Adobe Illustrator 10.0, SVG Export Plug-In . SVG Version: 3.0.0 Build 76)  -->
<svg xmlns="http://www.w3.org/2000/svg" xmlns:xlink="http://www.w3.org/1999/xlink" xmlns:a="http://ns.adobe.com/AdobeSVGViewerExtensions/3.0/" width="85.917" height="85.918" viewBox="0 0 85.917 85.918" overflow="visible" enable-background="new 0 0 85.917 85.918" xml:space="preserve" preserveAspectRatio="xMidYMid meet" zoomAndPan="magnify" version="1.0" contentScriptType="text/ecmascript" contentStyleType="text/css">
	<g id="Layer_1">
		<path fill="#995942" stroke="#000000" stroke-width="0.75" d="M85.542,43.879v-4h-8.614c-0.578-7.446-3.552-14.216-8.155-19.544    l11.45-11.45l-2.829-2.829L65.989,17.46c-5.691-5.209-13.159-8.504-21.391-8.875v-8.21h-4v8.268    c-7.832,0.557-14.932,3.755-20.404,8.724l-9.372-9.372l-2.829,2.828l9.408,9.408c-4.655,5.344-7.664,12.154-8.246,19.648h-8.78v4    h8.7c0.321,8.318,3.625,15.871,8.88,21.613L7.916,75.531l2.829,2.828L20.83,68.275c5.382,4.65,12.234,7.638,19.769,8.174v9.094h4    v-9.036c7.933-0.358,15.151-3.437,20.759-8.321l9.881,9.881l2.829-2.828l-9.846-9.846c5.202-5.729,8.468-13.244,8.786-21.514    H85.542z M67.9,39.879H52.547c-0.216-0.839-0.531-1.637-0.944-2.375l10.813-10.813C65.404,30.37,67.376,34.908,67.9,39.879z     M59.655,23.794L48.979,34.47c-1.257-0.972-2.75-1.649-4.38-1.933V17.444C50.367,17.835,55.603,20.166,59.655,23.794z     M40.599,17.486v15.163c-1.29,0.3-2.481,0.849-3.526,1.595L26.378,23.549C30.259,20.176,35.18,17.973,40.599,17.486z     M23.573,26.402l10.774,10.774c-0.507,0.83-0.896,1.737-1.145,2.703H17.851C18.388,34.777,20.45,30.131,23.573,26.402z     M17.744,43.879H33c0.259,1.717,0.951,3.289,1.966,4.604L24.123,59.325C20.413,55.181,18.053,49.802,17.744,43.879z     M27.019,62.086L38,51.105c0.804,0.451,1.677,0.788,2.599,1.003v15.497C35.475,67.146,30.794,65.153,27.019,62.086z     M44.599,67.647V52.221c1.257-0.22,2.431-0.673,3.479-1.314L59.02,61.848C55.062,65.162,50.07,67.277,44.599,67.647z     M61.872,59.043L51.01,48.181c0.894-1.25,1.501-2.714,1.74-4.302h15.256C67.704,49.67,65.439,54.938,61.872,59.043z"/>
	</g>
</svg>
