<!-- Generator: Adobe Illustrator 10.0, SVG Export Plug-In . SVG Version: 3.0.0 Build 76)  -->
<svg xmlns="http://www.w3.org/2000/svg" xmlns:xlink="http://www.w3.org/1999/xlink" xmlns:a="http://ns.adobe.com/AdobeSVGViewerExtensions/3.0/" width="57.008" height="59.52" viewBox="0 0 57.008 59.52" overflow="visible" enable-background="new 0 0 57.008 59.52" xml:space="preserve" preserveAspectRatio="xMidYMid meet" zoomAndPan="magnify" version="1.0" contentScriptType="text/ecmascript" contentStyleType="text/css">
	<g id="Layer_1">
		<path fill="#989898" stroke="#000000" stroke-width="1.5" d="M27.133,13.769L1.254,45.485c0,0-0.731,1.197-0.506,3.065    c0.226,1.868,1.09,2.556,1.09,2.556l9.583,7.778c0,0,1.28,0.631,2.609,0.475c1.329-0.155,2.71-1.031,2.71-1.031l26.199-32.504"/>
		<path fill="#797979" stroke="#000000" stroke-width="1.5" d="M25.435,15.485l14.262,13.981"/>
		<path fill="#797979" stroke="#000000" stroke-width="1.5" d="M22.044,19.595l14.258,13.981"/>
		<path fill="#797979" stroke="#000000" stroke-width="1.5" d="M18.955,23.94l14.254,13.98"/>
		<path fill="#797979" stroke="#000000" stroke-width="1.5" d="M15.563,28.049l14.253,13.987"/>
		<path fill="#797979" stroke="#000000" stroke-width="1.5" d="M12.26,31.955l14.253,13.991"/>
		<path fill="#797979" stroke="#000000" stroke-width="1.5" d="M9.094,35.786l14.254,13.996"/>
		<path fill="#797979" stroke="#000000" stroke-width="1.5" d="M6.006,40.132L20.26,54.131"/>
		<path fill="#797979" stroke="#000000" stroke-width="1.5" d="M2.841,43.968l14.253,13.999"/>
		<path fill="#797979" stroke="#000000" stroke-width="1.5" d="M53.591,20.422c-6.354-9.003-8.145-9.878-8.145-9.878l-5.647,6.96    l-3.099-2.514l5.647-6.961c0,0-1.224-1.57-11.332-5.923C20.899-2.254,16.789,5.184,16.789,5.184l36.726,29.797    C53.514,34.981,59.946,29.426,53.591,20.422z"/>
	</g>
</svg>
