<!-- Generator: Adobe Illustrator 10.0, SVG Export Plug-In . SVG Version: 3.0.0 Build 76)  -->
<svg xmlns="http://www.w3.org/2000/svg" xmlns:xlink="http://www.w3.org/1999/xlink" xmlns:a="http://ns.adobe.com/AdobeSVGViewerExtensions/3.0/" width="29.422" height="80.398" viewBox="0 0 29.422 80.398" overflow="visible" enable-background="new 0 0 29.422 80.398" xml:space="preserve" preserveAspectRatio="xMidYMid meet" zoomAndPan="magnify" version="1.0" contentScriptType="text/ecmascript" contentStyleType="text/css">
	<g id="Layer_3">
		<path fill="none" stroke="#000000" stroke-width="2" d="M7.043,7.74v46.572c-3.651,2.467-6.051,6.644-6.051,11.381    c0,7.58,6.145,13.725,13.725,13.725s13.725-6.145,13.725-13.725c0-4.737-2.4-8.915-6.051-11.381V7.24"/>
		<path fill="none" stroke="#000000" stroke-width="2" d="M22.384,7.74c0-4.418-2.998-6.75-7.417-6.75S7.051,3.405,7.051,7.823"/>
		<path fill="#3024B0" d="M22.467,66.115c0-4.349-3.526-7.875-7.875-7.875s-7.875,3.526-7.875,7.875s3.526,7.875,7.875,7.875    S22.467,70.464,22.467,66.115z"/>
		<path fill="#3024B0" d="M18.468,29.073h-7.584v31h7.584V29.073z"/>
	</g>
</svg>
