<!-- Generator: Adobe Illustrator 10.0, SVG Export Plug-In . SVG Version: 3.0.0 Build 76)  -->
<svg xmlns="http://www.w3.org/2000/svg" xmlns:xlink="http://www.w3.org/1999/xlink" xmlns:a="http://ns.adobe.com/AdobeSVGViewerExtensions/3.0/" width="92.992" height="97.159" viewBox="0 0 92.992 97.159" overflow="visible" enable-background="new 0 0 92.992 97.159" xml:space="preserve" preserveAspectRatio="xMidYMid meet" zoomAndPan="magnify" version="1.0" contentScriptType="text/ecmascript" contentStyleType="text/css">
	<g id="Layer_1">
		<path fill="none" stroke="#000000" stroke-width="3" d="M91.5,74.06c0,11.929-9.671,21.6-21.6,21.6H23.1    c-11.93,0-21.6-9.671-21.6-21.6V23.093c0-11.93,9.67-21.6,21.6-21.6h46.8c11.929,0,21.6,9.67,21.6,21.6V74.06z"/>
		<path fill="none" stroke="#000000" stroke-width="2.5" d="M55.042,48.68c0,6.961-3.824,12.604-8.542,12.604    c-4.717,0-8.542-5.643-8.542-12.604c0-6.961,3.824-12.604,8.542-12.604C51.217,36.076,55.042,41.719,55.042,48.68z"/>
		<path fill="none" stroke="#000000" stroke-width="3" d="M46.5,31.284V9.409"/>
		<path fill="none" stroke="#000000" stroke-width="3" d="M46.5,66.492v21.667"/>
		<path fill="none" stroke="#000000" stroke-width="3" d="M60.042,48.784h21.667"/>
		<path fill="none" stroke="#000000" stroke-width="3" d="M59,35.034L74.833,19.2"/>
		<path fill="none" stroke="#000000" stroke-width="3" d="M59,60.242l15.938,15.938"/>
		<path fill="none" stroke="#000000" stroke-width="3" d="M32.789,48.784h-21.67"/>
		<path fill="none" stroke="#000000" stroke-width="3" d="M33.831,35.034L17.995,19.2"/>
		<path fill="none" stroke="#000000" stroke-width="3" d="M33.831,60.242L17.89,76.181"/>
	</g>
</svg>
