<!-- Generator: Adobe Illustrator 10.0, SVG Export Plug-In . SVG Version: 3.0.0 Build 76)  -->
<svg xmlns="http://www.w3.org/2000/svg" xmlns:xlink="http://www.w3.org/1999/xlink" xmlns:a="http://ns.adobe.com/AdobeSVGViewerExtensions/3.0/" width="146.828" height="95.18" viewBox="0 0 146.828 95.18" overflow="visible" enable-background="new 0 0 146.828 95.18" xml:space="preserve" preserveAspectRatio="xMidYMid meet" zoomAndPan="magnify" version="1.0" contentScriptType="text/ecmascript" contentStyleType="text/css">
	<g id="Layer_1">
		<path fill="none" stroke="#000000" stroke-width="2" d="M45.955,61.042V27.057H1v52.147h44.955v-9.89"/>
		<path fill="none" stroke="#000000" stroke-width="2" d="M129.741,28.369c2.151-2.831,3.427-6.277,3.427-10.006    c0-9.599-8.373-17.38-18.701-17.38s-18.701,7.781-18.701,17.38c0,3.534,1.143,6.818,3.092,9.562"/>
		<path fill="none" stroke="#000000" stroke-width="2" d="M105.306,26.4c-2.119-2.051-3.427-4.812-3.427-7.858    c0-6.321,5.596-11.446,12.497-11.446c6.902,0,12.498,5.125,12.498,11.446c0,3.117-1.364,5.939-3.571,8.003"/>
		<path fill="none" stroke="#000000" stroke-width="2" d="M94.825,67.754V94.18h17.263v-30.39"/>
		<path fill="none" stroke="#000000" stroke-width="2" d="M116.942,64.156V94.18h16.902V60.913"/>
		<path fill="none" stroke="#000000" stroke-width="1.75" d="M27.81,46.887c0,0,9.891,19.601,42.438,19.601    s43.157-25.175,43.157-25.175s2.878-1.978,4.676,0s1.258,2.877,1.258,2.877s-8.989,27.624-49.271,28.231    c-35.784,0.54-48.372-20.319-48.372-20.319s-1.259-3.057,1.438-5.035S27.81,46.887,27.81,46.887z"/>
		<path fill="none" stroke="#000000" stroke-width="1.75" d="M145.953,33.221v28.412c0,0-1.08,5.035-5.935,5.035    s-6.113-5.035-6.113-5.035V33.221c0,0,1.619-4.855,6.294-4.855S145.953,33.221,145.953,33.221z"/>
		<path fill="none" stroke="#000000" stroke-width="1.75" d="M84.115,65.075c-1.554-1.476-2.046-3.442-2.046-3.442V33.221    c0,0,1.619-4.855,6.294-4.855s5.754,4.855,5.754,4.855v28.412"/>
		<path fill="none" stroke="#000000" stroke-width="1.75" d="M93.625,31.422c0,0,3.237-5.215,20.859-5.215s20.68,4.675,20.68,4.675"/>
		<path fill="none" stroke="#000000" stroke-width="1.75" d="M103.476,63.31c2.83,0.521,6.435,0.872,11.008,0.872    c17.622,0,19.599-4.314,19.599-4.314"/>
	</g>
</svg>
