<!-- Generator: Adobe Illustrator 10.0, SVG Export Plug-In . SVG Version: 3.0.0 Build 76)  -->
<svg xmlns="http://www.w3.org/2000/svg" xmlns:xlink="http://www.w3.org/1999/xlink" xmlns:a="http://ns.adobe.com/AdobeSVGViewerExtensions/3.0/" width="73.639" height="73.639" viewBox="0 0 73.639 73.639" overflow="visible" enable-background="new 0 0 73.639 73.639" xml:space="preserve" preserveAspectRatio="xMidYMid meet" zoomAndPan="magnify" version="1.0" contentScriptType="text/ecmascript" contentStyleType="text/css">
	<g id="Layer_1">
		<path fill="none" stroke="#000000" stroke-width="2.4565" d="M72.417,36.819c0,19.66-15.938,35.598-35.598,35.598    c-19.66,0-35.597-15.938-35.597-35.598S17.159,1.222,36.819,1.222C56.479,1.222,72.417,17.159,72.417,36.819z"/>
		<g>
			<path fill="none" stroke="#000000" stroke-width="2.4565" d="M56.371,36.819c0,10.798-8.753,19.552-19.552,19.552     c-10.798,0-19.552-8.753-19.552-19.552c0-10.798,8.754-19.552,19.552-19.552C47.618,17.267,56.371,26.021,56.371,36.819z"/>
			<path fill="none" stroke="#2B4E65" stroke-width="2.4565" d="M54.523,36.684c0,9.853-7.987,17.84-17.84,17.84     c-9.853,0-17.841-7.987-17.841-17.84c0-9.853,7.988-17.841,17.841-17.841C46.536,18.843,54.523,26.831,54.523,36.684z"/>
		</g>
		<g>
			<g>
				<path d="M22.143,60.895c-0.627,1.298-2.189,1.84-3.486,1.214c-1.298-0.627-1.841-2.187-1.215-3.487      c0.627-1.296,2.187-1.841,3.486-1.214C22.226,58.035,22.769,59.597,22.143,60.895z"/>
				<path fill="none" stroke="#000000" stroke-width="0.522" d="M22.143,60.895c-0.627,1.298-2.189,1.84-3.486,1.214      c-1.298-0.627-1.841-2.187-1.215-3.487c0.627-1.296,2.187-1.841,3.486-1.214C22.226,58.035,22.769,59.597,22.143,60.895z"/>
			</g>
			<g>
				<path d="M13.209,52.323c-1.128,0.897-2.771,0.709-3.667-0.418c-0.898-1.128-0.71-2.769,0.417-3.668      c1.128-0.896,2.769-0.71,3.668,0.418C14.524,49.782,14.336,51.425,13.209,52.323z"/>
				<path fill="none" stroke="#000000" stroke-width="0.522" d="M13.209,52.323c-1.128,0.897-2.771,0.709-3.667-0.418      c-0.898-1.128-0.71-2.769,0.417-3.668c1.128-0.896,2.769-0.71,3.668,0.418C14.524,49.782,14.336,51.425,13.209,52.323z"/>
			</g>
			<g>
				<path d="M8.878,40.724c-1.406,0.319-2.804-0.563-3.123-1.968c-0.32-1.406,0.562-2.803,1.967-3.124      c1.405-0.318,2.803,0.562,3.124,1.968C11.166,39.005,10.284,40.404,8.878,40.724z"/>
				<path fill="none" stroke="#000000" stroke-width="0.522" d="M8.878,40.724c-1.406,0.319-2.804-0.563-3.123-1.968      c-0.32-1.406,0.562-2.803,1.967-3.124c1.405-0.318,2.803,0.562,3.124,1.968C11.166,39.005,10.284,40.404,8.878,40.724z"/>
			</g>
			<g>
				<path d="M10.008,28.395c-1.405-0.322-2.282-1.724-1.96-3.128c0.321-1.405,1.722-2.282,3.127-1.961      c1.404,0.323,2.282,1.722,1.96,3.128C12.814,27.838,11.413,28.716,10.008,28.395z"/>
				<path fill="none" stroke="#000000" stroke-width="0.522" d="M10.008,28.395c-1.405-0.322-2.282-1.724-1.96-3.128      c0.321-1.405,1.722-2.282,3.127-1.961c1.404,0.323,2.282,1.722,1.96,3.128C12.814,27.838,11.413,28.716,10.008,28.395z"/>
			</g>
			<g>
				<path d="M16.374,17.776c-1.126-0.899-1.309-2.542-0.409-3.668c0.899-1.126,2.541-1.309,3.668-0.411      c1.125,0.9,1.31,2.542,0.409,3.669C19.144,18.492,17.5,18.675,16.374,17.776z"/>
				<path fill="none" stroke="#000000" stroke-width="0.522" d="M16.374,17.776c-1.126-0.899-1.309-2.542-0.409-3.668      c0.899-1.126,2.541-1.309,3.668-0.411c1.125,0.9,1.31,2.542,0.409,3.669C19.144,18.492,17.5,18.675,16.374,17.776z"/>
			</g>
			<g>
				<path d="M26.716,10.97c-0.624-1.299-0.076-2.858,1.223-3.483c1.299-0.625,2.857-0.077,3.483,1.222      c0.624,1.299,0.077,2.858-1.223,3.483C28.901,12.816,27.341,12.269,26.716,10.97z"/>
				<path fill="none" stroke="#000000" stroke-width="0.522" d="M26.716,10.97c-0.624-1.299-0.076-2.858,1.223-3.483      c1.299-0.625,2.857-0.077,3.483,1.222c0.624,1.299,0.077,2.858-1.223,3.483C28.901,12.816,27.341,12.269,26.716,10.97z"/>
			</g>
			<g>
				<path d="M38.987,9.324c0.001-1.441,1.171-2.608,2.613-2.608s2.608,1.17,2.608,2.612c-0.002,1.441-1.17,2.609-2.613,2.608      C40.155,11.935,38.987,10.765,38.987,9.324z"/>
				<path fill="none" stroke="#000000" stroke-width="0.522" d="M38.987,9.324c0.001-1.441,1.171-2.608,2.613-2.608      s2.608,1.17,2.608,2.612c-0.002,1.441-1.17,2.609-2.613,2.608C40.155,11.935,38.987,10.765,38.987,9.324z"/>
			</g>
			<g>
				<path d="M50.758,13.164c0.626-1.298,2.187-1.842,3.485-1.217c1.298,0.626,1.842,2.186,1.217,3.485      c-0.627,1.298-2.187,1.843-3.486,1.217C50.677,16.023,50.132,14.462,50.758,13.164z"/>
				<path fill="none" stroke="#000000" stroke-width="0.522" d="M50.758,13.164c0.626-1.298,2.187-1.842,3.485-1.217      c1.298,0.626,1.842,2.186,1.217,3.485c-0.627,1.298-2.187,1.843-3.486,1.217C50.677,16.023,50.132,14.462,50.758,13.164z"/>
			</g>
			<g>
				<path d="M59.697,21.73c1.127-0.898,2.77-0.711,3.668,0.416c0.898,1.127,0.712,2.769-0.415,3.668      c-1.127,0.897-2.77,0.712-3.668-0.416C58.384,24.271,58.57,22.628,59.697,21.73z"/>
				<path fill="none" stroke="#000000" stroke-width="0.522" d="M59.697,21.73c1.127-0.898,2.77-0.711,3.668,0.416      c0.898,1.127,0.712,2.769-0.415,3.668c-1.127,0.897-2.77,0.712-3.668-0.416C58.384,24.271,58.57,22.628,59.697,21.73z"/>
			</g>
			<g>
				<path d="M64.036,33.326c1.405-0.32,2.804,0.561,3.125,1.966c0.32,1.405-0.56,2.804-1.965,3.125      c-1.405,0.32-2.804-0.559-3.125-1.965C61.75,35.045,62.63,33.646,64.036,33.326z"/>
				<path fill="none" stroke="#000000" stroke-width="0.522" d="M64.036,33.326c1.405-0.32,2.804,0.561,3.125,1.966      c0.32,1.405-0.56,2.804-1.965,3.125c-1.405,0.32-2.804-0.559-3.125-1.965C61.75,35.045,62.63,33.646,64.036,33.326z"/>
			</g>
			<g>
				<path d="M62.915,45.656c1.405,0.321,2.283,1.721,1.962,3.126s-1.721,2.284-3.126,1.963c-1.405-0.321-2.284-1.72-1.963-3.126      C60.11,46.214,61.509,45.335,62.915,45.656z"/>
				<path fill="none" stroke="#000000" stroke-width="0.522" d="M62.915,45.656c1.405,0.321,2.283,1.721,1.962,3.126      s-1.721,2.284-3.126,1.963c-1.405-0.321-2.284-1.72-1.963-3.126C60.11,46.214,61.509,45.335,62.915,45.656z"/>
			</g>
			<g>
				<path d="M56.556,56.279c1.126,0.899,1.311,2.541,0.412,3.668c-0.899,1.127-2.541,1.312-3.668,0.413s-1.312-2.541-0.413-3.668      C53.787,55.565,55.429,55.38,56.556,56.279z"/>
				<path fill="none" stroke="#000000" stroke-width="0.522" d="M56.556,56.279c1.126,0.899,1.311,2.541,0.412,3.668      c-0.899,1.127-2.541,1.312-3.668,0.413s-1.312-2.541-0.413-3.668C53.787,55.565,55.429,55.38,56.556,56.279z"/>
			</g>
			<g>
				<path d="M46.218,63.092c0.625,1.299,0.079,2.858-1.22,3.484c-1.299,0.625-2.858,0.08-3.484-1.219s-0.08-2.859,1.22-3.484      C44.033,61.248,45.593,61.793,46.218,63.092z"/>
				<path fill="none" stroke="#000000" stroke-width="0.522" d="M46.218,63.092c0.625,1.299,0.079,2.858-1.22,3.484      c-1.299,0.625-2.858,0.08-3.484-1.219s-0.08-2.859,1.22-3.484C44.033,61.248,45.593,61.793,46.218,63.092z"/>
			</g>
			<g>
				<path d="M33.948,64.747c0,1.441-1.169,2.61-2.61,2.61c-1.442,0-2.61-1.168-2.61-2.61s1.168-2.61,2.61-2.61      C32.779,62.136,33.948,63.305,33.948,64.747z"/>
				<path fill="none" stroke="#000000" stroke-width="0.522" d="M33.948,64.747c0,1.441-1.169,2.61-2.61,2.61      c-1.442,0-2.61-1.168-2.61-2.61s1.168-2.61,2.61-2.61C32.779,62.136,33.948,63.305,33.948,64.747z"/>
			</g>
		</g>
		<path fill="#179232" stroke="#179232" stroke-width="1.2282" d="M42.562,26.599H31.338v-3.05h11.223V26.599z"/>
		<path fill="#179232" stroke="#179232" stroke-width="1.2282" d="M26.73,31.469v11.223h-3.051V31.469H26.73z"/>
		<path fill="#179232" stroke="#179232" stroke-width="1.2282" d="M50.22,31.469v11.223h-3.051V31.469H50.22z"/>
		<path fill="#179232" stroke="#179232" stroke-width="1.2282" d="M42.431,49.698H31.208v-3.05h11.223V49.698z"/>
	</g>
</svg>
