<!-- Generator: Adobe Illustrator 9.0, SVG Export Plug-In  -->
<svg xmlns="%SVGNamespace;" width="20pt" height="20pt" viewBox="0 0 107.886 114.445" xml:space="preserve" preserveAspectRatio="xMidYMid meet" enableZoomAndPanControls="true" contentScriptType="text/ecmascript" contentStyleType="text/css">
	<g id="Layer_x0020_1" style="fill-rule:nonzero;clip-rule:nonzero;fill:none;stroke:#000000;stroke-width:1.3208;stroke-miterlimit:4;">
		<path style="fill:#F5DEB3;stroke:none;" d="M6.524,30.778l3.333-7.333l5-5.667l8-6.667l8-4.667l8.333-3.333l6.667-1l8.333-0.667h5l6.333,1l4.667,1l5,1.667l5,2.667l5.667,4l5,4.333l4,4l3.667,4.667l2.667,4l1.667,4l-7.333-4.667l-6.667-0.667l-6,1l-3.667,2.333l-3.667,4l-1.667,2.667    l-0.941,2.254l-4.059-4.587l-4.667-4.333l-6-2.667h-4.333l-6.667,1.333l-3.333,1l-3.667,3l-1.333,2.333l-2.333,4l-3.333-4l-4-4l-4.667-2.667l-4-2l-5.333,0.333l-4.667,1.667l-4,1.667z"/>
		<path style="stroke-width:2;" d="M64.195,69.445H43.853v5l-5.962,12v27h32.267V87.111l-5.962-12.333v-5.333z"/>
		<path style="stroke-width:1.3311;" d="M43.847,69.445l-42.655-28"/>
		<path d="M53.191,69.445l-17-29"/>
		<path d="M55.191,69.445l17.726-29.746"/>
		<path style="stroke-width:1.3309;" d="M64.201,69.445l43.312-29.333"/>
	</g>
	<g id="top" style="fill-rule:nonzero;clip-rule:nonzero;stroke:#000000;stroke-miterlimit:4;">
		<path style="fill:none;stroke-width:2;" d="M1.207,40.777C7.812,18.401,29.676,1,55.651,1c25.354,0,44.047,17.565,51.201,39.121"/>
	</g>
	<g id="Layer_x0020_2" style="fill-rule:nonzero;clip-rule:nonzero;fill:none;stroke:#000000;stroke-width:2;stroke-miterlimit:4;">
		<path d="M0.954,41.58c0.063-0.267,0.147-0.535,0.253-0.803c3.043-7.687,7.898-12.328,17.619-12.77c2.769-0.126,9.229,1.241,18.031,13.104"/>
		<path d="M36.857,41.111c0.061-0.218,0.578-1.721,0.682-1.939c2.961-6.268,7.683-10.052,17.138-10.413c2.693-0.103,10.101,0.031,17.194,10.67"/>
		<path d="M71.859,39.366c0.063-0.242,0.91,0.556,1.057,0.333c4.999-7.587,7.973-11.186,17.785-11.587c2.794-0.114,10.767,1,16.15,12"/>
	</g>
</svg>
