<!-- Generator: Adobe Illustrator 10.0, SVG Export Plug-In . SVG Version: 3.0.0 Build 76)  -->
<svg xmlns="http://www.w3.org/2000/svg" xmlns:xlink="http://www.w3.org/1999/xlink" xmlns:a="http://ns.adobe.com/AdobeSVGViewerExtensions/3.0/" width="93.707" height="87.046" viewBox="0 0 93.707 87.046" overflow="visible" enable-background="new 0 0 93.707 87.046" xml:space="preserve" preserveAspectRatio="xMidYMid meet" zoomAndPan="magnify" version="1.0" contentScriptType="text/ecmascript" contentStyleType="text/css">
	<g id="Layer_1">
		<path fill="none" stroke="#000000" stroke-width="3" d="M14.976,30.396H78.81"/>
		<path fill="none" stroke="#000000" stroke-width="2" d="M46.976,47.062V24.229"/>
		<path fill="none" stroke="#000000" stroke-width="2" d="M51.81,12.979c0,6.673-2.201,12.083-4.917,12.083    c-2.715,0-4.917-5.41-4.917-12.083c0-6.674,2.201-12.083,4.917-12.083C49.608,0.896,51.81,6.305,51.81,12.979z"/>
		<path fill="none" stroke="#000000" stroke-width="2" stroke-linejoin="bevel" d="M16.976,29.301l-16,42.284    c0,7.995,7.164,14.477,16,14.477s16-6.481,16-14.477L16.976,29.301z"/>
		<path fill="none" stroke="#000000" stroke-width="2" stroke-linejoin="bevel" d="M0.976,70.969h31.5"/>
		<path fill="none" stroke="#000000" stroke-width="2" stroke-linejoin="bevel" d="M76.732,29.301L60.734,71.585    c0,7.995,7.163,14.477,15.998,14.477S92.73,79.581,92.73,71.585L76.732,29.301z"/>
		<path fill="none" stroke="#000000" stroke-width="2" stroke-linejoin="bevel" d="M60.734,70.969H92.23"/>
	</g>
</svg>
