<!-- Generator: Adobe Illustrator 10.0, SVG Export Plug-In . SVG Version: 3.0.0 Build 76)  -->
<svg xmlns="http://www.w3.org/2000/svg" xmlns:xlink="http://www.w3.org/1999/xlink" xmlns:a="http://ns.adobe.com/AdobeSVGViewerExtensions/3.0/" width="92.106" height="95.622" viewBox="0 0 92.106 95.622" overflow="visible" enable-background="new 0 0 92.106 95.622" xml:space="preserve" preserveAspectRatio="xMidYMid meet" zoomAndPan="magnify" version="1.0" contentScriptType="text/ecmascript" contentStyleType="text/css">
	<g id="Layer_1">
		<g>
			<path fill="none" stroke="#000000" stroke-width="7" d="M11.122,95.622V19.789"/>
			<path fill="none" stroke="#000000" stroke-width="3" d="M20.577,11.023c0,5.276-4.277,9.553-9.553,9.553S1.47,16.299,1.47,11.023     S5.748,1.47,11.023,1.47S20.577,5.748,20.577,11.023z"/>
			<path fill="none" stroke="#000000" stroke-width="4" d="M20.577,24.516v53.316c0,0,16.107-12.802,36.045,1.441     c15.166,10.834,33.484,2.364,33.484,2.364V26.683c0,0-16.729,10.35-32.5-0.985C38.698,12.107,20.577,24.516,20.577,24.516z"/>
			<path d="M33.563,47.804l3.063-0.25c0.143,1.221,0.475,2.223,0.996,3.004c0.521,0.782,1.331,1.415,2.429,1.897     s2.333,0.724,3.706,0.724c1.219,0,2.294-0.183,3.228-0.549c0.933-0.366,1.627-0.868,2.083-1.506     c0.455-0.638,0.684-1.332,0.684-2.084c0-0.762-0.217-1.427-0.648-1.996c-0.433-0.568-1.154-1.047-2.165-1.435     c-0.648-0.254-2.083-0.649-4.302-1.187c-2.22-0.537-3.778-1.044-4.676-1.521c-1.164-0.609-2.032-1.367-2.603-2.271     c-0.571-0.904-0.856-1.918-0.856-3.039c0-1.231,0.347-2.383,1.04-3.453s1.707-1.884,3.04-2.438     c1.332-0.555,2.813-0.833,4.443-0.833c1.795,0,3.378,0.29,4.749,0.869c1.371,0.58,2.425,1.433,3.163,2.558     c0.737,1.125,1.134,2.399,1.189,3.823l-3.063,0.25c-0.165-1.525-0.723-2.677-1.673-3.456c-0.951-0.779-2.354-1.169-4.211-1.169     c-1.934,0-3.343,0.357-4.228,1.071s-1.326,1.574-1.326,2.58c0,0.875,0.313,1.594,0.939,2.158c0.615,0.564,2.222,1.144,4.82,1.735     c2.598,0.592,4.383,1.109,5.354,1.551c1.412,0.652,2.454,1.479,3.127,2.479c0.673,1.001,1.01,2.153,1.01,3.457     c0,1.294-0.37,2.513-1.109,3.657s-1.801,2.034-3.186,2.67c-1.385,0.635-2.942,0.953-4.675,0.953     c-2.195,0-4.035-0.322-5.519-0.965c-1.484-0.643-2.648-1.61-3.492-2.902C34.051,50.896,33.607,49.435,33.563,47.804z"/>
			<path d="M58.507,62.537l3.063-0.25c0.143,1.221,0.475,2.223,0.996,3.004c0.521,0.782,1.331,1.415,2.429,1.897     s2.333,0.724,3.706,0.724c1.219,0,2.294-0.183,3.228-0.549c0.933-0.366,1.627-0.868,2.083-1.506     c0.455-0.638,0.684-1.332,0.684-2.084c0-0.762-0.217-1.427-0.648-1.996c-0.433-0.568-1.154-1.047-2.165-1.435     c-0.648-0.254-2.083-0.649-4.302-1.187c-2.22-0.537-3.778-1.044-4.676-1.521c-1.164-0.609-2.032-1.367-2.603-2.271     c-0.571-0.904-0.856-1.918-0.856-3.039c0-1.231,0.347-2.383,1.04-3.453s1.707-1.884,3.04-2.438     c1.332-0.555,2.813-0.833,4.443-0.833c1.795,0,3.378,0.29,4.749,0.869c1.371,0.58,2.425,1.433,3.163,2.558     c0.737,1.125,1.134,2.399,1.189,3.823l-3.063,0.25c-0.165-1.525-0.723-2.677-1.673-3.456c-0.951-0.779-2.354-1.169-4.211-1.169     c-1.934,0-3.343,0.357-4.228,1.071s-1.326,1.574-1.326,2.58c0,0.875,0.313,1.594,0.939,2.158c0.615,0.564,2.222,1.144,4.82,1.735     c2.598,0.592,4.383,1.109,5.354,1.551c1.412,0.652,2.454,1.479,3.127,2.479c0.673,1.001,1.01,2.153,1.01,3.457     c0,1.294-0.37,2.513-1.109,3.657s-1.801,2.034-3.186,2.67c-1.385,0.635-2.942,0.953-4.675,0.953     c-2.195,0-4.035-0.322-5.519-0.965c-1.484-0.643-2.648-1.61-3.492-2.902C58.995,65.628,58.551,64.167,58.507,62.537z"/>
		</g>
	</g>
</svg>
