<svg xmlns="http://www.w3.org/2000/svg" xmlns:xlink="http://www.w3.org/1999/xlink" xmlns:a="http://ns.adobe.com/AdobeSVGViewerExtensions/3.0/" width="28" height="28" viewBox="0 0 28 28" overflow="visible" enable-background="new 0 0 28 28" xml:space="preserve" preserveAspectRatio="xMidYMid meet" zoomAndPan="magnify" version="1.0" contentScriptType="text/ecmascript" contentStyleType="text/css">

	<g id="Layer_1">

	</g>

	<g id="Layer_2">

		<path fill="#FFFFFF" stroke="#000000" d="M27.5,27.5h-27v-27h27V27.5z"/>

		<g>

			<path d="M10.474,15.615l1.25-0.109c0.059,0.502,0.196,0.914,0.412,1.235c0.215,0.321,0.55,0.581,1.003,0.779     c0.454,0.199,0.964,0.298,1.531,0.298c0.503,0,0.947-0.075,1.333-0.226s0.672-0.357,0.86-0.619     c0.188-0.263,0.283-0.548,0.283-0.857c0-0.314-0.089-0.588-0.267-0.822s-0.476-0.432-0.895-0.591     c-0.268-0.104-0.861-0.268-1.78-0.488s-1.563-0.43-1.932-0.626c-0.479-0.251-0.835-0.563-1.071-0.936     c-0.234-0.372-0.352-0.789-0.352-1.251c0-0.508,0.143-0.982,0.43-1.423c0.286-0.441,0.705-0.776,1.255-1.005     S13.697,8.63,14.37,8.63c0.742,0,1.396,0.12,1.962,0.359c0.566,0.24,1.002,0.593,1.307,1.059s0.469,0.993,0.492,1.582     l-1.266,0.094c-0.068-0.628-0.299-1.104-0.692-1.425c-0.394-0.321-0.974-0.481-1.743-0.481c-0.801,0-1.384,0.147-1.75,0.44     c-0.366,0.294-0.549,0.648-0.549,1.063c0,0.36,0.129,0.656,0.389,0.888c0.254,0.232,0.919,0.47,1.996,0.714     c1.075,0.244,1.813,0.457,2.212,0.639c0.581,0.269,1.009,0.609,1.286,1.021s0.415,0.887,0.415,1.424     c0,0.533-0.152,1.035-0.457,1.506c-0.305,0.471-0.742,0.838-1.312,1.1c-0.57,0.262-1.212,0.393-1.925,0.393     c-0.904,0-1.662-0.132-2.272-0.396c-0.611-0.264-1.091-0.662-1.438-1.193S10.492,16.285,10.474,15.615z"/>

		</g>

		<path fill="none" d="M25.5,11.5H4.833V1.167H25.5V11.5z"/>

	</g>

</svg>
