<svg xmlns="http://www.w3.org/2000/svg" xmlns:xlink="http://www.w3.org/1999/xlink" xmlns:a="http://ns.adobe.com/AdobeSVGViewerExtensions/3.0/" width="36.333" height="36.167" viewBox="0 0 36.333 36.167" overflow="visible" enable-background="new 0 0 36.333 36.167" xml:space="preserve" preserveAspectRatio="xMidYMid meet" zoomAndPan="magnify" version="1.0" contentScriptType="text/ecmascript" contentStyleType="text/css">

	<g id="Layer_1">

		<path fill="#E6E6E6" stroke="#E6E6E6" d="M0.667,5.083l0.083-1l0.583-1.167L2,2l0.583-0.417l0.75-0.5L4.167,0.75l0.75-0.25h26.417    l0.417,0.083l0.917,0.333l0.667,0.333l0.583,0.667l0.75,0.583l0.25,0.417l0.333,0.667l0.333,0.667l0.167,0.833v26.083l-0.25,0.917    l-0.5,1l-0.417,0.583l-0.833,0.75l-0.667,0.5L32,35.333L31.167,35.5H5.333l-0.917-0.083l-0.917-0.5l-0.917-0.333L1.667,33.75    l-0.583-0.833l-0.417-1.333V5.083z"/>

		<g>

			<path fill="none" stroke="#E6E6E6" d="M0.5,31.167V5.594"/>

			<path fill="none" stroke="#E6E6E6" d="M35.833,5.615v25.718"/>

			<path fill="none" stroke="#E6E6E6" d="M5.489,0.583h25.375"/>

			<g>

				<path fill="none" stroke="#E6E6E6" d="M0.5,5.667c-0.083-2.729,2.083-5.083,5-5.083"/>

				<path fill="none" stroke="#E6E6E6" d="M35.833,5.667c0.153-2.702-2.083-5.083-5-5.083"/>

			</g>

			<g>

				<path fill="none" stroke="#E6E6E6" d="M5.083,35.667h26.25"/>

				<g>

					<path fill="none" stroke="#E6E6E6" d="M0.5,30.583c-0.153,2.702,2.083,5.083,5,5.083"/>

					<path fill="none" stroke="#E6E6E6" d="M35.833,30.583c0.153,2.702-2.083,5.083-5,5.083"/>

				</g>

			</g>

		</g>

		<path fill="#E6E6E6" stroke="#FFFFFF" stroke-width="0.5" d="M33.392,18.125c0,8.388-6.816,15.188-15.225,15.188    c-8.408,0-15.225-6.8-15.225-15.188S9.758,2.938,18.167,2.938C26.575,2.938,33.392,9.737,33.392,18.125z"/>

		<path fill="none" stroke="#828282" stroke-width="0.5" d="M28.849,7.365c2.755,2.749,4.459,6.545,4.459,10.739    c0,8.388-6.816,15.188-15.225,15.188c-4.323,0-8.226-1.797-10.997-4.684"/>

	</g>

</svg>
