<svg xmlns="http://www.w3.org/2000/svg" xmlns:xlink="http://www.w3.org/1999/xlink" xmlns:a="http://ns.adobe.com/AdobeSVGViewerExtensions/3.0/" width="264.091" height="164.227" viewBox="0 0 264.091 164.227" overflow="visible" enable-background="new 0 0 264.091 164.227" xml:space="preserve" preserveAspectRatio="xMidYMid meet" zoomAndPan="magnify" version="1.0" contentScriptType="text/ecmascript" contentStyleType="text/css">

	<g id="Layer_1">

		<path fill="none" stroke="#000000" stroke-width="3.5" d="M0,62.023h20.478v100.454h241.864V1.75H20.864v20.091H0"/>

		<path fill="none" stroke="#000000" d="M0,41.932h108.568"/>

		<g>

			<path fill="none" stroke="#000000" d="M102.387,41.932c0,0,32.454-1.625,56.409,87.626"/>

			<path stroke="#000000" d="M149.81,129.003l12.169,12.158l4.444-16.617L149.81,129.003z"/>

		</g>

		<g>

			<path fill="none" stroke="#000000" d="M104.318,41.932c0,0,65.294-4.25,94.659,87.705"/>

			<path stroke="#000000" d="M189.993,129.863l12.725,11.575l3.661-16.808L189.993,129.863z"/>

		</g>

		<g>

			<path fill="none" stroke="#000000" d="M105.478,41.932c0,0,100.84-1.931,134.068,86.932"/>

			<path stroke="#000000" d="M230.583,130.249l13.273,10.941l2.839-16.966L230.583,130.249z"/>

		</g>

		<path fill="none" stroke="#000000" stroke-width="4" d="M151.841,143.159h19.318"/>

		<path fill="none" stroke="#000000" stroke-width="4" d="M192.35,143.266h19.339"/>

		<path fill="none" stroke="#000000" stroke-width="4" d="M232.611,143.243h19.316"/>

	</g>

</svg>
