<svg xmlns="http://www.w3.org/2000/svg" width="20pt" height="20pt" viewBox="0 0 65.881 103.243" xml:space="preserve" preserveAspectRatio="xMidYMid meet" enableZoomAndPanControls="true" contentScriptType="text/ecmascript" contentStyleType="text/css">

	<g id="Layer_x0020_1" style="fill-rule:nonzero;clip-rule:nonzero;fill:none;stroke:#000000;stroke-width:2.5;stroke-linecap:round;stroke-linejoin:round;stroke-miterlimit:4;">

		<path style="stroke-width:4;stroke-linecap:butt;stroke-linejoin:miter;" d="M20.789,57.866h15.964"/>

		<path style="stroke-width:2.7365;stroke-linecap:butt;stroke-linejoin:miter;" d="M35.323,51.072H11.257V34.393h24.065v16.679z"/>

		<path style="fill:#000000;stroke-width:2.75;stroke-linecap:butt;stroke-linejoin:miter;" d="M39.374,17.118c0,3.224-4.961,5.838-11.08,5.838c-6.119,0-11.08-2.614-11.08-5.838c0-3.224,4.96-5.837,11.08-5.837c6.119,0,11.08,2.614,11.08,5.837z"/>

		<path style="fill:#000000;stroke-width:3.5;stroke-linecap:butt;stroke-linejoin:miter;" d="M49.858,11.757h11.438"/>

		<path style="fill:#000000;stroke-width:4;stroke-linecap:butt;stroke-linejoin:miter;" d="M58.436,11.995v7.863"/>

		<path style="fill:#000000;stroke-width:4;stroke-linecap:butt;stroke-linejoin:miter;" d="M8.753,18.905v-8.578"/>

		<path style="fill:#000000;stroke-width:3;stroke-linecap:butt;stroke-linejoin:miter;" d="M5.539,11.519h6.672"/>

		<path style="stroke-width:3.5;stroke-linecap:butt;stroke-linejoin:miter;" d="M9.589,18.667c0,0,3.336-16.918,20.73-16.918s21.921,17.156,21.921,17.156"/>

		<path d="M17.214,18.905H7.921c0,0-3.314,1.805-4.289,3.336c-1.668,2.621-2.383,5.004-2.383,5.004v24.066c0,0,2.859,5.718,6.433,6.195c2.641,0.353,3.574-5.242,3.574-5.242l-0.238-20.73"/>

		<path d="M39.85,18.667l11.199,0.953c0,0,7.863,0.179,10.008,2.145c2.859,2.621,3.574,4.766,3.574,4.766v24.542c0,0-2.621,6.671-9.77,6.671c0,0-4.527-1.668-3.098-4.051c2.354-3.925,3.098-7.148,3.098-7.148s-0.953-4.527-1.906-6.195s-3.098-11.914-3.098-11.914"/>

		<path d="M7.445,58.22c0,0,1.43,2.383,1.43,4.051s-0.477,5.242,0,6.672s3.336,5.957,3.813,7.148s0,13.581,0,13.581s-1.43,2.621-2.621,3.574s-3.336,3.574-2.621,5.719s7.625,2.859,7.625,2.859s5.48,1.906,14.773-6.434c2.135-1.916,1.191-18.585,1.191-18.585    s-1.43-6.434-5.719-8.102"/>

		<path d="M53.909,57.505c0,0,0,5.48-1.191,6.672s-3.098,3.574-3.098,5.004s0,25.257,0,25.257s-2.86,7.387-10.246,7.387c-7.386,0-9.531-6.434-9.531-6.434"/>

	</g>

</svg>
