<svg xmlns="http://www.w3.org/2000/svg" xmlns:xlink="http://www.w3.org/1999/xlink" xmlns:a="http://ns.adobe.com/AdobeSVGViewerExtensions/3.0/" width="89.505" height="97.642" viewBox="0 0 89.505 97.642" overflow="visible" enable-background="new 0 0 89.505 97.642" xml:space="preserve" preserveAspectRatio="xMidYMid meet" zoomAndPan="magnify" version="1.0" contentScriptType="text/ecmascript" contentStyleType="text/css">

	<g id="Layer_1">

		<path fill="none" stroke="#000000" stroke-width="4" d="M60.823,95.642H2V11.235c0-2.982,2.417-5.4,5.4-5.4h48.023    c2.982,0,5.399,2.417,5.399,5.4V95.642z"/>

		<path fill="none" stroke="#000000" stroke-width="3" d="M51.432,37.307H12.546V19.511h38.886V37.307z"/>

		<path fill="none" stroke="#000000" stroke-width="3" d="M61.586,25.729L79.938,0.892"/>

		<path d="M81.144,1.774h-2.405V0.007h2.405V1.774z"/>

		<path fill="none" stroke="#000000" stroke-width="4" d="M61.648,43.897L81.091,63.34c0,0,5.932,4.943,6.426,14.006    s-5.571,14.036-5.571,14.036s-2.996,3.594-9.258,3.924s-11.235-3.82-11.235-3.82"/>

		<g>

			<g>

				<path fill="none" d="M61.977,29.068c2.308,1.813,3.955,2.142,4.614,5.273c0.329,1.483,1.153,4.943-1.153,5.272"/>

				<path d="M61.977,32.068c1.421,1.077,3.072,1.898,3.978,3.497c0.419,0.739,0.552,1.63,0.713,2.453      c0.398,2.029,0.707-3.911-0.063-2.132c-0.208,0.481-0.724,0.616-1.166,0.728c-0.876,0.221,0.027,5.993,0,6      c2.914-0.735,1.951-6.791,1.665-8.91c-0.201-1.487-0.486-3.038-1.231-4.353c-0.831-1.468-2.599-2.3-3.895-3.283      c-0.024-0.018-0.3,2.809-0.3,3C61.677,29.61,61.454,31.67,61.977,32.068z"/>

			</g>

		</g>

	</g>

</svg>
