<svg xmlns="http://www.w3.org/2000/svg" xmlns:xlink="http://www.w3.org/1999/xlink" xmlns:a="http://ns.adobe.com/AdobeSVGViewerExtensions/3.0/" width="105.36" height="102.335" viewBox="0 0 105.36 102.335" overflow="visible" enable-background="new 0 0 105.36 102.335" xml:space="preserve" preserveAspectRatio="xMidYMid meet" zoomAndPan="magnify" version="1.0" contentScriptType="text/ecmascript" contentStyleType="text/css">

	<g id="Layer_1">

		<path fill="#828282" stroke="#000000" stroke-width="0.5" d="M0.25,18.408v83.678h104.86V23.514c0,0-3.026,17.682-23.322,17.682    c-16.557,0-25.458-14.955-27.061-19.771c-1.543-4.639-8.723-21.177-27.951-21.177S0.25,18.408,0.25,18.408z"/>

		<path fill="#828282" stroke="#000000" stroke-width="0.5" d="M43.155,101.904V5.589"/>

		<path fill="#828282" stroke="#000000" stroke-width="0.5" d="M0.428,81.252h42.443"/>

		<path fill="#828282" stroke="#000000" stroke-width="0.5" d="M0.231,61.135h42.962"/>

		<path fill="#828282" stroke="#000000" stroke-width="0.5" d="M0.356,39.237h42.587"/>

		<path fill="#828282" stroke="#000000" stroke-width="0.5" d="M0.356,20.01h42.659"/>

		<path fill="#828282" stroke="#000000" stroke-width="0.5" d="M60.068,102.26V30.323"/>

		<path fill="#828282" stroke="#000000" stroke-width="0.5" d="M60.068,80.896h44.883"/>

		<path fill="#828282" stroke="#000000" stroke-width="0.5" d="M60.068,60.957h44.811"/>

		<path fill="#828282" stroke="#000000" stroke-width="0.5" d="M59.962,39.059h11.314"/>

		<path fill="#828282" stroke="#000000" stroke-width="0.5" d="M92.83,39.059h12.105"/>

		<path fill="#828282" stroke="#000000" stroke-width="0.5" d="M97.632,18.229"/>

	</g>

</svg>
