<svg xmlns="http://www.w3.org/2000/svg" xmlns:xlink="http://www.w3.org/1999/xlink" xmlns:a="http://ns.adobe.com/AdobeSVGViewerExtensions/3.0/" width="43.889" height="27.933" viewBox="0 0 43.889 27.933" overflow="visible" enable-background="new 0 0 43.889 27.933" xml:space="preserve" preserveAspectRatio="xMidYMid meet" zoomAndPan="magnify" version="1.0" contentScriptType="text/ecmascript" contentStyleType="text/css">

	<g id="Layer_1">

		<g>

			<path fill="#C8C8C8" stroke="#E3E3E3" stroke-width="4" d="M41.889,25.933H2V2h39.889V25.933z"/>

			<path d="M13.801,10.366c0.456-0.108,1.188-0.18,1.908-0.18c1.044,0,1.716,0.18,2.208,0.588c0.42,0.312,0.684,0.792,0.684,1.428     c0,0.792-0.528,1.476-1.368,1.776v0.036c0.768,0.18,1.668,0.816,1.668,2.016c0,0.696-0.276,1.224-0.696,1.62     c-0.552,0.516-1.464,0.756-2.784,0.756c-0.72,0-1.272-0.048-1.62-0.096V10.366z M14.845,13.678h0.948     c1.092,0,1.74-0.588,1.74-1.368c0-0.936-0.708-1.32-1.764-1.32c-0.48,0-0.756,0.036-0.924,0.072V13.678z M14.845,17.542     c0.216,0.036,0.504,0.048,0.876,0.048c1.08,0,2.076-0.396,2.076-1.572c0-1.092-0.948-1.56-2.088-1.56h-0.864V17.542z"/>

			<path d="M21.541,11.134v1.392h1.512v0.804h-1.512v3.132c0,0.72,0.204,1.128,0.792,1.128c0.288,0,0.456-0.024,0.612-0.072     l0.048,0.804c-0.204,0.072-0.528,0.144-0.936,0.144c-0.492,0-0.888-0.168-1.14-0.444c-0.288-0.324-0.408-0.84-0.408-1.524V13.33     h-0.9v-0.804h0.9v-1.068L21.541,11.134z"/>

			<path d="M24.241,14.098c0-0.612-0.012-1.092-0.048-1.572h0.936l0.06,0.948h0.024c0.288-0.54,0.96-1.08,1.92-1.08     c0.804,0,2.052,0.48,2.052,2.472v3.468h-1.056v-3.348c0-0.936-0.348-1.728-1.344-1.728c-0.684,0-1.224,0.492-1.416,1.08     c-0.048,0.132-0.072,0.324-0.072,0.492v3.504h-1.056V14.098z"/>

			<path fill="#979797" d="M43.723,27.833H3.973v-4h39.75V27.833z"/>

			<path fill="#979797" d="M43.848,3.958v23.875h-4V3.958H43.848z"/>

			<g>

				<path d="M0.098,0v9l9-9H0.098z"/>

				<path d="M0.015,27.833h9l-9-9V27.833z"/>

			</g>

			<path d="M43.858,0.017v9l-9-9H43.858z"/>

			<path d="M43.848,27.833h-9l9-9V27.833z"/>

		</g>

	</g>

</svg>
