<svg xmlns="http://www.w3.org/2000/svg" width="247.771pt" height="121.75pt" viewBox="0 0 247.771 121.75" xml:space="preserve" preserveAspectRatio="xMidYMid meet" enableZoomAndPanControls="true" contentScriptType="text/ecmascript" contentStyleType="text/css">

	<g id="Layer_x0020_1" style="fill-rule:nonzero;clip-rule:nonzero;stroke:#000000;stroke-miterlimit:4;">

	</g>

	<g id="Layer_x0020_2" style="fill-rule:nonzero;clip-rule:nonzero;stroke:#000000;stroke-miterlimit:4;">

	</g>

	<g id="lineart" style="fill-rule:nonzero;clip-rule:nonzero;fill:#A4A4A4;stroke:#000000;stroke-width:0.25;stroke-miterlimit:4;">

		<path style="fill:#B4B4B4;stroke:none;" d="M183.625,17.554h52.167l2.208,0.5l1.875,1l1.134,1.042l1.143,1.171l0.871,1.172l0.872,1.348l0.925,1.64l0.763,1.934l0.599,1.934l0.49,1.875l0.326,1.816l0.294,1.651l0.208,1.958l0.083,1.792l0.042,1.75l-0.125,2l-0.333,2.125l-0.458,1.958    l-0.746,2.059l-0.754,1.941l-0.708,1.458l-1.792,2.708l-0.958,1.292l-1.083,1.208l-1.708,1.625l-1.5,1.292l-2.833,1.917l-2.75,1.75l-1.167,0.917l-0.75,0.5l-0.5,0.458l-1.083,0.958l-0.917,0.917l-1.125,1.292l-0.833,1.083l-0.542,0.917l-1,1.625l-0.542,1.208    l-0.458,1.375l-0.417,1.5l-0.417,2.167l-0.167,1.667l-0.083,1.25l-0.042,1.958l0.25,2.792l0.375,2.458l0.333,1.542l0.542,1.625l0.5,1.583l0.833,2l1.042,2.125l2.167,2.958l2.708,2.5l3.083,1.5l-50.542-0.125"/>

		<path style="stroke:none;" d="M189.989,103.312"/>

		<path style="fill:none;" d="M234.292,61.971c6-3.5,13.354-10.72,13.354-22.711c0-11.991-5.452-21.711-12.179-21.711h-52.174"/>

		<path style="fill:none;" d="M234.314,61.971c-6.377,3.917-12.591,9.25-12.402,20.708c0.198,11.99,6.958,21.71,13.554,21.71h-51.851"/>

		<path d="M225.918,17.548v36.393"/>

		<path d="M211.699,17.548v36.672"/>

		<path d="M242.958,54.13h-59.313"/>

		<path d="M229.375,65.213h-46.083"/>

		<path d="M197.354,65.298v38.952"/>

		<path d="M211.516,65.262v39.059"/>

		<path d="M197.412,17.554v36.521"/>

		<path style="fill:#B4B4B4;stroke:none;" d="M64.146,104.383H11.979l-2.208-0.5l-1.875-1l-1.134-1.042l-1.143-1.171l-0.871-1.172L3.877,98.15l-0.925-1.64l-0.763-1.934L1.59,92.643L1.1,90.767l-0.326-1.816L0.479,87.3l-0.208-1.958L0.187,83.55L0.146,81.8l0.125-2l0.333-2.125    l0.458-1.958l0.746-2.059l0.754-1.941l0.708-1.458l1.792-2.708l0.958-1.292l1.083-1.208l1.708-1.625l1.5-1.292l2.833-1.917l2.75-1.75l1.167-0.917l0.75-0.5l0.5-0.458l1.083-0.958l0.917-0.917l1.125-1.292l0.833-1.083l0.542-0.917l1-1.625l0.542-1.208l0.458-1.375    l0.417-1.5l0.417-2.167l0.167-1.667l0.083-1.25l0.042-1.958l-0.25-2.792l-0.375-2.458l-0.333-1.542l-0.542-1.625l-0.5-1.583l-0.833-2l-1.042-2.125l-2.167-2.958l-2.708-2.5l-3.083-1.5l50.542,0.125"/>

		<path style="stroke:none;" d="M57.781,18.625"/>

		<path style="fill:none;" d="M13.479,59.967c-6,3.5-13.354,10.72-13.354,22.711c0,11.991,5.452,21.711,12.179,21.711h52.174"/>

		<path style="fill:none;" d="M13.456,59.967c6.377-3.917,12.591-9.25,12.402-20.708c-0.198-11.99-6.958-21.71-13.554-21.71h51.851"/>

		<path d="M21.853,104.389V67.996"/>

		<path d="M36.072,104.389V67.717"/>

		<path d="M4.812,67.807h59.313"/>

		<path d="M18.396,56.725h46.083"/>

		<path d="M50.417,56.639V17.688"/>

		<path d="M36.255,56.675V17.617"/>

		<path d="M50.359,104.383V67.862"/>

		<path style="fill:#B4B4B4;" d="M185.05,0.125v121.5H63.55V0.125h121.5z"/>

	</g>

</svg>
