<svg xmlns="http://www.w3.org/2000/svg" xmlns:xlink="http://www.w3.org/1999/xlink" xmlns:a="http://ns.adobe.com/AdobeSVGViewerExtensions/3.0/" width="78.386" height="87.594" viewBox="0 0 78.386 87.594" overflow="visible" enable-background="new 0 0 78.386 87.594" xml:space="preserve" preserveAspectRatio="xMidYMid meet" zoomAndPan="magnify" version="1.0" contentScriptType="text/ecmascript" contentStyleType="text/css">

	<g id="Layer_1">

		<path d="M39.988,39.988l8.805,4.036c0,0,12.106-3.301,12.29-11.556s-10.455-8.255-14.308-6.054    c-3.852,2.202-1.468,6.054-1.468,6.054s3,1.974,5.687-1.284c1.01-1.225,3.093,2.025,3.093,2.025S55.214,37.97,39.988,39.988z"/>

		<path fill="none" stroke="#000000" stroke-width="4" d="M39.255,7.887v32.278"/>

		<path d="M44.207,4.861c0,2.685-2.176,4.861-4.861,4.861s-4.861-2.176-4.861-4.861S36.662,0,39.346,0S44.207,2.176,44.207,4.861z"/>

		<path d="M37.237,47.523v9.524l4.205,2.019v-9.722L37.237,47.523z"/>

		<path d="M37.237,65.171v10.227l4.205,2.561V66.995L37.237,65.171z"/>

		<path d="M37.237,82.108v5.049h4.036l-0.019-3.448L37.237,82.108z"/>

		<path d="M41.442,59.066l5.395,2.893c0,0,5.857-3.952,6.176-9.313c0.407-6.854-11.51-10.437-11.51-10.437    s-5.988-1.824-15.272-5.706c-3.894-1.628-1.284-4.77-1.284-4.77s2.201-2.385,4.036,0.55s4.586-0.184,4.586-0.184    s2.568-4.219-3.485-6.604s-12.576,1.651-12.664,7.337c-0.082,5.291,4.874,7.867,7.344,9.172    c2.907,1.536,16.573,6.286,16.573,6.286s3.833,0.833,4.889,4.903C47.197,56.941,41.442,59.066,41.442,59.066z"/>

		<path fill="#FFFFFF" d="M48.243,30.267h-2.201v-2.201h2.201V30.267z"/>

		<path fill="#FFFFFF" d="M32.044,30.267h-2.198v-2.201h2.198V30.267z"/>

		<path fill="none" stroke="#000000" d="M40.539,57.965l2.201,1.101"/>

		<path fill="none" stroke="#000000" d="M37.42,39.445l11.012,3.859"/>

		<path d="M36.445,47.509l-7.154-2.751c0,0-4.479,2.591-3.853,8.254C26.212,60,34.837,63.25,34.837,63.25s3.282,1.407,7.375,3.125    c2.58,1.083,3.404,3.146,3.404,4.063c0,2.594-5.571,6.354-5.571,6.354l2.292,1.958c0,0,7.708-3.958,8.049-8.862    c0.407-5.864-8.34-9.263-8.34-9.263s-5.333-2.5-7.376-4.495C33.16,54.657,29.475,52.095,36.445,47.509z"/>

		<path d="M36.69,65.211l-4.413-2.294c0,0-4.029,2.676-4.029,8.029s5.088,7.929,5.088,7.929s4.875,2.5,7.875,3.875    c1.545,0.708,2.744,1.741,3.821,2.792c0.642,0.626,1.284,1.123,1.48,1.303l1.178,0.749l0.479-0.011    c0.174-0.348-0.203-0.987-0.374-1.274c-1.412-2.374-1.872-3.537-7.514-7.888c-3.902-3.009-6.799-3.476-7.045-6.709    C32.925,67.619,36.69,65.211,36.69,65.211z"/>

		<path d="M37.462,81.598L34.587,80.5c0,0-4.812,5.657-4.5,6.875c0.346,1.353,3.111-2.213,3.111-2.213L37.462,81.598z"/>

		<path d="M37.421,13.023c0,0,0.446,0.262-2.385-0.367c-1.651-0.367-4.786-5.152-5.32-5.687c-0.733-0.734-4.402-0.367-4.402-0.367    s-7.888,2.751-11.556,3.668c-3.072,0.768-13.574,2.751-13.574,2.751L0,14.491c0,0,2.568,1.376,6.283,3.05    c0.267,0.12,7.737-2.637,8.016-2.514c0.173,0.076,2.238-0.657,2.146,0.05c-0.093,0.708-8.46,3.214-8.279,3.292    c2.242,0.965,4.766,1.968,7.329,2.826c0.229,0.077,5.104-2.447,7.225-3.529c1.302-0.665,2.38-0.113,2.521-0.068    c0.316,0.1-8.004,4.156-7.688,4.25c0.634,0.189,1.266,0.367,1.893,0.53c3.818,0.993,4.457,0.998,7.123,1.257    c0.14,0.014,2.413-2.857,3.685-4.186c0.46-0.481,1.509-0.447,1.558-0.444c0.316,0.023-4.051,4.717-3.744,4.725    c3.078,0.081,5.755-0.604,8.804-2.452C42.924,17.609,37.421,13.023,37.421,13.023z"/>

		<path d="M40.971,13.023c0,0-0.446,0.262,2.385-0.367c1.649-0.367,4.784-5.152,5.318-5.687c0.733-0.734,4.401-0.367,4.401-0.367    s7.887,2.751,11.555,3.668c3.072,0.768,13.572,2.751,13.572,2.751l0.184,1.468c0,0-2.567,1.376-6.282,3.05    c-0.267,0.12-7.736-2.637-8.015-2.514c-0.173,0.076-2.237-0.657-2.146,0.05c0.093,0.708,8.46,3.214,8.278,3.292    c-2.241,0.965-4.765,1.968-7.328,2.826c-0.229,0.077-5.103-2.447-7.224-3.529c-1.302-0.665-2.379-0.113-2.52-0.068    c-0.316,0.1,8.003,4.156,7.687,4.25c-0.634,0.189-1.266,0.367-1.893,0.53c-3.818,0.993-4.457,0.998-7.122,1.257    c-0.14,0.014-2.412-2.857-3.684-4.186c-0.46-0.481-1.509-0.447-1.558-0.444c-0.316,0.023,4.051,4.717,3.743,4.725    c-3.078,0.081-5.754-0.604-8.802-2.452C35.468,17.609,40.971,13.023,40.971,13.023z"/>

	</g>

</svg>
