<svg xmlns="http://www.w3.org/2000/svg" xmlns:xlink="http://www.w3.org/1999/xlink" xmlns:a="http://ns.adobe.com/AdobeSVGViewerExtensions/3.0/" width="65.881" height="103.23" viewBox="0 0 65.881 103.23" overflow="visible" enable-background="new 0 0 65.881 103.23" xml:space="preserve" preserveAspectRatio="xMidYMid meet" zoomAndPan="magnify" version="1.0" contentScriptType="text/ecmascript" contentStyleType="text/css">

	<g id="Layer_1">

		<path fill="none" stroke="#000000" stroke-width="4" d="M20.789,57.854h15.964"/>

		<path fill="none" stroke="#000000" stroke-width="2.7365" d="M35.323,51.06H11.257V34.381h24.065V51.06z"/>

		<path stroke="#000000" stroke-width="2.75" d="M39.374,17.105c0,3.224-4.961,5.838-11.08,5.838c-6.119,0-11.08-2.614-11.08-5.838    c0-3.224,4.96-5.837,11.08-5.837C34.413,11.268,39.374,13.882,39.374,17.105z"/>

		<path stroke="#000000" stroke-width="3.5" d="M49.858,11.745h11.438"/>

		<path stroke="#000000" stroke-width="4" d="M58.436,11.983v7.863"/>

		<path stroke="#000000" stroke-width="4" d="M8.753,18.893v-8.578"/>

		<path stroke="#000000" stroke-width="3" d="M5.539,11.506h6.672"/>

		<path fill="none" stroke="#000000" stroke-width="3.5" d="M9.589,18.655c0,0,3.336-16.918,20.73-16.918    s21.921,17.156,21.921,17.156"/>

		<path fill="none" stroke="#000000" stroke-width="2.5" stroke-linecap="round" stroke-linejoin="round" d="M17.214,18.893H7.921    c0,0-3.314,1.805-4.289,3.336C1.965,24.85,1.25,27.232,1.25,27.232v24.066c0,0,2.859,5.718,6.433,6.195    c2.641,0.353,3.574-5.242,3.574-5.242l-0.238-20.73"/>

		<path fill="none" stroke="#000000" stroke-width="2.5" stroke-linecap="round" stroke-linejoin="round" d="M39.85,18.655    l11.199,0.953c0,0,7.863,0.179,10.008,2.145c2.859,2.621,3.574,4.766,3.574,4.766V51.06c0,0-2.621,6.671-9.77,6.671    c0,0-4.527-1.668-3.098-4.051c2.354-3.925,3.098-7.148,3.098-7.148s-0.953-4.527-1.906-6.195s-3.098-11.914-3.098-11.914"/>

		<path fill="none" stroke="#000000" stroke-width="2.5" stroke-linecap="round" stroke-linejoin="round" d="M7.445,58.208    c0,0,1.43,2.383,1.43,4.051s-0.477,5.242,0,6.672s3.336,5.957,3.813,7.148s0,13.581,0,13.581s-1.43,2.621-2.621,3.574    s-3.336,3.574-2.621,5.719s7.625,2.859,7.625,2.859s5.48,1.906,14.773-6.434c2.135-1.916,1.191-18.585,1.191-18.585    s-1.43-6.434-5.719-8.102"/>

		<path fill="none" stroke="#000000" stroke-width="2.5" stroke-linecap="round" stroke-linejoin="round" d="M53.909,57.493    c0,0,0,5.48-1.191,6.672s-3.098,3.574-3.098,5.004s0,25.257,0,25.257s-2.86,7.387-10.246,7.387c-7.386,0-9.531-6.434-9.531-6.434"/>

	</g>

</svg>
