<svg xmlns="http://www.w3.org/2000/svg" xmlns:xlink="http://www.w3.org/1999/xlink" xmlns:a="http://ns.adobe.com/AdobeSVGViewerExtensions/3.0/" width="11.117" height="29.518" viewBox="0 0 11.117 29.518" overflow="visible" enable-background="new 0 0 11.117 29.518" xml:space="preserve" preserveAspectRatio="xMidYMid meet" zoomAndPan="magnify" version="1.0" contentScriptType="text/ecmascript" contentStyleType="text/css">

	<g id="Layer_1">

		<path fill="#FDE7AB" stroke="#A7946C" d="M4.705,12.208c0,0-2.803-0.84-2.172-5.115S9.47,0.997,9.47,0.997S7.858,2.678,8.909,4.43    s1.542,0.631,1.612,3.224S6.807,12.208,4.705,12.208z"/>

		<path fill="#FDE7AB" d="M8.699,20.478c0,0,2.663-0.28,2.243,3.574s-2.243,3.574-2.243,3.574"/>

		<path fill="#FDE7AB" stroke="#A7946C" d="M0.5,29.518V16.343c0,0,0.42-2.313,4.064-2.313s4.064,2.313,4.064,2.313v13.174"/>

		<path fill="none" stroke="#A7946C" d="M0.5,16.343c0,0,0.071,1.612,4.135,1.612s3.994-1.612,3.994-1.612"/>

		<path fill="none" stroke="#000000" d="M4.564,15.432c0,0-0.771-4.835,2.313-5.466"/>

	</g>

</svg>
