<svg xmlns="http://www.w3.org/2000/svg" xmlns:xlink="http://www.w3.org/1999/xlink" xmlns:a="http://ns.adobe.com/AdobeSVGViewerExtensions/3.0/" width="107.886" height="114.441" viewBox="0 0 107.886 114.441" overflow="visible" enable-background="new 0 0 107.886 114.441" xml:space="preserve" preserveAspectRatio="xMidYMid meet" zoomAndPan="magnify" version="1.0" contentScriptType="text/ecmascript" contentStyleType="text/css">

	<g id="Layer_1">

		<path fill="#F5DEB3" d="M6.524,30.774l3.333-7.333l5-5.667l8-6.667l8-4.667l8.333-3.333l6.667-1l8.333-0.667h5l6.333,1l4.667,1    l5,1.667l5,2.667l5.667,4l5,4.333l4,4l3.667,4.667l2.667,4l1.667,4l-7.333-4.667l-6.667-0.667l-6,1l-3.667,2.333l-3.667,4    l-1.667,2.667l-0.941,2.254l-4.059-4.587l-4.667-4.333l-6-2.667h-4.333l-6.667,1.333l-3.333,1l-3.667,3l-1.333,2.333l-2.333,4    l-3.333-4l-4-4l-4.667-2.667l-4-2l-5.333,0.333l-4.667,1.667L6.524,30.774z"/>

		<path fill="none" stroke="#000000" stroke-width="2" d="M64.195,69.441H43.853v5l-5.962,12v27h32.267V87.108l-5.962-12.333V69.441    z"/>

		<path fill="none" stroke="#000000" stroke-width="1.3311" d="M43.847,69.441l-42.655-28"/>

		<path fill="none" stroke="#000000" stroke-width="1.3208" d="M53.191,69.441l-17-29"/>

		<path fill="none" stroke="#000000" stroke-width="1.3208" d="M55.191,69.441l17.726-29.746"/>

		<path fill="none" stroke="#000000" stroke-width="1.3309" d="M64.201,69.441l43.312-29.333"/>

	</g>

	<g id="top">

		<path fill="none" stroke="#000000" stroke-width="2" d="M1.207,40.773C7.812,18.398,29.676,0.997,55.651,0.997    c25.354,0,44.047,17.565,51.201,39.121"/>

	</g>

	<g id="Layer_2">

		<path fill="none" stroke="#000000" stroke-width="2" d="M0.954,41.577c0.063-0.267,0.147-0.535,0.253-0.803    c3.043-7.687,7.898-12.328,17.619-12.77c2.769-0.126,9.229,1.241,18.031,13.104"/>

		<path fill="none" stroke="#000000" stroke-width="2" d="M36.857,41.108c0.061-0.218,0.578-1.721,0.682-1.939    C40.5,32.9,45.222,29.116,54.677,28.756c2.693-0.103,10.101,0.031,17.194,10.67"/>

		<path fill="none" stroke="#000000" stroke-width="2" d="M71.859,39.362c0.063-0.242,0.91,0.556,1.057,0.333    c4.999-7.587,7.973-11.186,17.785-11.587c2.794-0.114,10.767,1,16.15,12"/>

	</g>

</svg>
