<svg xmlns="http://www.w3.org/2000/svg" width="133.299pt" height="124.833pt" viewBox="0 0 133.299 124.833" xml:space="preserve" preserveAspectRatio="xMidYMid meet" enableZoomAndPanControls="true" contentScriptType="text/ecmascript" contentStyleType="text/css">

	<g id="Layer_x0020_1" style="fill-rule:nonzero;clip-rule:nonzero;fill:none;stroke:#000000;stroke-width:1.5;stroke-miterlimit:4;">

		<path style="stroke-width:5;stroke-linecap:round;" d="M62.994,2.5v49.636"/>

		<path style="stroke-width:5;stroke-linecap:round;" d="M62.994,122.333V100.81"/>

		<path style="stroke-width:5;stroke-linecap:round;" d="M2.5,62.772h8.255"/>

		<path style="stroke-width:5;stroke-linecap:round;" d="M123.83,62.772h5.368"/>

		<path style="stroke-width:5;stroke-linecap:round;" d="M110.497,62.772h5.008"/>

		<path style="stroke-width:2;" d="M12.083,59.926c0,3.667,0.832,8.608,0.832,8.608s4.21,31.023,49.858,31.023s51.631-31.466,51.631-31.466s0.721-7.165,0.721-9.832s-0.721-8.339-0.721-8.339s-9.307-29.915-51.409-29.915S12.693,51.472,12.693,51.472s-0.61,4.788-0.61,8.455z"/>

		<path style="stroke-width:2;" d="M12.333,53.909c0,0,7.229,28.585,50.661,28.585s51.77-31.023,51.77-31.023"/>

		<g>

			<path d="M67.674,61.702c9.369-0.784,11.717-3.804,11.717-3.804"/>

			<path d="M61.882,61.876c0.363,0.007,0.734,0.01,1.112,0.01c0.533,0,1.05-0.006,1.551-0.019"/>

			<path d="M45.267,41.057c0,0-5.54,3.546-5.54,7.978s5.983,8.642,5.983,8.642s3.214,3.392,13.487,4.087"/>

			<path style="fill:#000000;stroke-width:1;" d="M79.718,62.94l10.885-12.842l-15.849,5.68l4.964,7.162z"/>

		</g>

		<g>

			<path d="M119.855,65.875c0.717,9.275,4.076,13.518,4.076,13.518"/>

			<path d="M119.771,60.778c-0.032,0.511-0.049,1.029-0.049,1.552c0,0.375,0.004,0.745,0.013,1.107"/>

			<path d="M128.142,41.722c0,0-6.379,6.715-8.031,16.2"/>

			<path style="fill:#000000;stroke-width:1;" d="M118.454,79.1l13.789,12.359l-5.762-17.599l-8.027,5.239z"/>

		</g>

	</g>

</svg>
