<svg xmlns="http://www.w3.org/2000/svg" width="20pt" height="20pt" viewBox="0 0 57.917 43.945" xml:space="preserve" preserveAspectRatio="xMidYMid meet" enableZoomAndPanControls="true" contentScriptType="text/ecmascript" contentStyleType="text/css">

	<g id="Layer_x0020_1" style="fill-rule:nonzero;clip-rule:nonzero;fill:none;stroke:#000000;stroke-miterlimit:4;">

		<path style="fill:#1E90FF;stroke:none;" d="M50.667,40.091h7.25v-5.166h-7.25v5.166z"/>

		<path style="fill:#1E90FF;stroke:none;" d="M38.333,40.341h-18.5v-5.916h18.5v5.916z"/>

		<path style="fill:#1E90FF;stroke:none;" d="M7.083,40.175H0v-5.417h7.083v5.417z"/>

		<path style="fill:#1E90FF;stroke:none;" d="M38.167,9.258H20V3.591h18.167v5.667z"/>

		<path style="fill:#1E90FF;stroke:none;" d="M50.833,9.174h7.083v-5.25h-7.083v5.25z"/>

		<path style="fill:#1E90FF;stroke:none;" d="M7.167,9.174H0V3.841h7.167v5.333z"/>

		<path style="fill:#1E90FF;" d="M50.585,11.884V1.207l-5.338,5.339l5.338,5.338z"/>

		<path style="fill:#1E90FF;" d="M19.632,11.884V1.207l-5.339,5.339l5.339,5.338z"/>

		<path style="fill:#1E90FF;" d="M38.413,1.208v10.677l5.338-5.339l-5.338-5.338z"/>

		<path style="fill:#1E90FF;" d="M7.451,1.208v10.677l5.339-5.339L7.451,1.208z"/>

		<path d="M39.231,13.62h10.691l-5.347-5.339l-5.345,5.339z"/>

		<path d="M8.189,13.537h10.677l-5.339-5.339l-5.338,5.339z"/>

		<path style="fill:#1E90FF;" d="M50.541,32.056v10.683l-5.338-5.339l5.338-5.344z"/>

		<path style="fill:#1E90FF;" d="M19.596,32.056v10.683l-5.339-5.339l5.339-5.344z"/>

		<path style="fill:#1E90FF;" d="M38.367,42.738V32.055l5.338,5.346l-5.338,5.338z"/>

		<path style="fill:#1E90FF;" d="M7.414,42.738V32.055l5.339,5.346l-5.339,5.338z"/>

		<path d="M39.185,30.319h10.691l-5.346,5.343l-5.346-5.343z"/>

		<path d="M8.152,30.402h10.677l-5.339,5.344l-5.338-5.344z"/>

		<path d="M12.417,37.425H14.5"/>

		<path d="M13.49,35.746v1.595"/>

		<path d="M43.383,37.432h2.084"/>

		<path d="M44.458,35.754v1.594"/>

		<g>

			<path d="M12.48,6.543h2.082"/>

			<path d="M13.553,6.627v1.595"/>

		</g>

		<g>

			<path d="M43.549,6.543h2.084"/>

			<path d="M44.624,8.222V6.627"/>

		</g>

		<path d="M19.75,3.424h18.667"/>

		<path d="M19.75,9.508h18.5"/>

		<path d="M50.833,3.424h7.083"/>

		<path d="M50.833,9.508h7.083"/>

		<path d="M7.167,3.508H0"/>

		<path d="M7,9.508H0"/>

		<path d="M7.083,34.508H0"/>

		<path d="M7,40.508H0"/>

		<path d="M19.833,34.425h18.25"/>

		<path d="M19.917,40.508H38"/>

		<path d="M50.833,34.508h7.083"/>

		<path style="stroke-width:0.9942;" d="M50.833,40.425h7.084"/>

		<path d="M13.5,13.41v17.098"/>

		<path d="M44.5,13.746v16.596"/>

	</g>

</svg>
