<svg xmlns="http://www.w3.org/2000/svg" width="20pt" height="20pt" viewBox="0 0 83.264 52.049" xml:space="preserve" preserveAspectRatio="xMidYMid meet" enableZoomAndPanControls="true" contentScriptType="text/ecmascript" contentStyleType="text/css">

	<g id="Layer_x0020_1" style="fill-rule:nonzero;clip-rule:nonzero;stroke:#000000;stroke-miterlimit:4;">

		<path style="fill:#FF7100;stroke:none;" d="M52.336,33.046v-3.262L36.451,10.637h-6.099l-8.793,5.957L10.354,28.65l-7.943-4.964L25.53,0.142H41.84l26.522,27.373l1.419,1.986l1.134,1.702v1.812l-18.579,0.032z"/>

		<path d="M39.854,45.244v6.306h42.909v-7.015L71.482,33.331H51.627L39.854,45.244z"/>

		<path style="stroke:none;" d="M39.146,5.602c0,3.094-2.508,5.603-5.603,5.603c-3.094,0-5.602-2.508-5.602-5.603C27.941,2.508,30.449,0,33.543,0c3.094,0,5.603,2.508,5.603,5.602z"/>

		<path style="stroke:none;" d="M11.205,27.728c0,3.094-2.508,5.603-5.603,5.603S0,30.822,0,27.728s2.508-5.603,5.603-5.603s5.603,2.508,5.603,5.603z"/>

		<path style="fill:none;stroke-width:3;" d="M7.943,31.203l8.084,8.084"/>

		<path style="fill:none;stroke-width:3;" d="M4.255,32.196l1.985,12.339"/>

	</g>

</svg>
