<svg xmlns="http://www.w3.org/2000/svg" xmlns:xlink="http://www.w3.org/1999/xlink" xmlns:a="http://ns.adobe.com/AdobeSVGViewerExtensions/3.0/" width="28" height="28" viewBox="0 0 28 28" overflow="visible" enable-background="new 0 0 28 28" xml:space="preserve" preserveAspectRatio="xMidYMid meet" zoomAndPan="magnify" version="1.0" contentScriptType="text/ecmascript" contentStyleType="text/css">

	<g id="Layer_1">

	</g>

	<g id="Layer_2">

		<path fill="#FFFFFF" stroke="#000000" d="M27.5,27.5h-27v-27h27V27.5z"/>

		<path d="M14.011,19.167H5.583l4.48-9.632L14.011,19.167z M6.507,18.48h5.768L9.56,11.929L6.507,18.48z"/>

		<path d="M15.146,19.167V9.135h3.784c0.666,0,1.174,0.032,1.526,0.096c0.493,0.082,0.905,0.238,1.238,0.469    s0.601,0.554,0.804,0.969c0.203,0.415,0.304,0.871,0.304,1.368c0,0.853-0.271,1.575-0.814,2.166    c-0.543,0.591-1.523,0.886-2.942,0.886h-2.572v4.078H15.146z M16.474,13.901h2.589c0.856,0,1.464-0.159,1.824-0.478    s0.54-0.767,0.54-1.345c0-0.419-0.106-0.777-0.317-1.075c-0.212-0.298-0.491-0.495-0.837-0.591    c-0.223-0.059-0.636-0.089-1.237-0.089h-2.562V13.901z"/>

	</g>

</svg>
