<svg xmlns="http://www.w3.org/2000/svg" xmlns:xlink="http://www.w3.org/1999/xlink" xmlns:a="http://ns.adobe.com/AdobeSVGViewerExtensions/3.0/" width="211.834" height="208.598" viewBox="0 0 211.834 208.598" overflow="visible" enable-background="new 0 0 211.834 208.598" xml:space="preserve" preserveAspectRatio="xMidYMid meet" zoomAndPan="magnify" version="1.0" contentScriptType="text/ecmascript" contentStyleType="text/css">

	<g id="Layer_1">

		<path fill="#B4B4B4" stroke="#B4B4B4" stroke-width="0.5" d="M73.878,178.855H38.76v21.77l2.536-2.678l3.443-1.55l2.896-0.235    l2.219,0.191l3.297,1.339l1.268,0.829l0.951,1.021l0.697,1.212l0.509,1.312l0.188,1.813l0.634,1.339l1.775,1.531l2.346,0.955    l1.822,0.489l3.637,0.081l2.269-0.414l3.222-1.707l1.583-2.551l-0.118-1.719L73.878,178.855z"/>

		<path fill="none" stroke="#000000" stroke-width="0.5" d="M56.301,202.771c0,3.08,4.006,5.578,8.95,5.578    c4.943,0,8.95-2.498,8.95-5.578v-24.208"/>

		<path fill="none" stroke="#000000" stroke-width="0.5" d="M56.301,202.771c0-3.08-4.007-6.328-8.95-6.328s-8.95,3.248-8.95,6.328    v-24.208"/>

		<path fill="#A4A4A4" stroke="#000000" stroke-width="0.5" d="M74.385,185.396H59.12"/>

		<path fill="#A4A4A4" stroke="#000000" stroke-width="0.5" d="M74.201,198.396H58.923"/>

		<path fill="#A4A4A4" stroke="#000000" stroke-width="0.5" d="M74.201,191.885H59.385"/>

		<path fill="#A4A4A4" stroke="#000000" stroke-width="0.5" d="M59.12,206.918v-28.225"/>

		<path fill="#A4A4A4" stroke="#000000" stroke-width="0.5" d="M54.552,199.202v-20.591"/>

		<path fill="#A4A4A4" stroke="#000000" stroke-width="0.5" d="M54.482,185.313H38.459"/>

		<path fill="#A4A4A4" stroke="#000000" stroke-width="0.5" d="M54.51,191.801H38.25"/>

		<path fill="#B4B4B4" stroke="#000000" stroke-width="0.5" d="M0.25,101.23v46.667l14.667,40.667h5.333l8.667-10h8.333h64.333    l7.333-13.333l38-20h2.668l9.332,16h42.668l10-15.334v-44"/>

		<path fill="#B4B4B4" stroke="#B4B4B4" d="M74.037,29.919H38.919V8.149l2.536,2.678l3.443,1.551l2.896,0.234l2.219-0.191    l3.297-1.338l1.268-0.83l0.951-1.02l0.697-1.213l0.509-1.311l0.188-1.813l0.634-1.34l1.775-1.531l2.346-0.955L63.5,0.583    l3.637-0.082l2.269,0.414l3.222,1.707l1.583,2.551l-0.118,1.719L74.037,29.919z"/>

		<path fill="none" stroke="#000000" stroke-width="0.5" d="M56.46,6.003c0-3.08,4.006-5.578,8.95-5.578    c4.943,0,8.95,2.498,8.95,5.578v24.209"/>

		<path fill="none" stroke="#000000" stroke-width="0.5" d="M56.46,6.003c0,3.08-4.007,6.328-8.95,6.328s-8.95-3.248-8.95-6.328    v24.209"/>

		<path fill="#A4A4A4" stroke="#000000" stroke-width="0.5" d="M74.544,23.378H59.279"/>

		<path fill="#A4A4A4" stroke="#000000" stroke-width="0.5" d="M74.36,10.378H59.083"/>

		<path fill="#A4A4A4" stroke="#000000" stroke-width="0.5" d="M74.36,16.891H59.544"/>

		<path fill="#A4A4A4" stroke="#000000" stroke-width="0.5" d="M59.279,1.856v28.225"/>

		<path fill="#A4A4A4" stroke="#000000" stroke-width="0.5" d="M54.711,9.573v20.592"/>

		<path fill="#A4A4A4" stroke="#000000" stroke-width="0.5" d="M54.641,23.462H38.619"/>

		<path fill="#A4A4A4" stroke="#000000" stroke-width="0.5" d="M54.669,16.974h-16.26"/>

		<path fill="#B4B4B4" stroke="#000000" stroke-width="0.5" d="M0.25,107.79V61.123l14.667-40.667h5.333l8.667,10h8.333h64.333    l7.333,13.333l38,20h2.668l9.332-16h42.667l10,15.333v44"/>

	</g>

</svg>
