<svg xmlns="http://www.w3.org/2000/svg" xmlns:xlink="http://www.w3.org/1999/xlink" xmlns:a="http://ns.adobe.com/AdobeSVGViewerExtensions/3.0/" width="64.157" height="43.137" viewBox="0 0 64.157 43.137" overflow="visible" enable-background="new 0 0 64.157 43.137" xml:space="preserve" preserveAspectRatio="xMidYMid meet" zoomAndPan="magnify" version="1.0" contentScriptType="text/ecmascript" contentStyleType="text/css">

	<g id="Layer_1">

		<g>

			<g a:adobe-knockout="true">

				<path fill="#FFFFFF" a:adobe-knockout="false" d="M27.077,8.875l4.986,8.636l4.986-8.636H27.077z"/>

			</g>

			<g a:adobe-knockout="true">

				<path fill="none" stroke="#000000" a:adobe-knockout="false" d="M32.078,10.333V0"/>

				<path a:adobe-knockout="false" d="M27.077,8.875l4.986,8.636l4.986-8.636H27.077z"/>

			</g>

		</g>

		<g>

			<g a:adobe-knockout="true">

				<path fill="#FFFFFF" a:adobe-knockout="false" d="M52.128,7.543l-2.581,9.632l9.632-2.581L52.128,7.543z"/>

			</g>

			<g a:adobe-knockout="true">

				<path fill="none" stroke="#000000" a:adobe-knockout="false" d="M54.633,12.112l6.278-6.278"/>

				<path a:adobe-knockout="false" d="M52.128,7.543l-2.581,9.632l9.632-2.581L52.128,7.543z"/>

			</g>

		</g>

		<g>

			<g a:adobe-knockout="true">

				<path fill="#FFFFFF" a:adobe-knockout="false" d="M5.288,14.616l9.632,2.581l-2.582-9.632L5.288,14.616z"/>

			</g>

			<g a:adobe-knockout="true">

				<path fill="none" stroke="#000000" a:adobe-knockout="false" d="M9.856,12.111L2.908,5.164"/>

				<path a:adobe-knockout="false" d="M5.288,14.616l9.632,2.581l-2.582-9.632L5.288,14.616z"/>

			</g>

		</g>

		<path fill="#FFFFFF" stroke="#000000" stroke-width="0.8229" d="M54.412,18.333h9.333v24.375H0.412V18.333h9"/>

		<path fill="none" stroke="#000000" stroke-width="0.8229" d="M40.794,42.675L6.646,19.554"/>

		<path fill="none" stroke="#000000" stroke-width="0.8229" d="M25.116,42.796L0.533,26.15"/>

		<path fill="none" stroke="#000000" stroke-width="0.8229" d="M11.535,42.738l-11-7.448"/>

		<path fill="none" stroke="#000000" stroke-width="0.8229" d="M55.519,42.636L21.43,19.554"/>

		<path fill="none" stroke="#000000" stroke-width="0.8229" d="M63.736,37.901L36.644,19.554"/>

		<path fill="none" stroke="#000000" stroke-width="0.8229" d="M63.436,27.978l-12.437-8.424"/>

		<path fill="none" stroke="#000000" stroke-width="0.8229" d="M13.943,41.563"/>

		<path fill="none" stroke="#000000" stroke-width="0.8229" d="M12.739,42.705l34.373-23.272"/>

		<path fill="none" stroke="#000000" stroke-width="0.8229" d="M0.537,40.833l31.148-21.401"/>

		<path fill="none" stroke="#000000" stroke-width="0.8229" d="M0.693,30.55l16.422-11.118"/>

		<path fill="none" stroke="#000000" stroke-width="0.8229" d="M28.012,42.664l34.33-23.246"/>

		<path fill="none" stroke="#000000" stroke-width="0.8229" d="M42.524,42.559l21.18-14.341"/>

		<path fill="none" stroke="#000000" stroke-width="0.8229" d="M57.166,42.655l6.392-4.33"/>

		<path fill="none" stroke="#000000" stroke-width="0.82" d="M36.078,18.333h9.333"/>

		<path fill="none" stroke="#000000" stroke-width="0.82" d="M18.411,18.333h9"/>

	</g>

</svg>
