<svg xmlns="http://www.w3.org/2000/svg" xmlns:xlink="http://www.w3.org/1999/xlink" xmlns:a="http://ns.adobe.com/AdobeSVGViewerExtensions/3.0/" width="46" height="28" viewBox="0 0 46 28" overflow="visible" enable-background="new 0 0 46 28" xml:space="preserve" preserveAspectRatio="xMidYMid meet" zoomAndPan="magnify" version="1.0" contentScriptType="text/ecmascript" contentStyleType="text/css">

	<g id="Layer_1">

		<path fill="#FFFFFF" stroke="#000000" d="M45.5,27.5h-45v-27h45V27.5z"/>

		<g>

			<path d="M16.614,11.634h-2.46v-0.888h5.988v0.888H17.67v7.2h-1.056V11.634z"/>

			<path d="M21.006,10.313h1.056v8.52h-1.056V10.313z"/>

			<path d="M23.814,14.598c0-0.612-0.024-1.092-0.048-1.572h0.924l0.048,0.936h0.036c0.324-0.552,0.864-1.068,1.836-1.068     c0.78,0,1.38,0.48,1.632,1.164h0.024c0.18-0.336,0.42-0.576,0.66-0.756c0.348-0.264,0.72-0.408,1.272-0.408     c0.78,0,1.92,0.504,1.92,2.52v3.42h-1.032v-3.288c0-1.128-0.42-1.788-1.26-1.788c-0.612,0-1.068,0.444-1.26,0.948     c-0.048,0.156-0.084,0.348-0.084,0.528v3.6H27.45v-3.48c0-0.936-0.408-1.596-1.212-1.596c-0.648,0-1.14,0.528-1.308,1.056     c-0.06,0.156-0.084,0.336-0.084,0.516v3.504h-1.032V14.598z"/>

		</g>

	</g>

</svg>
