<svg xmlns="http://www.w3.org/2000/svg" xmlns:xlink="http://www.w3.org/1999/xlink" xmlns:a="http://ns.adobe.com/AdobeSVGViewerExtensions/3.0/" width="28" height="28" viewBox="0 0 28 28" overflow="visible" enable-background="new 0 0 28 28" xml:space="preserve" preserveAspectRatio="xMidYMid meet" zoomAndPan="magnify" version="1.0" contentScriptType="text/ecmascript" contentStyleType="text/css">

	<g id="Layer_1">

	</g>

	<g id="Layer_2">

		<path fill="#FFFFFF" stroke="#000000" d="M27.5,27.5h-27v-27h27V27.5z"/>

		<path d="M9.926,19.167V9.135h4.446c0.894,0,1.573,0.09,2.038,0.271s0.836,0.499,1.115,0.955c0.278,0.456,0.417,0.96,0.417,1.512    c0,0.712-0.23,1.312-0.69,1.8c-0.461,0.488-1.172,0.798-2.134,0.931c0.351,0.169,0.617,0.335,0.8,0.5    c0.387,0.356,0.753,0.8,1.098,1.333l1.735,2.729h-1.656l-1.327-2.086c-0.388-0.603-0.707-1.063-0.958-1.382    s-0.476-0.543-0.674-0.671c-0.198-0.127-0.399-0.216-0.604-0.267c-0.15-0.032-0.397-0.048-0.739-0.048h-1.539v4.453H9.926z     M11.254,13.557h2.852c0.606,0,1.079-0.063,1.42-0.188c0.34-0.125,0.599-0.326,0.775-0.602s0.266-0.575,0.266-0.898    c0-0.473-0.172-0.863-0.515-1.167c-0.343-0.306-0.885-0.458-1.625-0.458h-3.173V13.557z"/>

		<path fill="none" d="M25.5,11.5H4.833V1.167H25.5V11.5z"/>

	</g>

</svg>
