<svg xmlns="http://www.w3.org/2000/svg" xmlns:xlink="http://www.w3.org/1999/xlink" xmlns:a="http://ns.adobe.com/AdobeSVGViewerExtensions/3.0/" width="114.925" height="116.476" viewBox="0 0 114.925 116.476" overflow="visible" enable-background="new 0 0 114.925 116.476" xml:space="preserve" preserveAspectRatio="xMidYMid meet" zoomAndPan="magnify" version="1.0" contentScriptType="text/ecmascript" contentStyleType="text/css">

	<g id="Layer_1">

		<path fill="#FFFFFF" d="M21.298,94.579l-1.333-4.333V42.912l22.167-22l47,0.167l1.833,0.167l1.167,1l-24.833,15l-29,28.667    l-8.167,12.167l-5.333,10L21.298,94.579z"/>

		<g>

			<path fill="none" stroke="#000000" stroke-width="3" d="M63.596,41.623"/>

			<path fill="none" stroke="#000000" stroke-width="3" d="M40.574,64.781"/>

			<path fill="#FAFFFF" stroke="#000000" stroke-width="3" d="M40.574,64.781c-0.047,0.63-0.079,1.265-0.079,1.906     c0,13.9,11.262,25.162,25.159,25.162c13.9,0,25.162-11.262,25.162-25.162c0-13.893-11.262-25.154-25.162-25.154     c-0.693,0-1.379,0.035-2.058,0.09"/>

		</g>

		<path fill="#D4D4D4" stroke="#000000" stroke-width="3" d="M63.685,41.772c0.678-0.055,1.362-0.09,2.055-0.09    c7.213,0,13.711,3.041,18.298,7.904l0.161-0.061c7.078-6.121,12.051-19.512,12.051-19.512s3.635-9.182-4.591-5.93    C75.668,30.405,66.6,37.856,51.871,52.012C35.042,68.186,23.053,91.8,23.053,91.8s-2.553,8.416,5.672,5.93    s19.894-11.86,19.894-11.86s-1.601-1.717-3.379-4.464c-1.537-2.158-2.746-4.566-3.543-7.156c-0.871-2.56-1.379-5.36-1.112-8.207    l0.034-0.013c0.014-0.367,0.019-0.735,0.045-1.099"/>

		<path fill="#FFFFFF" stroke="#000000" stroke-width="3" d="M43.038,18.306L18.306,43.038L2.403,33.242L33.242,2.403L43.038,18.306    z"/>

		<path fill="none" stroke="#000000" stroke-width="3" d="M18.587,42.256v47.248c0,0,0.191,7.27,5.356,8.608"/>

		<path fill="none" stroke="#000000" stroke-width="3" d="M41.924,19.684H88.79c0,0,4.781,0.19,7.077,4.017"/>

		<path fill="none" stroke="#000000" stroke-width="3" d="M70.808,98.494v17.981"/>

		<path fill="none" stroke="#000000" stroke-width="3" d="M88.981,92.373l14.921,14.92"/>

		<path fill="none" stroke="#000000" stroke-width="3" d="M96.632,73.604l17.599,9.183"/>

	</g>

</svg>
