<svg xmlns="http://www.w3.org/2000/svg" xmlns:xlink="http://www.w3.org/1999/xlink" xmlns:a="http://ns.adobe.com/AdobeSVGViewerExtensions/3.0/" width="28" height="28" viewBox="0 0 28 28" overflow="visible" enable-background="new 0 0 28 28" xml:space="preserve" preserveAspectRatio="xMidYMid meet" zoomAndPan="magnify" version="1.0" contentScriptType="text/ecmascript" contentStyleType="text/css">

	<g id="Layer_1">

	</g>

	<g id="Layer_2">

		<path fill="#FFFFFF" stroke="#000000" d="M27.5,27.5h-27v-27h27V27.5z"/>

		<g>

			<path d="M7.366,8.383h1.408v9.616h4.608v1.168H7.366V8.383z"/>

			<path d="M14.758,17.471c0.624,0.4,1.52,0.704,2.48,0.704c1.424,0,2.256-0.736,2.256-1.84c0-0.992-0.576-1.584-2.032-2.128     c-1.76-0.64-2.848-1.568-2.848-3.072c0-1.68,1.392-2.928,3.488-2.928c1.088,0,1.904,0.256,2.368,0.528l-0.384,1.136     c-0.336-0.208-1.056-0.512-2.032-0.512c-1.472,0-2.032,0.88-2.032,1.616c0,1.008,0.656,1.504,2.144,2.08     c1.824,0.72,2.736,1.584,2.736,3.168c0,1.664-1.216,3.12-3.76,3.12c-1.04,0-2.176-0.32-2.752-0.704L14.758,17.471z"/>

		</g>

	</g>

</svg>
