<svg xmlns="http://www.w3.org/2000/svg" xmlns:xlink="http://www.w3.org/1999/xlink" xmlns:a="http://ns.adobe.com/AdobeSVGViewerExtensions/3.0/" width="51.596" height="58.692" viewBox="0 0 51.596 58.692" overflow="visible" enable-background="new 0 0 51.596 58.692" xml:space="preserve" preserveAspectRatio="xMidYMid meet" zoomAndPan="magnify" version="1.0" contentScriptType="text/ecmascript" contentStyleType="text/css">

	<g id="Layer_1">

		<path fill="#FFFFFF" stroke="#000000" d="M0.5,13.601v37.753L51.096,43.7V21.905L0.5,13.601z"/>

		<path fill="none" stroke="#000000" d="M5.819,0v5.177"/>

		<path d="M3.667,3.691l2.178,8.131l2.179-8.131H3.667z"/>

		<path fill="none" stroke="#000000" d="M45.193,46.872v5.176"/>

		<path d="M43.042,50.562l2.178,8.131l2.179-8.131H43.042z"/>

		<path d="M15.662,30.982c0-1.426,0.382-2.542,1.146-3.349s1.752-1.21,2.961-1.21c0.792,0,1.506,0.19,2.142,0.569    s1.12,0.907,1.454,1.585c0.333,0.678,0.5,1.447,0.5,2.306c0,0.872-0.176,1.651-0.526,2.338c-0.352,0.688-0.849,1.208-1.492,1.562    s-1.338,0.53-2.083,0.53c-0.808,0-1.529-0.195-2.165-0.586s-1.117-0.924-1.445-1.6C15.826,32.452,15.662,31.737,15.662,30.982z     M16.834,31.005c0,1.035,0.277,1.851,0.833,2.446s1.252,0.894,2.091,0.894c0.854,0,1.557-0.301,2.108-0.902    c0.551-0.602,0.827-1.455,0.827-2.561c0-0.699-0.118-1.31-0.354-1.831c-0.236-0.521-0.581-0.926-1.035-1.213    s-0.964-0.431-1.529-0.431c-0.803,0-1.494,0.276-2.073,0.829S16.834,29.712,16.834,31.005z"/>

		<path d="M30.445,37.157v1.016h-5.672c-0.008-0.254,0.033-0.499,0.123-0.734c0.145-0.387,0.376-0.768,0.695-1.142    c0.318-0.375,0.777-0.807,1.375-1.298c0.929-0.77,1.559-1.378,1.889-1.824c0.331-0.445,0.496-0.869,0.496-1.269    c0-0.417-0.149-0.768-0.448-1.055c-0.299-0.286-0.688-0.429-1.168-0.429c-0.508,0-0.914,0.152-1.218,0.456    c-0.305,0.304-0.459,0.725-0.463,1.263l-1.078-0.109c0.074-0.809,0.353-1.425,0.836-1.849c0.483-0.424,1.132-0.636,1.946-0.636    c0.822,0,1.473,0.229,1.952,0.686c0.479,0.457,0.719,1.023,0.719,1.699c0,0.344-0.07,0.682-0.21,1.014    c-0.141,0.332-0.373,0.682-0.698,1.049s-0.865,0.871-1.619,1.511c-0.633,0.531-1.038,0.891-1.218,1.081s-0.328,0.38-0.445,0.571    H30.445z"/>

	</g>

</svg>
