<svg xmlns="http://www.w3.org/2000/svg" xmlns:xlink="http://www.w3.org/1999/xlink" xmlns:a="http://ns.adobe.com/AdobeSVGViewerExtensions/3.0/" width="113.251" height="113.25" viewBox="0 0 113.251 113.25" overflow="visible" enable-background="new 0 0 113.251 113.25" xml:space="preserve" preserveAspectRatio="xMidYMid meet" zoomAndPan="magnify" version="1.0" contentScriptType="text/ecmascript" contentStyleType="text/css">

	<g id="Layer_1">

		<g>

			<path fill="#FFFFFF" stroke="#000000" stroke-width="0.5033" d="M113,56.625C113,87.76,87.761,113,56.625,113     S0.25,87.76,0.25,56.625S25.49,0.25,56.625,0.25S113,25.49,113,56.625z"/>

			<path fill="#FFFFFF" stroke="#000000" stroke-width="0.5" d="M106.75,56.5c0,27.752-22.498,50.25-50.25,50.25     S6.25,84.252,6.25,56.5S28.749,6.25,56.5,6.25S106.75,28.748,106.75,56.5z"/>

			<path d="M60.899,59.223L85.438,97.5l2.75-2.063l3.063-2.75L94.75,89l3.5-4.563l2.313-3.938l2.875-6.125l1.625-5.125l1.188-6.125     l0.438-4.063l-0.006-4.559l-0.47-4.908l-0.681-4.455l-1.178-4.127l-1.692-4.651L100.75,32.5l-1.813-2.875l-2.655-3.692     L78.459,38.126l2.282,4.374l-3.523,2.035l-2.272-4.002l-13.937,9.432l-4.198,2.938L60.899,59.223z"/>

			<path stroke="#000000" stroke-width="0.2537" d="M27.354,57.254H6.396v-1.842h20.958V57.254z"/>

			<path d="M57.5,61.708L81.75,100l-3.417,1.75l-3.583,1.583l-4.25,1.334l-5.583,1.25L60,106.583l-6.583,0.084L48.583,106     L43,104.833l-5.167-1.75l-3.958-1.875l-4.25-2.5l-3.75-2.5l-3.5-3l-3.5-3.5l-2.75-3.25l-1.958-2.874l-2.125-3.709l18.917-11.167     l3,3.917l3.333-2.334l-2.667-3.75l14.438-8.646l4.438-2.563L57.5,61.708z"/>

			<path fill="none" stroke="#000000" stroke-width="0.5027" d="M42.625,104.813l-1.5,5.813"/>

			<path fill="none" stroke="#000000" stroke-width="0.5" d="M69.438,105.188l1.5,5.75"/>

			<path fill="none" stroke="#000000" stroke-width="0.5" d="M24.75,95l-4.25,5"/>

			<path fill="none" stroke="#000000" stroke-width="0.5" d="M88.188,94.688l4.25,5"/>

			<path fill="none" stroke="#000000" stroke-width="0.5" d="M11,78.5l-5.25,3"/>

			<path fill="none" stroke="#000000" stroke-width="0.5" d="M102,78.563l5.25,3"/>

			<path fill="none" stroke="#000000" stroke-width="0.5027" d="M42.625,8.313l-1.5-5.813"/>

			<path fill="none" stroke="#000000" stroke-width="0.5" d="M70.438,7.938l1.5-5.75"/>

			<path fill="none" stroke="#000000" stroke-width="0.5" d="M22.063,19.438l-3.75-4.5"/>

			<path fill="none" stroke="#000000" stroke-width="0.5" d="M91,19.688l3.938-4.75"/>

			<path fill="none" stroke="#000000" stroke-width="0.5" d="M10,37.125l-5.25-3"/>

			<path fill="none" stroke="#000000" stroke-width="0.5" d="M103,37.063l5.25-3"/>

			<path fill="none" stroke="#000000" stroke-width="0.5" d="M0,56.75h6"/>

			<path fill="none" stroke="#000000" stroke-width="0.5" d="M106,56.75h6.75"/>

			<path fill="#FFFFFF" stroke="#959595" stroke-width="1.3615" d="M84.116,97.55l-2.349,1.468L29.304,15.061l2.349-1.467     L84.116,97.55z"/>

			<path fill="none" stroke="#000000" stroke-width="0.5" d="M85.284,97.695l-3.903,2.438L28.188,15.008l3.903-2.438L85.284,97.695z     "/>

			<path fill="#FFFFFF" stroke="#000000" stroke-width="0.2471" d="M63.412,55.417H90.25v1.833H64.328l-0.193,0.548     c-1.304,2.992-4.234,5.077-7.641,5.077c-3.348,0-6.237-2.015-7.573-4.925l-0.22-0.7H27.417v-1.833h22.097l0.038,0.344     c0.004,0.015,0.044,0.259,0.048,0.274c0.819,3.077,3.567,5.152,6.833,5.152c3.335,0,6.133-2.174,6.883-5.354L63.412,55.417z"/>

		</g>

	</g>

</svg>
