<svg xmlns="http://www.w3.org/2000/svg" xmlns:xlink="http://www.w3.org/1999/xlink" xmlns:a="http://ns.adobe.com/AdobeSVGViewerExtensions/3.0/" width="89.031" height="62.313" viewBox="0 0 89.031 62.313" overflow="visible" enable-background="new 0 0 89.031 62.313" xml:space="preserve" preserveAspectRatio="xMidYMid meet" zoomAndPan="magnify" version="1.0" contentScriptType="text/ecmascript" contentStyleType="text/css">

	<g id="Layer_1">

		<path fill="none" stroke="#000000" d="M88.531,61.813H0.5V0.5h88.031V61.813z"/>

		<path fill="none" stroke="#000000" d="M23.281,6.969v43.875h43.593"/>

		<path fill="none" stroke="#000000" d="M23.281,50.844l38.531-38.813"/>

		<path fill="none" stroke="#000000" d="M19.625,10.907l3.657-4.782l3.937,4.219"/>

		<path fill="none" stroke="#000000" d="M62.797,47.188l4.781,3.656l-4.219,3.938"/>

		<path fill="none" stroke="#000000" d="M56.171,12.443l5.967-0.796l-0.199,5.768"/>

		<g>

			<path fill="none" stroke="#000000" d="M17.359,19.414c-0.14-2.109,3.164-2.742,5.415-2.742c3.883,0,7.031,2.896,7.031,6.469     c0,3.573-2.963,6.015-6.82,6.469c-2.391,0.282-5.977-0.984-5.766-2.882"/>

			<path fill="none" stroke="#000000" d="M17.219,26.797c0-2.32,3.306-3.188,5.728-3.022c4.116,0.28,7.031,2.896,7.031,6.468     s-3.148,6.468-7.031,6.468c-2.4,0-5.175-0.72-5.728-2.812"/>

			<path fill="none" stroke="#000000" d="M29.355,13.205c0.356,0.774,0.552,1.625,0.552,2.518c0,3.573-2.963,6.015-6.82,6.469     c-2.39,0.281-5.976-0.984-5.765-2.883"/>

			<path fill="none" stroke="#000000" d="M29.322,40.044c0.356-0.774,0.553-1.624,0.553-2.518c0-3.573-2.963-6.015-6.82-6.469     c-2.391-0.281-5.977,0.984-5.766,2.883"/>

		</g>

		<g>

			<path fill="none" stroke="#000000" d="M55.558,45.132c2.109-0.141,2.742,3.164,2.742,5.414c0,3.883-2.896,7.031-6.468,7.031     c-3.573,0-6.015-2.964-6.469-6.82c-0.281-2.391,0.984-5.977,2.883-5.766"/>

			<path fill="none" stroke="#000000" d="M48.175,44.992c2.32,0,3.188,3.306,3.023,5.728c-0.281,4.116-2.896,7.031-6.469,7.031     s-6.469-3.148-6.469-7.031c0-2.4,0.72-5.175,2.813-5.728"/>

			<path fill="none" stroke="#000000" d="M61.768,57.128c-0.774,0.356-1.625,0.553-2.518,0.553c-3.573,0-6.015-2.964-6.469-6.82     c-0.282-2.391,0.984-5.977,2.882-5.766"/>

			<path fill="none" stroke="#000000" d="M34.928,57.096c0.774,0.356,1.624,0.552,2.518,0.552c3.573,0,6.015-2.963,6.469-6.82     c0.281-2.391-0.984-5.977-2.883-5.766"/>

		</g>

		<g>

			<path fill="none" stroke="#000000" d="M48.3,16.971c1.392-1.591,4.177,0.298,5.768,1.889c2.746,2.746,2.924,7.02,0.397,9.546     c-2.526,2.526-6.349,2.157-9.396-0.249c-1.89-1.492-3.53-4.922-2.039-6.116"/>

			<path fill="none" stroke="#000000" d="M42.98,22.092c1.641-1.641,4.593,0.083,6.188,1.912c2.712,3.109,2.924,7.02,0.398,9.546     c-2.526,2.526-6.8,2.348-9.546-0.397c-1.698-1.698-3.15-4.168-2.062-6.039"/>

			<path fill="none" stroke="#000000" d="M61.173,21.062c-0.296,0.799-0.758,1.54-1.39,2.171c-2.526,2.526-6.349,2.158-9.396-0.249     c-1.89-1.492-3.53-4.922-2.039-6.115"/>

			<path fill="none" stroke="#000000" d="M42.172,40.017c0.799-0.295,1.539-0.758,2.171-1.389c2.526-2.526,2.158-6.349-0.249-9.397     c-1.492-1.889-4.922-3.529-6.115-2.038"/>

		</g>

	</g>

</svg>
