<!-- Generator: Adobe Illustrator 11.0, SVG Export Plug-In  -->
<!--
sccsID="@(#)ColHeatExchanger.svg 1.1 11/04/05 07:55:53"

Revision History
****************
2005-Nov-03    bwylie     (CR-6009)  Introduced file.
-->
<svg xmlns="http://www.w3.org/2000/svg" xmlns:xlink="http://www.w3.org/1999/xlink" xmlns:a="http://ns.adobe.com/AdobeSVGViewerExtensions/3.0/" width="33" height="27" viewBox="-0.829 -0.39 33 27" xml:space="preserve">
	<defs>
	</defs>
	<g>
		
			<polyline fill="none" stroke="#000000" stroke-width="0.72" stroke-linecap="round" stroke-linejoin="round" stroke-miterlimit="3" points="    3.731,7.11 6.171,7.11 6.171,0.36 25.101,0.36 25.101,7.11 27.351,7.11 "/>
		
			<polyline fill="none" stroke="#000000" stroke-width="0.72" stroke-linecap="round" stroke-linejoin="round" stroke-miterlimit="3" points="    3.731,11.61 6.231,11.61 6.231,18.36 8.231,18.36 "/>
		
			<polyline fill="none" stroke="#000000" stroke-width="0.2222" stroke-linecap="round" stroke-linejoin="round" stroke-miterlimit="3" points="    0.111,12.6 3.352,9.36 0.111,6.12 "/>
		
			<polyline fill="none" stroke="#000000" stroke-width="0.2222" stroke-linecap="round" stroke-linejoin="round" stroke-miterlimit="3" points="    27.992,12.6 31.232,9.36 27.992,6.12 "/>
		
			<line fill="none" stroke="#000000" stroke-width="0.72" stroke-linecap="round" stroke-linejoin="round" stroke-miterlimit="3" x1="22.154" y1="25.86" x2="22.154" y2="21.92"/>
		
			<line fill="none" stroke="#000000" stroke-width="0.72" stroke-linecap="round" stroke-linejoin="round" stroke-miterlimit="3" x1="9.356" y1="21.735" x2="9.356" y2="25.854"/>
		
			<polyline fill="none" stroke="#000000" stroke-width="0.72" stroke-linecap="round" stroke-linejoin="round" stroke-miterlimit="3" points="    8.231,20.61 8.231,2.61 15.242,2.61 15.242,5.99 16.851,5.99 16.851,2.33 23.421,2.33 23.421,19.49 "/>
		
			<polyline fill="none" stroke="#000000" stroke-width="0.72" stroke-linecap="round" stroke-linejoin="round" stroke-miterlimit="3" points="    23.419,18.36 25.519,18.36 25.519,11.61 27.5,11.61 "/>
		
			<polyline fill="none" stroke="#000000" stroke-width="0.72" stroke-linecap="round" stroke-linejoin="round" stroke-miterlimit="3" points="    10.481,20.61 10.481,4.86 12.731,4.86 12.731,8.09 19.482,8.09 19.482,4.58 21.171,4.58 21.171,20.61 "/>
		
			<line fill="none" stroke="#000000" stroke-width="0.72" stroke-linecap="round" stroke-linejoin="round" stroke-miterlimit="3" x1="10.481" y1="18.36" x2="21.171" y2="18.36"/>
		
			<ellipse fill="#FFFFFF" stroke="#000000" stroke-width="0.72" stroke-linecap="round" stroke-linejoin="round" stroke-miterlimit="3" cx="13.856" cy="12.735" rx="1.125" ry="2.25"/> 
		
			<ellipse fill="#FFFFFF" stroke="#000000" stroke-width="0.72" stroke-linecap="round" stroke-linejoin="round" stroke-miterlimit="3" cx="17.232" cy="14.422" rx="1.125" ry="2.25"/> 
		
			<line fill="none" stroke="#000000" stroke-width="0.72" stroke-linecap="round" stroke-linejoin="round" stroke-miterlimit="3" x1="7.528" y1="24.735" x2="10.898" y2="24.735"/>
		
			<line fill="none" stroke="#000000" stroke-width="0.72" stroke-linecap="round" stroke-linejoin="round" stroke-miterlimit="3" x1="20.326" y1="23" x2="23.695" y2="23"/>
		
			<line fill="none" stroke="#000000" stroke-width="0.72" stroke-linecap="round" stroke-linejoin="round" stroke-miterlimit="3" x1="23.419" y1="19.485" x2="23.419" y2="21.035"/>
	</g>
</svg>
