<svg xmlns="http://www.w3.org/2000/svg" xmlns:xlink="http://www.w3.org/1999/xlink" xmlns:a="http://ns.adobe.com/AdobeSVGViewerExtensions/3.0/" width="122.292" height="109.403" viewBox="0 0 122.292 109.403" overflow="visible" enable-background="new 0 0 122.292 109.403" xml:space="preserve" preserveAspectRatio="xMidYMid meet" zoomAndPan="magnify" version="1.0" contentScriptType="text/ecmascript" contentStyleType="text/css">

	<g id="Layer_1">

		<g>

			<path fill="none" stroke="#000000" d="M36.989,14.286l-20.5,20.5l-15.75-13.25L21.156,1.119l0.666,8.333l7.333-1.333     l-1.333,7.667L36.989,14.286z"/>

			<g>

				<path fill="none" stroke="#000000" d="M69.176,57.188c0,4.903-3.974,8.877-8.877,8.877s-8.877-3.974-8.877-8.877      s3.974-8.877,8.877-8.877S69.176,52.284,69.176,57.188z"/>

				<path fill="none" stroke="#000000" d="M71.395,57.188c0,6.128-4.968,11.095-11.096,11.095c-6.127,0-11.094-4.967-11.094-11.095      c0-6.127,4.967-11.095,11.094-11.095C66.427,46.093,71.395,51.061,71.395,57.188z"/>

			</g>

			<g>

				<path fill="none" stroke="#000000" d="M122.012,97.744c-0.104,0.543-0.629,0.899-1.173,0.794l-1.848-0.123      c-0.28,0.021-0.535,0.185-0.659,0.414c-0.114,0.307-0.24,0.606-0.38,0.899c-0.073,0.249-0.013,0.541,0.166,0.752l1.375,1.242      c0.453,0.316,0.564,0.941,0.246,1.395c-0.315,0.454-0.939,0.563-1.394,0.248l-1.639-0.863c-0.263-0.096-0.562-0.051-0.771,0.108      c-0.223,0.229-0.457,0.445-0.698,0.652c-0.18,0.197-0.248,0.498-0.169,0.771l0.751,1.694c0.285,0.474,0.134,1.089-0.341,1.374      c-0.474,0.286-1.089,0.134-1.375-0.341l-1.146-1.455c-0.202-0.194-0.494-0.274-0.75-0.213c-0.298,0.118-0.602,0.223-0.911,0.314      c-0.24,0.109-0.421,0.354-0.459,0.631l-0.001,1.853c0.067,0.55-0.322,1.049-0.87,1.118c-0.551,0.067-1.05-0.321-1.118-0.87      l-0.455-1.796c-0.106-0.264-0.345-0.457-0.608-0.501c-0.156-0.008-0.313-0.016-0.471-0.029      c-0.157-0.015-0.313-0.032-0.471-0.053c-0.267-0.001-0.535,0.15-0.685,0.391l-0.755,1.691c-0.161,0.529-0.722,0.827-1.251,0.667      c-0.529-0.162-0.827-0.72-0.667-1.25l0.316-1.825c0.009-0.281-0.127-0.553-0.346-0.701c-0.288-0.144-0.569-0.297-0.842-0.464      c-0.241-0.106-0.544-0.078-0.776,0.08l-1.379,1.238c-0.362,0.418-0.993,0.464-1.412,0.101c-0.418-0.363-0.463-0.995-0.102-1.413      l1.03-1.54c0.124-0.256,0.107-0.565-0.035-0.789c-0.202-0.245-0.396-0.498-0.574-0.76c-0.179-0.192-0.468-0.289-0.742-0.239      l-1.763,0.57c-0.502,0.234-1.097,0.019-1.333-0.482c-0.234-0.501-0.018-1.098,0.483-1.332l1.567-0.988      c0.213-0.178,0.322-0.457,0.291-0.716c-0.086-0.31-0.159-0.625-0.218-0.945c-0.085-0.249-0.309-0.456-0.581-0.523l-1.842-0.195      c-0.554,0.011-1.011-0.429-1.021-0.982c-0.011-0.553,0.429-1.01,0.982-1.021l1.833-0.265c0.274-0.079,0.493-0.298,0.563-0.557      c0.047-0.317,0.106-0.632,0.181-0.938c0.022-0.26-0.098-0.536-0.317-0.707l-1.605-0.929c-0.509-0.215-0.747-0.802-0.531-1.312      c0.215-0.51,0.804-0.749,1.313-0.534l1.782,0.505c0.28,0.039,0.566-0.07,0.737-0.274c0.168-0.266,0.349-0.522,0.54-0.773      c0.136-0.229,0.142-0.539,0.007-0.792l-1.088-1.5c-0.377-0.403-0.356-1.037,0.048-1.415s1.038-0.356,1.416,0.048l1.423,1.186      c0.245,0.151,0.557,0.167,0.798,0.043c0.259-0.173,0.525-0.335,0.801-0.485c0.216-0.155,0.344-0.435,0.322-0.716l-0.384-1.813      c-0.18-0.523,0.097-1.093,0.62-1.273c0.522-0.182,1.092,0.096,1.273,0.618l0.819,1.662c0.154,0.229,0.419,0.367,0.677,0.364      c0.316-0.053,0.637-0.091,0.961-0.117c0.261-0.055,0.491-0.257,0.589-0.523l0.386-1.812c0.048-0.552,0.533-0.96,1.084-0.912      c0.551,0.046,0.959,0.531,0.913,1.082l0.07,1.853c0.05,0.279,0.243,0.519,0.49,0.617c0.316,0.08,0.63,0.175,0.934,0.281      c0.253,0.045,0.534-0.047,0.724-0.244l1.091-1.496c0.267-0.484,0.878-0.661,1.361-0.395c0.484,0.269,0.66,0.878,0.393,1.361      l-0.688,1.721c-0.066,0.272,0.009,0.566,0.191,0.758c0.247,0.195,0.487,0.404,0.717,0.622c0.216,0.159,0.523,0.196,0.787,0.089      l1.604-0.924c0.442-0.334,1.07-0.246,1.403,0.195c0.333,0.44,0.246,1.069-0.195,1.403l-1.327,1.291      c-0.175,0.224-0.223,0.527-0.131,0.777c0.147,0.281,0.281,0.568,0.405,0.862c0.133,0.228,0.396,0.383,0.677,0.393l1.843-0.191      c0.538-0.126,1.076,0.21,1.201,0.747c0.126,0.54-0.21,1.078-0.75,1.204l-1.736,0.639c-0.246,0.131-0.41,0.379-0.436,0.638      c0.022,0.319,0.025,0.642,0.017,0.966c0.026,0.265,0.206,0.517,0.459,0.641l1.763,0.572      C121.762,96.675,122.118,97.202,122.012,97.744z"/>

				<path stroke="#000000" d="M109.726,95.037c0,0.829-0.671,1.5-1.5,1.5s-1.5-0.671-1.5-1.5s0.671-1.5,1.5-1.5      S109.726,94.208,109.726,95.037z"/>

			</g>

			<path fill="none" stroke="#000000" d="M67.633,65.494l29.876,23.75"/>

			<path fill="none" stroke="#000000" d="M22.004,29.264l28.428,22.572"/>

			<path fill="none" stroke="#000000" d="M70.356,61.825l28.659,22.756"/>

			<path fill="none" stroke="#000000" d="M25.245,26.006L53.36,48.33"/>

		</g>

	</g>

</svg>
