<svg xmlns="http://www.w3.org/2000/svg" xmlns:xlink="http://www.w3.org/1999/xlink" xmlns:a="http://ns.adobe.com/AdobeSVGViewerExtensions/3.0/" width="183.68" height="119.035" viewBox="0 0 183.68 119.035" overflow="visible" enable-background="new 0 0 183.68 119.035" xml:space="preserve" preserveAspectRatio="xMidYMid meet" zoomAndPan="magnify" version="1.0" contentScriptType="text/ecmascript" contentStyleType="text/css">

	<g id="Layer_1">

		<path fill="none" stroke="#000000" stroke-width="5" d="M82.262,0.131V118.24"/>

		<path fill="none" stroke="#000000" stroke-width="3.7123" d="M0,117.179h53.813"/>

		<path fill="none" stroke="#000000" stroke-width="3.7123" d="M0,1.982h53.813"/>

		<path fill="none" stroke="#000000" stroke-width="3.5" d="M33.779,30.18h20.034"/>

		<path fill="none" stroke="#000000" stroke-width="3.5" d="M33.779,58.98h20.034"/>

		<path fill="none" stroke="#000000" stroke-width="3.5" d="M33.779,88.138h20.034"/>

		<path fill="none" stroke="#000000" stroke-width="3.7123" d="M52.665,117.188c0,0,11.182-2.33,11.182-14.443    S52.432,88.196,52.432,88.196"/>

		<path fill="none" stroke="#000000" stroke-width="3.7123" d="M52.665,88.031c0,0,11.182-2.33,11.182-14.443    c0-12.115-11.415-14.55-11.415-14.55"/>

		<path fill="none" stroke="#000000" stroke-width="3.7123" d="M52.665,58.872c0,0,11.182-2.331,11.182-14.445    s-11.415-14.19-11.415-14.19"/>

		<path fill="none" stroke="#000000" stroke-width="3.7123" d="M52.665,30.431c0,0,11.182-1.971,11.182-14.085    S52.432,1.795,52.432,1.795"/>

		<path fill="none" stroke="#000000" stroke-width="3.7123" d="M183.68,117.179h-53.806"/>

		<path fill="none" stroke="#000000" stroke-width="3.7123" d="M183.68,1.982h-53.806"/>

		<path fill="none" stroke="#000000" stroke-width="3.5" d="M149.904,30.18h-20.03"/>

		<path fill="none" stroke="#000000" stroke-width="3.5" d="M149.904,58.98h-20.03"/>

		<path fill="none" stroke="#000000" stroke-width="3.5" d="M149.904,88.138h-20.03"/>

		<path fill="none" stroke="#000000" stroke-width="3.7123" d="M131.021,117.188c0,0-11.18-2.33-11.18-14.443    s11.412-14.549,11.412-14.549"/>

		<path fill="none" stroke="#000000" stroke-width="3.7123" d="M131.021,88.031c0,0-11.18-2.33-11.18-14.443    c0-12.115,11.412-14.55,11.412-14.55"/>

		<path fill="none" stroke="#000000" stroke-width="3.7123" d="M131.021,58.872c0,0-11.18-2.331-11.18-14.445    s11.412-14.19,11.412-14.19"/>

		<path fill="none" stroke="#000000" stroke-width="3.7123" d="M131.021,30.431c0,0-11.18-1.971-11.18-14.085    s11.412-14.55,11.412-14.55"/>

		<path fill="none" stroke="#000000" stroke-width="5" d="M101.574,0.24v118.108"/>

	</g>

</svg>
