<svg xmlns="http://www.w3.org/2000/svg" xmlns:xlink="http://www.w3.org/1999/xlink" xmlns:a="http://ns.adobe.com/AdobeSVGViewerExtensions/3.0/" width="128.766" height="72.009" viewBox="0 0 128.766 72.009" overflow="visible" enable-background="new 0 0 128.766 72.009" xml:space="preserve" preserveAspectRatio="xMidYMid meet" zoomAndPan="magnify" version="1.0" contentScriptType="text/ecmascript" contentStyleType="text/css">

	<g id="Layer_4">

		<path fill="#A0A0A0" stroke="#A0A0A0" stroke-width="2" d="M14.291,11.842L1.125,2.247v67.5l13.166-9.594h42l5.209-0.617    l3.167-0.792l3.583-1.042l2.955-1.396l3.219-2l3.034-2.402l2.729-2.452L83,46.911l0.674-0.854h2.344l1.441,1.979l1.833,1.958    l1.833,1.573l2,1.927L95,54.619l2.791,1.325l3.289,1.051l3.375,0.438l5.688-0.219l2.648-0.596l2.542-0.802l2.792-1.554    l2.406-1.606l2.01-1.471l1.167-1.178l3.948,0.008l-0.031-27.907l-3.5,0.095l-1.5-1.272l-2.25-1.811l-2.917-1.89l-3.198-1.359    l-4.916-1.262l-6.295,0.001l-5.174,1.356l-2.75,1.281L92.5,19.184l-1.396,1.123l-1.667,1.458L88,23.515l-2.042,2.313l-2.021,0.106    l-2.313-2.141l-2.916-2.609l-3.188-2.815l-4.292-2.729l-5.167-2.125l-6.771-1.505l-5.167-0.254L14.291,11.842z"/>

		<path fill="none" stroke="#000000" stroke-width="0.25" d="M85.361,24.995c5.819-7.354,11.382-11.414,20.503-11.414    c7.639,0,12.219,2.006,18.369,7.521h4.392v14.896l0.016,14.908h-4.392c-6.15,5.516-10.73,7.521-18.369,7.521    c-9.121,0-14.605-4.111-20.425-11.465"/>

		<path fill="none" stroke="#000000" stroke-width="0.25" d="M85.5,24.953l-1.281-0.019c-8.398-7.98-12.16-11.529-23.316-13.555    c-2.55-0.465-6.895-0.635-9.652-0.508H14.625L0.125,0.247v35.668l0.016,35.848l14.5-10.625h36.625    c2.758,0.127,7.103-0.043,9.652-0.508c11.156-2.025,14.918-5.574,23.316-13.555l1.266,0.003"/>

		<path fill="#FFFFFF" stroke="#000000" stroke-width="0.25" d="M14.625,10.825v50.313"/>

		<path fill="#FFFFFF" stroke="#000000" stroke-width="0.25" d="M85.5,24.861v22.323"/>

		<path fill="#FFFFFF" stroke="#000000" stroke-width="0.25" d="M124.172,21.007v29.927"/>

		<path fill="#FFFFFF" stroke="#000000" stroke-width="0.25" d="M84.229,24.83v22.375"/>

		<path fill="#FFFFFF" stroke="#000000" stroke-width="0.25" d="M32.625,10.965v50.281"/>

		<path fill="#FFFFFF" stroke="#000000" stroke-width="0.25" d="M44.626,10.913v50.25"/>

		<path fill="#FFFFFF" stroke="#000000" stroke-width="0.25" d="M38.625,10.913v50.125"/>

		<path fill="#FFFFFF" stroke="#000000" stroke-width="0.25" d="M69.959,14.081v43.875"/>

		<path fill="#FFFFFF" stroke="#000000" stroke-width="0.25" d="M101.959,13.893v44.27"/>

		<path fill="#FFFFFF" stroke="#000000" stroke-width="0.25" d="M111.959,14.143v43.729"/>

		<path fill="none" stroke="#000000" stroke-width="0.25" d="M85.438,24.953l-1.219-0.019"/>

	</g>

</svg>
