<svg xmlns="http://www.w3.org/2000/svg" xmlns:xlink="http://www.w3.org/1999/xlink" xmlns:a="http://ns.adobe.com/AdobeSVGViewerExtensions/3.0/" width="138.808" height="138.808" viewBox="0 0 138.808 138.808" overflow="visible" enable-background="new 0 0 138.808 138.808" xml:space="preserve" preserveAspectRatio="xMidYMid meet" zoomAndPan="magnify" version="1.0" contentScriptType="text/ecmascript" contentStyleType="text/css">

	<g id="Layer_1">

		<path fill="#B4B4B4" stroke="#000000" stroke-width="0.5" d="M122.103,69.377c0,29.112-23.601,52.713-52.713,52.713    S16.676,98.489,16.676,69.377S40.277,16.664,69.39,16.664S122.103,40.265,122.103,69.377z"/>

		<path fill="#FFFFFF" stroke="#000000" d="M116.788,19.02l-97.58,97.58"/>

		<path fill="none" stroke="#000000" d="M138.31,69.404c0,38.056-30.85,68.906-68.906,68.906S0.498,107.459,0.498,69.404    S31.348,0.498,69.404,0.498S138.31,31.348,138.31,69.404z"/>

		<path fill="#D5DF00" stroke="#000000" stroke-width="0.5" d="M69.612,18.945l-44.21,86.604h87.815L69.612,18.945z"/>

		<g>

			<path d="M69.39,97.114c-2.446,0-4.173-1.943-4.173-4.461c0-2.59,1.798-4.461,4.245-4.461c2.59,0,4.245,1.872,4.245,4.461     c0,2.518-1.655,4.461-4.245,4.461H69.39z M67.015,82.436l-1.007-34.607h6.907l-1.007,34.607H67.015z"/>

		</g>

	</g>

</svg>
