<svg xmlns="http://www.w3.org/2000/svg" width="11.117pt" height="29.518pt" viewBox="0 0 11.117 29.518" xml:space="preserve" preserveAspectRatio="xMidYMid meet" enableZoomAndPanControls="true" contentScriptType="text/ecmascript" contentStyleType="text/css">

	<g id="Layer_x0020_1" style="fill-rule:nonzero;clip-rule:nonzero;fill:#FDE7AB;stroke:#A7946C;stroke-miterlimit:4;">

		<path d="M4.705,12.208c0,0-2.803-0.84-2.172-5.115S9.47,0.997,9.47,0.997S7.858,2.678,8.909,4.43s1.542,0.631,1.612,3.224s-3.714,4.555-5.816,4.555z"/>

		<path style="stroke:none;" d="M8.699,20.478c0,0,2.663-0.28,2.243,3.574s-2.243,3.574-2.243,3.574"/>

		<path d="M0.5,29.518V16.343c0,0,0.42-2.313,4.064-2.313s4.064,2.313,4.064,2.313v13.174"/>

		<path style="fill:none;" d="M0.5,16.343c0,0,0.071,1.612,4.135,1.612s3.994-1.612,3.994-1.612"/>

		<path style="fill:none;stroke:#000000;" d="M4.564,15.432c0,0-0.771-4.835,2.313-5.466"/>

	</g>

</svg>
