<svg xmlns="http://www.w3.org/2000/svg" xmlns:xlink="http://www.w3.org/1999/xlink" xmlns:a="http://ns.adobe.com/AdobeSVGViewerExtensions/3.0/" width="43.889" height="27.933" viewBox="0 0 43.889 27.933" overflow="visible" enable-background="new 0 0 43.889 27.933" xml:space="preserve" preserveAspectRatio="xMidYMid meet" zoomAndPan="magnify" version="1.0" contentScriptType="text/ecmascript" contentStyleType="text/css">

	<g id="Layer_1">

		<g>

			<g>

				<path fill="#C8C8C8" stroke="#E3E3E3" stroke-width="4" d="M41.889,25.933H2V2h39.889V25.933z"/>

				<path fill="#979797" d="M43.778,27.883H0.018l4.021-4.021l39.778-0.028L43.778,27.883z"/>

				<path fill="#979797" d="M43.848,0.029v27.856h-4V3.987L43.848,0.029z"/>

			</g>

			<g>

				<path d="M18.033,15.576l1.078-0.094c0.05,0.431,0.168,0.784,0.353,1.06c0.184,0.276,0.471,0.499,0.858,0.669      c0.389,0.17,0.825,0.255,1.311,0.255c0.431,0,0.811-0.064,1.141-0.193c0.33-0.129,0.576-0.307,0.737-0.532      s0.242-0.47,0.242-0.735c0-0.269-0.08-0.503-0.24-0.705c-0.16-0.2-0.418-0.369-0.774-0.506c-0.229-0.09-0.734-0.229-1.517-0.419      s-1.331-0.368-1.646-0.537c-0.409-0.215-0.713-0.482-0.913-0.802c-0.201-0.319-0.301-0.677-0.301-1.072      c0-0.435,0.122-0.841,0.367-1.219c0.245-0.378,0.602-0.665,1.072-0.861s0.993-0.294,1.568-0.294      c0.633,0,1.192,0.103,1.675,0.307c0.484,0.205,0.856,0.506,1.116,0.904c0.261,0.398,0.4,0.849,0.42,1.352l-1.094,0.078      c-0.058-0.536-0.255-0.94-0.59-1.214s-0.83-0.411-1.484-0.411c-0.682,0-1.178,0.126-1.49,0.378      c-0.312,0.252-0.468,0.556-0.468,0.911c0,0.309,0.11,0.562,0.331,0.761c0.217,0.199,0.783,0.403,1.699,0.612      c0.916,0.209,1.546,0.392,1.891,0.548c0.502,0.23,0.872,0.522,1.111,0.875c0.239,0.354,0.358,0.76,0.358,1.221      c0,0.456-0.13,0.887-0.391,1.291s-0.635,0.718-1.124,0.942c-0.489,0.224-1.039,0.336-1.649,0.336      c-0.774,0-1.423-0.113-1.947-0.34s-0.934-0.567-1.232-1.022S18.049,16.15,18.033,15.576z"/>

			</g>

		</g>

		<path fill="none" stroke="#000000" d="M30.861,23.216h-18.75V4.466h18.75V23.216z"/>

	</g>

</svg>
