<svg xmlns="http://www.w3.org/2000/svg" xmlns:xlink="http://www.w3.org/1999/xlink" xmlns:a="http://ns.adobe.com/AdobeSVGViewerExtensions/3.0/" width="58.675" height="58.892" viewBox="0 0 58.675 58.892" overflow="visible" enable-background="new 0 0 58.675 58.892" xml:space="preserve" preserveAspectRatio="xMidYMid meet" zoomAndPan="magnify" version="1.0" contentScriptType="text/ecmascript" contentStyleType="text/css">

	<g id="Layer_1">

		<g>

			<path fill="none" stroke="#000000" stroke-width="3" d="M40.772,7.298L24.975,44.712"/>

			<path stroke="#000000" d="M7.348,0.619c-3.787,0-6.858,3.071-6.858,6.856c0,3.79,3.071,6.859,6.858,6.859     c3.788,0,6.858-3.069,6.858-6.859C14.207,3.69,11.136,0.619,7.348,0.619z"/>

			<path stroke="#000000" d="M51.327,0.49c-3.789,0-6.861,3.072-6.861,6.859c0,3.788,3.073,6.858,6.861,6.858     c3.787,0,6.857-3.07,6.857-6.858C58.185,3.563,55.114,0.49,51.327,0.49z"/>

			<path fill="#FFFFFF" stroke="#000000" d="M24.938,44.559c-3.823,0-6.922,3.098-6.922,6.921s3.099,6.922,6.922,6.922     c3.822,0,6.921-3.099,6.921-6.922S28.76,44.559,24.938,44.559z"/>

		</g>

	</g>

</svg>
