<svg xmlns="http://www.w3.org/2000/svg" xmlns:xlink="http://www.w3.org/1999/xlink" xmlns:a="http://ns.adobe.com/AdobeSVGViewerExtensions/3.0/" width="111.501" height="79.501" viewBox="0 0 111.501 79.501" overflow="visible" enable-background="new 0 0 111.501 79.501" xml:space="preserve" preserveAspectRatio="xMidYMid meet" zoomAndPan="magnify" version="1.0" contentScriptType="text/ecmascript" contentStyleType="text/css">

	<g id="Layer_1">

		<g>

			<path fill="#999999" d="M86.515,10.001l-13.5,13.333v25.667l13.5,9.333V10.001z"/>

			<g>

				<path fill="none" stroke="#000000" d="M14,0.834"/>

				<path fill="none" stroke="#000000" d="M10.324,0.368"/>

				<path fill="none" stroke="#000000" d="M0.849,14.501l71.901,8.652l13.5-13.318L14.682,0.496"/>

				<path fill="none" stroke="#000000" d="M72.75,23.153v25.966"/>

				<path fill="none" stroke="#000000" d="M15.015,0.501L0.5,14.334v25.25l14.349,10.417"/>

				<path fill="none" stroke="#000000" d="M15.182,10.168l0.068-3.333"/>

				<path fill="none" stroke="#000000" d="M15.25,15.001v-2.917"/>

				<path fill="none" stroke="#000000" d="M15.25,20.501v-3.417"/>

				<path fill="none" stroke="#000000" d="M15.25,25.501v-3.292"/>

				<path fill="none" stroke="#000000" d="M15.25,30.209v-3"/>

				<path fill="none" stroke="#000000" d="M15.25,36.834v-4"/>

				<path fill="none" stroke="#000000" d="M15.25,43.834v-5.25"/>

				<path fill="none" stroke="#000000" d="M14.682,50.001l71.568,8.583l-13.375-9.466L0.682,39.668"/>

				<g>

					<path d="M36.023,12.119l0.539-0.047c0.025,0.215,0.084,0.392,0.176,0.529c0.092,0.139,0.235,0.25,0.43,0.335       s0.412,0.128,0.655,0.128c0.215,0,0.405-0.032,0.57-0.097c0.165-0.065,0.288-0.153,0.368-0.266s0.121-0.235,0.121-0.368       c0-0.135-0.04-0.252-0.12-0.353c-0.08-0.1-0.209-0.185-0.388-0.253c-0.114-0.045-0.367-0.114-0.758-0.209       c-0.392-0.095-0.666-0.185-0.823-0.269c-0.204-0.107-0.356-0.241-0.456-0.401c-0.101-0.159-0.15-0.338-0.15-0.536       c0-0.217,0.061-0.42,0.184-0.609c0.122-0.189,0.301-0.333,0.536-0.431c0.235-0.098,0.496-0.146,0.784-0.146       c0.317,0,0.596,0.051,0.837,0.153c0.242,0.103,0.429,0.253,0.559,0.452s0.2,0.424,0.21,0.676l-0.547,0.039       c-0.029-0.268-0.128-0.471-0.295-0.607c-0.168-0.137-0.415-0.205-0.742-0.205c-0.341,0-0.589,0.063-0.745,0.188       c-0.156,0.126-0.233,0.278-0.233,0.456c0,0.154,0.055,0.281,0.165,0.38c0.108,0.1,0.392,0.202,0.85,0.307       s0.773,0.195,0.945,0.273c0.251,0.115,0.437,0.262,0.556,0.438c0.12,0.177,0.18,0.38,0.18,0.61       c0,0.229-0.065,0.443-0.196,0.646s-0.318,0.359-0.562,0.471s-0.519,0.168-0.824,0.168c-0.388,0-0.712-0.057-0.974-0.17       s-0.467-0.284-0.616-0.512C36.109,12.663,36.031,12.406,36.023,12.119z"/>

					<path d="M40.002,11.381c0-0.507,0.052-0.916,0.156-1.227s0.259-0.55,0.465-0.716c0.206-0.167,0.465-0.25,0.777-0.25       c0.229,0,0.433,0.046,0.607,0.139s0.318,0.227,0.43,0.401c0.112,0.175,0.2,0.388,0.265,0.638s0.097,0.589,0.097,1.014       c0,0.504-0.052,0.911-0.155,1.222s-0.258,0.55-0.464,0.717s-0.466,0.251-0.779,0.251c-0.414,0-0.738-0.147-0.975-0.441       C40.143,12.771,40.002,12.188,40.002,11.381z M40.541,11.38c0,0.706,0.082,1.175,0.248,1.406s0.369,0.348,0.612,0.348       c0.242,0,0.446-0.116,0.611-0.349c0.165-0.233,0.248-0.701,0.248-1.405c0-0.706-0.083-1.174-0.247-1.406       c-0.165-0.232-0.371-0.348-0.618-0.348c-0.243,0-0.437,0.102-0.583,0.307C40.631,10.194,40.541,10.676,40.541,11.38z"/>

				</g>

				<g>

					<path d="M91.357,23.118l0.539-0.047c0.025,0.215,0.084,0.392,0.176,0.53c0.092,0.138,0.235,0.25,0.43,0.335       c0.194,0.085,0.412,0.127,0.655,0.127c0.215,0,0.405-0.032,0.57-0.097c0.165-0.065,0.288-0.153,0.368-0.266       c0.081-0.112,0.121-0.235,0.121-0.367c0-0.135-0.04-0.252-0.12-0.353c-0.08-0.1-0.209-0.185-0.388-0.253       c-0.114-0.045-0.367-0.115-0.758-0.209c-0.392-0.095-0.666-0.184-0.823-0.269c-0.204-0.107-0.356-0.241-0.456-0.401       c-0.101-0.16-0.15-0.338-0.15-0.536c0-0.217,0.061-0.421,0.184-0.609c0.122-0.189,0.301-0.333,0.536-0.431       c0.235-0.098,0.496-0.147,0.784-0.147c0.317,0,0.596,0.051,0.837,0.154c0.242,0.102,0.429,0.253,0.559,0.452       c0.13,0.199,0.2,0.424,0.21,0.676l-0.547,0.039c-0.029-0.268-0.128-0.47-0.295-0.607c-0.168-0.137-0.415-0.206-0.742-0.206       c-0.341,0-0.589,0.063-0.745,0.189c-0.156,0.126-0.233,0.278-0.233,0.456c0,0.154,0.055,0.281,0.165,0.38       c0.108,0.1,0.392,0.202,0.85,0.306s0.773,0.196,0.945,0.274c0.251,0.115,0.437,0.261,0.556,0.438       c0.12,0.177,0.18,0.38,0.18,0.61c0,0.228-0.065,0.443-0.196,0.646c-0.13,0.202-0.318,0.359-0.562,0.471       c-0.244,0.112-0.519,0.168-0.824,0.168c-0.388,0-0.712-0.057-0.974-0.17s-0.467-0.284-0.616-0.511       C91.443,23.663,91.365,23.405,91.357,23.118z"/>

					<path d="M95.359,23.118l0.539-0.047c0.025,0.215,0.084,0.392,0.176,0.53c0.093,0.138,0.235,0.25,0.43,0.335       c0.194,0.085,0.412,0.127,0.655,0.127c0.215,0,0.405-0.032,0.57-0.097c0.165-0.065,0.288-0.153,0.368-0.266       c0.081-0.112,0.121-0.235,0.121-0.367c0-0.135-0.04-0.252-0.12-0.353c-0.08-0.1-0.209-0.185-0.388-0.253       c-0.114-0.045-0.367-0.115-0.758-0.209c-0.392-0.095-0.666-0.184-0.823-0.269c-0.204-0.107-0.356-0.241-0.456-0.401       c-0.101-0.16-0.15-0.338-0.15-0.536c0-0.217,0.061-0.421,0.184-0.609c0.122-0.189,0.301-0.333,0.536-0.431       s0.496-0.147,0.784-0.147c0.316,0,0.596,0.051,0.837,0.154c0.242,0.102,0.429,0.253,0.559,0.452       c0.13,0.199,0.2,0.424,0.21,0.676l-0.547,0.039c-0.029-0.268-0.128-0.47-0.295-0.607c-0.168-0.137-0.415-0.206-0.742-0.206       c-0.341,0-0.589,0.063-0.745,0.189c-0.155,0.126-0.233,0.278-0.233,0.456c0,0.154,0.055,0.281,0.165,0.38       c0.108,0.1,0.392,0.202,0.85,0.306s0.773,0.196,0.945,0.274c0.251,0.115,0.437,0.261,0.556,0.438       c0.12,0.177,0.18,0.38,0.18,0.61c0,0.228-0.065,0.443-0.195,0.646c-0.131,0.202-0.318,0.359-0.563,0.471       c-0.244,0.112-0.519,0.168-0.824,0.168c-0.388,0-0.712-0.057-0.974-0.17s-0.467-0.284-0.616-0.511       C95.445,23.663,95.367,23.405,95.359,23.118z"/>

					<path d="M99.08,24.501l1.644-4.297h0.623l1.758,4.297h-0.647l-0.494-1.305h-1.81l-0.47,1.305H99.08z M100.313,22.735h1.47       l-0.451-1.189c-0.135-0.362-0.238-0.661-0.309-0.897c-0.059,0.279-0.139,0.555-0.238,0.826L100.313,22.735z"/>

					<path d="M103.363,23.118l0.539-0.047c0.025,0.215,0.084,0.392,0.176,0.53c0.093,0.138,0.235,0.25,0.43,0.335       c0.194,0.085,0.412,0.127,0.655,0.127c0.215,0,0.405-0.032,0.57-0.097c0.165-0.065,0.288-0.153,0.368-0.266       c0.081-0.112,0.121-0.235,0.121-0.367c0-0.135-0.04-0.252-0.12-0.353c-0.08-0.1-0.209-0.185-0.388-0.253       c-0.114-0.045-0.367-0.115-0.758-0.209c-0.392-0.095-0.666-0.184-0.823-0.269c-0.204-0.107-0.356-0.241-0.456-0.401       c-0.101-0.16-0.15-0.338-0.15-0.536c0-0.217,0.061-0.421,0.184-0.609c0.122-0.189,0.301-0.333,0.536-0.431       s0.496-0.147,0.784-0.147c0.316,0,0.596,0.051,0.837,0.154c0.242,0.102,0.429,0.253,0.559,0.452       c0.13,0.199,0.2,0.424,0.21,0.676l-0.547,0.039c-0.029-0.268-0.128-0.47-0.295-0.607c-0.168-0.137-0.415-0.206-0.742-0.206       c-0.341,0-0.589,0.063-0.745,0.189c-0.155,0.126-0.233,0.278-0.233,0.456c0,0.154,0.055,0.281,0.165,0.38       c0.108,0.1,0.392,0.202,0.85,0.306s0.773,0.196,0.945,0.274c0.251,0.115,0.437,0.261,0.556,0.438       c0.12,0.177,0.18,0.38,0.18,0.61c0,0.228-0.065,0.443-0.195,0.646c-0.131,0.202-0.318,0.359-0.563,0.471       c-0.244,0.112-0.519,0.168-0.824,0.168c-0.388,0-0.712-0.057-0.974-0.17s-0.467-0.284-0.616-0.511       C103.449,23.663,103.371,23.405,103.363,23.118z"/>

				</g>

				<path fill="#999999" stroke="#000000" d="M97.261,35.769l-0.236,2.049l-8.578-5.268l9.513-3.936l-0.301,2.608l13.287,1.532      l-0.516,4.47L97.02,35.678"/>

				<g>

					<g>

						<path d="M27.044,79.501v-4.297h0.585l2.259,3.375v-3.375h0.547v4.297H29.85l-2.259-3.375v3.375H27.044z"/>

						<path d="M30.908,79.501l1.644-4.297h0.623l1.758,4.297h-0.647l-0.494-1.305h-1.809l-0.47,1.305H30.908z M32.142,77.735h1.469        l-0.451-1.189c-0.135-0.362-0.238-0.661-0.309-0.897c-0.059,0.279-0.138,0.555-0.238,0.826L32.142,77.735z"/>

						<path d="M35.379,79.501v-4.297h1.481c0.334,0,0.589,0.021,0.766,0.062c0.247,0.057,0.457,0.16,0.63,0.308        c0.227,0.191,0.396,0.436,0.509,0.734c0.113,0.298,0.169,0.639,0.169,1.021c0,0.327-0.038,0.616-0.114,0.868        s-0.174,0.461-0.293,0.626s-0.25,0.295-0.392,0.39c-0.142,0.095-0.313,0.167-0.513,0.215s-0.431,0.073-0.69,0.073H35.379z         M35.949,78.993h0.918c0.283,0,0.505-0.026,0.667-0.079c0.161-0.053,0.29-0.127,0.385-0.223        c0.135-0.135,0.24-0.316,0.315-0.543c0.075-0.228,0.113-0.503,0.113-0.828c0-0.449-0.074-0.794-0.222-1.036        c-0.147-0.241-0.327-0.403-0.538-0.485c-0.153-0.059-0.398-0.088-0.736-0.088h-0.903V78.993z"/>

						<path d="M39.813,79.501v-4.297h0.57v4.297H39.813z"/>

						<path d="M41.387,79.501v-4.297h1.907c0.383,0,0.674,0.039,0.874,0.116c0.199,0.077,0.359,0.214,0.478,0.409        c0.119,0.196,0.179,0.412,0.179,0.648c0,0.305-0.099,0.563-0.296,0.771c-0.198,0.209-0.502,0.342-0.915,0.399        c0.15,0.072,0.265,0.144,0.343,0.214c0.166,0.152,0.323,0.343,0.471,0.571l0.744,1.168h-0.71l-0.569-0.893        c-0.167-0.258-0.303-0.455-0.411-0.592c-0.107-0.136-0.204-0.232-0.289-0.287s-0.171-0.093-0.259-0.114        c-0.065-0.014-0.17-0.021-0.317-0.021h-0.66v1.906H41.387z M41.957,77.103h1.223c0.26,0,0.463-0.027,0.61-0.081        c0.146-0.054,0.258-0.14,0.334-0.258s0.114-0.247,0.114-0.386c0-0.203-0.074-0.37-0.222-0.501        c-0.147-0.131-0.381-0.196-0.699-0.196h-1.36V77.103z"/>

					</g>

					<g>

						<path d="M11.401,70.834v-4.297h2.906v0.508h-2.336v1.328h2.023v0.508h-2.023v1.953H11.401z"/>

						<path d="M15.783,70.834l-1.131-4.297h0.589l0.648,2.817c0.071,0.295,0.131,0.588,0.181,0.878        c0.109-0.459,0.173-0.724,0.192-0.794l0.815-2.901h0.686l0.615,2.177c0.149,0.541,0.26,1.047,0.333,1.519        c0.06-0.271,0.131-0.583,0.216-0.936l0.669-2.76h0.571l-1.174,4.297h-0.555l-0.895-3.272        c-0.075-0.273-0.121-0.442-0.138-0.506c-0.048,0.196-0.091,0.364-0.129,0.503l-0.901,3.275H15.783z"/>

						<path d="M20.706,70.834v-4.297h1.481c0.334,0,0.59,0.021,0.766,0.062c0.246,0.057,0.457,0.159,0.631,0.308        c0.227,0.191,0.396,0.437,0.509,0.734c0.112,0.298,0.168,0.639,0.168,1.021c0,0.326-0.038,0.615-0.114,0.867        c-0.077,0.252-0.174,0.461-0.293,0.626s-0.25,0.295-0.392,0.39s-0.313,0.167-0.513,0.216s-0.431,0.073-0.691,0.073H20.706z         M21.276,70.327h0.917c0.284,0,0.506-0.026,0.667-0.079c0.162-0.053,0.29-0.127,0.386-0.223        c0.135-0.135,0.24-0.316,0.315-0.544s0.113-0.503,0.113-0.827c0-0.449-0.074-0.795-0.221-1.036        c-0.148-0.241-0.327-0.402-0.538-0.484c-0.153-0.059-0.398-0.088-0.736-0.088h-0.903V70.327z"/>

					</g>

					<g>

						<path fill="none" stroke="#F51600" d="M18.5,65.001"/>

					</g>

					<g>

						<g a:adobe-knockout="true">

							<g>

								<g>

									<path fill="#FFFFFF" a:adobe-knockout="false" d="M37.064,39.167l0.02-0.198l-0.182,0.082L37.064,39.167z"/>

									<path fill="#FFFFFF" a:adobe-knockout="false" d="M19.561,63.127l-0.02,0.198l0.182-0.082L19.561,63.127z"/>

								</g>

								<g>

									<path fill="#FFFFFF" a:adobe-knockout="false" d="M37.032,39.125l0.01-0.099l-0.091,0.041L37.032,39.125z"/>

									<path fill="#FFFFFF" a:adobe-knockout="false" d="M36.937,38.964l-0.116,0.162l0.198,0.02L36.937,38.964z"/>

									<path fill="#FFFFFF" a:adobe-knockout="false" d="M36.936,39.086l0.083,0.182l0.116-0.162L36.936,39.086z"/>

								</g>

								<g>

									<path fill="#FFFFFF" a:adobe-knockout="false" d="M19.593,63.168l-0.01,0.099l0.091-0.041L19.593,63.168z"/>

									<path fill="#FFFFFF" a:adobe-knockout="false" d="M19.688,63.33l0.116-0.162l-0.198-0.02L19.688,63.33z"/>

									<path fill="#FFFFFF" a:adobe-knockout="false" d="M19.689,63.208l-0.083-0.182l-0.116,0.162L19.689,63.208z"/>

								</g>

							</g>

							<g>

								<g>

									<path fill="#FFFFFF" a:adobe-knockout="false" d="M18.183,61.361l-0.451,4.465l4.092-1.842L18.183,61.361z"/>

									<path fill="#FFFFFF" a:adobe-knockout="false" d="M21.838,64.087l0.116-0.162l-0.198-0.02L21.838,64.087z"/>

									<path fill="#FFFFFF" a:adobe-knockout="false" d="M18.279,61.4l-0.082-0.182l-0.117,0.162L18.279,61.4z"/>

								</g>

								<g>

									<path fill="#FFFFFF" a:adobe-knockout="false" d="M21.831,64.036l0.058-0.081l-0.099-0.01L21.831,64.036z"/>

									<path fill="#FFFFFF" a:adobe-knockout="false" d="M21.829,63.848l-0.182,0.083l0.162,0.116L21.829,63.848z"/>

									<path fill="#FFFFFF" a:adobe-knockout="false" d="M21.767,63.954l-0.02,0.199l0.182-0.083L21.767,63.954z"/>

								</g>

								<g>

									<path fill="#FFFFFF" a:adobe-knockout="false" d="M18.231,61.381L18.19,61.29l-0.058,0.081L18.231,61.381z"/>

									<path fill="#FFFFFF" a:adobe-knockout="false" d="M18.068,61.289l-0.02,0.198l0.182-0.082L18.068,61.289z"/>

									<path fill="#FFFFFF" a:adobe-knockout="false" d="M18.128,61.396l0.162,0.116l0.02-0.198L18.128,61.396z"/>

								</g>

							</g>

						</g>

						<g a:adobe-knockout="true">

							<g>

								<g>

									<path fill="none" stroke="#000000" a:adobe-knockout="false" d="M19.625,63.209L37,39.084"/>

									<path a:adobe-knockout="false" d="M37.064,39.167l0.02-0.198l-0.182,0.082L37.064,39.167z"/>

									<path a:adobe-knockout="false" d="M19.561,63.127l-0.02,0.198l0.182-0.082L19.561,63.127z"/>

								</g>

								<g>

									<path a:adobe-knockout="false" d="M37.032,39.125l0.01-0.099l-0.091,0.041L37.032,39.125z"/>

									<path a:adobe-knockout="false" d="M36.937,38.964l-0.116,0.162l0.198,0.02L36.937,38.964z"/>

									<path a:adobe-knockout="false" d="M36.936,39.086l0.083,0.182l0.116-0.162L36.936,39.086z"/>

								</g>

								<g>

									<path a:adobe-knockout="false" d="M19.593,63.168l-0.01,0.099l0.091-0.041L19.593,63.168z"/>

									<path a:adobe-knockout="false" d="M19.688,63.33l0.116-0.162l-0.198-0.02L19.688,63.33z"/>

									<path a:adobe-knockout="false" d="M19.689,63.208l-0.083-0.182l-0.116,0.162L19.689,63.208z"/>

								</g>

							</g>

							<g>

								<g>

									<path a:adobe-knockout="false" d="M18.183,61.361l-0.451,4.465l4.092-1.842L18.183,61.361z"/>

									<path a:adobe-knockout="false" d="M21.838,64.087l0.116-0.162l-0.198-0.02L21.838,64.087z"/>

									<path a:adobe-knockout="false" d="M18.279,61.4l-0.082-0.182l-0.117,0.162L18.279,61.4z"/>

								</g>

								<g>

									<path a:adobe-knockout="false" d="M21.831,64.036l0.058-0.081l-0.099-0.01L21.831,64.036z"/>

									<path a:adobe-knockout="false" d="M21.829,63.848l-0.182,0.083l0.162,0.116L21.829,63.848z"/>

									<path a:adobe-knockout="false" d="M21.767,63.954l-0.02,0.199l0.182-0.083L21.767,63.954z"/>

								</g>

								<g>

									<path a:adobe-knockout="false" d="M18.231,61.381L18.19,61.29l-0.058,0.081L18.231,61.381z"/>

									<path a:adobe-knockout="false" d="M18.068,61.289l-0.02,0.198l0.182-0.082L18.068,61.289z"/>

									<path a:adobe-knockout="false" d="M18.128,61.396l0.162,0.116l0.02-0.198L18.128,61.396z"/>

								</g>

							</g>

						</g>

					</g>

					<g>

						<g a:adobe-knockout="true">

							<g>

								<g>

									<path fill="#FFFFFF" a:adobe-knockout="false" d="M37.225,52.739l-0.1-0.173l-0.1,0.173H37.225z"/>

									<path fill="#FFFFFF" a:adobe-knockout="false" d="M37.025,71.18l0.1,0.173l0.1-0.173H37.025z"/>

								</g>

								<g>

									<path fill="#FFFFFF" a:adobe-knockout="false" d="M37.175,52.724l-0.05-0.086l-0.05,0.086H37.175z"/>

									<path fill="#FFFFFF" a:adobe-knockout="false" d="M37.003,52.649l0,0.199l0.172-0.1L37.003,52.649z"/>

									<path fill="#FFFFFF" a:adobe-knockout="false" d="M37.074,52.749l0.172,0.1l0-0.2L37.074,52.749z"/>

								</g>

								<g>

									<path fill="#FFFFFF" a:adobe-knockout="false" d="M37.075,71.195l0.05,0.086l0.05-0.086H37.075z"/>

									<path fill="#FFFFFF" a:adobe-knockout="false" d="M37.247,71.27l0-0.199l-0.172,0.1L37.247,71.27z"/>

									<path fill="#FFFFFF" a:adobe-knockout="false" d="M37.176,71.17l-0.172-0.1l0,0.2L37.176,71.17z"/>

								</g>

							</g>

							<g>

								<g>

									<path fill="#FFFFFF" a:adobe-knockout="false" d="M34.875,70.553l2.244,3.886l2.244-3.886H34.875z"/>

									<path fill="#FFFFFF" a:adobe-knockout="false" d="M39.434,70.628v-0.199l-0.173,0.1L39.434,70.628z"/>

									<path fill="#FFFFFF" a:adobe-knockout="false" d="M34.976,70.528l-0.172-0.1v0.2L34.976,70.528z"/>

								</g>

								<g>

									<path fill="#FFFFFF" a:adobe-knockout="false" d="M39.398,70.591v-0.1l-0.086,0.05L39.398,70.591z"/>

									<path fill="#FFFFFF" a:adobe-knockout="false" d="M39.287,70.44l-0.1,0.172l0.199,0L39.287,70.44z"/>

									<path fill="#FFFFFF" a:adobe-knockout="false" d="M39.298,70.562l0.1,0.173l0.1-0.173H39.298z"/>

								</g>

								<g>

									<path fill="#FFFFFF" a:adobe-knockout="false" d="M34.925,70.541l-0.086-0.05v0.1L34.925,70.541z"/>

									<path fill="#FFFFFF" a:adobe-knockout="false" d="M34.739,70.562l0.1,0.173l0.1-0.173H34.739z"/>

									<path fill="#FFFFFF" a:adobe-knockout="false" d="M34.85,70.613l0.199,0l-0.1-0.172L34.85,70.613z"/>

								</g>

							</g>

						</g>

						<g a:adobe-knockout="true">

							<g>

								<g>

									<path fill="none" stroke="#000000" a:adobe-knockout="false" d="M37.125,71.209v-18.5"/>

									<path a:adobe-knockout="false" d="M37.225,52.739l-0.1-0.173l-0.1,0.173H37.225z"/>

									<path a:adobe-knockout="false" d="M37.025,71.18l0.1,0.173l0.1-0.173H37.025z"/>

								</g>

								<g>

									<path a:adobe-knockout="false" d="M37.175,52.724l-0.05-0.086l-0.05,0.086H37.175z"/>

									<path a:adobe-knockout="false" d="M37.003,52.649l0,0.199l0.172-0.1L37.003,52.649z"/>

									<path a:adobe-knockout="false" d="M37.074,52.749l0.172,0.1l0-0.2L37.074,52.749z"/>

								</g>

								<g>

									<path a:adobe-knockout="false" d="M37.075,71.195l0.05,0.086l0.05-0.086H37.075z"/>

									<path a:adobe-knockout="false" d="M37.247,71.27l0-0.199l-0.172,0.1L37.247,71.27z"/>

									<path a:adobe-knockout="false" d="M37.176,71.17l-0.172-0.1l0,0.2L37.176,71.17z"/>

								</g>

							</g>

							<g>

								<g>

									<path a:adobe-knockout="false" d="M34.875,70.553l2.244,3.886l2.244-3.886H34.875z"/>

									<path a:adobe-knockout="false" d="M39.434,70.628v-0.199l-0.173,0.1L39.434,70.628z"/>

									<path a:adobe-knockout="false" d="M34.976,70.528l-0.172-0.1v0.2L34.976,70.528z"/>

								</g>

								<g>

									<path a:adobe-knockout="false" d="M39.398,70.591v-0.1l-0.086,0.05L39.398,70.591z"/>

									<path a:adobe-knockout="false" d="M39.287,70.44l-0.1,0.172l0.199,0L39.287,70.44z"/>

									<path a:adobe-knockout="false" d="M39.298,70.562l0.1,0.173l0.1-0.173H39.298z"/>

								</g>

								<g>

									<path a:adobe-knockout="false" d="M34.925,70.541l-0.086-0.05v0.1L34.925,70.541z"/>

									<path a:adobe-knockout="false" d="M34.739,70.562l0.1,0.173l0.1-0.173H34.739z"/>

									<path a:adobe-knockout="false" d="M34.85,70.613l0.199,0l-0.1-0.172L34.85,70.613z"/>

								</g>

							</g>

						</g>

					</g>

					<path fill="none" stroke="#000000" d="M37.125,46.272v-1.625"/>

					<path fill="none" stroke="#000000" d="M37.125,43.522v-1.5"/>

					<path fill="none" stroke="#000000" d="M37.125,41.084v-2.188"/>

					<path fill="none" stroke="#000000" d="M37.125,51.584v-1.625"/>

					<path fill="none" stroke="#000000" d="M37.125,49.022v-1.5"/>

				</g>

				<path d="M91.213,45.466l0.539-0.047c0.025,0.215,0.083,0.392,0.176,0.53c0.092,0.138,0.235,0.25,0.43,0.335      c0.193,0.085,0.412,0.127,0.654,0.127c0.216,0,0.406-0.032,0.571-0.097c0.165-0.064,0.287-0.153,0.368-0.266      c0.08-0.112,0.121-0.235,0.121-0.367c0-0.135-0.04-0.252-0.12-0.353s-0.209-0.185-0.387-0.253      c-0.114-0.045-0.367-0.115-0.758-0.209c-0.392-0.095-0.666-0.184-0.823-0.268c-0.204-0.108-0.356-0.242-0.457-0.401      c-0.1-0.16-0.15-0.338-0.15-0.536c0-0.218,0.061-0.421,0.184-0.609c0.123-0.189,0.301-0.333,0.536-0.431      s0.497-0.147,0.784-0.147c0.317,0,0.596,0.051,0.838,0.154s0.428,0.253,0.559,0.452c0.13,0.198,0.2,0.424,0.209,0.675      l-0.547,0.039c-0.029-0.268-0.127-0.47-0.294-0.607c-0.168-0.137-0.415-0.206-0.742-0.206c-0.341,0-0.589,0.063-0.745,0.189      c-0.156,0.126-0.234,0.277-0.234,0.455c0,0.154,0.055,0.281,0.166,0.381c0.108,0.1,0.392,0.202,0.85,0.307      s0.773,0.195,0.945,0.273c0.251,0.115,0.436,0.261,0.556,0.438c0.119,0.177,0.179,0.38,0.179,0.61      c0,0.229-0.065,0.443-0.196,0.646c-0.13,0.202-0.317,0.358-0.562,0.471s-0.52,0.168-0.825,0.168      c-0.387,0-0.711-0.057-0.973-0.17s-0.467-0.284-0.616-0.511C91.3,46.01,91.221,45.753,91.213,45.466z"/>

				<path d="M95.192,44.729c0-0.507,0.052-0.916,0.157-1.227c0.104-0.311,0.259-0.549,0.465-0.716      c0.206-0.166,0.465-0.25,0.777-0.25c0.23,0,0.433,0.046,0.608,0.139c0.175,0.093,0.318,0.227,0.43,0.401s0.2,0.387,0.265,0.638      c0.064,0.251,0.096,0.589,0.096,1.015c0,0.504-0.052,0.911-0.155,1.222c-0.104,0.311-0.258,0.55-0.464,0.717      c-0.206,0.168-0.466,0.251-0.78,0.251c-0.414,0-0.738-0.147-0.974-0.441C95.333,46.118,95.192,45.535,95.192,44.729z       M95.731,44.728c0,0.707,0.083,1.175,0.248,1.407c0.166,0.231,0.369,0.347,0.612,0.347s0.446-0.116,0.612-0.349      c0.165-0.232,0.248-0.7,0.248-1.405c0-0.706-0.083-1.174-0.247-1.406c-0.165-0.232-0.371-0.348-0.619-0.348      c-0.243,0-0.437,0.102-0.583,0.307C95.821,43.542,95.731,44.024,95.731,44.728z"/>

				<path d="M98.279,46.919l1.242-4.438h0.425l-1.242,4.438H98.279z"/>

				<path d="M100.407,46.849v-4.297h1.622c0.285,0,0.503,0.014,0.654,0.041c0.211,0.035,0.388,0.102,0.53,0.201      s0.258,0.236,0.345,0.414s0.13,0.373,0.13,0.585c0,0.365-0.117,0.674-0.349,0.926c-0.232,0.253-0.652,0.379-1.26,0.379h-1.102      v1.75H100.407z M100.977,44.591h1.111c0.367,0,0.628-0.068,0.782-0.205c0.154-0.136,0.232-0.328,0.232-0.576      c0-0.179-0.045-0.333-0.136-0.46c-0.091-0.127-0.211-0.212-0.359-0.253c-0.096-0.025-0.272-0.038-0.53-0.038h-1.099V44.591z"/>

				<path d="M106.182,46.849h-0.531v-3.36c-0.126,0.121-0.292,0.242-0.496,0.363c-0.205,0.121-0.389,0.212-0.551,0.272v-0.51      c0.293-0.139,0.55-0.307,0.769-0.504c0.22-0.197,0.375-0.389,0.467-0.574h0.342V46.849z"/>

				<path fill="none" stroke="#000000" d="M15.148,5.168l0.068-4.333"/>

				<path fill="none" stroke="#000000" d="M15.148,49.668l0.068-4.334"/>

				<path fill="none" stroke="#000000" d="M86.599,59.084l0.25-49.417"/>

			</g>

		</g>

	</g>

</svg>
