<svg xmlns="http://www.w3.org/2000/svg" xmlns:xlink="http://www.w3.org/1999/xlink" xmlns:a="http://ns.adobe.com/AdobeSVGViewerExtensions/3.0/" width="277.083" height="174.229" viewBox="0 0 277.083 174.229" overflow="visible" enable-background="new 0 0 277.083 174.229" xml:space="preserve" preserveAspectRatio="xMidYMid meet" zoomAndPan="magnify" version="1.0" contentScriptType="text/ecmascript" contentStyleType="text/css">

	<g id="Layer_1">

		<g>

			<path fill="#B4B4B4" d="M219.106,143.26H112.5V30.5h106.607V143.26z"/>

			<path fill="#B4B4B4" d="M239.463,62.833V111.5h12.666v-5.333h15.334v-5.333h9.359V73.5l-9.531-0.125v-5.208h-15.375v-5.333     H239.463z"/>

			<path fill="#B4B4B4" d="M219.167,30.5v112.76l20.297-31.76V62.833L219.167,30.5z"/>

			<path fill="#B4B4B4" d="M70.5,39.167l41.807-8.682v112.683L70.5,134.5V39.167z"/>

			<path fill="#B4B4B4" stroke="#000000" d="M70.5,39.167V134.5"/>

			<path fill="#B4B4B4" stroke="#000000" stroke-dasharray="12" d="M70.5,134.5h-70V39.167h70"/>

			<path fill="#B4B4B4" stroke="#000000" stroke-dasharray="12" d="M219.167,143.167H112.5"/>

			<path fill="#B4B4B4" stroke="#000000" stroke-width="0.5" d="M219.167,30.5v112.667"/>

			<path fill="#B4B4B4" stroke="#000000" stroke-dasharray="12" d="M112.5,30.5h106.667"/>

			<path fill="#B4B4B4" stroke="#000000" stroke-width="0.5" d="M112.5,143.167V30.5"/>

			<path fill="none" stroke="#000000" stroke-dasharray="12" d="M70.604,134.484l41.703,8.688L70.604,134.484z"/>

			<path fill="none" stroke="#000000" stroke-dasharray="12" d="M219.106,143.26l20.375-31.625"/>

			<path fill="none" stroke="#000000" stroke-dasharray="12" d="M239.25,62.833l-20.083-32.207"/>

			<path fill="none" stroke="#000000" stroke-width="0.5" d="M239.481,111.762V62.953"/>

			<path fill="none" stroke="#000000" stroke-dasharray="12" d="M276.583,101.031V73.5h-9.333v-5.333h-15.333v-5.333H239.25"/>

			<path fill="none" stroke="#000000" stroke-dasharray="12" d="M276.823,100.833h-9.359v5.333h-15.334v5.333h-12.666"/>

			<path fill="#B4B4B4" stroke="#000000" stroke-dasharray="12" d="M50,0.5H34.5v21.333h37.333V4.5H66.5v5.333h-6.667V6H50V0.5z"/>

			<path fill="none" stroke="#000000" d="M51.167,21.833v17.333"/>

			<path fill="none" stroke="#000000" stroke-dasharray="12" d="M112.307,30.484l-41.703,8.688L112.307,30.484z"/>

			<path fill="#B4B4B4" stroke="#000000" stroke-dasharray="12" d="M52.333,173.729h15.5v-21.333H30.5v17.333h5.333v-5.333H42.5     v3.833h9.833V173.729z"/>

			<path fill="none" stroke="#000000" d="M51.167,152.395v-17.333"/>

			<path fill="none" stroke="#000000" d="M70.604,39.172"/>

		</g>

	</g>

</svg>
