<svg xmlns="http://www.w3.org/2000/svg" xmlns:xlink="http://www.w3.org/1999/xlink" xmlns:a="http://ns.adobe.com/AdobeSVGViewerExtensions/3.0/" width="20.031" height="13.089" viewBox="0 0 20.031 13.089" overflow="visible" enable-background="new 0 0 20.031 13.089" xml:space="preserve" preserveAspectRatio="xMidYMid meet" zoomAndPan="magnify" version="1.0" contentScriptType="text/ecmascript" contentStyleType="text/css">

	<g id="Layer_1">

		<path fill="#FFFFFF" stroke="#000000" stroke-width="0.5" stroke-linecap="round" stroke-linejoin="round" d="M6.414,6.968    L3.351,2.612c0,0-0.102-0.278-0.591-0.628C2.502,1.8,2.133,1.727,2.133,1.727L0.25,1.615l1.249,3.212c0,0,0.522,1.661,2.295,3.138    c1.899,1.583,4.688,2.842,8.12,3.949c3.434,1.107,5.537,0.997,6.571,0.813c1.033-0.185,2.141-0.406,0.849-3.47    c-1.292-3.064-5.279-4.394-5.279-4.394L8.592,3.351c0,0-1.697-0.443-2.547-0.111C5.752,3.354,5.344,3.498,4.68,4.31"/>

		<path fill="none" stroke="#000000" stroke-width="0.5" stroke-linecap="round" stroke-linejoin="round" d="M9.479,3.608V0.25    c0,0,1.107-0.037,1.477,0.258c0.369,0.296,0.517,0.591,0.517,0.591l2.584,3.766"/>

		<path stroke="#000000" stroke-width="0.5" stroke-linecap="round" stroke-linejoin="round" d="M15.98,5.897    c0,0-1.335-0.111-2.922,0.479c-1.588,0.591-1.477,1.07-1.477,1.07l2.141,1.034c0,0,1.07-0.813,1.772-0.96    C16.196,7.374,17.943,7.3,17.943,7.3"/>

		<path stroke="#000000" stroke-width="0.5" d="M18.854,8.629c0,0-2.136,0.3-4.171,1.883c-1.661,1.291-3.833,0.134-4.061,0.036    C10.105,10.327,4.864,8.739,3.056,7.3c0,0,3.47,3.544,11.664,5.353C14.72,12.652,22.656,14.424,18.854,8.629z"/>

	</g>

</svg>
