<svg xmlns="http://www.w3.org/2000/svg" xmlns:xlink="http://www.w3.org/1999/xlink" xmlns:a="http://ns.adobe.com/AdobeSVGViewerExtensions/3.0/" width="42.996" height="34.764" viewBox="0 0 42.996 34.764" overflow="visible" enable-background="new 0 0 42.996 34.764" xml:space="preserve" preserveAspectRatio="xMidYMid meet" zoomAndPan="magnify" version="1.0" contentScriptType="text/ecmascript" contentStyleType="text/css">

	<g id="Layer_1">

		<g>

			<path fill="#B4B4B4" d="M30.499,32.841l-2.75,1.063l-3.438,0.688l-1.438-0.125l-1.417-0.527l-1.917-1.25l-1.583-3.25l1.167-2.083     l8.251-4.327l8.5-4.125l1.375-0.813l-0.188-9.063l-8.688-8.75l1.688-0.063l3.063,0.688l2.625,1.313l2.125,1.688l1.438,1.5     l1.563,2.563l0.813,1.688l0.353,1.535l0.647,2.715l0.104,3.702l-0.604,2.86l-1.48,3.057l-1.917,2.75l-2.583,2.666l-1.77,1.527     l-2.25,1.438"/>

			<path fill="#B4B4B4" d="M13.186,33.153l2.875,1.063l1.813,0.375h2.25l1.417-0.667l1.917-1.25l1.583-3.25l0.708-1.521l-9-4.25     l-4.938-2.562l-6-2.938l0.063-9.125l8.625-8.75l-1.813,0.063l-3.25,0.75L6.499,2.716L4.124,4.778L2.061,8.153l-1.188,2.938     l-0.625,3.563L0.207,17.59l0.604,3.063l1.479,2.854l1.917,2.75l2.583,2.667l2.833,2.167l1.75,1.063"/>

		</g>

		<g>

			<path fill="none" stroke="#000000" stroke-width="0.25" d="M14.874,0.091l-9,9v9l15.667,7.833"/>

			<g>

				<g>

					<path fill="none" stroke="#000000" stroke-width="0.25" d="M28.123,0.105l9,9v9l-18,9"/>

					<path fill="none" stroke="#000000" stroke-width="0.25" d="M19.165,27.091c-2.917,1.917,0.208,6.599,2.915,7.223"/>

					<path fill="none" stroke="#000000" stroke-width="0.25" d="M21.748,34.189c6.57,2.468,21.125-7.352,21.125-17.584       c0-8.768-5.208-16.473-14.666-16.473"/>

				</g>

				<path fill="none" stroke="#000000" stroke-width="0.25" d="M21.374,34.174c-5.625,2.708-21.25-6.75-21.25-17.583      c0-8.768,5.229-16.469,14.688-16.469"/>

			</g>

		</g>

	</g>

</svg>
