<svg xmlns="http://www.w3.org/2000/svg" xmlns:xlink="http://www.w3.org/1999/xlink" xmlns:a="http://ns.adobe.com/AdobeSVGViewerExtensions/3.0/" width="45.236" height="26.083" viewBox="0 0 45.236 26.083" overflow="visible" enable-background="new 0 0 45.236 26.083" xml:space="preserve" preserveAspectRatio="xMidYMid meet" zoomAndPan="magnify" version="1.0" contentScriptType="text/ecmascript" contentStyleType="text/css">

	<g id="Layer_1">

		<path fill="#FFFFFF" stroke="#000000" stroke-width="0.5" stroke-linecap="round" d="M19.253,0.538l-11.786,9.95H0.25v4.889h7.217    l11.786,10.161V0.538z"/>

		<path fill="#FFFFFF" stroke="#000000" stroke-width="0.5" stroke-linecap="round" d="M5.54,20.052    c-1.176,0.707-2.702,0.327-3.409-0.849s-0.327-2.702,0.849-3.409c1.176-0.707,2.702-0.326,3.409,0.849    C7.095,17.819,6.715,19.345,5.54,20.052z"/>

		<path fill="none" stroke="#000000" stroke-width="0.5" d="M22.629,17.009l9.534-7.087v7.509l10.125-7.847"/>

		<path fill="#F50000" d="M42.602,9.012c-0.408,0.156-0.694,0.231-1.042,0.331l0.782,1.009c0.06-0.119,0.327-0.571,0.58-0.927    c0.271-0.381,0.536-0.704,0.723-0.891C43.416,8.669,43.039,8.845,42.602,9.012z"/>

		<path d="M43.15,8.203c-0.816,0.313-1.389,0.462-2.084,0.66l1.564,2.019c0.12-0.237,0.653-1.142,1.16-1.854    c0.542-0.763,1.071-1.407,1.446-1.782C44.779,7.516,44.024,7.868,43.15,8.203z"/>

	</g>

</svg>
