<svg xmlns="http://www.w3.org/2000/svg" xmlns:xlink="http://www.w3.org/1999/xlink" xmlns:a="http://ns.adobe.com/AdobeSVGViewerExtensions/3.0/" width="57" height="78" viewBox="0 0 57 78" overflow="visible" enable-background="new 0 0 57 78" xml:space="preserve" preserveAspectRatio="xMidYMid meet" zoomAndPan="magnify" version="1.0" contentScriptType="text/ecmascript" contentStyleType="text/css">

	<g id="Layer_1">

		<path fill="#D4D4D4" stroke="#000000" d="M56.5,77.5h-56v-77h56V77.5z"/>

		<path d="M35.292,45.125H5.25v-8.083h30.042V45.125z"/>

		<path d="M9.269,52.167h-4v-5.125h4V52.167z"/>

		<path d="M16.36,52.142h-4v-5.127h4V52.142z"/>

		<path d="M23.508,52.194h-4v-5.129h4V52.194z"/>

		<path d="M9.218,59.29h-4v-5.132h4V59.29z"/>

		<path d="M16.309,59.265h-4v-5.134h4V59.265z"/>

		<path d="M23.456,59.317h-4V54.18h4V59.317z"/>

		<path d="M9.203,66.375h-4v-5.139h4V66.375z"/>

		<path d="M16.293,66.351h-4V61.21h4V66.351z"/>

		<path d="M23.441,66.403h-4v-5.144h4V66.403z"/>

		<path d="M9.203,73.226h-4v-5.146h4V73.226z"/>

		<path d="M16.293,73.202h-4v-5.147h4V73.202z"/>

		<path d="M23.441,73.253h-4v-5.15h4V73.253z"/>

		<path d="M35.215,52.225h-4v-5.134h4V52.225z"/>

		<path d="M35.164,59.358h-4v-5.144h4V59.358z"/>

		<path d="M35.149,66.452h-4v-5.148h4V66.452z"/>

		<path d="M35.149,73.302h-4v-5.15h4V73.302z"/>

		<path d="M51.071,45.377h-4.006v-5.134h4.006V45.377z"/>

		<path d="M44.171,45.313h-4.005v-5.144h4.005V45.313z"/>

		<path d="M44.157,52.409h-4.005v-5.151h4.005V52.409z"/>

		<path d="M44.157,59.259h-4.005v-5.15h4.005V59.259z"/>

		<path d="M51.071,52.218h-4.006v-5.138h4.006V52.218z"/>

		<path d="M51.018,59.361h-4.005v-5.15h4.005V59.361z"/>

		<path d="M51.003,66.462h-4.005v-5.153h4.005V66.462z"/>

		<path d="M51.003,73.313h-4.005v-5.15h4.005V73.313z"/>

		<path fill="none" stroke="#000000" d="M5.057,75.667h48.735v-14.5"/>

		<path d="M35.292,19.104c0,8.319-6.744,15.063-15.063,15.063S5.167,27.423,5.167,19.104S11.91,4.042,20.229,4.042    S35.292,10.785,35.292,19.104z"/>

		<path d="M49.292,9.604c0,2.52-2.042,4.563-4.563,4.563c-2.52,0-4.563-2.043-4.563-4.563c0-2.52,2.043-4.563,4.563-4.563    C47.25,5.042,49.292,7.084,49.292,9.604z"/>

		<path fill="none" stroke="#000000" stroke-width="0.65" d="M49.292,31.104c0,2.244-1.818,4.063-4.063,4.063    s-4.063-1.819-4.063-4.063s1.818-4.063,4.063-4.063S49.292,28.86,49.292,31.104z"/>

		<path fill="none" stroke="#000000" stroke-width="0.65" d="M48.292,20.104c0,1.691-1.371,3.063-3.063,3.063    s-3.063-1.371-3.063-3.063s1.371-3.063,3.063-3.063S48.292,18.413,48.292,20.104z"/>

		<path fill="none" stroke="#000000" stroke-width="0.65" d="M41.292,30.667h7.875"/>

	</g>

</svg>
