<svg xmlns="http://www.w3.org/2000/svg" xmlns:xlink="http://www.w3.org/1999/xlink" xmlns:a="http://ns.adobe.com/AdobeSVGViewerExtensions/3.0/" width="44" height="32.753" viewBox="0 0 44 32.753" overflow="visible" enable-background="new 0 0 44 32.753" xml:space="preserve" preserveAspectRatio="xMidYMid meet" zoomAndPan="magnify" version="1.0" contentScriptType="text/ecmascript" contentStyleType="text/css">

	<g id="Layer_1">

	</g>

	<g id="Layer_2">

		<g>

			<path fill="#FFFFFF" d="M7.917,32.042v-3.833h5.25v-0.75l-1.333-1.667l-1.25-2.75L10,20.125l0.167-2.917l0.5-2.25l0.917-1.75     l1.083-2l1.917-1.833l1.333-0.917l1.667-0.75l1.5-0.667l1.583-0.417L22,6.458l0.667-0.083v-5.75l7.042-0.042l0.042,2.542     l-4.667-0.25l0.083,4.083h10.667v4.333l-2.167,0.083l-0.167,0.75l0.583,0.833l0.833,1.583l1,2.667v3.167l-0.583,2.667     L34.5,25.125l-1.25,1.667l-1.583,1.917L30,30.292l-2.833,1.167l-1.917,0.583H23H7.917z"/>

			<g>

				<path fill="none" stroke="#000000" stroke-width="0.748" d="M33.561,11.738C35.097,13.875,36,16.492,36,19.319      c0,7.21-5.876,13.056-13.125,13.056"/>

				<path fill="none" stroke="#000000" stroke-width="0.75" d="M12.911,27.777c-1.917-2.255-3.161-5.253-3.161-8.43      c0-7.04,5.674-12.771,12.75-12.967"/>

				<path fill="none" stroke="#000000" stroke-width="0.7851" d="M7.266,27.875h5.942"/>

				<path fill="none" stroke="#000000" stroke-width="0.7284" d="M7.625,27.521v5.188"/>

				<path fill="none" stroke="#000000" stroke-width="0.7556" d="M7.266,32.375H23"/>

				<path fill="none" stroke="#000000" stroke-width="0.75" d="M22.375,0.25v7.875"/>

				<path fill="none" stroke="#000000" stroke-width="0.7172" d="M22.749,7.875h-1.56"/>

				<path fill="none" stroke="#000000" stroke-width="0.7441" d="M22,0.375h7.875"/>

				<path fill="none" stroke="#000000" stroke-width="0.7078" d="M29.875,0v3.563"/>

				<path fill="none" stroke="#000000" stroke-width="0.739" d="M30.219,3.219H25"/>

				<path fill="none" stroke="#000000" stroke-width="0.75" d="M25.375,3v7.375"/>

				<path fill="none" stroke="#000000" stroke-width="0.7013" d="M25.745,10.5h-1.741"/>

				<path fill="none" stroke="#000000" stroke-width="0.761" d="M25.708,6.792h10.854"/>

				<path fill="none" stroke="#000000" stroke-width="0.7362" d="M36.208,6.438v5.5"/>

				<path fill="none" stroke="#000000" stroke-width="0.7296" d="M36.563,11.583h-3.312"/>

				<path fill="none" stroke="#000000" stroke-width="0.5" d="M27.063,19.313c0,2.313-1.875,4.188-4.188,4.188      s-4.188-1.875-4.188-4.188s1.875-4.188,4.188-4.188S27.063,17,27.063,19.313z"/>

				<path fill="none" stroke="#000000" stroke-width="0.5" d="M16.563,8c4.781,0,8.722,3.604,9.252,8.243"/>

				<path fill="none" stroke="#000000" stroke-width="0.5" d="M35.363,14.785c-1.244,3.741-4.763,6.343-8.771,6.366"/>

				<path fill="none" stroke="#000000" stroke-width="0.5" d="M11.152,25.218c0.506-4.147,3.806-7.494,8.05-8.106"/>

				<path fill="none" stroke="#000000" stroke-width="0.5" d="M27.066,31.588c-4.031-1.078-6.881-4.748-6.896-8.947"/>

				<g a:adobe-knockout="true">

					<path fill="none" stroke="#000000" stroke-width="0.739" a:adobe-knockout="false" d="M0,30.125h6"/>

					<path a:adobe-knockout="false" d="M5.249,31.627l-0.447-0.448l1.055-1.054L4.801,29.07l0.447-0.447l1.502,1.502L5.249,31.627z       "/>

				</g>

				<g a:adobe-knockout="true">

					<path fill="none" stroke="#000000" stroke-width="0.739" a:adobe-knockout="false" d="M30.833,1.625h6"/>

					<path a:adobe-knockout="false" d="M36.082,3.127l-0.447-0.448l1.055-1.054L35.635,0.57l0.447-0.447l1.502,1.502L36.082,3.127z       "/>

				</g>

				<g a:adobe-knockout="true">

					<path fill="none" stroke="#000000" stroke-width="0.739" a:adobe-knockout="false" d="M37.25,8.792h6"/>

					<path a:adobe-knockout="false" d="M42.499,10.294l-0.447-0.448l1.055-1.054l-1.055-1.055l0.447-0.447L44,8.792L42.499,10.294z       "/>

				</g>

			</g>

		</g>

	</g>

</svg>
