<svg xmlns="http://www.w3.org/2000/svg" width="264.091pt" height="164.227pt" viewBox="0 0 264.091 164.227" xml:space="preserve" preserveAspectRatio="xMidYMid meet" enableZoomAndPanControls="true" contentScriptType="text/ecmascript" contentStyleType="text/css">

	<g id="Layer_x0020_1" style="fill-rule:nonzero;clip-rule:nonzero;fill:none;stroke:#000000;stroke-miterlimit:4;">

		<path style="stroke-width:3.5;" d="M0,62.023h20.478v100.454h241.864V1.75H20.864v20.091H0"/>

		<path d="M0,41.932h108.568"/>

		<g>

			<path d="M102.387,41.932c0,0,32.454-1.625,56.409,87.626"/>

			<path style="fill:#000000;" d="M149.81,129.003l12.169,12.158l4.444-16.617l-16.613,4.459z"/>

		</g>

		<g>

			<path d="M104.318,41.932c0,0,65.294-4.25,94.659,87.705"/>

			<path style="fill:#000000;" d="M189.993,129.863l12.725,11.575l3.661-16.808l-16.386,5.232z"/>

		</g>

		<g>

			<path d="M105.478,41.932c0,0,100.84-1.931,134.068,86.932"/>

			<path style="fill:#000000;" d="M230.583,130.249l13.273,10.941l2.839-16.966l-16.112,6.024z"/>

		</g>

		<path style="stroke-width:4;" d="M151.841,143.159h19.318"/>

		<path style="stroke-width:4;" d="M192.35,143.266h19.339"/>

		<path style="stroke-width:4;" d="M232.611,143.243h19.316"/>

	</g>

</svg>
