<svg xmlns="http://www.w3.org/2000/svg" xmlns:xlink="http://www.w3.org/1999/xlink" xmlns:a="http://ns.adobe.com/AdobeSVGViewerExtensions/3.0/" width="119.585" height="138.989" viewBox="0 0 119.585 138.989" overflow="visible" enable-background="new 0 0 119.585 138.989" xml:space="preserve" preserveAspectRatio="xMidYMid meet" zoomAndPan="magnify" version="1.0" contentScriptType="text/ecmascript" contentStyleType="text/css">

	<g id="Layer_1">

		<g>

			<g>

				<path fill="#B4B4B4" d="M29.231,69.009L0.125,55.427V13.708L29.231,0.125h61.123l29.106,13.583v41.718L90.354,69.009"/>

				<path fill="#B4B4B4" d="M90.407,69.009v67.106l-3.153,2.749H32.352l-3.153-2.749V69.009H90.407z"/>

			</g>

			<g>

				<path fill="#B4B4B4" stroke="#000000" stroke-width="0.25" d="M29.231,69.009L0.125,55.427V13.708L29.231,0.125h61.123      l29.106,13.583v41.718L90.354,69.009"/>

				<path fill="#B4B4B4" stroke="#000000" stroke-width="0.25" d="M90.407,69.009v67.106l-3.153,2.749H32.352l-3.153-2.749V69.009      H90.407z"/>

			</g>

			<g>

				<path fill="none" stroke="#000000" stroke-width="0.25" d="M29.231,69.009L0.125,55.427V13.708L29.231,0.125h61.123      l29.106,13.583v41.718L90.354,69.009"/>

				<path fill="none" stroke="#000000" stroke-width="0.25" d="M90.407,69.009v67.106l-3.153,2.749H32.352l-3.153-2.749V69.009      H90.407z"/>

			</g>

		</g>

	</g>

</svg>
