<svg xmlns="http://www.w3.org/2000/svg" xmlns:xlink="http://www.w3.org/1999/xlink" xmlns:a="http://ns.adobe.com/AdobeSVGViewerExtensions/3.0/" width="17.792" height="17.875" viewBox="0 0 17.792 17.875" overflow="visible" enable-background="new 0 0 17.792 17.875" xml:space="preserve" preserveAspectRatio="xMidYMid meet" zoomAndPan="magnify" version="1.0" contentScriptType="text/ecmascript" contentStyleType="text/css">

	<g id="Layer_1">

		<path fill="#FFFFFF" stroke="#000000" stroke-width="0.5" d="M17.542,17.625H0.25V0.25h17.292V17.625z"/>

		<g>

			<path d="M7.042,9.292V3.558h2.162c0.38,0,0.671,0.019,0.872,0.055c0.282,0.047,0.518,0.136,0.708,0.267     c0.19,0.132,0.343,0.315,0.459,0.552c0.116,0.236,0.174,0.496,0.174,0.779c0,0.486-0.155,0.897-0.464,1.233     c-0.31,0.337-0.869,0.505-1.678,0.505H7.807v2.344H7.042z M7.807,6.276h1.479c0.489,0,0.835-0.091,1.042-0.273     c0.205-0.182,0.308-0.438,0.308-0.77c0-0.239-0.061-0.444-0.181-0.615c-0.121-0.17-0.28-0.283-0.478-0.338     C9.849,4.247,9.613,4.229,9.27,4.229H7.807V6.276z"/>

		</g>

		<g>

			<path d="M1.68,15.042v-2.867h0.393l1.506,2.251v-2.251h0.367v2.867H3.553L2.047,12.79v2.251H1.68z"/>

		</g>

		<g>

			<path d="M11.445,13.646c0-0.475,0.127-0.847,0.381-1.115c0.254-0.269,0.582-0.403,0.984-0.403c0.263,0,0.5,0.063,0.712,0.189     c0.211,0.126,0.373,0.302,0.483,0.528c0.111,0.226,0.167,0.482,0.167,0.768c0,0.29-0.058,0.55-0.175,0.779     c-0.116,0.229-0.282,0.402-0.496,0.52c-0.214,0.118-0.445,0.177-0.692,0.177c-0.269,0-0.508-0.065-0.72-0.195     c-0.211-0.13-0.372-0.308-0.48-0.533C11.499,14.136,11.445,13.897,11.445,13.646z M11.835,13.651     c0,0.344,0.092,0.615,0.277,0.813c0.184,0.198,0.416,0.297,0.694,0.297c0.284,0,0.517-0.1,0.7-0.3     c0.183-0.2,0.275-0.483,0.275-0.851c0-0.232-0.039-0.435-0.118-0.608c-0.078-0.173-0.192-0.308-0.343-0.403     s-0.32-0.143-0.508-0.143c-0.267,0-0.496,0.092-0.688,0.275C11.932,12.915,11.835,13.222,11.835,13.651z"/>

		</g>

		<g>

			<path d="M6.178,15.915v0.336H4.279c-0.003-0.084,0.011-0.166,0.042-0.244c0.048-0.129,0.126-0.255,0.233-0.38     s0.26-0.268,0.46-0.432c0.31-0.258,0.52-0.461,0.63-0.61c0.111-0.149,0.166-0.29,0.166-0.424c0-0.139-0.05-0.256-0.149-0.352     c-0.1-0.095-0.23-0.143-0.391-0.143c-0.17,0-0.305,0.052-0.407,0.156c-0.102,0.104-0.153,0.247-0.154,0.43L4.35,14.204     c0.024-0.27,0.118-0.475,0.279-0.616c0.162-0.141,0.378-0.212,0.65-0.212c0.274,0,0.492,0.076,0.651,0.229     c0.16,0.152,0.24,0.341,0.24,0.567c0,0.114-0.023,0.227-0.07,0.338c-0.047,0.11-0.124,0.227-0.232,0.35     c-0.108,0.123-0.288,0.291-0.541,0.504C5.116,15.54,4.98,15.661,4.92,15.724c-0.06,0.063-0.109,0.127-0.148,0.191H6.178z"/>

		</g>

		<g>

			<path d="M16.303,15.915v0.336h-1.898c-0.003-0.084,0.011-0.166,0.042-0.244c0.048-0.129,0.126-0.255,0.233-0.38     s0.26-0.268,0.46-0.432c0.31-0.258,0.52-0.461,0.63-0.61c0.111-0.149,0.166-0.29,0.166-0.424c0-0.139-0.05-0.256-0.149-0.352     c-0.1-0.095-0.23-0.143-0.391-0.143c-0.17,0-0.305,0.052-0.407,0.156c-0.102,0.104-0.153,0.247-0.154,0.43l-0.359-0.047     c0.024-0.27,0.118-0.475,0.279-0.616c0.162-0.141,0.378-0.212,0.65-0.212c0.274,0,0.492,0.076,0.651,0.229     c0.16,0.152,0.24,0.341,0.24,0.567c0,0.114-0.023,0.227-0.07,0.338c-0.047,0.11-0.124,0.227-0.232,0.35     c-0.108,0.123-0.288,0.291-0.541,0.504c-0.211,0.177-0.347,0.298-0.407,0.361c-0.06,0.063-0.109,0.127-0.148,0.191H16.303z"/>

		</g>

		<path stroke="#000000" stroke-width="0.5" d="M5.25,9.417L11.667,3"/>

		<path d="M12.134,2.045c-0.514,0.275-0.88,0.422-1.324,0.611l1.204,1.204c0.06-0.167,0.337-0.81,0.612-1.323    c0.295-0.55,0.59-1.02,0.808-1.3C13.154,1.454,12.684,1.75,12.134,2.045z"/>

	</g>

</svg>
