<svg xmlns="http://www.w3.org/2000/svg" xmlns:xlink="http://www.w3.org/1999/xlink" xmlns:a="http://ns.adobe.com/AdobeSVGViewerExtensions/3.0/" width="79.37" height="79.37" viewBox="0 0 79.37 79.37" overflow="visible" enable-background="new 0 0 79.37 79.37" xml:space="preserve" preserveAspectRatio="xMidYMid meet" zoomAndPan="magnify" version="1.0" contentScriptType="text/ecmascript" contentStyleType="text/css">

	<g id="Layer_1">

		<path fill="#FFFFFF" stroke="#000000" stroke-width="2" d="M78.375,39.685c0,21.368-17.322,38.689-38.69,38.689    c-21.368,0-38.689-17.322-38.689-38.689s17.322-38.69,38.689-38.69C61.053,0.995,78.375,18.317,78.375,39.685z"/>

		<path fill="#FFFFFF" stroke="#000000" stroke-width="2" d="M58.952,20.238c0-10.528-8.534-19.062-19.062-19.062    c-10.528,0-19.063,8.534-19.063,19.062S29.361,39.3,39.89,39.3C50.417,39.3,58.952,30.766,58.952,20.238z"/>

		<path fill="#FFFFFF" stroke="#000000" stroke-width="2" d="M58.952,59.132c0-10.528-8.535-19.062-19.063-19.062    s-19.063,8.534-19.063,19.062s8.535,19.063,19.063,19.063S58.952,69.66,58.952,59.132z"/>

		<path fill="#FFFFFF" stroke="#000000" stroke-width="2" d="M0.995,39.685h77.379"/>

		<path fill="none" stroke="#000000" stroke-width="2" d="M69.086,31.98l8.059,7.76l-8.059,8.059"/>

	</g>

</svg>
