<svg xmlns="http://www.w3.org/2000/svg" xmlns:xlink="http://www.w3.org/1999/xlink" xmlns:a="http://ns.adobe.com/AdobeSVGViewerExtensions/3.0/" width="128.878" height="79.857" viewBox="0 0 128.878 79.857" overflow="visible" enable-background="new 0 0 128.878 79.857" xml:space="preserve" preserveAspectRatio="xMidYMid meet" zoomAndPan="magnify" version="1.0" contentScriptType="text/ecmascript" contentStyleType="text/css">

	<g id="Layer_1">

		<path fill="#999999" d="M24.819,12.523l14,13.667l-0.333,25.333L24.652,61.19L24.819,12.523z"/>

		<path fill="none" stroke="#000000" d="M97.501,3.523"/>

		<path fill="none" stroke="#000000" d="M123.001,15.523l-84.25,10.318l-13.5-13.318l96.25-12l3.083,2.667l-0.167,2.333V9.69    l1.167,2.667L123.001,15.523z"/>

		<path fill="none" stroke="#000000" d="M24.751,12.356v49.417"/>

		<path fill="none" stroke="#000000" d="M97.251,6.023V3.856l13.75,13.167v25.25l-13.75,10v-3.375"/>

		<path fill="none" stroke="#000000" d="M97.251,7.023v-1"/>

		<path fill="none" stroke="#000000" d="M97.251,11.273v-1.75"/>

		<path fill="none" stroke="#000000" d="M97.251,16.523v-1.75"/>

		<path fill="none" stroke="#000000" d="M97.251,21.898v-2.125"/>

		<path fill="none" stroke="#000000" d="M97.251,27.273v-2.375"/>

		<path fill="none" stroke="#000000" d="M97.251,32.898v-3"/>

		<path fill="none" stroke="#000000" d="M97.251,39.523v-4"/>

		<path fill="none" stroke="#000000" d="M97.251,46.523v-5.25"/>

		<path fill="none" stroke="#000000" d="M123.001,15.523l2.25,5l-4.333,5.833l7.167,2.667l-5,6.833l0.833,3.167l-1.333,1.833    l-4.333,5.333l1.333,1.333l1.167,2l-95.5,11.75l13.375-9.466l83.792-10.784"/>

		<g>

			<path d="M110.347,9.808l0.539-0.047c0.025,0.215,0.084,0.392,0.176,0.529c0.092,0.139,0.235,0.25,0.43,0.335     s0.412,0.128,0.655,0.128c0.215,0,0.405-0.032,0.57-0.097c0.165-0.065,0.288-0.153,0.368-0.266s0.121-0.235,0.121-0.368     c0-0.135-0.04-0.252-0.12-0.353c-0.08-0.1-0.209-0.185-0.388-0.253c-0.114-0.045-0.367-0.114-0.758-0.209     c-0.392-0.095-0.666-0.185-0.823-0.269c-0.204-0.107-0.356-0.241-0.456-0.401c-0.101-0.159-0.15-0.338-0.15-0.536     c0-0.217,0.061-0.42,0.184-0.609c0.122-0.189,0.301-0.333,0.536-0.431c0.235-0.098,0.496-0.146,0.784-0.146     c0.317,0,0.596,0.051,0.837,0.153c0.242,0.103,0.429,0.253,0.559,0.452s0.2,0.424,0.21,0.676l-0.547,0.039     c-0.029-0.268-0.128-0.471-0.295-0.607c-0.168-0.137-0.415-0.205-0.742-0.205c-0.341,0-0.589,0.063-0.745,0.188     c-0.156,0.126-0.233,0.278-0.233,0.456c0,0.154,0.055,0.281,0.165,0.38c0.108,0.1,0.392,0.202,0.85,0.307     s0.773,0.195,0.945,0.273c0.251,0.115,0.437,0.262,0.556,0.438c0.12,0.177,0.18,0.38,0.18,0.61c0,0.229-0.065,0.443-0.196,0.646     s-0.318,0.359-0.562,0.471s-0.519,0.168-0.824,0.168c-0.388,0-0.712-0.057-0.974-0.17s-0.467-0.284-0.616-0.512     C110.433,10.352,110.354,10.095,110.347,9.808z"/>

			<path d="M114.325,9.07c0-0.507,0.052-0.916,0.156-1.227s0.259-0.55,0.465-0.716c0.206-0.167,0.465-0.25,0.777-0.25     c0.229,0,0.433,0.046,0.607,0.139s0.318,0.227,0.43,0.401c0.112,0.175,0.2,0.388,0.265,0.638s0.097,0.589,0.097,1.014     c0,0.504-0.052,0.911-0.155,1.222s-0.258,0.55-0.464,0.717s-0.466,0.251-0.779,0.251c-0.414,0-0.738-0.147-0.975-0.441     C114.466,10.46,114.325,9.877,114.325,9.07z M114.864,9.069c0,0.706,0.082,1.175,0.248,1.406s0.369,0.348,0.612,0.348     c0.242,0,0.446-0.116,0.611-0.349c0.165-0.233,0.248-0.701,0.248-1.405c0-0.706-0.083-1.174-0.247-1.406     c-0.165-0.232-0.371-0.348-0.618-0.348c-0.243,0-0.437,0.102-0.583,0.307C114.954,7.883,114.864,8.365,114.864,9.069z"/>

		</g>

		<g>

			<path d="M1.347,26.474l0.539-0.047c0.025,0.215,0.084,0.392,0.176,0.53c0.092,0.138,0.235,0.25,0.43,0.335     c0.194,0.085,0.412,0.127,0.655,0.127c0.215,0,0.405-0.032,0.57-0.097c0.165-0.065,0.288-0.153,0.368-0.266     c0.081-0.112,0.121-0.235,0.121-0.367c0-0.135-0.04-0.252-0.12-0.353c-0.08-0.1-0.209-0.185-0.388-0.253     c-0.114-0.045-0.367-0.115-0.758-0.209c-0.392-0.095-0.666-0.184-0.823-0.269c-0.204-0.107-0.356-0.241-0.456-0.401     c-0.101-0.16-0.15-0.338-0.15-0.536c0-0.217,0.061-0.421,0.184-0.609c0.122-0.189,0.301-0.333,0.536-0.431     c0.235-0.098,0.496-0.147,0.784-0.147c0.317,0,0.596,0.051,0.837,0.154c0.242,0.102,0.429,0.253,0.559,0.452     c0.13,0.199,0.2,0.424,0.21,0.676l-0.547,0.039c-0.029-0.268-0.128-0.47-0.295-0.607c-0.168-0.137-0.415-0.206-0.742-0.206     c-0.341,0-0.589,0.063-0.745,0.189c-0.156,0.126-0.233,0.278-0.233,0.456c0,0.154,0.055,0.281,0.165,0.38     c0.108,0.1,0.392,0.202,0.85,0.306s0.773,0.196,0.945,0.274c0.251,0.115,0.437,0.261,0.556,0.438c0.12,0.177,0.18,0.38,0.18,0.61     c0,0.228-0.065,0.443-0.196,0.646c-0.13,0.202-0.318,0.359-0.562,0.471c-0.244,0.112-0.519,0.168-0.824,0.168     c-0.388,0-0.712-0.057-0.974-0.17s-0.467-0.284-0.616-0.511C1.433,27.018,1.354,26.761,1.347,26.474z"/>

			<path d="M5.349,26.474l0.539-0.047c0.025,0.215,0.084,0.392,0.176,0.53c0.093,0.138,0.235,0.25,0.43,0.335     c0.194,0.085,0.412,0.127,0.655,0.127c0.215,0,0.405-0.032,0.57-0.097c0.165-0.065,0.288-0.153,0.368-0.266     c0.081-0.112,0.121-0.235,0.121-0.367c0-0.135-0.04-0.252-0.12-0.353c-0.08-0.1-0.209-0.185-0.388-0.253     c-0.114-0.045-0.367-0.115-0.758-0.209c-0.392-0.095-0.666-0.184-0.823-0.269c-0.204-0.107-0.356-0.241-0.456-0.401     c-0.101-0.16-0.15-0.338-0.15-0.536c0-0.217,0.061-0.421,0.184-0.609c0.122-0.189,0.301-0.333,0.536-0.431     s0.496-0.147,0.784-0.147c0.316,0,0.596,0.051,0.837,0.154c0.242,0.102,0.429,0.253,0.559,0.452c0.13,0.199,0.2,0.424,0.21,0.676     l-0.547,0.039c-0.029-0.268-0.128-0.47-0.295-0.607c-0.168-0.137-0.415-0.206-0.742-0.206c-0.341,0-0.589,0.063-0.745,0.189     c-0.155,0.126-0.233,0.278-0.233,0.456c0,0.154,0.055,0.281,0.165,0.38c0.108,0.1,0.392,0.202,0.85,0.306     s0.773,0.196,0.945,0.274c0.251,0.115,0.437,0.261,0.556,0.438c0.12,0.177,0.18,0.38,0.18,0.61c0,0.228-0.065,0.443-0.195,0.646     c-0.131,0.202-0.318,0.359-0.563,0.471c-0.244,0.112-0.519,0.168-0.824,0.168c-0.388,0-0.712-0.057-0.974-0.17     s-0.467-0.284-0.616-0.511C5.435,27.018,5.356,26.761,5.349,26.474z"/>

			<path d="M9.069,27.856l1.644-4.297h0.623l1.758,4.297h-0.647l-0.494-1.305h-1.81l-0.47,1.305H9.069z M10.303,26.091h1.47     l-0.451-1.189c-0.135-0.362-0.238-0.661-0.309-0.897c-0.059,0.279-0.139,0.555-0.238,0.826L10.303,26.091z"/>

			<path d="M13.353,26.474l0.539-0.047c0.025,0.215,0.084,0.392,0.176,0.53c0.093,0.138,0.235,0.25,0.43,0.335     c0.194,0.085,0.412,0.127,0.655,0.127c0.215,0,0.405-0.032,0.57-0.097c0.165-0.065,0.288-0.153,0.368-0.266     c0.081-0.112,0.121-0.235,0.121-0.367c0-0.135-0.04-0.252-0.12-0.353c-0.08-0.1-0.209-0.185-0.388-0.253     c-0.114-0.045-0.367-0.115-0.758-0.209c-0.392-0.095-0.666-0.184-0.823-0.269c-0.204-0.107-0.356-0.241-0.456-0.401     c-0.101-0.16-0.15-0.338-0.15-0.536c0-0.217,0.061-0.421,0.184-0.609c0.122-0.189,0.301-0.333,0.536-0.431     s0.496-0.147,0.784-0.147c0.316,0,0.596,0.051,0.837,0.154c0.242,0.102,0.429,0.253,0.559,0.452c0.13,0.199,0.2,0.424,0.21,0.676     l-0.547,0.039c-0.029-0.268-0.128-0.47-0.295-0.607c-0.168-0.137-0.415-0.206-0.742-0.206c-0.341,0-0.589,0.063-0.745,0.189     c-0.155,0.126-0.233,0.278-0.233,0.456c0,0.154,0.055,0.281,0.165,0.38c0.108,0.1,0.392,0.202,0.85,0.306     s0.773,0.196,0.945,0.274c0.251,0.115,0.437,0.261,0.556,0.438c0.12,0.177,0.18,0.38,0.18,0.61c0,0.228-0.065,0.443-0.195,0.646     c-0.131,0.202-0.318,0.359-0.563,0.471c-0.244,0.112-0.519,0.168-0.824,0.168c-0.388,0-0.712-0.057-0.974-0.17     s-0.467-0.284-0.616-0.511C13.438,27.018,13.36,26.761,13.353,26.474z"/>

		</g>

		<g>

			<path d="M77.701,79.857V75.56h0.585l2.259,3.375V75.56h0.547v4.297h-0.585l-2.259-3.375v3.375H77.701z"/>

			<path d="M81.565,79.857l1.644-4.297h0.623l1.758,4.297h-0.647l-0.494-1.305h-1.809l-0.47,1.305H81.565z M82.799,78.091h1.469     l-0.451-1.189c-0.135-0.362-0.238-0.661-0.309-0.897c-0.059,0.279-0.138,0.555-0.238,0.826L82.799,78.091z"/>

			<path d="M86.036,79.857V75.56h1.481c0.334,0,0.589,0.021,0.766,0.062c0.247,0.057,0.457,0.16,0.63,0.308     c0.227,0.191,0.396,0.436,0.509,0.734c0.113,0.298,0.169,0.639,0.169,1.021c0,0.327-0.038,0.616-0.114,0.868     s-0.174,0.461-0.293,0.626s-0.25,0.295-0.392,0.39c-0.142,0.095-0.313,0.167-0.513,0.215s-0.431,0.073-0.69,0.073H86.036z      M86.606,79.349h0.918c0.283,0,0.505-0.026,0.667-0.079c0.161-0.053,0.29-0.127,0.385-0.223c0.135-0.135,0.24-0.316,0.315-0.543     c0.075-0.228,0.113-0.503,0.113-0.828c0-0.449-0.074-0.794-0.222-1.036c-0.147-0.241-0.327-0.403-0.538-0.485     c-0.153-0.059-0.398-0.088-0.736-0.088h-0.903V79.349z"/>

			<path d="M90.47,79.857V75.56h0.57v4.297H90.47z"/>

			<path d="M92.043,79.857V75.56h1.907c0.383,0,0.674,0.039,0.874,0.116c0.199,0.077,0.359,0.214,0.478,0.409     c0.119,0.196,0.179,0.412,0.179,0.648c0,0.305-0.099,0.563-0.296,0.771c-0.198,0.209-0.502,0.342-0.915,0.399     c0.15,0.072,0.265,0.144,0.343,0.214c0.166,0.152,0.323,0.343,0.471,0.571l0.744,1.168h-0.71l-0.569-0.893     c-0.167-0.258-0.303-0.455-0.411-0.592c-0.107-0.136-0.204-0.232-0.289-0.287s-0.171-0.093-0.259-0.114     c-0.065-0.014-0.17-0.021-0.317-0.021h-0.66v1.906H92.043z M92.614,77.458h1.223c0.26,0,0.463-0.027,0.61-0.081     c0.146-0.054,0.258-0.14,0.334-0.258s0.114-0.247,0.114-0.386c0-0.203-0.074-0.37-0.222-0.501     c-0.147-0.131-0.381-0.196-0.699-0.196h-1.36V77.458z"/>

		</g>

		<g>

			<path d="M100.391,70.19v-4.297h2.906v0.508h-2.336v1.328h2.023v0.508h-2.023v1.953H100.391z"/>

			<path d="M104.773,70.19l-1.131-4.297h0.589l0.648,2.817c0.071,0.295,0.131,0.588,0.181,0.878     c0.109-0.459,0.173-0.724,0.192-0.794l0.815-2.901h0.686l0.615,2.177c0.149,0.541,0.26,1.047,0.333,1.519     c0.06-0.271,0.131-0.583,0.216-0.936l0.669-2.76h0.571l-1.174,4.297h-0.555l-0.895-3.272c-0.075-0.273-0.121-0.442-0.138-0.506     c-0.048,0.196-0.091,0.364-0.129,0.503l-0.901,3.275H104.773z"/>

			<path d="M109.696,70.19v-4.297h1.481c0.334,0,0.59,0.021,0.766,0.062c0.246,0.057,0.457,0.159,0.631,0.308     c0.227,0.191,0.396,0.437,0.509,0.734c0.112,0.298,0.168,0.639,0.168,1.021c0,0.326-0.038,0.615-0.114,0.867     c-0.077,0.252-0.174,0.461-0.293,0.626s-0.25,0.295-0.392,0.39s-0.313,0.167-0.513,0.216s-0.431,0.073-0.691,0.073H109.696z      M110.266,69.683h0.917c0.284,0,0.506-0.026,0.667-0.079c0.162-0.053,0.29-0.127,0.386-0.223c0.135-0.135,0.24-0.316,0.315-0.544     s0.113-0.503,0.113-0.827c0-0.449-0.074-0.795-0.221-1.036c-0.148-0.241-0.327-0.402-0.538-0.484     c-0.153-0.059-0.398-0.088-0.736-0.088h-0.903V69.683z"/>

		</g>

		<path fill="#999999" stroke="#000000" d="M14.24,38.458l0.236,2.049l8.578-5.268l-9.513-3.936l0.301,2.608L0.554,35.443    l0.516,4.47l13.411-1.546"/>

		<g>

			<path fill="none" stroke="#F51600" d="M105.001,63.69"/>

		</g>

		<g>

			<g a:adobe-knockout="true">

				<g>

					<g>

						<path fill="#FFFFFF" a:adobe-knockout="false" d="M86.599,37.739l-0.182-0.082l0.02,0.199L86.599,37.739z"/>

						<path fill="#FFFFFF" a:adobe-knockout="false" d="M103.778,61.933l0.182,0.082l-0.02-0.199L103.778,61.933z"/>

					</g>

					<g>

						<path fill="#FFFFFF" a:adobe-knockout="false" d="M86.55,37.756l-0.091-0.041l0.01,0.1L86.55,37.756z"/>

						<path fill="#FFFFFF" a:adobe-knockout="false" d="M86.367,37.796l0.117,0.161l0.082-0.182L86.367,37.796z"/>

						<path fill="#FFFFFF" a:adobe-knockout="false" d="M86.483,37.835l0.198-0.02l-0.117-0.162L86.483,37.835z"/>

					</g>

					<g>

						<path fill="#FFFFFF" a:adobe-knockout="false" d="M103.827,61.916l0.091,0.041l-0.01-0.1L103.827,61.916z"/>

						<path fill="#FFFFFF" a:adobe-knockout="false" d="M104.01,61.876l-0.117-0.161l-0.082,0.182L104.01,61.876z"/>

						<path fill="#FFFFFF" a:adobe-knockout="false" d="M103.894,61.837l-0.198,0.02l0.117,0.162L103.894,61.837z"/>

					</g>

				</g>

				<g>

					<g>

						<path fill="#FFFFFF" a:adobe-knockout="false" d="M101.666,62.681l4.092,1.842l-0.451-4.465L101.666,62.681z"/>

						<path fill="#FFFFFF" a:adobe-knockout="false" d="M105.41,60.078l-0.117-0.162l-0.082,0.182L105.41,60.078z"/>

						<path fill="#FFFFFF" a:adobe-knockout="false" d="M101.734,62.602l-0.199,0.02l0.117,0.162L101.734,62.602z"/>

					</g>

					<g>

						<path fill="#FFFFFF" a:adobe-knockout="false" d="M105.358,60.068l-0.058-0.081l-0.041,0.091L105.358,60.068z"/>

						<path fill="#FFFFFF" a:adobe-knockout="false" d="M105.18,60.01l0.02,0.199l0.162-0.117L105.18,60.01z"/>

						<path fill="#FFFFFF" a:adobe-knockout="false" d="M105.26,60.103l0.182,0.082l-0.02-0.199L105.26,60.103z"/>

					</g>

					<g>

						<path fill="#FFFFFF" a:adobe-knockout="false" d="M101.7,62.642l-0.099,0.01l0.058,0.081L101.7,62.642z"/>

						<path fill="#FFFFFF" a:adobe-knockout="false" d="M101.561,62.767l0.182,0.082l-0.02-0.198L101.561,62.767z"/>

						<path fill="#FFFFFF" a:adobe-knockout="false" d="M101.681,62.744l0.162-0.116l-0.182-0.083L101.681,62.744z"/>

					</g>

				</g>

			</g>

			<g a:adobe-knockout="true">

				<g>

					<g>

						<path fill="none" stroke="#000000" a:adobe-knockout="false" d="M103.876,61.898L86.501,37.773"/>

						<path a:adobe-knockout="false" d="M86.599,37.739l-0.182-0.082l0.02,0.199L86.599,37.739z"/>

						<path a:adobe-knockout="false" d="M103.778,61.933l0.182,0.082l-0.02-0.199L103.778,61.933z"/>

					</g>

					<g>

						<path a:adobe-knockout="false" d="M86.55,37.756l-0.091-0.041l0.01,0.1L86.55,37.756z"/>

						<path a:adobe-knockout="false" d="M86.367,37.796l0.117,0.161l0.082-0.182L86.367,37.796z"/>

						<path a:adobe-knockout="false" d="M86.483,37.835l0.198-0.02l-0.117-0.162L86.483,37.835z"/>

					</g>

					<g>

						<path a:adobe-knockout="false" d="M103.827,61.916l0.091,0.041l-0.01-0.1L103.827,61.916z"/>

						<path a:adobe-knockout="false" d="M104.01,61.876l-0.117-0.161l-0.082,0.182L104.01,61.876z"/>

						<path a:adobe-knockout="false" d="M103.894,61.837l-0.198,0.02l0.117,0.162L103.894,61.837z"/>

					</g>

				</g>

				<g>

					<g>

						<path a:adobe-knockout="false" d="M101.666,62.681l4.092,1.842l-0.451-4.465L101.666,62.681z"/>

						<path a:adobe-knockout="false" d="M105.41,60.078l-0.117-0.162l-0.082,0.182L105.41,60.078z"/>

						<path a:adobe-knockout="false" d="M101.734,62.602l-0.199,0.02l0.117,0.162L101.734,62.602z"/>

					</g>

					<g>

						<path a:adobe-knockout="false" d="M105.358,60.068l-0.058-0.081l-0.041,0.091L105.358,60.068z"/>

						<path a:adobe-knockout="false" d="M105.18,60.01l0.02,0.199l0.162-0.117L105.18,60.01z"/>

						<path a:adobe-knockout="false" d="M105.26,60.103l0.182,0.082l-0.02-0.199L105.26,60.103z"/>

					</g>

					<g>

						<path a:adobe-knockout="false" d="M101.7,62.642l-0.099,0.01l0.058,0.081L101.7,62.642z"/>

						<path a:adobe-knockout="false" d="M101.561,62.767l0.182,0.082l-0.02-0.198L101.561,62.767z"/>

						<path a:adobe-knockout="false" d="M101.681,62.744l0.162-0.116l-0.182-0.083L101.681,62.744z"/>

					</g>

				</g>

			</g>

		</g>

		<g>

			<g a:adobe-knockout="true">

				<g>

					<g>

						<path fill="#FFFFFF" a:adobe-knockout="false" d="M86.476,51.428l-0.1-0.173l-0.1,0.173H86.476z"/>

						<path fill="#FFFFFF" a:adobe-knockout="false" d="M86.276,69.869l0.1,0.173l0.1-0.173H86.276z"/>

					</g>

					<g>

						<path fill="#FFFFFF" a:adobe-knockout="false" d="M86.426,51.413l-0.05-0.086l-0.05,0.086H86.426z"/>

						<path fill="#FFFFFF" a:adobe-knockout="false" d="M86.254,51.338l0,0.199l0.172-0.1L86.254,51.338z"/>

						<path fill="#FFFFFF" a:adobe-knockout="false" d="M86.325,51.438l0.172,0.1l0-0.2L86.325,51.438z"/>

					</g>

					<g>

						<path fill="#FFFFFF" a:adobe-knockout="false" d="M86.326,69.884l0.05,0.086l0.05-0.086H86.326z"/>

						<path fill="#FFFFFF" a:adobe-knockout="false" d="M86.498,69.959l0-0.199l-0.172,0.1L86.498,69.959z"/>

						<path fill="#FFFFFF" a:adobe-knockout="false" d="M86.427,69.859l-0.172-0.1l0,0.2L86.427,69.859z"/>

					</g>

				</g>

				<g>

					<g>

						<path fill="#FFFFFF" a:adobe-knockout="false" d="M84.125,69.242l2.244,3.886l2.244-3.886H84.125z"/>

						<path fill="#FFFFFF" a:adobe-knockout="false" d="M88.685,69.317v-0.199l-0.173,0.1L88.685,69.317z"/>

						<path fill="#FFFFFF" a:adobe-knockout="false" d="M84.227,69.217l-0.172-0.1v0.2L84.227,69.217z"/>

					</g>

					<g>

						<path fill="#FFFFFF" a:adobe-knockout="false" d="M88.649,69.28v-0.1l-0.086,0.05L88.649,69.28z"/>

						<path fill="#FFFFFF" a:adobe-knockout="false" d="M88.538,69.129l-0.1,0.172l0.199,0L88.538,69.129z"/>

						<path fill="#FFFFFF" a:adobe-knockout="false" d="M88.549,69.25l0.1,0.173l0.1-0.173H88.549z"/>

					</g>

					<g>

						<path fill="#FFFFFF" a:adobe-knockout="false" d="M84.176,69.23l-0.086-0.05v0.1L84.176,69.23z"/>

						<path fill="#FFFFFF" a:adobe-knockout="false" d="M83.99,69.25l0.1,0.173l0.1-0.173H83.99z"/>

						<path fill="#FFFFFF" a:adobe-knockout="false" d="M84.101,69.302l0.199,0l-0.1-0.172L84.101,69.302z"/>

					</g>

				</g>

			</g>

			<g a:adobe-knockout="true">

				<g>

					<g>

						<path fill="none" stroke="#000000" a:adobe-knockout="false" d="M86.376,69.898v-18.5"/>

						<path a:adobe-knockout="false" d="M86.476,51.428l-0.1-0.173l-0.1,0.173H86.476z"/>

						<path a:adobe-knockout="false" d="M86.276,69.869l0.1,0.173l0.1-0.173H86.276z"/>

					</g>

					<g>

						<path a:adobe-knockout="false" d="M86.426,51.413l-0.05-0.086l-0.05,0.086H86.426z"/>

						<path a:adobe-knockout="false" d="M86.254,51.338l0,0.199l0.172-0.1L86.254,51.338z"/>

						<path a:adobe-knockout="false" d="M86.325,51.438l0.172,0.1l0-0.2L86.325,51.438z"/>

					</g>

					<g>

						<path a:adobe-knockout="false" d="M86.326,69.884l0.05,0.086l0.05-0.086H86.326z"/>

						<path a:adobe-knockout="false" d="M86.498,69.959l0-0.199l-0.172,0.1L86.498,69.959z"/>

						<path a:adobe-knockout="false" d="M86.427,69.859l-0.172-0.1l0,0.2L86.427,69.859z"/>

					</g>

				</g>

				<g>

					<g>

						<path a:adobe-knockout="false" d="M84.125,69.242l2.244,3.886l2.244-3.886H84.125z"/>

						<path a:adobe-knockout="false" d="M88.685,69.317v-0.199l-0.173,0.1L88.685,69.317z"/>

						<path a:adobe-knockout="false" d="M84.227,69.217l-0.172-0.1v0.2L84.227,69.217z"/>

					</g>

					<g>

						<path a:adobe-knockout="false" d="M88.649,69.28v-0.1l-0.086,0.05L88.649,69.28z"/>

						<path a:adobe-knockout="false" d="M88.538,69.129l-0.1,0.172l0.199,0L88.538,69.129z"/>

						<path a:adobe-knockout="false" d="M88.549,69.25l0.1,0.173l0.1-0.173H88.549z"/>

					</g>

					<g>

						<path a:adobe-knockout="false" d="M84.176,69.23l-0.086-0.05v0.1L84.176,69.23z"/>

						<path a:adobe-knockout="false" d="M83.99,69.25l0.1,0.173l0.1-0.173H83.99z"/>

						<path a:adobe-knockout="false" d="M84.101,69.302l0.199,0l-0.1-0.172L84.101,69.302z"/>

					</g>

				</g>

			</g>

		</g>

		<path fill="none" stroke="#000000" d="M86.376,44.961v-1.625"/>

		<path fill="none" stroke="#000000" d="M86.376,42.211v-1.5"/>

		<path fill="none" stroke="#000000" d="M86.376,39.773v-2.188"/>

		<path fill="none" stroke="#000000" d="M86.376,50.273v-1.625"/>

		<path fill="none" stroke="#000000" d="M86.376,47.711v-1.5"/>

		<path fill="none" stroke="#000000" d="M25.251,12.523l13.5,13.318v25.966"/>

		<g>

			<path d="M1.181,47.905l0.539-0.047c0.025,0.215,0.083,0.392,0.176,0.53c0.092,0.138,0.235,0.25,0.43,0.335     C2.52,48.808,2.738,48.85,2.98,48.85c0.216,0,0.406-0.032,0.571-0.097c0.165-0.065,0.287-0.153,0.368-0.266     C4,48.375,4.041,48.252,4.041,48.12c0-0.135-0.04-0.252-0.12-0.353c-0.08-0.1-0.209-0.185-0.387-0.253     C3.419,47.47,3.166,47.4,2.775,47.305c-0.392-0.095-0.666-0.184-0.823-0.269c-0.204-0.107-0.356-0.241-0.457-0.401     c-0.1-0.16-0.15-0.338-0.15-0.536c0-0.217,0.061-0.421,0.184-0.609c0.123-0.189,0.301-0.333,0.536-0.431s0.497-0.147,0.784-0.147     c0.317,0,0.596,0.051,0.838,0.154c0.242,0.102,0.428,0.253,0.559,0.452c0.13,0.199,0.2,0.424,0.209,0.676l-0.547,0.039     c-0.029-0.268-0.127-0.47-0.294-0.607c-0.168-0.137-0.415-0.206-0.742-0.206c-0.341,0-0.589,0.063-0.745,0.189     c-0.156,0.126-0.234,0.278-0.234,0.456c0,0.154,0.055,0.281,0.166,0.38c0.108,0.1,0.392,0.202,0.85,0.306     s0.773,0.196,0.945,0.274c0.251,0.115,0.436,0.261,0.556,0.438c0.119,0.177,0.179,0.38,0.179,0.61     c0,0.228-0.065,0.443-0.196,0.646c-0.13,0.202-0.317,0.359-0.562,0.471c-0.244,0.112-0.52,0.168-0.825,0.168     c-0.387,0-0.711-0.057-0.973-0.17s-0.467-0.284-0.616-0.511C1.268,48.449,1.189,48.192,1.181,47.905z"/>

			<path d="M7.144,49.288H6.613v-3.36c-0.126,0.121-0.292,0.242-0.496,0.363c-0.205,0.121-0.389,0.212-0.551,0.272v-0.51     c0.293-0.139,0.55-0.307,0.769-0.504c0.22-0.197,0.375-0.389,0.467-0.574h0.342V49.288z"/>

			<path d="M8.247,49.358l1.242-4.438h0.425l-1.242,4.438H8.247z"/>

			<path d="M10.187,47.905l0.539-0.047c0.025,0.215,0.083,0.392,0.176,0.53c0.092,0.138,0.235,0.25,0.43,0.335     c0.193,0.085,0.412,0.127,0.654,0.127c0.216,0,0.406-0.032,0.571-0.097c0.165-0.065,0.287-0.153,0.368-0.266     c0.08-0.112,0.121-0.235,0.121-0.367c0-0.135-0.04-0.252-0.12-0.353c-0.08-0.1-0.209-0.185-0.387-0.253     c-0.114-0.045-0.367-0.115-0.758-0.209c-0.392-0.095-0.666-0.184-0.823-0.269c-0.204-0.107-0.356-0.241-0.457-0.401     c-0.1-0.16-0.15-0.338-0.15-0.536c0-0.217,0.061-0.421,0.184-0.609c0.123-0.189,0.301-0.333,0.536-0.431s0.497-0.147,0.784-0.147     c0.317,0,0.596,0.051,0.838,0.154c0.242,0.102,0.428,0.253,0.559,0.452c0.13,0.199,0.2,0.424,0.209,0.676l-0.547,0.039     c-0.029-0.268-0.127-0.47-0.294-0.607c-0.168-0.137-0.415-0.206-0.742-0.206c-0.341,0-0.589,0.063-0.745,0.189     c-0.156,0.126-0.234,0.278-0.234,0.456c0,0.154,0.055,0.281,0.166,0.38c0.108,0.1,0.392,0.202,0.85,0.306     s0.773,0.196,0.945,0.274c0.251,0.115,0.436,0.261,0.556,0.438c0.119,0.177,0.179,0.38,0.179,0.61     c0,0.228-0.065,0.443-0.196,0.646c-0.13,0.202-0.317,0.359-0.562,0.471c-0.244,0.112-0.52,0.168-0.825,0.168     c-0.387,0-0.711-0.057-0.973-0.17s-0.467-0.284-0.616-0.511C10.273,48.449,10.195,48.192,10.187,47.905z"/>

			<path d="M14.166,48.147l0.531-0.07c0.06,0.299,0.163,0.514,0.306,0.646s0.32,0.198,0.531,0.198c0.25,0,0.459-0.085,0.628-0.256     s0.253-0.383,0.253-0.635c0-0.241-0.079-0.44-0.237-0.596c-0.157-0.157-0.357-0.235-0.601-0.235c-0.1,0-0.223,0.02-0.371,0.059     l0.059-0.461c0.035,0.004,0.063,0.006,0.085,0.006c0.225,0,0.428-0.059,0.607-0.176s0.27-0.298,0.27-0.542     c0-0.193-0.065-0.354-0.196-0.48s-0.3-0.19-0.506-0.19c-0.205,0-0.375,0.064-0.512,0.193s-0.225,0.322-0.263,0.58l-0.531-0.094     c0.064-0.355,0.21-0.629,0.439-0.825c0.229-0.195,0.513-0.292,0.852-0.292c0.234,0,0.45,0.05,0.647,0.151     c0.197,0.101,0.348,0.238,0.452,0.413s0.157,0.359,0.157,0.555c0,0.186-0.05,0.355-0.149,0.507     c-0.1,0.153-0.247,0.274-0.442,0.364c0.254,0.058,0.451,0.179,0.592,0.363c0.141,0.184,0.211,0.414,0.211,0.69     c0,0.374-0.137,0.69-0.41,0.95s-0.619,0.39-1.037,0.39c-0.377,0-0.69-0.112-0.939-0.337     C14.343,48.796,14.201,48.505,14.166,48.147z"/>

		</g>

		<g>

			<path d="M84.181,12.405l0.539-0.047c0.025,0.215,0.083,0.392,0.176,0.53c0.092,0.138,0.235,0.25,0.43,0.334     c0.193,0.085,0.412,0.128,0.654,0.128c0.216,0,0.406-0.032,0.571-0.097c0.165-0.064,0.287-0.153,0.368-0.266     c0.08-0.113,0.121-0.235,0.121-0.368c0-0.134-0.04-0.252-0.12-0.352c-0.08-0.101-0.209-0.185-0.387-0.253     c-0.114-0.045-0.367-0.114-0.758-0.209c-0.392-0.095-0.666-0.185-0.823-0.269c-0.204-0.108-0.356-0.241-0.457-0.401     c-0.1-0.159-0.15-0.338-0.15-0.536c0-0.217,0.061-0.42,0.184-0.609s0.301-0.333,0.536-0.431c0.235-0.098,0.497-0.146,0.784-0.146     c0.317,0,0.596,0.051,0.838,0.153s0.428,0.253,0.559,0.452c0.13,0.199,0.2,0.424,0.209,0.676l-0.547,0.039     c-0.029-0.268-0.127-0.471-0.294-0.607c-0.168-0.137-0.415-0.205-0.742-0.205c-0.341,0-0.589,0.063-0.745,0.188     c-0.156,0.126-0.234,0.278-0.234,0.456c0,0.154,0.055,0.281,0.166,0.381c0.108,0.1,0.392,0.202,0.85,0.306     s0.773,0.196,0.945,0.273c0.251,0.115,0.436,0.261,0.556,0.438c0.119,0.176,0.179,0.38,0.179,0.61     c0,0.229-0.065,0.443-0.196,0.646c-0.13,0.202-0.317,0.359-0.562,0.471c-0.244,0.112-0.52,0.168-0.825,0.168     c-0.387,0-0.711-0.057-0.973-0.17s-0.467-0.284-0.616-0.512C84.268,12.949,84.189,12.692,84.181,12.405z"/>

			<path d="M90.144,13.788h-0.531v-3.36c-0.126,0.121-0.292,0.242-0.496,0.363c-0.205,0.121-0.389,0.212-0.551,0.272v-0.51     c0.293-0.139,0.55-0.307,0.769-0.504c0.22-0.197,0.375-0.389,0.467-0.574h0.342V13.788z"/>

		</g>

	</g>

</svg>
