<svg xmlns="http://www.w3.org/2000/svg" xmlns:xlink="http://www.w3.org/1999/xlink" xmlns:a="http://ns.adobe.com/AdobeSVGViewerExtensions/3.0/" width="110.004" height="110.004" viewBox="0 0 110.004 110.004" overflow="visible" enable-background="new 0 0 110.004 110.004" xml:space="preserve" preserveAspectRatio="xMidYMid meet" zoomAndPan="magnify" version="1.0" contentScriptType="text/ecmascript" contentStyleType="text/css">

	<g id="Layer_1">

		<g>

			<path fill="#FFFFFF" stroke="#000000" stroke-width="4" d="M108.014,55.002c0,29.278-23.734,53.012-53.012,53.012     S1.99,84.28,1.99,55.002S25.724,1.99,55.002,1.99S108.014,25.724,108.014,55.002z"/>

			<path fill="#828282" stroke="#000000" stroke-width="4" d="M93.526,55.502c0,21.139-17.136,38.274-38.274,38.274     S16.978,76.641,16.978,55.502s17.136-38.274,38.274-38.274S93.526,34.363,93.526,55.502z"/>

			<path d="M49.752,36.752c0,2.761-2.239,5-5,5s-5-2.239-5-5s2.239-5,5-5S49.752,33.991,49.752,36.752z"/>

			<path d="M49.752,76.502c0,2.761-2.239,5-5,5s-5-2.239-5-5s2.239-5,5-5S49.752,73.741,49.752,76.502z"/>

			<path d="M69.752,76.502c0,2.761-2.239,5-5,5s-5-2.239-5-5s2.239-5,5-5S69.752,73.741,69.752,76.502z"/>

			<path d="M39.752,56.502c0,2.761-2.239,5-5,5s-5-2.239-5-5s2.239-5,5-5S39.752,53.741,39.752,56.502z"/>

			<path d="M60.252,56.502c0,2.761-2.239,5-5,5s-5-2.239-5-5s2.239-5,5-5S60.252,53.741,60.252,56.502z"/>

			<path d="M79.752,56.002c0,2.761-2.239,5-5,5s-5-2.239-5-5s2.239-5,5-5S79.752,53.241,79.752,56.002z"/>

			<path d="M70.752,36.002c0,2.761-2.239,5-5,5s-5-2.239-5-5s2.239-5,5-5S70.752,33.241,70.752,36.002z"/>

		</g>

	</g>

</svg>
