<svg xmlns="http://www.w3.org/2000/svg" xmlns:xlink="http://www.w3.org/1999/xlink" xmlns:a="http://ns.adobe.com/AdobeSVGViewerExtensions/3.0/" width="122.327" height="108.744" viewBox="0 0 122.327 108.744" overflow="visible" enable-background="new 0 0 122.327 108.744" xml:space="preserve" preserveAspectRatio="xMidYMid meet" zoomAndPan="magnify" version="1.0" contentScriptType="text/ecmascript" contentStyleType="text/css">

	<g id="Layer_1">

		<g>

			<path fill="none" stroke="#000000" d="M85.338,14.286l20.5,20.5l15.75-13.25L101.171,1.119l-0.666,8.333l-7.333-1.333     l1.333,7.667L85.338,14.286z"/>

			<g>

				<path fill="none" stroke="#000000" d="M53.151,57.188c0,4.903,3.974,8.877,8.877,8.877s8.877-3.974,8.877-8.877      s-3.974-8.877-8.877-8.877S53.151,52.284,53.151,57.188z"/>

				<path fill="none" stroke="#000000" d="M50.932,57.188c0,6.128,4.968,11.095,11.096,11.095c6.127,0,11.094-4.967,11.094-11.095      c0-6.127-4.967-11.095-11.094-11.095C55.9,46.093,50.932,51.061,50.932,57.188z"/>

			</g>

			<g>

				<path fill="none" stroke="#000000" d="M1.108,96.57l1.763-0.572c0.253-0.124,0.433-0.376,0.459-0.641      c-0.009-0.324-0.006-0.646,0.017-0.966c-0.025-0.259-0.189-0.507-0.436-0.638l-1.736-0.639c-0.54-0.126-0.876-0.664-0.75-1.204      c0.125-0.537,0.663-0.873,1.201-0.747l1.843,0.191c0.28-0.01,0.544-0.165,0.677-0.393c0.124-0.294,0.258-0.581,0.405-0.862      c0.092-0.25,0.044-0.554-0.131-0.777l-1.327-1.291c-0.441-0.334-0.528-0.963-0.195-1.403C3.23,86.188,3.858,86.1,4.3,86.434      l1.604,0.924c0.264,0.107,0.571,0.07,0.787-0.089c0.229-0.218,0.47-0.427,0.717-0.622c0.183-0.191,0.258-0.485,0.191-0.758      l-0.688-1.721c-0.268-0.483-0.092-1.093,0.393-1.361c0.483-0.267,1.095-0.09,1.361,0.395l1.091,1.496      c0.189,0.197,0.471,0.289,0.724,0.244c0.304-0.106,0.617-0.201,0.934-0.281c0.247-0.099,0.44-0.338,0.49-0.617l0.07-1.853      c-0.046-0.551,0.362-1.036,0.913-1.082c0.551-0.048,1.036,0.36,1.084,0.912l0.386,1.812c0.098,0.267,0.328,0.469,0.589,0.523      c0.324,0.026,0.645,0.064,0.961,0.117c0.258,0.003,0.522-0.136,0.677-0.364l0.819-1.662c0.182-0.522,0.751-0.8,1.273-0.618      c0.523,0.181,0.8,0.75,0.62,1.273l-0.384,1.813c-0.021,0.281,0.106,0.561,0.322,0.716c0.275,0.15,0.542,0.313,0.801,0.485      c0.241,0.124,0.553,0.108,0.798-0.043l1.423-1.186c0.378-0.404,1.012-0.426,1.416-0.048s0.425,1.012,0.048,1.415l-1.088,1.5      c-0.135,0.253-0.129,0.563,0.007,0.792c0.191,0.251,0.372,0.508,0.54,0.773c0.171,0.204,0.457,0.313,0.737,0.274l1.782-0.505      c0.509-0.215,1.098,0.024,1.313,0.534c0.216,0.51-0.022,1.097-0.531,1.312l-1.605,0.929c-0.22,0.171-0.34,0.447-0.317,0.707      c0.074,0.307,0.134,0.621,0.181,0.938c0.069,0.259,0.288,0.478,0.563,0.557l1.833,0.265c0.554,0.011,0.993,0.468,0.982,1.021      c-0.01,0.554-0.467,0.993-1.021,0.982l-1.842,0.195c-0.272,0.067-0.496,0.274-0.581,0.523c-0.059,0.32-0.132,0.636-0.218,0.945      c-0.031,0.259,0.078,0.538,0.291,0.716l1.567,0.988c0.501,0.234,0.718,0.831,0.483,1.332c-0.236,0.501-0.831,0.717-1.333,0.482      l-1.763-0.57c-0.274-0.05-0.563,0.047-0.742,0.239c-0.179,0.262-0.372,0.515-0.574,0.76c-0.143,0.224-0.159,0.533-0.035,0.789      l1.03,1.54c0.361,0.418,0.316,1.05-0.102,1.413c-0.419,0.363-1.05,0.317-1.412-0.101l-1.379-1.238      c-0.232-0.158-0.535-0.187-0.776-0.08c-0.272,0.167-0.554,0.32-0.842,0.464c-0.219,0.148-0.354,0.42-0.346,0.701l0.316,1.825      c0.16,0.53-0.138,1.088-0.667,1.25c-0.529,0.16-1.09-0.138-1.251-0.667l-0.755-1.691c-0.149-0.24-0.418-0.392-0.685-0.391      c-0.157,0.021-0.313,0.038-0.471,0.053c-0.158,0.014-0.314,0.021-0.471,0.029c-0.264,0.044-0.502,0.237-0.608,0.501      l-0.455,1.796c-0.068,0.549-0.567,0.938-1.118,0.87c-0.548-0.069-0.938-0.568-0.87-1.118l-0.001-1.853      c-0.038-0.276-0.219-0.521-0.459-0.631c-0.31-0.092-0.613-0.196-0.911-0.314c-0.256-0.062-0.548,0.019-0.75,0.213l-1.146,1.455      c-0.286,0.475-0.901,0.627-1.375,0.341c-0.475-0.285-0.626-0.9-0.341-1.374l0.751-1.694c0.079-0.272,0.011-0.573-0.169-0.771      c-0.241-0.207-0.476-0.424-0.698-0.652c-0.209-0.159-0.508-0.204-0.771-0.108l-1.639,0.863      c-0.454,0.315-1.078,0.206-1.394-0.248c-0.318-0.453-0.207-1.078,0.246-1.395l1.375-1.242c0.179-0.211,0.239-0.503,0.166-0.752      c-0.14-0.293-0.266-0.593-0.38-0.899c-0.124-0.229-0.379-0.394-0.659-0.414l-1.848,0.123c-0.544,0.105-1.069-0.251-1.173-0.794      C0.209,97.202,0.565,96.675,1.108,96.57z"/>

				<path stroke="#000000" d="M12.601,95.037c0,0.829,0.671,1.5,1.5,1.5s1.5-0.671,1.5-1.5s-0.671-1.5-1.5-1.5      S12.601,94.208,12.601,95.037z"/>

			</g>

			<path fill="none" stroke="#000000" d="M54.694,65.494l-29.876,23.75"/>

			<path fill="none" stroke="#000000" d="M100.323,29.264L71.895,51.836"/>

			<path fill="none" stroke="#000000" d="M51.971,61.825L23.312,84.581"/>

			<path fill="none" stroke="#000000" d="M97.083,26.006L68.967,48.33"/>

		</g>

	</g>

</svg>
