<!-- Generator: Adobe Illustrator 9.0, SVG Export Plug-In  -->
<svg xmlns="http://www.w3.org/2000/svg" xmlns:xlink="http://www.w3.org/1999/xlink" xmlns:a="http://ns.adobe.com/AdobeSVGViewerExtensions/3.0/" width="40.351pt" height="17.082pt" viewBox="0 0 40.351 17.082" xml:space="preserve">

	<g id="Layer_x0020_1" style="fill-rule:nonzero;clip-rule:nonzero;stroke:#000000;stroke-width:0.25;stroke-miterlimit:4;">

		<g>

			<path style="fill:#FFFFFF;stroke-width:0.5;" d="M40.103,8.541c0,4.579-3.712,8.292-8.292,8.292c-4.579,0-8.292-3.712-8.292-8.292c0-4.58,3.712-8.292,8.292-8.292c4.58,0,8.292,3.712,8.292,8.292z"/>

			<g>

				<path d="M31.816,6.026c-0.099-0.014-0.199-0.021-0.302-0.02c-0.892,0.007-1.645,0.596-1.897,1.405l-4.47-1.367c1-2.558,3.48-4.379,6.395-4.402c0.478-0.004,0.945,0.041,1.396,0.13l-1.121,4.255z"/>

				<path d="M29.577,9.747c0.034,0.094,0.073,0.187,0.123,0.277c0.419,0.787,1.29,1.181,2.124,1.031l0.861,4.594c-2.731,0.299-5.495-1.055-6.865-3.626c-0.225-0.421-0.4-0.855-0.532-1.296l4.29-0.979z"/>

				<path d="M34.022,9.778c0.06-0.079,0.116-0.163,0.167-0.251c0.437-0.779,0.3-1.724-0.276-2.346l3.406-3.201c1.724,2.139,2.073,5.196,0.646,7.737c-0.234,0.417-0.505,0.8-0.806,1.148l-3.136-3.087z"/>

				<path style="fill:none;stroke-width:0.15;" d="M33.728,8.614c0,1.054-0.854,1.909-1.909,1.909S29.91,9.668,29.91,8.614c0-1.055,0.854-1.909,1.909-1.909s1.909,0.854,1.909,1.909z"/>

			</g>

		</g>

		<path style="fill:none;stroke-width:0.5;" d="M8.123,16.832h24.333"/>

		<g>

			<path style="fill:#FFFFFF;stroke-width:0.5;" d="M16.832,8.541c0,4.579-3.712,8.292-8.292,8.292c-4.579,0-8.292-3.712-8.292-8.292c0-4.58,3.712-8.292,8.292-8.292c4.58,0,8.292,3.712,8.292,8.292z"/>

			<g>

				<path d="M8.545,6.026c-0.099-0.014-0.199-0.021-0.302-0.02C7.352,6.013,6.599,6.603,6.346,7.411l-4.47-1.367c1-2.558,3.48-4.379,6.395-4.402c0.478-0.004,0.945,0.041,1.396,0.13L8.545,6.026z"/>

				<path d="M6.307,9.747c0.034,0.094,0.073,0.187,0.123,0.277c0.419,0.787,1.29,1.181,2.124,1.031l0.861,4.594c-2.731,0.299-5.495-1.055-6.865-3.626c-0.225-0.421-0.4-0.855-0.532-1.296l4.29-0.979z"/>

				<path d="M10.752,9.778c0.06-0.079,0.116-0.163,0.167-0.251c0.437-0.779,0.3-1.724-0.276-2.346l3.406-3.201c1.724,2.139,2.073,5.196,0.646,7.737c-0.234,0.417-0.505,0.8-0.806,1.148l-3.136-3.087z"/>

				<path style="fill:none;stroke-width:0.15;" d="M10.458,8.614c0,1.054-0.854,1.909-1.909,1.909S6.64,9.668,6.64,8.614c0-1.055,0.854-1.909,1.909-1.909s1.909,0.854,1.909,1.909z"/>

			</g>

		</g>

	</g>

</svg>
