<svg xmlns="http://www.w3.org/2000/svg" xmlns:xlink="http://www.w3.org/1999/xlink" xmlns:a="http://ns.adobe.com/AdobeSVGViewerExtensions/3.0/" width="102.2" height="46.292" viewBox="0 0 102.2 46.292" overflow="visible" enable-background="new 0 0 102.2 46.292" xml:space="preserve" preserveAspectRatio="xMidYMid meet" zoomAndPan="magnify" version="1.0" contentScriptType="text/ecmascript" contentStyleType="text/css">

	<g id="Layer_1">

		<g>

			<path fill="#B4B4B4" d="M44.167,43.427H42.25v2.583h1.917V43.427z"/>

			<path fill="#B4B4B4" d="M46.5,44.083h-6.667v-1.395H46.5V44.083z"/>

			<path fill="#B4B4B4" d="M44.917,43.927H41.5v-4.583h3.417V43.927z"/>

			<path fill="#B4B4B4" d="M53.333,37.511h-13.5v2.5h13.5V37.511z"/>

			<path fill="#B4B4B4" d="M101.813,21.511l-0.063,3.125l-0.688,0.625h-0.938l0.063-4.188L100,20.386l0.625-0.063L101.813,21.511z"/>

			<path fill="#B4B4B4" d="M101.635,30.698l0.24,1.125l-1.138,1.125l-0.299-0.375v-1.125"/>

			<path fill="#B4B4B4" d="M100.625,13.073l1,1.063l0.125,1.25l-1.5-1.563v-0.875"/>

			<path fill="#B4B4B4" d="M2.917,11.542H0.261V9.511h2.656V11.542z"/>

			<path fill="#B4B4B4" d="M2.885,24.292H0.229v-2.031h2.656V24.292z"/>

			<path fill="#B4B4B4" d="M2.969,37.542H0.313v-2.031h2.656V37.542z"/>

			<path fill="#B4B4B4" d="M3.375,5.198l0.011,35.5h3.853l9.512,4.146l13.333,0.042l0.107,0.646h1.34v-0.667h3.686l0.034-6.938     l24.333-0.083l-0.042,7.375l6.165-0.021l0.586,0.583l1.166-0.063l0.125-0.583l10.083,0.042l0.042,0.5h1.667v-0.583l9.927-0.063     l0.528,0.5l1.222,0l6.135-12.521l3.031-0.031l-0.063-19.813l-2.969-0.031L91.313,1.511l-0.406-1.219l-1.469-0.031l-0.031,0.875     L79.375,1.104l-0.094-0.781l-1.594-0.031l0.031,0.781L67.5,1.104l-0.031-0.781h-1.5v0.813L31.688,1.031l0.011-0.667l-1.604-0.073     v0.813L16.906,1.073L7.344,5.229L3.375,5.198z"/>

			<g>

				<path fill="none" stroke="#000000" stroke-width="0.5" stroke-dasharray="4 4 4 4 4 4" d="M7.333,40.75h-4V5.125h4l9.5-4h13.25"/>

				<path fill="none" stroke="#000000" stroke-width="0.4914" d="M16.833,44.25V1.625"/>

				<path fill="none" stroke="#000000" d="M16.833,44.5"/>

				<path fill="none" stroke="#000000" d="M7.333,40.75"/>

				<path fill="none" stroke="#000000" stroke-width="0.5072" d="M7.333,5v35.625"/>

				<path fill="none" stroke="#000000" stroke-width="0.5" stroke-dasharray="4 4 4 4 4 4" d="M7.333,40.75l9.5,4.125h13.25"/>

				<path fill="none" stroke="#000000" stroke-width="0.5" d="M31.708,45.5h-1.625V0.25h1.625V45.5z"/>

				<path fill="none" stroke="#000000" stroke-width="0.5" stroke-dasharray="4 2 4 2 4 2" d="M79.582,1.125h9.751"/>

				<path fill="none" stroke="#000000" stroke-width="0.5" stroke-dasharray="4 2 4 2 4 2" d="M67.958,1.125h10.124"/>

				<path fill="none" stroke="#000000" stroke-width="0.5" stroke-dasharray="4 2 4 2 4 2" d="M31.583,1.125h34.125"/>

				<path fill="none" stroke="#000000" stroke-width="0.5" d="M67.542,45.667h-1.625V0.417h1.625V45.667z"/>

				<path fill="none" stroke="#000000" stroke-width="0.5" d="M79.375,45.666H77.75V0.416h1.625V45.666z"/>

				<path fill="none" stroke="#000000" stroke-width="0.5" d="M91.041,45.5h-1.625V0.25h1.625V45.5z"/>

				<path fill="none" stroke="#000000" stroke-width="0.5" stroke-dasharray="4 2 4 2 4 2" d="M31.916,45.042h3.5"/>

				<path fill="none" stroke="#000000" stroke-width="0.5" stroke-dasharray="4.1364 2.0682 4.1364 2.0682 4.1364 2.0682" d="      M35.416,45.208v-7.583"/>

				<path fill="none" stroke="#000000" stroke-width="0.5" stroke-dasharray="4.0556 2.0278 4.0556 2.0278 4.0556 2.0278" d="      M35.583,37.875h24.334"/>

				<path fill="none" stroke="#000000" stroke-width="0.5" stroke-dasharray="4.3 2.15 4.3 2.15 4.3 2.15" d="M59.583,37.875v7.167"/>

				<path fill="none" stroke="#000000" stroke-width="0.5" stroke-dasharray="4 2 4 2 4 2" d="M67.916,45.208H89.25"/>

				<path fill="none" stroke="#000000" stroke-width="0.4813" stroke-dasharray="3.85 1.925 3.85 1.925 3.85 1.925" d="      M59.333,45.208h6.417"/>

				<path fill="none" stroke="#000000" stroke-width="0.5" stroke-dasharray="4 4 4 4 4" d="M91.416,1.542l5.5,11.166h3.334v20.5      h-3.334l-5.833,11.667"/>

				<path fill="none" stroke="#000000" stroke-width="0.5" d="M96.75,12.875v20.333"/>

				<path fill="none" stroke="#000000" stroke-width="0.5" stroke-dasharray="4 2 4 2 4 2" d="M40,38.292v1.916h1.583l-0.008,2.597      l-1.659,0.008v1.063h2.334v2.167h1.833v-2.167h2.5v-0.917h-1.75v-2.75h8.5v-1.833"/>

				<g>

					<path fill="none" stroke="#000000" stroke-width="0.5" stroke-dasharray="4 2 4 2 4 2" d="M1.917,9.458h1.166v2.25H1.75"/>

					<path fill="none" stroke="#000000" stroke-width="0.5" stroke-dasharray="4 2 4 2 4 2" d="M0.25,10.377V9.458h1.167"/>

					<path fill="none" stroke="#000000" stroke-width="0.5" stroke-dasharray="4 2 4 2 4 2" d="M1.417,11.708H0.25v-0.749"/>

				</g>

				<g>

					<path fill="none" stroke="#000000" stroke-width="0.5" stroke-dasharray="4 2 4 2 4 2" d="M1.917,22.208h1.166v2.25H1.75"/>

					<path fill="none" stroke="#000000" stroke-width="0.5" stroke-dasharray="4 2 4 2 4 2" d="M0.25,23.127v-0.919h1.167"/>

					<path fill="none" stroke="#000000" stroke-width="0.5" stroke-dasharray="4 2 4 2 4 2" d="M1.417,24.458H0.25v-0.749"/>

				</g>

				<g>

					<path fill="none" stroke="#000000" stroke-width="0.5" stroke-dasharray="4 2 4 2 4 2" d="M1.917,35.374h1.166v2.25H1.75"/>

					<path fill="none" stroke="#000000" stroke-width="0.5" stroke-dasharray="4 2 4 2 4 2" d="M0.25,36.293v-0.919h1.167"/>

					<path fill="none" stroke="#000000" stroke-width="0.5" stroke-dasharray="4 2 4 2 4 2" d="M1.417,37.624H0.25v-0.749"/>

				</g>

				<path fill="none" stroke="#000000" stroke-width="0.4914" d="M100.666,12.875l1.084,1.25l0.083,1.5l-1.25-1.333"/>

				<path fill="none" stroke="#000000" stroke-width="0.4914" d="M100.75,33.124l1.084-1.25l0.083-1.5l-1.25,1.333"/>

				<path fill="none" stroke="#000000" stroke-width="0.4914" stroke-dasharray="2 2 2 2 2 2" d="M100.5,20.292l1.333,1.083v3.417      l-1.167,0.916"/>

				<path fill="none" stroke="#000000" stroke-width="0.5" d="M96.583,13.094h2.167"/>

				<path fill="none" stroke="#000000" stroke-width="0.5" d="M96.583,33.094h2.167"/>

				<path fill="#B4B4B4" d="M3.75,5.261"/>

			</g>

		</g>

	</g>

</svg>
