<svg xmlns="http://www.w3.org/2000/svg" xmlns:xlink="http://www.w3.org/1999/xlink" xmlns:a="http://ns.adobe.com/AdobeSVGViewerExtensions/3.0/" width="48.364" height="41.745" viewBox="0 0 48.364 41.745" overflow="visible" enable-background="new 0 0 48.364 41.745" xml:space="preserve" preserveAspectRatio="xMidYMid meet" zoomAndPan="magnify" version="1.0" contentScriptType="text/ecmascript" contentStyleType="text/css">

	<g id="Layer_1">

		<g>

			<path fill="#0039BF" stroke="#000072" d="M42.991,20.932C42.958,32.185,33.81,41.28,22.557,41.248     C11.304,41.215,2.208,32.066,2.241,20.813S11.423,0.465,22.675,0.498C33.928,0.53,43.024,9.679,42.991,20.932z"/>

			<path fill="none" stroke="#FF0000" d="M0.241,27.498l5-2.75l8.5-4l8.75-2.75l6-2.5l3.75-1.5l4.75-3l5.5-3l5.625-3.219     l-3.188,3.938l-4.031,3.75l-4.406,3.031l-12.75,9.75l-8,6.75l-8.75,8.5"/>

			<path fill="#FF0000" stroke="#FF0000" d="M5.241,24.873l18.75-6.125l6.5-1.969l1.594-0.094L15.303,32.341l25.563-20.344     l6.125-6.25l-17.5,9.25l-14,5L5.241,24.873z"/>

			<path fill="none" stroke="#FFFFFF" d="M24.696,30.786c-1.78-1.627-3.584-3.644-5.263-5.954     c-5.519-7.596-7.597-15.494-4.643-17.64c2.955-2.146,9.824,2.271,15.342,9.867c3.07,4.225,7.233,12.689,3.984,16.439"/>

			<path fill="#FFFFFF" stroke="#FFFFFF" d="M5.68,16.913h2.022l4.557,5.573v-4.284c0-0.456-0.052-0.741-0.156-0.854     c-0.138-0.153-0.354-0.229-0.652-0.229h-0.262v-0.205h2.622v0.205h-0.267c-0.319,0-0.546,0.095-0.68,0.285     c-0.082,0.117-0.123,0.383-0.123,0.799v6.288h-0.198L7.63,18.484v4.596c0,0.456,0.05,0.74,0.151,0.854     c0.141,0.153,0.358,0.23,0.651,0.23h0.267v0.205H6.077v-0.205h0.262c0.323,0,0.552-0.095,0.685-0.285     c0.082-0.116,0.123-0.383,0.123-0.799v-5.186c-0.216-0.253-0.38-0.421-0.492-0.501c-0.111-0.081-0.275-0.156-0.492-0.226     c-0.106-0.033-0.267-0.049-0.483-0.049V16.913z"/>

			<path fill="#FFFFFF" stroke="#FFFFFF" d="M20.622,21.878h-2.901l-0.51,1.172c-0.124,0.289-0.187,0.504-0.187,0.647     c0,0.113,0.054,0.212,0.162,0.298c0.108,0.086,0.342,0.142,0.701,0.168v0.205h-2.348v-0.205c0.312-0.055,0.513-0.128,0.604-0.216     c0.187-0.177,0.394-0.536,0.621-1.078l2.665-6.118h0.207l2.571,6.194c0.209,0.497,0.398,0.82,0.569,0.968     c0.17,0.147,0.408,0.231,0.711,0.25v0.205h-2.96v-0.205c0.297-0.015,0.497-0.064,0.602-0.147     c0.104-0.084,0.157-0.186,0.157-0.306c0-0.16-0.073-0.413-0.22-0.759L20.622,21.878z M20.453,21.468l-1.242-3.011l-1.312,3.011     H20.453z"/>

			<path fill="#FFFFFF" stroke="#FFFFFF" d="M30.217,16.751v2.578h-0.205c-0.066-0.495-0.184-0.89-0.354-1.183     s-0.412-0.525-0.726-0.698c-0.314-0.172-0.639-0.258-0.975-0.258c-0.379,0-0.694,0.116-0.942,0.349     c-0.249,0.232-0.373,0.496-0.373,0.793c0,0.227,0.078,0.433,0.236,0.62c0.226,0.275,0.765,0.64,1.617,1.098     c0.694,0.372,1.168,0.659,1.424,0.858c0.255,0.199,0.451,0.434,0.589,0.705c0.137,0.271,0.207,0.554,0.207,0.85     c0,0.563-0.219,1.048-0.656,1.456c-0.438,0.408-1.001,0.612-1.689,0.612c-0.216,0-0.419-0.017-0.609-0.05     c-0.113-0.018-0.349-0.086-0.706-0.201c-0.357-0.116-0.583-0.174-0.679-0.174c-0.091,0-0.163,0.027-0.216,0.083     c-0.053,0.056-0.093,0.169-0.118,0.342h-0.205v-2.549h0.205c0.095,0.534,0.223,0.934,0.384,1.199     c0.161,0.266,0.406,0.485,0.737,0.661s0.694,0.264,1.089,0.264c0.457,0,0.818-0.121,1.083-0.363s0.398-0.529,0.398-0.859     c0-0.183-0.05-0.368-0.15-0.556c-0.1-0.187-0.255-0.361-0.466-0.522c-0.142-0.11-0.531-0.343-1.168-0.696     c-0.637-0.354-1.091-0.636-1.361-0.849c-0.271-0.212-0.475-0.446-0.615-0.703c-0.139-0.256-0.209-0.537-0.209-0.845     c0-0.535,0.205-0.995,0.615-1.381c0.409-0.386,0.931-0.579,1.564-0.579c0.395,0,0.814,0.096,1.256,0.288     c0.205,0.091,0.351,0.137,0.435,0.137c0.095,0,0.172-0.029,0.233-0.084c0.061-0.057,0.109-0.17,0.146-0.34H30.217z"/>

			<path fill="#FFFFFF" stroke="#FFFFFF" d="M38.002,21.878h-2.9l-0.51,1.172c-0.125,0.289-0.187,0.504-0.187,0.647     c0,0.113,0.055,0.212,0.163,0.298c0.108,0.086,0.341,0.142,0.701,0.168v0.205h-2.349v-0.205c0.312-0.055,0.513-0.128,0.604-0.216     c0.187-0.177,0.394-0.536,0.621-1.078l2.665-6.118h0.206l2.571,6.194c0.208,0.497,0.398,0.82,0.569,0.968     c0.17,0.147,0.407,0.231,0.711,0.25v0.205h-2.96v-0.205c0.296-0.015,0.497-0.064,0.602-0.147     c0.104-0.084,0.156-0.186,0.156-0.306c0-0.16-0.073-0.413-0.22-0.759L38.002,21.878z M37.833,21.468l-1.242-3.011l-1.311,3.011     H37.833z"/>

			<g>

				<path fill="#FFFFFF" stroke="#FFFFFF" stroke-width="0.5" stroke-miterlimit="1" d="M25.334,4.341v1.688"/>

				<path fill="#FFFFFF" stroke="#FFFFFF" stroke-width="0.5" stroke-miterlimit="1" d="M24.678,5.123h1.313"/>

			</g>

			<g>

				<path fill="#FFFFFF" stroke="#FFFFFF" stroke-width="0.5" stroke-miterlimit="1" d="M29.616,9.591v1.688"/>

				<path fill="#FFFFFF" stroke="#FFFFFF" stroke-width="0.5" stroke-miterlimit="1" d="M28.959,10.373h1.313"/>

			</g>

			<g>

				<path fill="#FFFFFF" stroke="#FFFFFF" stroke-width="0.5" stroke-miterlimit="1" d="M9.741,31.466v1.688"/>

				<path fill="#FFFFFF" stroke="#FFFFFF" stroke-width="0.5" stroke-miterlimit="1" d="M9.084,32.248h1.313"/>

			</g>

			<g>

				<path fill="#FFFFFF" stroke="#FFFFFF" stroke-width="0.5" stroke-miterlimit="1" d="M15.616,35.591v1.688"/>

				<path fill="#FFFFFF" stroke="#FFFFFF" stroke-width="0.5" stroke-miterlimit="1" d="M14.959,36.373h1.313"/>

			</g>

			<g>

				<path fill="#FFFFFF" stroke="#FFFFFF" stroke-width="0.5" stroke-miterlimit="1" d="M38.116,27.716v1.688"/>

				<path fill="#FFFFFF" stroke="#FFFFFF" stroke-width="0.5" stroke-miterlimit="1" d="M37.459,28.498h1.313"/>

			</g>

			<g>

				<path fill="#FFFFFF" stroke="#FFFFFF" stroke-width="0.5" stroke-miterlimit="1" d="M17.616,9.716v1.688"/>

				<path fill="#FFFFFF" stroke="#FFFFFF" stroke-width="0.5" stroke-miterlimit="1" d="M16.959,10.498h1.313"/>

			</g>

		</g>

	</g>

</svg>
