<svg xmlns="http://www.w3.org/2000/svg" xmlns:xlink="http://www.w3.org/1999/xlink" xmlns:a="http://ns.adobe.com/AdobeSVGViewerExtensions/3.0/" width="30.997" height="52.896" viewBox="0 0 30.997 52.896" overflow="visible" enable-background="new 0 0 30.997 52.896" xml:space="preserve" preserveAspectRatio="xMidYMid meet" zoomAndPan="magnify" version="1.0" contentScriptType="text/ecmascript" contentStyleType="text/css">

	<g id="Layer_1">

		<path fill="#FFFFFF" stroke="#000000" stroke-width="0.5" d="M30.747,52.646H0.25V13.028h30.497V52.646z"/>

		<path fill="none" stroke="#000000" stroke-width="0.5" d="M28.296,50.332H2.701v-4.629h25.595V50.332z"/>

		<path fill="none" stroke="#000000" stroke-width="0.5" d="M26.118,45.703H4.607V16.296h21.511V45.703z"/>

		<path fill="none" stroke="#000000" d="M5.697,10.305l9.666-7.508v8.083l7.897-6.429"/>

		<path d="M23.477,7.204L28.682,0l-8.111,3.636L23.477,7.204z"/>

		<path fill="none" stroke="#000000" stroke-width="0.5" d="M7.33,16.432v5.602l16.201,19.721v3.812"/>

		<path fill="none" stroke="#000000" stroke-width="0.5" d="M23.633,16.446v5.602L7.438,41.771v3.812"/>

		<path fill="none" stroke="#000000" stroke-width="0.5" d="M13.593,16.432c0,0,0,1.634,0,3.131    c0.272,1.361,8.168,8.985,8.168,8.985s2.315,1.905,2.315,4.492c0,2.588-2.586,4.493-2.586,4.493s-1.906,2.178-4.901,3.131    c-2.996,0.953-3.132,2.587-3.132,2.587v2.178"/>

		<path fill="none" stroke="#000000" stroke-width="0.5" d="M17.195,16.514c0,0,0,1.633,0,3.131    c-0.272,1.361-8.158,8.985-8.158,8.985s-2.315,1.906-2.315,4.495c0,2.587,2.586,4.493,2.586,4.493s1.906,2.179,4.896,3.131    c2.991,0.954,3.128,2.586,3.128,2.586v2.178"/>

	</g>

</svg>
