<svg xmlns="http://www.w3.org/2000/svg" xmlns:xlink="http://www.w3.org/1999/xlink" xmlns:a="http://ns.adobe.com/AdobeSVGViewerExtensions/3.0/" width="54.943" height="83.981" viewBox="0 0 54.943 83.981" overflow="visible" enable-background="new 0 0 54.943 83.981" xml:space="preserve" preserveAspectRatio="xMidYMid meet" zoomAndPan="magnify" version="1.0" contentScriptType="text/ecmascript" contentStyleType="text/css">

	<g id="Layer_1">

		<path fill="#B4B4B4" d="M42.206,6.615l1.313,1.047l1.313,1.453l1,1.75l0.844,2.156l0.406,2.094l0.328,2.047l0.219,2.234    l0.234,1.938l1.656,2.25l1.313,1.734l1.141,1.781l0.984,1.766l0.625,1.5l0.5,1.75l0.375,1.875l0.25,2l0.094,2.156l-0.188,2.766    l-0.469,2.5l-0.594,2.031l-0.719,1.891l-0.813,1.656l-0.641,1.203l-0.906,1.422l-0.766,1.016l-1.078,1.328l-0.797,0.781v16.75    l-6.5,6.406l-27.813-0.031L6.956,71.49V54.74l-1.375-1.625l-0.922-1.172L3.769,50.6l-0.797-1.406L2.206,47.49l-0.547-1.203    l-0.578-1.922l-0.5-1.875l-0.313-2l-0.156-1.906l0.016-2.25l0.203-2.094l0.328-1.766l0.453-1.469l0.594-1.516l0.766-1.625    l0.797-1.344l0.813-1.156l1.016-1.422l1.109-1.453l0.922-1.266l0.141-1.469l0.141-1.547l0.156-1.688l0.344-2l0.672-2.375    l0.766-1.875l1.203-1.703l1.578-1.547l1.578-0.984l27.375,0.078L41.456,6.1L42.206,6.615z"/>

		<g>

			<g>

				<path fill="#B4B4B4" stroke="#000000" stroke-width="0.25" d="M7.089,21.337c-2.94,4.093-6.965,7.854-6.965,16.322      c0,6.594,2.618,12.6,6.909,17.115v16.754l6.6,6.424"/>

				<path fill="#B4B4B4" stroke="#000000" stroke-width="0.25" d="M7.074,21.382c0.655-4.143-0.03-11.647,6.514-15.309"/>

			</g>

			<path fill="#B4B4B4" stroke="#000000" stroke-width="0.25" d="M41.271,0.125H13.633v5.923h27.638V0.125z"/>

			<path fill="#B4B4B4" stroke="#000000" stroke-width="0.25" d="M41.271,77.933H13.633v5.923h27.638V77.933z"/>

			<g>

				<path fill="#B4B4B4" stroke="#000000" stroke-width="0.25" d="M47.854,21.337c2.94,4.093,6.965,7.854,6.965,16.322      c0,6.594-2.618,12.6-6.909,17.115v16.754l-6.6,6.424"/>

				<path fill="#B4B4B4" stroke="#000000" stroke-width="0.25" d="M47.869,21.382c-0.655-4.143,0.03-11.647-6.514-15.309"/>

			</g>

		</g>

		<path fill="none" stroke="#000000" stroke-width="0.23" d="M7.065,71.553h40.75"/>

	</g>

</svg>
