<svg xmlns="http://www.w3.org/2000/svg" xmlns:xlink="http://www.w3.org/1999/xlink" xmlns:a="http://ns.adobe.com/AdobeSVGViewerExtensions/3.0/" width="43.13" height="59.946" viewBox="0 0 43.13 59.946" overflow="visible" enable-background="new 0 0 43.13 59.946" xml:space="preserve" preserveAspectRatio="xMidYMid meet" zoomAndPan="magnify" version="1.0" contentScriptType="text/ecmascript" contentStyleType="text/css">

	<g id="Layer_1">

		<g>

			<path fill="none" stroke="#000000" d="M2.94,17.357l16.95-12.6v13.35l18-13.95"/>

			<path fill="#F50000" d="M38.447,3.141c-0.726,0.278-1.234,0.411-1.853,0.587l1.39,1.794c0.107-0.211,0.581-1.015,1.031-1.648     c0.482-0.678,0.952-1.25,1.286-1.584C39.895,2.531,39.224,2.843,38.447,3.141z"/>

			<path fill="none" stroke="#000000" d="M1.207,21.779l18,18l18-18H1.207z"/>

			<path fill="none" stroke="#000000" d="M19.207,21.779v37.667H40.04"/>

			<path d="M39.422,1.701c-1.452,0.556-2.469,0.821-3.707,1.174l2.782,3.588c0.213-0.422,1.16-2.03,2.061-3.296     c0.964-1.355,1.904-2.5,2.572-3.167C42.318,0.481,40.976,1.106,39.422,1.701z"/>

		</g>

	</g>

</svg>
