<!-- Generator: Adobe Illustrator 9.0, SVG Export Plug-In  -->
<svg xmlns="http://www.w3.org/2000/svg" xmlns:xlink="http://www.w3.org/1999/xlink" xmlns:a="http://ns.adobe.com/AdobeSVGViewerExtensions/3.0/" width="60.041pt" height="60.041pt" viewBox="0 0 60.041 60.041" xml:space="preserve">

	<g id="Layer_x0020_1" style="fill-rule:nonzero;clip-rule:nonzero;fill:#FFFFFF;stroke:#000000;stroke-miterlimit:4;">

		<g style="stroke:none;">

			<path style="fill:#000000;stroke:#000000;stroke-width:2;" d="M59.042,30.021c0,16.028-12.993,29.021-29.021,29.021S1,46.048,1,30.021C1,13.993,13.993,1,30.021,1s29.021,12.994,29.021,29.021z"/>

			<path d="M32,12h-4.167V1.667H32V12z"/>

			<path d="M32,58.333h-4.167V48H32v10.333z"/>

			<g>

				<path d="M12.291,27.938v4.167H1.958v-4.167h10.333z"/>

				<path d="M58.124,27.937v4.167H47.791v-4.167h10.333z"/>

			</g>

			<g>

				<path d="M33.916,39.458h-7.875v-19h7.875v19z"/>

				<path d="M39.541,26.208v7.875h-19v-7.875h19z"/>

			</g>

		</g>

	</g>

</svg>
