<svg xmlns="http://www.w3.org/2000/svg" width="20pt" height="20pt" viewBox="0 0 93.711 70.687" xml:space="preserve" preserveAspectRatio="xMidYMid meet" enableZoomAndPanControls="true" contentScriptType="text/ecmascript" contentStyleType="text/css">

	<g id="Layer_x0020_1" style="fill-rule:nonzero;clip-rule:nonzero;stroke:#000000;stroke-miterlimit:4;">

	</g>

	<g id="Layer_x0020_9" style="fill-rule:nonzero;clip-rule:nonzero;stroke:#000000;stroke-miterlimit:4;">

	</g>

	<g id="Layer_x0020_2" style="fill-rule:nonzero;clip-rule:nonzero;fill:#FFC700;stroke:#000000;stroke-width:2;stroke-miterlimit:4;">

		<path d="M28.25,52.166c-9.167,3.667-17.087,0.337-17.5,0.083C7.5,50.25,1,46.29,1,34c0-11.104,4.667-17.736,11.75-22.167c1.05-0.657,3.152-1.002,4.25-1.583"/>

		<path d="M14.916,10.166"/>

		<path style="stroke:none;" d="M16.416,11.166l1.625,0.083l4.208,1.583l6.5,5l9,9l0.333,9.5l-2,3.333l-8.5,9.833L16.416,11.166z"/>

	</g>

	<g id="Layer_x0020_10" style="fill-rule:nonzero;clip-rule:nonzero;stroke:#000000;stroke-miterlimit:4;">

		<path style="fill:#FFD03F;stroke:none;" d="M18.041,11.25"/>

	</g>

	<g id="Layer_x0020_3" style="fill-rule:nonzero;clip-rule:nonzero;fill:none;stroke:#000000;stroke-width:3;stroke-miterlimit:4;">

		<path d="M38.916,37.666l-1.333,2.667L31.916,47l-6,6.667"/>

		<path d="M13.166,10.25c1.375-0.25,5.292-0.5,5.292-0.5l4.75,2l6.75,5l5.265,5.235l3.985,4.265l0.25,10.417l-0.5,1"/>

		<path style="stroke-width:2;" d="M58.354,51.031c0.531-0.5,0.5-1.469,0.001-2.375c-0.304-0.553-0.711-0.956-1.188-1.344c-0.333-0.271-1.265-1.22-1.75-1.813c-0.188-0.229-1.646-2.208-1.958-2.667"/>

		<path style="fill:#FFFFFF;stroke:#FFFFFF;stroke-width:0.25;" d="M50.744,43.359l0.578,0.125l0.484,0.063l0.438,0.047h0.359h0.172L53.057,44l0.313,0.422l0.609,0.828l0.469,0.656l0.406,0.484l0.406,0.453l0.573,0.594l0.75,0.688l0.479,0.438l0.396,0.521l0.188,0.479l0.063,0.333v0.333l-0.354,0.375    l-1.625,1.583l-1.021,1l-1.125,1.063l-1,0.917l-1.021,0.896l-0.833,0.667l-1.25,0.896l-1.417,0.917l-1.271,0.75l-1.708,0.833l-1.604,0.729l-1.417,0.625l-1.042,0.396l-1.125,0.479l-1.396,0.479l-1.292,0.438l-1.396,0.396l-1.396,0.354l-1.646,0.354l-1.646,0.313    l-1.521,0.25l-1.479,0.167l-1.583,0.146l-1.458,0.125l-1.625,0.083L21.604,65.5h-1.271l-2.063-0.063l-1.833-0.125l-1.917-0.167l-1.688-0.208l-1-0.167l-1.167-0.229l-1.333-0.333l-0.938-0.292l-0.667-0.292l-0.479-0.354l-0.25-0.479l-0.083-0.521l0.083-0.521    l0.396-0.792l0.729-1.229l0.667-1.042l0.75-1.146l0.583-0.833l0.604-0.792l0.5,0.021l1.25,0.083l1.479,0.125l2.063,0.188l1.188,0.104l1.083,0.083l0.667,0.063l0.938,0.042l0.771,0.021h0.875l0.979-0.021l0.917-0.063l0.958-0.104l0.979-0.125l1-0.146l0.75-0.125    l0.75-0.167l0.708-0.167l0.729-0.167l0.75-0.208l0.771-0.208l0.708-0.229l0.792-0.229l0.917-0.313L34.333,54l1.021-0.354l0.896-0.354l0.792-0.313l0.875-0.333l0.792-0.354l0.792-0.375l0.833-0.417l0.708-0.396l0.896-0.5l0.75-0.458l0.708-0.458l0.625-0.417    l0.646-0.458l0.604-0.417l0.646-0.521l0.708-0.542l0.667-0.563l0.563-0.458l0.542-0.521l0.563-0.542l0.542-0.521l0.479-0.521l0.333-0.396l0.432-0.453z"/>

	</g>

	<g id="Layer_x0020_11" style="display:none;fill-rule:nonzero;clip-rule:nonzero;stroke:#000000;stroke-miterlimit:4;">

		<path style="display:inline;fill:none;stroke-width:3;" d="M45.346,29.977c1.53-0.313,3.114-0.478,4.736-0.478c12.979,0,23.5,10.521,23.5,23.5c0,1.307-0.107,2.588-0.312,3.837"/>

	</g>

	<g id="Layer_x0020_8" style="display:none;fill-rule:nonzero;clip-rule:nonzero;stroke:#000000;stroke-miterlimit:4;">

		<path style="display:inline;fill:none;stroke-width:2;" d="M87.511,61.873c0.185-0.081,0.479-0.296,0.571-0.123c1.25,2.333,2.167,4.583,4.083,5.5c1.313,0.628,0.529,1.881-0.333,2.917"/>

	</g>

	<g id="Layer_x0020_4" style="fill-rule:nonzero;clip-rule:nonzero;stroke:#000000;stroke-miterlimit:4;">

		<path style="fill:#FFFFFF;stroke-width:2;" d="M62.52,33c0,5.304-4.3,9.604-9.604,9.604s-9.604-4.3-9.604-9.604s4.3-9.604,9.604-9.604s9.604,4.3,9.604,9.604z"/>

	</g>

	<g id="Layer_x0020_5" style="fill-rule:nonzero;clip-rule:nonzero;stroke:#000000;stroke-miterlimit:4;">

		<path style="fill:none;stroke-width:2;" d="M12.979,11.375C14.729,3.625,25.916,0.75,31.416,1c14.528,0.66,26.542,10.893,28.283,24.965"/>

	</g>

	<g id="Layer_x0020_6" style="fill-rule:nonzero;clip-rule:nonzero;fill:none;stroke:#000000;stroke-width:2;stroke-miterlimit:4;">

		<path d="M45.512,69.813"/>

		<path d="M58.375,51c-6.917,6.917-8.805,8.562-17.555,12.062C26.467,68.802,8.166,66.125,6.541,64"/>

		<path style="stroke-width:3;" d="M10.041,54.375c10.25,0.5,13.092,2.579,27.444-3.162c1.933-0.773,8.254-4.043,12.556-9.338"/>

	</g>

	<g id="Layer_x0020_7" style="fill-rule:nonzero;clip-rule:nonzero;stroke:#000000;stroke-miterlimit:4;">

		<path style="fill:none;stroke-width:2;" d="M6.729,64.187c-0.938-0.875-0.965-2.291-0.479-3.167c0.417-0.75,0.83-1.38,1.104-1.896c0.354-0.666,1.904-2.891,2.5-3.688c0.355-0.475,1.269-1.985,1.229-2.5"/>

	</g>

	<g id="Layer_x0020_12" style="fill-rule:nonzero;clip-rule:nonzero;stroke:#000000;stroke-miterlimit:4;">

		<path style="fill:#FFFFFF;stroke:#FFFFFF;stroke-width:0.25;" d="M15.375,8.458l1.375-1.583l1.292-1.042l1.125-0.75l1.458-0.792l1.333-0.625l1.583-0.583l1.625-0.458l1.667-0.375L28.375,2l1.667-0.083h1.583L33.166,2l1.625,0.25l1.792,0.333L38.416,3l1.625,0.542l1.417,0.542l1.417,0.583l1.292,0.625    L45.375,6l1.083,0.667l1.125,0.75l0.875,0.625l1,0.833l1,0.875l1.083,1.083l0.875,0.958l0.833,0.958l0.833,1.167L55,15.208l0.708,1.292l0.667,1.375l0.583,1.333l0.583,1.583L58,22.25l0.375,1.625l-1.042-0.625l-1.625-0.583l-1.167-0.25l-1.5-0.125l-1.375,0.083    l-1.5,0.292l-1.208,0.417l-1.167,0.542l-1.125,0.75l-1.125,0.875L44.5,26.416l-0.833,1.333l-0.625,1.292l-0.458,1.333l-0.25,1.5l-0.083,0.958L42.291,34l0.167,0.958l0.333,1.292l0.417,1.042l0.417,0.875l0.5,0.792l0.583,0.792l0.792,0.792l0.667,0.625L47,41.75    l0.708,0.458l-0.792,0.833l-1.458,1.333l-1.5,1.208l-1.25,0.917l-1.75,1.083L39.541,48.5l-1.792,0.958l-1.958,0.75l-1.625,0.667l-1.458,0.542l-1.417,0.458l-1.458,0.417L29,52.541l1.667-1.875l1.708-1.958l1.458-1.667l1.208-1.458l1.417-1.625l1.167-1.417    l1.208-1.375l2.083-4.25l-0.083-4.667l-0.167-6.583l-3.083-3.333l-3.917-4.042l-2.625-2.583l-3.875-2.875l-3.208-2.417l-5.25-2.25l-1.792,0.125l-1.542,0.167z"/>

	</g>

</svg>
