<svg xmlns="http://www.w3.org/2000/svg" width="20pt" height="20pt" viewBox="0 0 101.86 98.829" xml:space="preserve" preserveAspectRatio="xMidYMid meet" enableZoomAndPanControls="true" contentScriptType="text/ecmascript" contentStyleType="text/css">

	<g id="Layer_x0020_1" style="fill-rule:nonzero;clip-rule:nonzero;fill:none;stroke:#000000;stroke-width:4;stroke-miterlimit:4;">

		<g>

			<path d="M41.667,3.163v56"/>

			<path d="M40.666,57.829h56"/>

			<path d="M2.534,96.628L42.132,57.03"/>

			<g>

				<path d="M2,79.496v19.333"/>

				<path d="M0.667,96.829H20"/>

			</g>

			<g>

				<path d="M29.605,15.084l13.671-13.67"/>

				<path d="M40.918,1.885l13.671,13.671"/>

			</g>

			<g>

				<path d="M84.733,70.321l13.67-13.671"/>

				<path d="M97.932,59.007L84.261,45.336"/>

			</g>

			<g>

				<path style="fill:#000000;stroke:none;" d="M78.82,1.183c-3.84,1.44-5.28,2.52-6.54,4.62c-3.18,5.22-2.82,12.12-2.1,16.14c0.6,3.12,1.32,4.38,2.4,5.4c1.2,1.14,2.52,1.44,4.2,0.96c3.96-1.14,4.26-6.06,4.56-7.2c-1.08-3.12-2.28-6.9-1.44-11.7      c0.48-2.64,1.32-4.02,2.88-4.02s2.4,1.38,2.88,4.02c0.84,4.8-0.36,8.58-1.44,11.7c0.3,1.14,0.6,6.06,4.56,7.2c1.68,0.48,3,0.18,4.2-0.96c1.08-1.02,1.8-2.28,2.4-5.4c0.72-4.02,1.08-10.92-2.1-16.14c-1.26-2.1-2.7-3.18-6.54-4.62v-1.02      c2.1,0.12,5.64-0.3,8.82,2.1c3.78,2.88,5.82,6.72,6.3,11.94c0.42,4.32,0,7.02-1.32,10.2c-1.08,2.58-3.36,5.04-5.4,5.94c-1.68,0.78-4.74,1.56-7.68-0.18c-2.1-1.2-3.06-2.1-4.68-4.92c-1.62,2.82-2.58,3.72-4.68,4.92c-2.94,1.74-6,0.96-7.68,0.18      c-2.04-0.9-4.32-3.36-5.4-5.94c-1.32-3.18-1.74-5.88-1.32-10.2c0.48-5.22,2.52-9.06,6.3-11.94c3.18-2.4,6.72-1.98,8.82-2.1v1.02z"/>

			</g>

		</g>

	</g>

	<g id="arrows" style="fill-rule:nonzero;clip-rule:nonzero;stroke:#000000;stroke-miterlimit:4;">

	</g>

</svg>
