<svg xmlns="http://www.w3.org/2000/svg" xmlns:xlink="http://www.w3.org/1999/xlink" xmlns:a="http://ns.adobe.com/AdobeSVGViewerExtensions/3.0/" width="128.878" height="78.19" viewBox="0 0 128.878 78.19" overflow="visible" enable-background="new 0 0 128.878 78.19" xml:space="preserve" preserveAspectRatio="xMidYMid meet" zoomAndPan="magnify" version="1.0" contentScriptType="text/ecmascript" contentStyleType="text/css">

	<g id="Layer_1">

		<path fill="#999999" d="M103.893,12.69L90.06,26.023V51.69l14,9.667L103.893,12.69z"/>

		<path fill="none" stroke="#000000" d="M31.377,3.523"/>

		<path fill="none" stroke="#000000" d="M5.877,15.523l84.25,10.318l13.5-13.318l-96.25-12L4.294,3.19L4.46,5.523V9.69l-1.167,2.667    L5.877,15.523z"/>

		<path fill="none" stroke="#000000" d="M90.127,25.842v25.966"/>

		<path fill="none" stroke="#000000" d="M104.128,12.189v49.75"/>

		<path fill="none" stroke="#000000" d="M31.627,6.023V4.19l-13.75,12.833v25.25l13.75,10v-3.375"/>

		<path fill="none" stroke="#000000" d="M31.627,7.023v-1"/>

		<path fill="none" stroke="#000000" d="M31.627,11.273v-1.75"/>

		<path fill="none" stroke="#000000" d="M31.627,16.523v-1.75"/>

		<path fill="none" stroke="#000000" d="M31.627,21.898v-2.125"/>

		<path fill="none" stroke="#000000" d="M31.627,27.273v-2.375"/>

		<path fill="none" stroke="#000000" d="M31.627,32.898v-3"/>

		<path fill="none" stroke="#000000" d="M31.627,39.523v-4"/>

		<path fill="none" stroke="#000000" d="M31.627,46.523v-5.25"/>

		<path fill="none" stroke="#000000" d="M5.877,15.523l-2.25,5l4.333,5.833l-7.167,2.667l5,6.833L4.96,39.023l1.333,1.833    l4.333,5.333l-1.333,1.333l-1.167,2l95.5,11.75l-13.375-9.466L6.46,41.023"/>

		<g>

			<path d="M9.401,8.141L9.94,8.094c0.025,0.215,0.084,0.392,0.176,0.529c0.092,0.139,0.235,0.25,0.43,0.335     s0.412,0.128,0.655,0.128c0.215,0,0.405-0.032,0.57-0.097c0.165-0.065,0.288-0.153,0.368-0.266s0.121-0.235,0.121-0.368     c0-0.135-0.04-0.252-0.12-0.353c-0.08-0.1-0.209-0.185-0.388-0.253c-0.114-0.045-0.367-0.114-0.758-0.209     c-0.392-0.095-0.666-0.185-0.823-0.269C9.967,7.165,9.815,7.031,9.715,6.871c-0.101-0.159-0.15-0.338-0.15-0.536     c0-0.217,0.061-0.42,0.184-0.609c0.122-0.189,0.301-0.333,0.536-0.431c0.235-0.098,0.496-0.146,0.784-0.146     c0.317,0,0.596,0.051,0.837,0.153c0.242,0.103,0.429,0.253,0.559,0.452s0.2,0.424,0.21,0.676l-0.547,0.039     C12.098,6.201,12,5.998,11.833,5.861c-0.168-0.137-0.415-0.205-0.742-0.205c-0.341,0-0.589,0.063-0.745,0.188     c-0.156,0.126-0.233,0.278-0.233,0.456c0,0.154,0.055,0.281,0.165,0.38c0.108,0.1,0.392,0.202,0.85,0.307     s0.773,0.195,0.945,0.273c0.251,0.115,0.437,0.262,0.556,0.438c0.12,0.177,0.18,0.38,0.18,0.61c0,0.229-0.065,0.443-0.196,0.646     s-0.318,0.359-0.562,0.471s-0.519,0.168-0.824,0.168c-0.388,0-0.712-0.057-0.974-0.17S9.785,9.14,9.635,8.912     C9.487,8.685,9.409,8.428,9.401,8.141z"/>

			<path d="M13.379,7.403c0-0.507,0.052-0.916,0.156-1.227S13.795,5.627,14,5.461c0.206-0.167,0.465-0.25,0.777-0.25     c0.229,0,0.433,0.046,0.607,0.139s0.318,0.227,0.43,0.401c0.112,0.175,0.2,0.388,0.265,0.638s0.097,0.589,0.097,1.014     c0,0.504-0.052,0.911-0.155,1.222s-0.258,0.55-0.464,0.717s-0.466,0.251-0.779,0.251c-0.414,0-0.738-0.147-0.975-0.441     C13.521,8.793,13.379,8.21,13.379,7.403z M13.918,7.402c0,0.706,0.082,1.175,0.248,1.406s0.369,0.348,0.612,0.348     c0.242,0,0.446-0.116,0.611-0.349c0.165-0.233,0.248-0.701,0.248-1.405c0-0.706-0.083-1.174-0.247-1.406     c-0.165-0.232-0.371-0.348-0.618-0.348c-0.243,0-0.437,0.102-0.583,0.307C14.008,6.216,13.918,6.698,13.918,7.402z"/>

		</g>

		<g>

			<path d="M40.088,14.273V9.977h1.621c0.286,0,0.504,0.014,0.654,0.041c0.211,0.035,0.388,0.102,0.53,0.2s0.258,0.237,0.345,0.414     c0.087,0.178,0.131,0.373,0.131,0.586c0,0.365-0.116,0.674-0.349,0.927c-0.233,0.252-0.653,0.379-1.261,0.379h-1.102v1.75H40.088     z M40.659,12.016h1.11c0.367,0,0.628-0.068,0.783-0.205c0.154-0.136,0.231-0.328,0.231-0.575c0-0.18-0.046-0.333-0.137-0.46     s-0.21-0.211-0.359-0.252c-0.096-0.025-0.273-0.038-0.531-0.038h-1.099V12.016z"/>

			<path d="M45.864,14.273h-0.531v-3.36c-0.126,0.121-0.292,0.242-0.496,0.363s-0.388,0.212-0.551,0.272v-0.51     c0.293-0.139,0.55-0.307,0.77-0.504c0.219-0.197,0.375-0.389,0.466-0.574h0.343V14.273z"/>

		</g>

		<g>

			<path d="M108.734,25.807l0.539-0.047c0.025,0.215,0.084,0.392,0.176,0.53c0.092,0.138,0.235,0.25,0.43,0.335     c0.194,0.085,0.412,0.127,0.655,0.127c0.215,0,0.405-0.032,0.57-0.097c0.165-0.065,0.288-0.153,0.368-0.266     c0.081-0.112,0.121-0.235,0.121-0.367c0-0.135-0.04-0.252-0.12-0.353c-0.08-0.1-0.209-0.185-0.388-0.253     c-0.114-0.045-0.367-0.115-0.758-0.209c-0.392-0.095-0.666-0.184-0.823-0.269c-0.204-0.107-0.356-0.241-0.456-0.401     c-0.101-0.16-0.15-0.338-0.15-0.536c0-0.217,0.061-0.421,0.184-0.609c0.122-0.189,0.301-0.333,0.536-0.431     c0.235-0.098,0.496-0.147,0.784-0.147c0.317,0,0.596,0.051,0.837,0.154c0.242,0.102,0.429,0.253,0.559,0.452     c0.13,0.199,0.2,0.424,0.21,0.676l-0.547,0.039c-0.029-0.268-0.128-0.47-0.295-0.607c-0.168-0.137-0.415-0.206-0.742-0.206     c-0.341,0-0.589,0.063-0.745,0.189c-0.156,0.126-0.233,0.278-0.233,0.456c0,0.154,0.055,0.281,0.165,0.38     c0.108,0.1,0.392,0.202,0.85,0.306s0.773,0.196,0.945,0.274c0.251,0.115,0.437,0.261,0.556,0.438c0.12,0.177,0.18,0.38,0.18,0.61     c0,0.228-0.065,0.443-0.196,0.646c-0.13,0.202-0.318,0.359-0.562,0.471c-0.244,0.112-0.519,0.168-0.824,0.168     c-0.388,0-0.712-0.057-0.974-0.17s-0.467-0.284-0.616-0.511C108.82,26.352,108.742,26.094,108.734,25.807z"/>

			<path d="M112.736,25.807l0.539-0.047c0.025,0.215,0.084,0.392,0.176,0.53c0.093,0.138,0.235,0.25,0.43,0.335     c0.194,0.085,0.412,0.127,0.655,0.127c0.215,0,0.405-0.032,0.57-0.097c0.165-0.065,0.288-0.153,0.368-0.266     c0.081-0.112,0.121-0.235,0.121-0.367c0-0.135-0.04-0.252-0.12-0.353c-0.08-0.1-0.209-0.185-0.388-0.253     c-0.114-0.045-0.367-0.115-0.758-0.209c-0.392-0.095-0.666-0.184-0.823-0.269c-0.204-0.107-0.356-0.241-0.456-0.401     c-0.101-0.16-0.15-0.338-0.15-0.536c0-0.217,0.061-0.421,0.184-0.609c0.122-0.189,0.301-0.333,0.536-0.431     s0.496-0.147,0.784-0.147c0.316,0,0.596,0.051,0.837,0.154c0.242,0.102,0.429,0.253,0.559,0.452c0.13,0.199,0.2,0.424,0.21,0.676     l-0.547,0.039c-0.029-0.268-0.128-0.47-0.295-0.607c-0.168-0.137-0.415-0.206-0.742-0.206c-0.341,0-0.589,0.063-0.745,0.189     c-0.155,0.126-0.233,0.278-0.233,0.456c0,0.154,0.055,0.281,0.165,0.38c0.108,0.1,0.392,0.202,0.85,0.306     s0.773,0.196,0.945,0.274c0.251,0.115,0.437,0.261,0.556,0.438c0.12,0.177,0.18,0.38,0.18,0.61c0,0.228-0.065,0.443-0.195,0.646     c-0.131,0.202-0.318,0.359-0.563,0.471c-0.244,0.112-0.519,0.168-0.824,0.168c-0.388,0-0.712-0.057-0.974-0.17     s-0.467-0.284-0.616-0.511C112.822,26.352,112.744,26.094,112.736,25.807z"/>

			<path d="M116.457,27.19l1.644-4.297h0.623l1.758,4.297h-0.647l-0.494-1.305h-1.81l-0.47,1.305H116.457z M117.69,25.424h1.47     l-0.451-1.189c-0.135-0.362-0.238-0.661-0.309-0.897c-0.059,0.279-0.139,0.555-0.238,0.826L117.69,25.424z"/>

			<path d="M120.74,25.807l0.539-0.047c0.025,0.215,0.084,0.392,0.176,0.53c0.093,0.138,0.235,0.25,0.43,0.335     c0.194,0.085,0.412,0.127,0.655,0.127c0.215,0,0.405-0.032,0.57-0.097c0.165-0.065,0.288-0.153,0.368-0.266     c0.081-0.112,0.121-0.235,0.121-0.367c0-0.135-0.04-0.252-0.12-0.353c-0.08-0.1-0.209-0.185-0.388-0.253     c-0.114-0.045-0.367-0.115-0.758-0.209c-0.392-0.095-0.666-0.184-0.823-0.269c-0.204-0.107-0.356-0.241-0.456-0.401     c-0.101-0.16-0.15-0.338-0.15-0.536c0-0.217,0.061-0.421,0.184-0.609c0.122-0.189,0.301-0.333,0.536-0.431     s0.496-0.147,0.784-0.147c0.316,0,0.596,0.051,0.837,0.154c0.242,0.102,0.429,0.253,0.559,0.452c0.13,0.199,0.2,0.424,0.21,0.676     l-0.547,0.039c-0.029-0.268-0.128-0.47-0.295-0.607c-0.168-0.137-0.415-0.206-0.742-0.206c-0.341,0-0.589,0.063-0.745,0.189     c-0.155,0.126-0.233,0.278-0.233,0.456c0,0.154,0.055,0.281,0.165,0.38c0.108,0.1,0.392,0.202,0.85,0.306     s0.773,0.196,0.945,0.274c0.251,0.115,0.437,0.261,0.556,0.438c0.12,0.177,0.18,0.38,0.18,0.61c0,0.228-0.065,0.443-0.195,0.646     c-0.131,0.202-0.318,0.359-0.563,0.471c-0.244,0.112-0.519,0.168-0.824,0.168c-0.388,0-0.712-0.057-0.974-0.17     s-0.467-0.284-0.616-0.511C120.826,26.352,120.748,26.094,120.74,25.807z"/>

		</g>

		<g>

			<path d="M108.922,49.273v-4.297h1.621c0.286,0,0.504,0.014,0.654,0.041c0.211,0.035,0.388,0.102,0.53,0.201     s0.258,0.236,0.345,0.414s0.131,0.373,0.131,0.585c0,0.365-0.116,0.674-0.349,0.927c-0.232,0.252-0.653,0.379-1.261,0.379h-1.102     v1.75H108.922z M109.492,47.015h1.11c0.367,0,0.629-0.068,0.783-0.205c0.154-0.136,0.231-0.328,0.231-0.576     c0-0.179-0.046-0.333-0.137-0.46c-0.091-0.127-0.21-0.211-0.358-0.252c-0.096-0.025-0.273-0.038-0.531-0.038h-1.099V47.015z"/>

			<path d="M114.697,49.273h-0.531v-3.36c-0.126,0.121-0.291,0.242-0.496,0.363c-0.204,0.121-0.388,0.212-0.551,0.272v-0.51     c0.293-0.139,0.55-0.307,0.77-0.504c0.219-0.197,0.375-0.389,0.466-0.574h0.343V49.273z"/>

			<path d="M115.8,49.343l1.242-4.438h0.425l-1.242,4.438H115.8z"/>

			<path d="M117.928,49.273v-4.297h1.621c0.286,0,0.504,0.014,0.654,0.041c0.211,0.035,0.388,0.102,0.53,0.201     s0.258,0.236,0.345,0.414s0.131,0.373,0.131,0.585c0,0.365-0.116,0.674-0.349,0.927c-0.232,0.252-0.653,0.379-1.261,0.379h-1.102     v1.75H117.928z M118.498,47.015h1.11c0.367,0,0.629-0.068,0.783-0.205c0.154-0.136,0.231-0.328,0.231-0.576     c0-0.179-0.046-0.333-0.137-0.46c-0.091-0.127-0.21-0.211-0.358-0.252c-0.096-0.025-0.273-0.038-0.531-0.038h-1.099V47.015z"/>

			<path d="M121.719,48.132l0.531-0.07c0.061,0.299,0.162,0.514,0.306,0.646s0.321,0.198,0.531,0.198     c0.25,0,0.459-0.085,0.628-0.256s0.254-0.383,0.254-0.635c0-0.241-0.079-0.44-0.236-0.596c-0.158-0.157-0.358-0.235-0.602-0.235     c-0.099,0-0.223,0.02-0.37,0.059l0.058-0.461c0.035,0.004,0.063,0.006,0.085,0.006c0.226,0,0.428-0.059,0.607-0.176     c0.181-0.117,0.271-0.298,0.271-0.542c0-0.193-0.065-0.354-0.196-0.48s-0.299-0.19-0.506-0.19c-0.204,0-0.375,0.064-0.512,0.193     s-0.224,0.322-0.263,0.58l-0.531-0.094c0.064-0.355,0.211-0.629,0.438-0.825c0.229-0.195,0.513-0.292,0.853-0.292     c0.234,0,0.449,0.05,0.646,0.151c0.197,0.101,0.348,0.238,0.452,0.413s0.157,0.359,0.157,0.555c0,0.186-0.05,0.355-0.149,0.507     c-0.1,0.153-0.247,0.274-0.442,0.364c0.254,0.058,0.451,0.179,0.592,0.363c0.141,0.184,0.211,0.414,0.211,0.69     c0,0.374-0.137,0.69-0.41,0.95s-0.619,0.39-1.037,0.39c-0.377,0-0.69-0.112-0.939-0.337     C121.896,48.781,121.754,48.49,121.719,48.132z"/>

		</g>

		<g>

			<path d="M32.421,78.19v-4.297h0.585l2.259,3.375v-3.375h0.547v4.297h-0.585l-2.259-3.375v3.375H32.421z"/>

			<path d="M36.286,78.19l1.644-4.297h0.623l1.758,4.297h-0.647l-0.494-1.305h-1.809l-0.47,1.305H36.286z M37.52,76.424h1.469     l-0.451-1.189c-0.135-0.362-0.238-0.661-0.309-0.897c-0.059,0.279-0.138,0.555-0.238,0.826L37.52,76.424z"/>

			<path d="M40.756,78.19v-4.297h1.481c0.334,0,0.589,0.021,0.766,0.062c0.247,0.057,0.457,0.16,0.63,0.308     c0.227,0.191,0.396,0.436,0.509,0.734c0.113,0.298,0.169,0.639,0.169,1.021c0,0.327-0.038,0.616-0.114,0.868     s-0.174,0.461-0.293,0.626s-0.25,0.295-0.392,0.39c-0.142,0.095-0.313,0.167-0.513,0.215s-0.431,0.073-0.69,0.073H40.756z      M41.327,77.682h0.918c0.283,0,0.505-0.026,0.667-0.079c0.161-0.053,0.29-0.127,0.385-0.223c0.135-0.135,0.24-0.316,0.315-0.543     c0.075-0.228,0.113-0.503,0.113-0.828c0-0.449-0.074-0.794-0.222-1.036c-0.147-0.241-0.327-0.403-0.538-0.485     c-0.153-0.059-0.398-0.088-0.736-0.088h-0.903V77.682z"/>

			<path d="M45.191,78.19v-4.297h0.57v4.297H45.191z"/>

			<path d="M46.764,78.19v-4.297h1.907c0.383,0,0.674,0.039,0.874,0.116c0.199,0.077,0.359,0.214,0.478,0.409     c0.119,0.196,0.179,0.412,0.179,0.648c0,0.305-0.099,0.563-0.296,0.771c-0.198,0.209-0.502,0.342-0.915,0.399     c0.15,0.072,0.265,0.144,0.343,0.214c0.166,0.152,0.323,0.343,0.471,0.571l0.744,1.168h-0.71l-0.569-0.893     c-0.167-0.258-0.303-0.455-0.411-0.592c-0.107-0.136-0.204-0.232-0.289-0.287s-0.171-0.093-0.259-0.114     c-0.065-0.014-0.17-0.021-0.317-0.021h-0.66v1.906H46.764z M47.334,75.792h1.223c0.26,0,0.463-0.027,0.61-0.081     c0.146-0.054,0.258-0.14,0.334-0.258s0.114-0.247,0.114-0.386c0-0.203-0.074-0.37-0.222-0.501     c-0.147-0.131-0.381-0.196-0.699-0.196h-1.36V75.792z"/>

		</g>

		<g>

			<path d="M16.778,69.523v-4.297h2.906v0.508h-2.336v1.328h2.023v0.508h-2.023v1.953H16.778z"/>

			<path d="M21.161,69.523l-1.131-4.297h0.589l0.648,2.817c0.071,0.295,0.131,0.588,0.181,0.878     c0.109-0.459,0.173-0.724,0.192-0.794l0.815-2.901h0.686l0.615,2.177c0.149,0.541,0.26,1.047,0.333,1.519     c0.06-0.271,0.131-0.583,0.216-0.936l0.669-2.76h0.571l-1.174,4.297h-0.555l-0.895-3.272c-0.075-0.273-0.121-0.442-0.138-0.506     c-0.048,0.196-0.091,0.364-0.129,0.503l-0.901,3.275H21.161z"/>

			<path d="M26.083,69.523v-4.297h1.481c0.334,0,0.59,0.021,0.766,0.062c0.246,0.057,0.457,0.159,0.631,0.308     c0.227,0.191,0.396,0.437,0.509,0.734c0.112,0.298,0.168,0.639,0.168,1.021c0,0.326-0.038,0.615-0.114,0.867     c-0.077,0.252-0.174,0.461-0.293,0.626s-0.25,0.295-0.392,0.39s-0.313,0.167-0.513,0.216s-0.431,0.073-0.691,0.073H26.083z      M26.653,69.016h0.917c0.284,0,0.506-0.026,0.667-0.079c0.162-0.053,0.29-0.127,0.386-0.223c0.135-0.135,0.24-0.316,0.315-0.544     s0.113-0.503,0.113-0.827c0-0.449-0.074-0.795-0.221-1.036c-0.148-0.241-0.327-0.402-0.538-0.484     c-0.153-0.059-0.398-0.088-0.736-0.088h-0.903V69.016z"/>

		</g>

		<path fill="#999999" stroke="#000000" d="M114.639,38.458l-0.236,2.049l-8.578-5.268l9.513-3.936l-0.301,2.608l13.287,1.532    l-0.516,4.47l-13.411-1.546"/>

		<g>

			<path fill="none" stroke="#F51600" d="M23.877,63.69"/>

		</g>

		<g>

			<g a:adobe-knockout="true">

				<g>

					<g>

						<path fill="#FFFFFF" a:adobe-knockout="false" d="M42.441,37.855l0.02-0.198l-0.182,0.082L42.441,37.855z"/>

						<path fill="#FFFFFF" a:adobe-knockout="false" d="M24.938,61.816l-0.02,0.198l0.182-0.082L24.938,61.816z"/>

					</g>

					<g>

						<path fill="#FFFFFF" a:adobe-knockout="false" d="M42.41,37.814l0.01-0.099l-0.091,0.041L42.41,37.814z"/>

						<path fill="#FFFFFF" a:adobe-knockout="false" d="M42.314,37.653l-0.116,0.162l0.198,0.02L42.314,37.653z"/>

						<path fill="#FFFFFF" a:adobe-knockout="false" d="M42.313,37.775l0.083,0.182l0.116-0.162L42.313,37.775z"/>

					</g>

					<g>

						<path fill="#FFFFFF" a:adobe-knockout="false" d="M24.97,61.857l-0.01,0.099l0.091-0.041L24.97,61.857z"/>

						<path fill="#FFFFFF" a:adobe-knockout="false" d="M25.066,62.019l0.116-0.162l-0.198-0.02L25.066,62.019z"/>

						<path fill="#FFFFFF" a:adobe-knockout="false" d="M25.067,61.896l-0.083-0.182l-0.116,0.162L25.067,61.896z"/>

					</g>

				</g>

				<g>

					<g>

						<path fill="#FFFFFF" a:adobe-knockout="false" d="M23.56,60.05l-0.451,4.465l4.092-1.842L23.56,60.05z"/>

						<path fill="#FFFFFF" a:adobe-knockout="false" d="M27.216,62.776l0.116-0.162l-0.198-0.02L27.216,62.776z"/>

						<path fill="#FFFFFF" a:adobe-knockout="false" d="M23.657,60.089l-0.082-0.182l-0.117,0.162L23.657,60.089z"/>

					</g>

					<g>

						<path fill="#FFFFFF" a:adobe-knockout="false" d="M27.208,62.725l0.058-0.081l-0.099-0.01L27.208,62.725z"/>

						<path fill="#FFFFFF" a:adobe-knockout="false" d="M27.207,62.537l-0.182,0.082l0.161,0.117L27.207,62.537z"/>

						<path fill="#FFFFFF" a:adobe-knockout="false" d="M27.144,62.643l-0.02,0.199l0.182-0.083L27.144,62.643z"/>

					</g>

					<g>

						<path fill="#FFFFFF" a:adobe-knockout="false" d="M23.608,60.07l-0.041-0.091l-0.058,0.081L23.608,60.07z"/>

						<path fill="#FFFFFF" a:adobe-knockout="false" d="M23.445,59.978l-0.02,0.198l0.182-0.082L23.445,59.978z"/>

						<path fill="#FFFFFF" a:adobe-knockout="false" d="M23.505,60.084l0.162,0.116l0.02-0.198L23.505,60.084z"/>

					</g>

				</g>

			</g>

			<g a:adobe-knockout="true">

				<g>

					<g>

						<path fill="none" stroke="#000000" a:adobe-knockout="false" d="M25.002,61.898l17.375-24.125"/>

						<path a:adobe-knockout="false" d="M42.441,37.855l0.02-0.198l-0.182,0.082L42.441,37.855z"/>

						<path a:adobe-knockout="false" d="M24.938,61.816l-0.02,0.198l0.182-0.082L24.938,61.816z"/>

					</g>

					<g>

						<path a:adobe-knockout="false" d="M42.41,37.814l0.01-0.099l-0.091,0.041L42.41,37.814z"/>

						<path a:adobe-knockout="false" d="M42.314,37.653l-0.116,0.162l0.198,0.02L42.314,37.653z"/>

						<path a:adobe-knockout="false" d="M42.313,37.775l0.083,0.182l0.116-0.162L42.313,37.775z"/>

					</g>

					<g>

						<path a:adobe-knockout="false" d="M24.97,61.857l-0.01,0.099l0.091-0.041L24.97,61.857z"/>

						<path a:adobe-knockout="false" d="M25.066,62.019l0.116-0.162l-0.198-0.02L25.066,62.019z"/>

						<path a:adobe-knockout="false" d="M25.067,61.896l-0.083-0.182l-0.116,0.162L25.067,61.896z"/>

					</g>

				</g>

				<g>

					<g>

						<path a:adobe-knockout="false" d="M23.56,60.05l-0.451,4.465l4.092-1.842L23.56,60.05z"/>

						<path a:adobe-knockout="false" d="M27.216,62.776l0.116-0.162l-0.198-0.02L27.216,62.776z"/>

						<path a:adobe-knockout="false" d="M23.657,60.089l-0.082-0.182l-0.117,0.162L23.657,60.089z"/>

					</g>

					<g>

						<path a:adobe-knockout="false" d="M27.208,62.725l0.058-0.081l-0.099-0.01L27.208,62.725z"/>

						<path a:adobe-knockout="false" d="M27.207,62.537l-0.182,0.082l0.161,0.117L27.207,62.537z"/>

						<path a:adobe-knockout="false" d="M27.144,62.643l-0.02,0.199l0.182-0.083L27.144,62.643z"/>

					</g>

					<g>

						<path a:adobe-knockout="false" d="M23.608,60.07l-0.041-0.091l-0.058,0.081L23.608,60.07z"/>

						<path a:adobe-knockout="false" d="M23.445,59.978l-0.02,0.198l0.182-0.082L23.445,59.978z"/>

						<path a:adobe-knockout="false" d="M23.505,60.084l0.162,0.116l0.02-0.198L23.505,60.084z"/>

					</g>

				</g>

			</g>

		</g>

		<g>

			<g a:adobe-knockout="true">

				<g>

					<g>

						<path fill="#FFFFFF" a:adobe-knockout="false" d="M42.603,51.428l-0.1-0.173l-0.1,0.173H42.603z"/>

						<path fill="#FFFFFF" a:adobe-knockout="false" d="M42.402,69.869l0.1,0.173l0.1-0.173H42.402z"/>

					</g>

					<g>

						<path fill="#FFFFFF" a:adobe-knockout="false" d="M42.552,51.413l-0.05-0.086l-0.05,0.086H42.552z"/>

						<path fill="#FFFFFF" a:adobe-knockout="false" d="M42.38,51.338l0,0.199l0.172-0.1L42.38,51.338z"/>

						<path fill="#FFFFFF" a:adobe-knockout="false" d="M42.451,51.438l0.172,0.1l0-0.2L42.451,51.438z"/>

					</g>

					<g>

						<path fill="#FFFFFF" a:adobe-knockout="false" d="M42.453,69.884l0.05,0.086l0.05-0.086H42.453z"/>

						<path fill="#FFFFFF" a:adobe-knockout="false" d="M42.625,69.959l0-0.199l-0.172,0.1L42.625,69.959z"/>

						<path fill="#FFFFFF" a:adobe-knockout="false" d="M42.554,69.859l-0.172-0.1l0,0.199L42.554,69.859z"/>

					</g>

				</g>

				<g>

					<g>

						<path fill="#FFFFFF" a:adobe-knockout="false" d="M40.252,69.242l2.244,3.886l2.244-3.886H40.252z"/>

						<path fill="#FFFFFF" a:adobe-knockout="false" d="M44.812,69.317v-0.199l-0.173,0.1L44.812,69.317z"/>

						<path fill="#FFFFFF" a:adobe-knockout="false" d="M40.353,69.217l-0.172-0.1v0.2L40.353,69.217z"/>

					</g>

					<g>

						<path fill="#FFFFFF" a:adobe-knockout="false" d="M44.775,69.279v-0.1l-0.086,0.05L44.775,69.279z"/>

						<path fill="#FFFFFF" a:adobe-knockout="false" d="M44.665,69.128l-0.1,0.172l0.199,0L44.665,69.128z"/>

						<path fill="#FFFFFF" a:adobe-knockout="false" d="M44.675,69.25l0.1,0.173l0.1-0.173H44.675z"/>

					</g>

					<g>

						<path fill="#FFFFFF" a:adobe-knockout="false" d="M40.303,69.229l-0.086-0.05v0.1L40.303,69.229z"/>

						<path fill="#FFFFFF" a:adobe-knockout="false" d="M40.116,69.25l0.1,0.173l0.1-0.173H40.116z"/>

						<path fill="#FFFFFF" a:adobe-knockout="false" d="M40.228,69.302l0.199,0l-0.1-0.172L40.228,69.302z"/>

					</g>

				</g>

			</g>

			<g a:adobe-knockout="true">

				<g>

					<g>

						<path fill="none" stroke="#000000" a:adobe-knockout="false" d="M42.502,69.898v-18.5"/>

						<path a:adobe-knockout="false" d="M42.603,51.428l-0.1-0.173l-0.1,0.173H42.603z"/>

						<path a:adobe-knockout="false" d="M42.402,69.869l0.1,0.173l0.1-0.173H42.402z"/>

					</g>

					<g>

						<path a:adobe-knockout="false" d="M42.552,51.413l-0.05-0.086l-0.05,0.086H42.552z"/>

						<path a:adobe-knockout="false" d="M42.38,51.338l0,0.199l0.172-0.1L42.38,51.338z"/>

						<path a:adobe-knockout="false" d="M42.451,51.438l0.172,0.1l0-0.2L42.451,51.438z"/>

					</g>

					<g>

						<path a:adobe-knockout="false" d="M42.453,69.884l0.05,0.086l0.05-0.086H42.453z"/>

						<path a:adobe-knockout="false" d="M42.625,69.959l0-0.199l-0.172,0.1L42.625,69.959z"/>

						<path a:adobe-knockout="false" d="M42.554,69.859l-0.172-0.1l0,0.199L42.554,69.859z"/>

					</g>

				</g>

				<g>

					<g>

						<path a:adobe-knockout="false" d="M40.252,69.242l2.244,3.886l2.244-3.886H40.252z"/>

						<path a:adobe-knockout="false" d="M44.812,69.317v-0.199l-0.173,0.1L44.812,69.317z"/>

						<path a:adobe-knockout="false" d="M40.353,69.217l-0.172-0.1v0.2L40.353,69.217z"/>

					</g>

					<g>

						<path a:adobe-knockout="false" d="M44.775,69.279v-0.1l-0.086,0.05L44.775,69.279z"/>

						<path a:adobe-knockout="false" d="M44.665,69.128l-0.1,0.172l0.199,0L44.665,69.128z"/>

						<path a:adobe-knockout="false" d="M44.675,69.25l0.1,0.173l0.1-0.173H44.675z"/>

					</g>

					<g>

						<path a:adobe-knockout="false" d="M40.303,69.229l-0.086-0.05v0.1L40.303,69.229z"/>

						<path a:adobe-knockout="false" d="M40.116,69.25l0.1,0.173l0.1-0.173H40.116z"/>

						<path a:adobe-knockout="false" d="M40.228,69.302l0.199,0l-0.1-0.172L40.228,69.302z"/>

					</g>

				</g>

			</g>

		</g>

		<path fill="none" stroke="#000000" d="M42.502,44.961v-1.625"/>

		<path fill="none" stroke="#000000" d="M42.502,42.211v-1.5"/>

		<path fill="none" stroke="#000000" d="M42.502,39.773v-2.188"/>

		<path fill="none" stroke="#000000" d="M42.502,50.273v-1.625"/>

		<path fill="none" stroke="#000000" d="M42.502,47.711v-1.5"/>

	</g>

</svg>
