<svg xmlns="http://www.w3.org/2000/svg" xmlns:xlink="http://www.w3.org/1999/xlink" xmlns:a="http://ns.adobe.com/AdobeSVGViewerExtensions/3.0/" width="127.385" height="247.769" viewBox="0 0 127.385 247.769" style="overflow:visible;enable-background:new 0 0 127.385 247.769" xml:space="preserve" preserveAspectRatio="xMidYMid meet" zoomAndPan="magnify" version="1.0" contentScriptType="text/ecmascript" contentStyleType="text/css">

	<g id="Layer_1">

	</g>

	<g id="Layer_2">

	</g>

	<g id="lineart">

		<g>

			<path style="fill:#B4B4B4;" d="M104.196,183.624v52.167l-0.5,2.208l-1,1.875l-1.042,1.134l-1.171,1.143l-1.172,0.871     l-1.348,0.872l-1.64,0.925l-1.934,0.763l-1.934,0.599l-1.875,0.49l-1.816,0.326l-1.651,0.294l-1.958,0.208l-1.792,0.083     l-1.75,0.042l-2-0.125l-2.125-0.333l-1.958-0.458l-2.059-0.746l-1.941-0.754l-1.458-0.708l-2.708-1.792l-1.292-0.958     l-1.208-1.083l-1.625-1.708l-1.292-1.5l-1.917-2.833l-1.75-2.75l-0.917-1.167l-0.5-0.75l-0.458-0.5l-0.958-1.083l-0.917-0.917     l-1.292-1.125l-1.083-0.833l-0.917-0.542l-1.625-1l-1.208-0.542l-1.375-0.458l-1.5-0.417l-2.167-0.417l-1.667-0.167l-1.25-0.083     l-1.958-0.042l-2.792,0.25l-2.458,0.375l-1.542,0.333l-1.625,0.542l-1.583,0.5l-2,0.833l-2.125,1.042l-2.958,2.167l-2.5,2.708     l-1.5,3.083l0.125-50.542"/>

			<path style="fill:#A4A4A4;" d="M18.438,189.988"/>

			<path style="fill:none;stroke:#000000;stroke-width:0.25;" d="M59.779,234.291c3.5,6,10.72,13.354,22.711,13.354     c11.991,0,21.711-5.452,21.711-12.179v-52.174"/>

			<path style="fill:none;stroke:#000000;stroke-width:0.25;" d="M59.779,234.313c-3.917-6.377-9.25-12.591-20.708-12.402     c-11.99,0.198-21.71,6.958-21.71,13.554v-51.851"/>

			<path style="fill:#A4A4A4;stroke:#000000;stroke-width:0.25;" d="M104.202,225.917H67.809"/>

			<path style="fill:#A4A4A4;stroke:#000000;stroke-width:0.25;" d="M104.202,211.698H67.529"/>

			<path style="fill:#A4A4A4;stroke:#000000;stroke-width:0.25;" d="M67.62,242.958v-59.313"/>

			<path style="fill:#A4A4A4;stroke:#000000;stroke-width:0.25;" d="M56.537,229.374v-46.083"/>

			<path style="fill:#A4A4A4;stroke:#000000;stroke-width:0.25;" d="M56.452,197.353H17.5"/>

			<path style="fill:#A4A4A4;stroke:#000000;stroke-width:0.25;" d="M56.488,211.515H17.429"/>

			<path style="fill:#A4A4A4;stroke:#000000;stroke-width:0.25;" d="M104.196,197.411H67.675"/>

		</g>

		<path style="fill:#A4A4A4;" d="M127.385,165.728"/>

		<g>

			<path style="fill:#B4B4B4;" d="M17.367,64.145V11.978l0.5-2.208l1-1.875l1.042-1.134l1.171-1.143l1.172-0.871L23.6,3.876     l1.64-0.925l1.934-0.763l1.934-0.599l1.875-0.49l1.816-0.326l1.651-0.294l1.958-0.208L38.2,0.186l1.75-0.042l2,0.125l2.125,0.333     l1.958,0.458l2.059,0.746l1.941,0.754l1.458,0.708L54.2,5.061l1.292,0.958L56.7,7.103l1.625,1.708l1.292,1.5l1.917,2.833     l1.75,2.75l0.917,1.167l0.5,0.75l0.458,0.5l0.958,1.083l0.917,0.917l1.292,1.125l1.083,0.833l0.917,0.542l1.625,1l1.208,0.542     l1.375,0.458l1.5,0.417l2.167,0.417l1.667,0.167l1.25,0.083l1.958,0.042l2.792-0.25l2.458-0.375l1.542-0.333l1.625-0.542     l1.583-0.5l2-0.833l2.125-1.042l2.958-2.167l2.5-2.708l1.5-3.083l-0.125,50.542"/>

			<path style="fill:#A4A4A4;" d="M103.125,57.78"/>

			<path style="fill:none;stroke:#000000;stroke-width:0.25;" d="M61.783,13.478c-3.5-6-10.72-13.354-22.711-13.354     c-11.991,0-21.711,5.452-21.711,12.179v52.174"/>

			<path style="fill:none;stroke:#000000;stroke-width:0.25;" d="M61.783,13.455c3.917,6.377,9.25,12.591,20.708,12.402     c11.99-0.198,21.71-6.958,21.71-13.554v51.851"/>

			<path style="fill:#A4A4A4;stroke:#000000;stroke-width:0.25;" d="M17.361,21.852h36.393"/>

			<path style="fill:#A4A4A4;stroke:#000000;stroke-width:0.25;" d="M17.361,36.071h36.672"/>

			<path style="fill:#A4A4A4;stroke:#000000;stroke-width:0.25;" d="M53.943,4.811v59.313"/>

			<path style="fill:#A4A4A4;stroke:#000000;stroke-width:0.25;" d="M65.025,18.395v46.083"/>

			<path style="fill:#A4A4A4;stroke:#000000;stroke-width:0.25;" d="M65.111,50.416h38.952"/>

			<path style="fill:#A4A4A4;stroke:#000000;stroke-width:0.25;" d="M65.075,36.254h39.059"/>

			<path style="fill:#A4A4A4;stroke:#000000;stroke-width:0.25;" d="M17.367,50.358h36.521"/>

		</g>

		<path style="fill:#B4B4B4;stroke:#000000;stroke-width:0.25;" d="M121.625,185.049H0.125v-121.5h121.5V185.049z"/>

	</g>

</svg>
