<svg xmlns="http://www.w3.org/2000/svg" xmlns:xlink="http://www.w3.org/1999/xlink" xmlns:a="http://ns.adobe.com/AdobeSVGViewerExtensions/3.0/" width="46" height="28" viewBox="0 0 46 28" overflow="visible" enable-background="new 0 0 46 28" xml:space="preserve" preserveAspectRatio="xMidYMid meet" zoomAndPan="magnify" version="1.0" contentScriptType="text/ecmascript" contentStyleType="text/css">

	<g id="Layer_1">

		<g>

			<path fill="#FAA63E" stroke="#000000" d="M45.5,27.5h-45v-27h45V27.5z"/>

			<g>

				<path d="M16.052,12.248c-0.372,0.192-1.152,0.384-2.136,0.384c-2.28,0-3.984-1.44-3.984-4.104c0-2.544,1.716-4.248,4.224-4.248      c0.996,0,1.644,0.216,1.92,0.36l-0.264,0.852c-0.384-0.192-0.948-0.336-1.62-0.336c-1.896,0-3.156,1.212-3.156,3.336      c0,1.992,1.14,3.252,3.096,3.252c0.648,0,1.296-0.132,1.716-0.336L16.052,12.248z"/>

				<path d="M19.544,12.632c-1.56,0-2.784-1.152-2.784-2.988c0-1.944,1.284-3.084,2.88-3.084c1.668,0,2.796,1.212,2.796,2.976      c0,2.16-1.5,3.096-2.88,3.096H19.544z M19.58,11.84c1.008,0,1.764-0.948,1.764-2.268c0-0.984-0.492-2.22-1.74-2.22      c-1.236,0-1.776,1.152-1.776,2.256c0,1.272,0.72,2.232,1.74,2.232H19.58z"/>

				<path d="M23.768,3.98h1.056v8.52h-1.056V3.98z"/>

				<path d="M28.94,12.632c-1.56,0-2.784-1.152-2.784-2.988c0-1.944,1.284-3.084,2.88-3.084c1.668,0,2.796,1.212,2.796,2.976      c0,2.16-1.5,3.096-2.88,3.096H28.94z M28.976,11.84c1.008,0,1.764-0.948,1.764-2.268c0-0.984-0.492-2.22-1.74-2.22      c-1.236,0-1.776,1.152-1.776,2.256c0,1.272,0.72,2.232,1.74,2.232H28.976z"/>

				<path d="M33.176,8.504c0-0.684-0.012-1.272-0.048-1.812h0.924l0.048,1.14h0.036c0.264-0.78,0.912-1.272,1.62-1.272      c0.108,0,0.192,0.012,0.288,0.036V7.58c-0.12-0.012-0.228-0.024-0.372-0.024c-0.744,0-1.272,0.564-1.416,1.344      c-0.024,0.156-0.036,0.324-0.036,0.504V12.5h-1.056L33.176,8.504z"/>

				<path d="M11.3,15.912h4.356v0.876h-3.3v2.688h3.048v0.864h-3.048V24H11.3V15.912z"/>

				<path d="M17.313,17.124c-0.396,0-0.66-0.312-0.66-0.684s0.276-0.672,0.684-0.672c0.408,0,0.672,0.3,0.672,0.672      s-0.264,0.684-0.684,0.684H17.313z M16.809,24v-5.808h1.056V24H16.809z"/>

				<path d="M20.216,21.276c0.024,1.428,0.924,2.016,1.98,2.016c0.756,0,1.224-0.132,1.608-0.288l0.192,0.744      c-0.372,0.168-1.02,0.372-1.944,0.372c-1.776,0-2.856-1.188-2.856-2.928c0-1.764,1.044-3.144,2.736-3.144      c1.896,0,2.388,1.668,2.388,2.736c0,0.216-0.012,0.384-0.036,0.504L20.216,21.276z M23.3,20.52      c0.012-0.66-0.276-1.716-1.452-1.716c-1.08,0-1.536,0.984-1.62,1.716H23.3z"/>

				<path d="M25.628,15.48h1.056V24h-1.056V15.48z"/>

				<path d="M33.452,15.48v7.02c0,0.516,0.012,1.104,0.048,1.5h-0.948l-0.048-1.008H32.48c-0.324,0.648-1.02,1.14-1.968,1.14      c-1.404,0-2.496-1.188-2.496-2.952c-0.012-1.944,1.2-3.12,2.604-3.12c0.9,0,1.5,0.42,1.752,0.876h0.024V15.48H33.452z       M32.396,20.556c0-0.144-0.012-0.312-0.048-0.456c-0.156-0.66-0.732-1.212-1.524-1.212c-1.092,0-1.74,0.96-1.74,2.232      c0,1.188,0.588,2.16,1.716,2.16c0.708,0,1.356-0.48,1.548-1.26c0.036-0.144,0.048-0.288,0.048-0.456V20.556z"/>

			</g>

		</g>

	</g>

</svg>
