<svg xmlns="http://www.w3.org/2000/svg" xmlns:xlink="http://www.w3.org/1999/xlink" xmlns:a="http://ns.adobe.com/AdobeSVGViewerExtensions/3.0/" width="93.751" height="71.625" viewBox="0 0 93.751 71.625" overflow="visible" enable-background="new 0 0 93.751 71.625" xml:space="preserve" preserveAspectRatio="xMidYMid meet" zoomAndPan="magnify" version="1.0" contentScriptType="text/ecmascript" contentStyleType="text/css">

	<g id="Layer_1">

		<g>

			<path fill="#FFFFFF" stroke="#000000" stroke-width="2.25" d="M74.251,1.125L86,12.875v38.5L74.375,63H7.25V1.125h67.5"/>

			<g>

				<path fill="none" stroke="#000000" stroke-width="2.25" d="M87.001,23.625h6.75"/>

				<path fill="none" stroke="#000000" stroke-width="2.25" d="M87.001,39.375h6.75"/>

			</g>

			<g>

				<path fill="none" stroke="#000000" stroke-width="2.25" d="M0,23.499h6.75"/>

				<path fill="none" stroke="#000000" stroke-width="2.25" d="M0,39.249h6.75"/>

			</g>

			<path fill="none" stroke="#000000" d="M68.75,5.375L64,22.625l17.5,4.75"/>

			<path fill="none" stroke="#000000" d="M68.375,57.875l-4.75-17.25l17.5-4.75"/>

			<path fill="none" stroke="#000000" d="M25.779,31.598H14.344"/>

			<path d="M24.688,35.338l6.458-3.729l-6.458-3.729V35.338z"/>

			<path fill="none" stroke="#000000" d="M13.532,31.5c-1.605,0-2.906-2.98-2.906-6.656c0-3.676,1.301-6.656,2.906-6.656     c1.605,0,2.906,2.98,2.906,6.656C16.438,28.52,15.137,31.5,13.532,31.5z"/>

			<path fill="none" stroke="#000000" d="M13.531,45.219c-1.605,0-2.906-2.98-2.906-6.656s1.301-6.656,2.906-6.656     c1.605,0,2.906,2.98,2.906,6.656S15.137,45.219,13.531,45.219z"/>

			<path fill="none" stroke="#000000" d="M57.235,11.172c-0.07-0.258-3.116-2.126-5.109-2.297c-1.513-0.13-2.75,0.951-2.75,2.125     c0,1.174,1.231,2.16,2.75,2.125c1.359-0.031,5.039-1.882,5.109-2.187"/>

			<path fill="none" stroke="#000000" d="M48.118,17.47c-0.07-0.258-3.116-2.125-5.109-2.297c-1.513-0.129-2.75,0.952-2.75,2.125     s1.231,2.16,2.75,2.125c1.359-0.031,5.039-1.883,5.109-2.188"/>

			<path fill="none" stroke="#000000" d="M57.118,24.22c-0.07-0.258-3.116-2.125-5.109-2.297c-1.513-0.129-2.75,0.952-2.75,2.125     s1.231,2.16,2.75,2.125c1.359-0.031,5.039-1.883,5.109-2.188"/>

			<path fill="none" stroke="#FDFF1F" stroke-width="1.5" d="M55.625,71.25"/>

			<path fill="none" stroke="#3F64FF" stroke-width="2" d="M55.625,71.215v-39.75H50.75v18.5h-4.859"/>

			<path fill="none" stroke="#3F64FF" stroke-width="2" d="M41.75,71.625V31.5h4.875v19.037"/>

			<path fill="none" stroke="#000000" d="M59.75,1.625v61.75"/>

			<path fill="none" stroke="#000000" d="M38.125,0.75V62.5"/>

		</g>

	</g>

</svg>
