<svg xmlns="http://www.w3.org/2000/svg" xmlns:xlink="http://www.w3.org/1999/xlink" xmlns:a="http://ns.adobe.com/AdobeSVGViewerExtensions/3.0/" width="112.501" height="80.834" viewBox="0 0 112.501 80.834" overflow="visible" enable-background="new 0 0 112.501 80.834" xml:space="preserve" preserveAspectRatio="xMidYMid meet" zoomAndPan="magnify" version="1.0" contentScriptType="text/ecmascript" contentStyleType="text/css">

	<g id="Layer_1">

		<path fill="#999999" d="M25.986,10.001l13.5,13.333v25.667l-13.5,9.333V10.001z"/>

		<path fill="none" stroke="#000000" d="M98.501,0.834"/>

		<path fill="none" stroke="#000000" d="M102.177,0.368"/>

		<path fill="none" stroke="#000000" d="M111.652,14.501l-71.901,8.652l-13.5-13.318l71.568-9.339"/>

		<path fill="none" stroke="#000000" d="M39.751,23.153v25.966"/>

		<path fill="none" stroke="#000000" d="M97.486,0.501l14.515,13.833v25.25L97.652,50.001"/>

		<path fill="none" stroke="#000000" d="M97.319,10.168l-0.068-3.333"/>

		<path fill="none" stroke="#000000" d="M97.251,15.001v-2.917"/>

		<path fill="none" stroke="#000000" d="M97.251,20.501v-3.417"/>

		<path fill="none" stroke="#000000" d="M97.251,25.501v-3.292"/>

		<path fill="none" stroke="#000000" d="M97.251,30.209v-3"/>

		<path fill="none" stroke="#000000" d="M97.251,36.834v-4"/>

		<path fill="none" stroke="#000000" d="M97.251,43.834v-5.25"/>

		<path fill="none" stroke="#000000" d="M97.819,50.001l-71.568,8.583l13.375-9.466l72.193-9.451"/>

		<g>

			<path d="M64.354,12.119l0.539-0.047c0.025,0.215,0.084,0.392,0.176,0.529c0.092,0.139,0.235,0.25,0.43,0.335     s0.412,0.128,0.655,0.128c0.215,0,0.405-0.032,0.57-0.097c0.165-0.065,0.288-0.153,0.368-0.266s0.121-0.235,0.121-0.368     c0-0.135-0.04-0.252-0.12-0.353c-0.08-0.1-0.209-0.185-0.388-0.253c-0.114-0.045-0.367-0.114-0.758-0.209     c-0.392-0.095-0.666-0.185-0.823-0.269c-0.204-0.107-0.356-0.241-0.456-0.401c-0.101-0.159-0.15-0.338-0.15-0.536     c0-0.217,0.061-0.42,0.184-0.609c0.122-0.189,0.301-0.333,0.536-0.431c0.235-0.098,0.496-0.146,0.784-0.146     c0.317,0,0.596,0.051,0.837,0.153c0.242,0.103,0.429,0.253,0.559,0.452s0.2,0.424,0.21,0.676l-0.547,0.039     c-0.029-0.268-0.128-0.471-0.295-0.607c-0.168-0.137-0.415-0.205-0.742-0.205c-0.341,0-0.589,0.063-0.745,0.188     c-0.156,0.126-0.233,0.278-0.233,0.456c0,0.154,0.055,0.281,0.165,0.38c0.108,0.1,0.392,0.202,0.85,0.307     s0.773,0.195,0.945,0.273c0.251,0.115,0.437,0.262,0.556,0.438c0.12,0.177,0.18,0.38,0.18,0.61c0,0.229-0.065,0.443-0.196,0.646     s-0.318,0.359-0.562,0.471s-0.519,0.168-0.824,0.168c-0.388,0-0.712-0.057-0.974-0.17s-0.467-0.284-0.616-0.512     C64.44,12.663,64.362,12.406,64.354,12.119z"/>

			<path d="M68.333,11.381c0-0.507,0.052-0.916,0.156-1.227s0.259-0.55,0.465-0.716c0.206-0.167,0.465-0.25,0.777-0.25     c0.229,0,0.433,0.046,0.607,0.139s0.318,0.227,0.43,0.401c0.112,0.175,0.2,0.388,0.265,0.638s0.097,0.589,0.097,1.014     c0,0.504-0.052,0.911-0.155,1.222s-0.258,0.55-0.464,0.717s-0.466,0.251-0.779,0.251c-0.414,0-0.738-0.147-0.975-0.441     C68.474,12.771,68.333,12.188,68.333,11.381z M68.872,11.38c0,0.706,0.082,1.175,0.248,1.406s0.369,0.348,0.612,0.348     c0.242,0,0.446-0.116,0.611-0.349c0.165-0.233,0.248-0.701,0.248-1.405c0-0.706-0.083-1.174-0.247-1.406     c-0.165-0.232-0.371-0.348-0.618-0.348c-0.243,0-0.437,0.102-0.583,0.307C68.962,10.194,68.872,10.676,68.872,11.38z"/>

		</g>

		<g>

			<path d="M3.688,26.118l0.539-0.047c0.025,0.215,0.084,0.392,0.176,0.53c0.092,0.138,0.235,0.25,0.43,0.335     c0.194,0.085,0.412,0.127,0.655,0.127c0.215,0,0.405-0.032,0.57-0.097c0.165-0.065,0.288-0.153,0.368-0.266     c0.081-0.112,0.121-0.235,0.121-0.367c0-0.135-0.04-0.252-0.12-0.353c-0.08-0.1-0.209-0.185-0.388-0.253     c-0.114-0.045-0.367-0.115-0.758-0.209c-0.392-0.095-0.666-0.184-0.823-0.269c-0.204-0.107-0.356-0.241-0.456-0.401     c-0.101-0.16-0.15-0.338-0.15-0.536c0-0.217,0.061-0.421,0.184-0.609c0.122-0.189,0.301-0.333,0.536-0.431     c0.235-0.098,0.496-0.147,0.784-0.147c0.317,0,0.596,0.051,0.837,0.154c0.242,0.102,0.429,0.253,0.559,0.452     c0.13,0.199,0.2,0.424,0.21,0.676l-0.547,0.039c-0.029-0.268-0.128-0.47-0.295-0.607c-0.168-0.137-0.415-0.206-0.742-0.206     c-0.341,0-0.589,0.063-0.745,0.189c-0.156,0.126-0.233,0.278-0.233,0.456c0,0.154,0.055,0.281,0.165,0.38     c0.108,0.1,0.392,0.202,0.85,0.306s0.773,0.196,0.945,0.274c0.251,0.115,0.437,0.261,0.556,0.438c0.12,0.177,0.18,0.38,0.18,0.61     c0,0.228-0.065,0.443-0.196,0.646c-0.13,0.202-0.318,0.359-0.562,0.471c-0.244,0.112-0.519,0.168-0.824,0.168     c-0.388,0-0.712-0.057-0.974-0.17s-0.467-0.284-0.616-0.511C3.774,26.663,3.696,26.405,3.688,26.118z"/>

			<path d="M7.69,26.118l0.539-0.047c0.025,0.215,0.084,0.392,0.176,0.53c0.093,0.138,0.235,0.25,0.43,0.335     c0.194,0.085,0.412,0.127,0.655,0.127c0.215,0,0.405-0.032,0.57-0.097c0.165-0.065,0.288-0.153,0.368-0.266     c0.081-0.112,0.121-0.235,0.121-0.367c0-0.135-0.04-0.252-0.12-0.353c-0.08-0.1-0.209-0.185-0.388-0.253     c-0.114-0.045-0.367-0.115-0.758-0.209c-0.392-0.095-0.666-0.184-0.823-0.269c-0.204-0.107-0.356-0.241-0.456-0.401     c-0.101-0.16-0.15-0.338-0.15-0.536c0-0.217,0.061-0.421,0.184-0.609c0.122-0.189,0.301-0.333,0.536-0.431     s0.496-0.147,0.784-0.147c0.316,0,0.596,0.051,0.837,0.154c0.242,0.102,0.429,0.253,0.559,0.452c0.13,0.199,0.2,0.424,0.21,0.676     l-0.547,0.039c-0.029-0.268-0.128-0.47-0.295-0.607c-0.168-0.137-0.415-0.206-0.742-0.206c-0.341,0-0.589,0.063-0.745,0.189     c-0.155,0.126-0.233,0.278-0.233,0.456c0,0.154,0.055,0.281,0.165,0.38c0.108,0.1,0.392,0.202,0.85,0.306     s0.773,0.196,0.945,0.274c0.251,0.115,0.437,0.261,0.556,0.438c0.12,0.177,0.18,0.38,0.18,0.61c0,0.228-0.065,0.443-0.195,0.646     c-0.131,0.202-0.318,0.359-0.563,0.471c-0.244,0.112-0.519,0.168-0.824,0.168c-0.388,0-0.712-0.057-0.974-0.17     s-0.467-0.284-0.616-0.511C7.776,26.663,7.698,26.405,7.69,26.118z"/>

			<path d="M11.411,27.501l1.644-4.297h0.623l1.758,4.297h-0.647l-0.494-1.305h-1.81l-0.47,1.305H11.411z M12.644,25.735h1.47     l-0.451-1.189c-0.135-0.362-0.238-0.661-0.309-0.897c-0.059,0.279-0.139,0.555-0.238,0.826L12.644,25.735z"/>

			<path d="M15.694,26.118l0.539-0.047c0.025,0.215,0.084,0.392,0.176,0.53c0.093,0.138,0.235,0.25,0.43,0.335     c0.194,0.085,0.412,0.127,0.655,0.127c0.215,0,0.405-0.032,0.57-0.097c0.165-0.065,0.288-0.153,0.368-0.266     c0.081-0.112,0.121-0.235,0.121-0.367c0-0.135-0.04-0.252-0.12-0.353c-0.08-0.1-0.209-0.185-0.388-0.253     c-0.114-0.045-0.367-0.115-0.758-0.209c-0.392-0.095-0.666-0.184-0.823-0.269c-0.204-0.107-0.356-0.241-0.456-0.401     c-0.101-0.16-0.15-0.338-0.15-0.536c0-0.217,0.061-0.421,0.184-0.609c0.122-0.189,0.301-0.333,0.536-0.431     s0.496-0.147,0.784-0.147c0.316,0,0.596,0.051,0.837,0.154c0.242,0.102,0.429,0.253,0.559,0.452c0.13,0.199,0.2,0.424,0.21,0.676     l-0.547,0.039c-0.029-0.268-0.128-0.47-0.295-0.607c-0.168-0.137-0.415-0.206-0.742-0.206c-0.341,0-0.589,0.063-0.745,0.189     c-0.155,0.126-0.233,0.278-0.233,0.456c0,0.154,0.055,0.281,0.165,0.38c0.108,0.1,0.392,0.202,0.85,0.306     s0.773,0.196,0.945,0.274c0.251,0.115,0.437,0.261,0.556,0.438c0.12,0.177,0.18,0.38,0.18,0.61c0,0.228-0.065,0.443-0.195,0.646     c-0.131,0.202-0.318,0.359-0.563,0.471c-0.244,0.112-0.519,0.168-0.824,0.168c-0.388,0-0.712-0.057-0.974-0.17     s-0.467-0.284-0.616-0.511C15.78,26.663,15.702,26.405,15.694,26.118z"/>

		</g>

		<path fill="#999999" stroke="#000000" d="M14.24,38.769l0.236,2.049l8.578-5.268l-9.513-3.936l0.301,2.608L0.554,35.754    l0.516,4.47l13.411-1.546"/>

		<g>

			<path d="M66.708,80.834v-4.297h0.585l2.259,3.375v-3.375h0.547v4.297h-0.585l-2.259-3.375v3.375H66.708z"/>

			<path d="M70.573,80.834l1.644-4.297h0.623l1.758,4.297H73.95l-0.494-1.305h-1.809l-0.47,1.305H70.573z M71.807,79.068h1.469     l-0.451-1.189c-0.135-0.362-0.238-0.661-0.309-0.897c-0.059,0.279-0.138,0.555-0.238,0.826L71.807,79.068z"/>

			<path d="M75.043,80.834v-4.297h1.481c0.334,0,0.589,0.021,0.766,0.062c0.247,0.057,0.457,0.16,0.63,0.308     c0.227,0.191,0.396,0.436,0.509,0.734c0.113,0.298,0.169,0.639,0.169,1.021c0,0.327-0.038,0.616-0.114,0.868     s-0.174,0.461-0.293,0.626s-0.25,0.295-0.392,0.39c-0.142,0.095-0.313,0.167-0.513,0.215s-0.431,0.073-0.69,0.073H75.043z      M75.614,80.326h0.918c0.283,0,0.505-0.026,0.667-0.079c0.161-0.053,0.29-0.127,0.385-0.223c0.135-0.135,0.24-0.316,0.315-0.543     c0.075-0.228,0.113-0.503,0.113-0.828c0-0.449-0.074-0.794-0.222-1.036c-0.147-0.241-0.327-0.403-0.538-0.485     c-0.153-0.059-0.398-0.088-0.736-0.088h-0.903V80.326z"/>

			<path d="M79.478,80.834v-4.297h0.57v4.297H79.478z"/>

			<path d="M81.051,80.834v-4.297h1.907c0.383,0,0.674,0.039,0.874,0.116c0.199,0.077,0.359,0.214,0.478,0.409     c0.119,0.196,0.179,0.412,0.179,0.648c0,0.305-0.099,0.563-0.296,0.771c-0.198,0.209-0.502,0.342-0.915,0.399     c0.15,0.072,0.265,0.144,0.343,0.214c0.166,0.152,0.323,0.343,0.471,0.571l0.744,1.168h-0.71l-0.569-0.893     c-0.167-0.258-0.303-0.455-0.411-0.592c-0.107-0.136-0.204-0.232-0.289-0.287s-0.171-0.093-0.259-0.114     c-0.065-0.014-0.17-0.021-0.317-0.021h-0.66v1.906H81.051z M81.622,78.436h1.223c0.26,0,0.463-0.027,0.61-0.081     c0.146-0.054,0.258-0.14,0.334-0.258s0.114-0.247,0.114-0.386c0-0.203-0.074-0.37-0.222-0.501     c-0.147-0.131-0.381-0.196-0.699-0.196h-1.36V78.436z"/>

		</g>

		<g>

			<path d="M89.732,71.501v-4.297h2.906v0.508h-2.336v1.328h2.023v0.508h-2.023v1.953H89.732z"/>

			<path d="M94.114,71.501l-1.131-4.297h0.589l0.648,2.817c0.071,0.295,0.131,0.588,0.181,0.878     c0.109-0.459,0.173-0.724,0.192-0.794l0.815-2.901h0.686l0.615,2.177c0.149,0.541,0.26,1.047,0.333,1.519     c0.06-0.271,0.131-0.583,0.216-0.936l0.669-2.76h0.571l-1.174,4.297H96.77l-0.895-3.272c-0.075-0.273-0.121-0.442-0.138-0.506     c-0.048,0.196-0.091,0.364-0.129,0.503l-0.901,3.275H94.114z"/>

			<path d="M99.037,71.501v-4.297h1.481c0.334,0,0.59,0.021,0.766,0.062c0.246,0.057,0.457,0.159,0.631,0.308     c0.227,0.191,0.396,0.437,0.509,0.734c0.112,0.298,0.168,0.639,0.168,1.021c0,0.326-0.038,0.615-0.114,0.867     c-0.077,0.252-0.174,0.461-0.293,0.626s-0.25,0.295-0.392,0.39s-0.313,0.167-0.513,0.216s-0.431,0.073-0.691,0.073H99.037z      M99.607,70.994h0.917c0.284,0,0.506-0.026,0.667-0.079c0.162-0.053,0.29-0.127,0.386-0.223c0.135-0.135,0.24-0.316,0.315-0.544     s0.113-0.503,0.113-0.827c0-0.449-0.074-0.795-0.221-1.036c-0.148-0.241-0.327-0.402-0.538-0.484     c-0.153-0.059-0.398-0.088-0.736-0.088h-0.903V70.994z"/>

		</g>

		<g>

			<path fill="none" stroke="#F51600" d="M94.001,65.001"/>

		</g>

		<g>

			<g a:adobe-knockout="true">

				<g>

					<g>

						<path fill="#FFFFFF" a:adobe-knockout="false" d="M75.599,39.05l-0.182-0.082l0.02,0.199L75.599,39.05z"/>

						<path fill="#FFFFFF" a:adobe-knockout="false" d="M92.778,63.244l0.182,0.082l-0.02-0.199L92.778,63.244z"/>

					</g>

					<g>

						<path fill="#FFFFFF" a:adobe-knockout="false" d="M75.55,39.067l-0.091-0.041l0.01,0.1L75.55,39.067z"/>

						<path fill="#FFFFFF" a:adobe-knockout="false" d="M75.367,39.107l0.117,0.161l0.082-0.182L75.367,39.107z"/>

						<path fill="#FFFFFF" a:adobe-knockout="false" d="M75.483,39.146l0.198-0.02l-0.117-0.162L75.483,39.146z"/>

					</g>

					<g>

						<path fill="#FFFFFF" a:adobe-knockout="false" d="M92.827,63.227l0.091,0.041l-0.01-0.1L92.827,63.227z"/>

						<path fill="#FFFFFF" a:adobe-knockout="false" d="M93.01,63.187l-0.117-0.161l-0.082,0.182L93.01,63.187z"/>

						<path fill="#FFFFFF" a:adobe-knockout="false" d="M92.894,63.148l-0.198,0.02l0.117,0.162L92.894,63.148z"/>

					</g>

				</g>

				<g>

					<g>

						<path fill="#FFFFFF" a:adobe-knockout="false" d="M90.666,63.992l4.092,1.842l-0.451-4.465L90.666,63.992z"/>

						<path fill="#FFFFFF" a:adobe-knockout="false" d="M94.41,61.389l-0.117-0.162l-0.082,0.182L94.41,61.389z"/>

						<path fill="#FFFFFF" a:adobe-knockout="false" d="M90.734,63.913l-0.199,0.02l0.117,0.162L90.734,63.913z"/>

					</g>

					<g>

						<path fill="#FFFFFF" a:adobe-knockout="false" d="M94.358,61.379L94.3,61.298l-0.041,0.091L94.358,61.379z"/>

						<path fill="#FFFFFF" a:adobe-knockout="false" d="M94.18,61.321l0.02,0.199l0.162-0.117L94.18,61.321z"/>

						<path fill="#FFFFFF" a:adobe-knockout="false" d="M94.26,61.414l0.182,0.082l-0.02-0.199L94.26,61.414z"/>

					</g>

					<g>

						<path fill="#FFFFFF" a:adobe-knockout="false" d="M90.7,63.953l-0.099,0.01l0.058,0.081L90.7,63.953z"/>

						<path fill="#FFFFFF" a:adobe-knockout="false" d="M90.561,64.078l0.182,0.082l-0.02-0.198L90.561,64.078z"/>

						<path fill="#FFFFFF" a:adobe-knockout="false" d="M90.681,64.055l0.162-0.116l-0.182-0.083L90.681,64.055z"/>

					</g>

				</g>

			</g>

			<g a:adobe-knockout="true">

				<g>

					<g>

						<path fill="none" stroke="#000000" a:adobe-knockout="false" d="M92.876,63.209L75.501,39.084"/>

						<path a:adobe-knockout="false" d="M75.599,39.05l-0.182-0.082l0.02,0.199L75.599,39.05z"/>

						<path a:adobe-knockout="false" d="M92.778,63.244l0.182,0.082l-0.02-0.199L92.778,63.244z"/>

					</g>

					<g>

						<path a:adobe-knockout="false" d="M75.55,39.067l-0.091-0.041l0.01,0.1L75.55,39.067z"/>

						<path a:adobe-knockout="false" d="M75.367,39.107l0.117,0.161l0.082-0.182L75.367,39.107z"/>

						<path a:adobe-knockout="false" d="M75.483,39.146l0.198-0.02l-0.117-0.162L75.483,39.146z"/>

					</g>

					<g>

						<path a:adobe-knockout="false" d="M92.827,63.227l0.091,0.041l-0.01-0.1L92.827,63.227z"/>

						<path a:adobe-knockout="false" d="M93.01,63.187l-0.117-0.161l-0.082,0.182L93.01,63.187z"/>

						<path a:adobe-knockout="false" d="M92.894,63.148l-0.198,0.02l0.117,0.162L92.894,63.148z"/>

					</g>

				</g>

				<g>

					<g>

						<path a:adobe-knockout="false" d="M90.666,63.992l4.092,1.842l-0.451-4.465L90.666,63.992z"/>

						<path a:adobe-knockout="false" d="M94.41,61.389l-0.117-0.162l-0.082,0.182L94.41,61.389z"/>

						<path a:adobe-knockout="false" d="M90.734,63.913l-0.199,0.02l0.117,0.162L90.734,63.913z"/>

					</g>

					<g>

						<path a:adobe-knockout="false" d="M94.358,61.379L94.3,61.298l-0.041,0.091L94.358,61.379z"/>

						<path a:adobe-knockout="false" d="M94.18,61.321l0.02,0.199l0.162-0.117L94.18,61.321z"/>

						<path a:adobe-knockout="false" d="M94.26,61.414l0.182,0.082l-0.02-0.199L94.26,61.414z"/>

					</g>

					<g>

						<path a:adobe-knockout="false" d="M90.7,63.953l-0.099,0.01l0.058,0.081L90.7,63.953z"/>

						<path a:adobe-knockout="false" d="M90.561,64.078l0.182,0.082l-0.02-0.198L90.561,64.078z"/>

						<path a:adobe-knockout="false" d="M90.681,64.055l0.162-0.116l-0.182-0.083L90.681,64.055z"/>

					</g>

				</g>

			</g>

		</g>

		<g>

			<g a:adobe-knockout="true">

				<g>

					<g>

						<path fill="#FFFFFF" a:adobe-knockout="false" d="M75.476,52.739l-0.1-0.173l-0.1,0.173H75.476z"/>

						<path fill="#FFFFFF" a:adobe-knockout="false" d="M75.276,71.18l0.1,0.173l0.1-0.173H75.276z"/>

					</g>

					<g>

						<path fill="#FFFFFF" a:adobe-knockout="false" d="M75.426,52.724l-0.05-0.086l-0.05,0.086H75.426z"/>

						<path fill="#FFFFFF" a:adobe-knockout="false" d="M75.254,52.649l0,0.199l0.172-0.1L75.254,52.649z"/>

						<path fill="#FFFFFF" a:adobe-knockout="false" d="M75.325,52.749l0.172,0.1l0-0.2L75.325,52.749z"/>

					</g>

					<g>

						<path fill="#FFFFFF" a:adobe-knockout="false" d="M75.326,71.195l0.05,0.086l0.05-0.086H75.326z"/>

						<path fill="#FFFFFF" a:adobe-knockout="false" d="M75.498,71.27l0-0.199l-0.172,0.1L75.498,71.27z"/>

						<path fill="#FFFFFF" a:adobe-knockout="false" d="M75.427,71.17l-0.172-0.1l0,0.2L75.427,71.17z"/>

					</g>

				</g>

				<g>

					<g>

						<path fill="#FFFFFF" a:adobe-knockout="false" d="M73.125,70.553l2.244,3.886l2.244-3.886H73.125z"/>

						<path fill="#FFFFFF" a:adobe-knockout="false" d="M77.685,70.628v-0.199l-0.173,0.1L77.685,70.628z"/>

						<path fill="#FFFFFF" a:adobe-knockout="false" d="M73.227,70.528l-0.172-0.1v0.2L73.227,70.528z"/>

					</g>

					<g>

						<path fill="#FFFFFF" a:adobe-knockout="false" d="M77.649,70.591v-0.1l-0.086,0.05L77.649,70.591z"/>

						<path fill="#FFFFFF" a:adobe-knockout="false" d="M77.538,70.44l-0.1,0.172l0.199,0L77.538,70.44z"/>

						<path fill="#FFFFFF" a:adobe-knockout="false" d="M77.549,70.562l0.1,0.173l0.1-0.173H77.549z"/>

					</g>

					<g>

						<path fill="#FFFFFF" a:adobe-knockout="false" d="M73.176,70.541l-0.086-0.05v0.1L73.176,70.541z"/>

						<path fill="#FFFFFF" a:adobe-knockout="false" d="M72.99,70.562l0.1,0.173l0.1-0.173H72.99z"/>

						<path fill="#FFFFFF" a:adobe-knockout="false" d="M73.101,70.613l0.199,0l-0.1-0.172L73.101,70.613z"/>

					</g>

				</g>

			</g>

			<g a:adobe-knockout="true">

				<g>

					<g>

						<path fill="none" stroke="#000000" a:adobe-knockout="false" d="M75.376,71.209v-18.5"/>

						<path a:adobe-knockout="false" d="M75.476,52.739l-0.1-0.173l-0.1,0.173H75.476z"/>

						<path a:adobe-knockout="false" d="M75.276,71.18l0.1,0.173l0.1-0.173H75.276z"/>

					</g>

					<g>

						<path a:adobe-knockout="false" d="M75.426,52.724l-0.05-0.086l-0.05,0.086H75.426z"/>

						<path a:adobe-knockout="false" d="M75.254,52.649l0,0.199l0.172-0.1L75.254,52.649z"/>

						<path a:adobe-knockout="false" d="M75.325,52.749l0.172,0.1l0-0.2L75.325,52.749z"/>

					</g>

					<g>

						<path a:adobe-knockout="false" d="M75.326,71.195l0.05,0.086l0.05-0.086H75.326z"/>

						<path a:adobe-knockout="false" d="M75.498,71.27l0-0.199l-0.172,0.1L75.498,71.27z"/>

						<path a:adobe-knockout="false" d="M75.427,71.17l-0.172-0.1l0,0.2L75.427,71.17z"/>

					</g>

				</g>

				<g>

					<g>

						<path a:adobe-knockout="false" d="M73.125,70.553l2.244,3.886l2.244-3.886H73.125z"/>

						<path a:adobe-knockout="false" d="M77.685,70.628v-0.199l-0.173,0.1L77.685,70.628z"/>

						<path a:adobe-knockout="false" d="M73.227,70.528l-0.172-0.1v0.2L73.227,70.528z"/>

					</g>

					<g>

						<path a:adobe-knockout="false" d="M77.649,70.591v-0.1l-0.086,0.05L77.649,70.591z"/>

						<path a:adobe-knockout="false" d="M77.538,70.44l-0.1,0.172l0.199,0L77.538,70.44z"/>

						<path a:adobe-knockout="false" d="M77.549,70.562l0.1,0.173l0.1-0.173H77.549z"/>

					</g>

					<g>

						<path a:adobe-knockout="false" d="M73.176,70.541l-0.086-0.05v0.1L73.176,70.541z"/>

						<path a:adobe-knockout="false" d="M72.99,70.562l0.1,0.173l0.1-0.173H72.99z"/>

						<path a:adobe-knockout="false" d="M73.101,70.613l0.199,0l-0.1-0.172L73.101,70.613z"/>

					</g>

				</g>

			</g>

		</g>

		<path fill="none" stroke="#000000" d="M75.376,46.272v-1.625"/>

		<path fill="none" stroke="#000000" d="M75.376,43.522v-1.5"/>

		<path fill="none" stroke="#000000" d="M75.376,41.084v-2.188"/>

		<path fill="none" stroke="#000000" d="M75.376,51.584v-1.625"/>

		<path fill="none" stroke="#000000" d="M75.376,49.022v-1.5"/>

		<path fill="none" stroke="#000000" d="M97.353,5.168l-0.068-4.333"/>

		<path fill="none" stroke="#000000" d="M97.353,49.668l-0.068-4.334"/>

		<path fill="none" stroke="#000000" d="M25.902,59.084l-0.25-49.417"/>

		<g>

			<path d="M2.934,49.466l0.539-0.047c0.025,0.215,0.084,0.392,0.176,0.53s0.235,0.25,0.429,0.335     c0.194,0.085,0.413,0.127,0.655,0.127c0.215,0,0.405-0.032,0.57-0.097c0.165-0.064,0.288-0.153,0.368-0.266     c0.081-0.112,0.121-0.235,0.121-0.367c0-0.135-0.04-0.252-0.12-0.353s-0.209-0.185-0.387-0.253     c-0.114-0.045-0.367-0.115-0.758-0.209s-0.666-0.184-0.823-0.268C3.5,48.49,3.348,48.356,3.248,48.197     c-0.101-0.16-0.15-0.338-0.15-0.536c0-0.218,0.061-0.421,0.184-0.609c0.122-0.189,0.301-0.333,0.536-0.431     s0.496-0.147,0.784-0.147c0.316,0,0.596,0.051,0.837,0.154c0.242,0.103,0.428,0.253,0.558,0.452c0.13,0.198,0.2,0.424,0.21,0.675     L5.66,47.794c-0.029-0.268-0.127-0.47-0.295-0.607s-0.415-0.206-0.742-0.206c-0.341,0-0.589,0.063-0.745,0.189     s-0.234,0.277-0.234,0.455c0,0.154,0.055,0.281,0.166,0.381c0.108,0.1,0.392,0.202,0.85,0.307     c0.458,0.104,0.773,0.195,0.945,0.273c0.251,0.115,0.436,0.261,0.556,0.438s0.179,0.38,0.179,0.61     c0,0.229-0.065,0.443-0.195,0.646c-0.131,0.202-0.318,0.358-0.562,0.471c-0.245,0.112-0.519,0.168-0.825,0.168     c-0.387,0-0.712-0.057-0.974-0.17s-0.467-0.284-0.616-0.511S2.941,49.753,2.934,49.466z"/>

			<path d="M6.912,48.729c0-0.507,0.052-0.916,0.156-1.227c0.104-0.311,0.26-0.549,0.465-0.716c0.206-0.166,0.465-0.25,0.777-0.25     c0.23,0,0.433,0.046,0.607,0.139s0.318,0.227,0.43,0.401s0.2,0.387,0.264,0.638c0.064,0.251,0.097,0.589,0.097,1.015     c0,0.504-0.052,0.911-0.155,1.222c-0.103,0.311-0.258,0.55-0.463,0.717c-0.206,0.168-0.466,0.251-0.78,0.251     c-0.414,0-0.738-0.147-0.974-0.441C7.054,50.118,6.912,49.535,6.912,48.729z M7.451,48.728c0,0.707,0.083,1.175,0.248,1.407     c0.165,0.231,0.369,0.347,0.611,0.347s0.446-0.116,0.611-0.349c0.166-0.232,0.248-0.7,0.248-1.405     c0-0.706-0.083-1.174-0.247-1.406c-0.165-0.232-0.371-0.348-0.618-0.348c-0.242,0-0.437,0.102-0.583,0.307     C7.542,47.542,7.451,48.024,7.451,48.728z"/>

			<path d="M9.999,50.919l1.242-4.438h0.425l-1.242,4.438H9.999z"/>

			<path d="M11.939,49.466l0.539-0.047c0.025,0.215,0.084,0.392,0.176,0.53s0.235,0.25,0.429,0.335     c0.194,0.085,0.413,0.127,0.655,0.127c0.215,0,0.405-0.032,0.57-0.097c0.165-0.064,0.288-0.153,0.368-0.266     c0.081-0.112,0.121-0.235,0.121-0.367c0-0.135-0.04-0.252-0.12-0.353s-0.209-0.185-0.387-0.253     c-0.114-0.045-0.367-0.115-0.758-0.209s-0.666-0.184-0.823-0.268c-0.205-0.108-0.356-0.242-0.457-0.401     c-0.101-0.16-0.15-0.338-0.15-0.536c0-0.218,0.061-0.421,0.184-0.609c0.122-0.189,0.301-0.333,0.536-0.431     s0.496-0.147,0.784-0.147c0.316,0,0.596,0.051,0.837,0.154c0.242,0.103,0.428,0.253,0.558,0.452c0.13,0.198,0.2,0.424,0.21,0.675     l-0.547,0.039c-0.029-0.268-0.127-0.47-0.295-0.607s-0.415-0.206-0.742-0.206c-0.341,0-0.589,0.063-0.745,0.189     s-0.234,0.277-0.234,0.455c0,0.154,0.055,0.281,0.166,0.381c0.108,0.1,0.392,0.202,0.85,0.307     c0.458,0.104,0.773,0.195,0.945,0.273c0.251,0.115,0.436,0.261,0.556,0.438s0.179,0.38,0.179,0.61     c0,0.229-0.065,0.443-0.195,0.646c-0.131,0.202-0.318,0.358-0.562,0.471c-0.245,0.112-0.519,0.168-0.825,0.168     c-0.387,0-0.712-0.057-0.974-0.17s-0.467-0.284-0.616-0.511S11.947,49.753,11.939,49.466z"/>

			<path d="M17.902,50.849h-0.531v-3.36c-0.126,0.121-0.291,0.242-0.496,0.363c-0.204,0.121-0.388,0.212-0.551,0.272v-0.51     c0.293-0.139,0.55-0.307,0.77-0.504c0.219-0.197,0.375-0.389,0.466-0.574h0.342V50.849z"/>

		</g>

	</g>

</svg>
