<svg xmlns="http://www.w3.org/2000/svg" xmlns:xlink="http://www.w3.org/1999/xlink" xmlns:a="http://ns.adobe.com/AdobeSVGViewerExtensions/3.0/" width="75.5" height="20.99" viewBox="0 0 75.5 20.99" overflow="visible" enable-background="new 0 0 75.5 20.99" xml:space="preserve" preserveAspectRatio="xMidYMid meet" zoomAndPan="magnify" version="1.0" contentScriptType="text/ecmascript" contentStyleType="text/css">

	<g id="Layer_1">

		<path fill="#E6E6E6" d="M66.063,20.875c5.213,0,9.438-4.673,9.438-10.438S71.275,0,66.063,0H9.438C4.225,0,0,4.673,0,10.438    s4.225,10.438,9.438,10.438H66.063z"/>

		<path fill="#414141" stroke="#414141" d="M65.943,20.5c5.002,0,9.057-4.029,9.057-9s-4.055-9-9.057-9H11.599    c-5.002,0-9.057,4.029-9.057,9s4.055,9,9.057,9H65.943z"/>

		<path fill="#B4B4B4" stroke="#414141" stroke-width="0.5" d="M64.625,19.75c4.971,0,9-4.029,9-9s-4.029-9-9-9h-54    c-4.971,0-9,4.029-9,9s4.029,9,9,9H64.625z"/>

	</g>

</svg>
