<svg xmlns="http://www.w3.org/2000/svg" xmlns:xlink="http://www.w3.org/1999/xlink" xmlns:a="http://ns.adobe.com/AdobeSVGViewerExtensions/3.0/" width="29.25" height="16.583" viewBox="0 0 29.25 16.583" overflow="visible" enable-background="new 0 0 29.25 16.583" xml:space="preserve" preserveAspectRatio="xMidYMid meet" zoomAndPan="magnify" version="1.0" contentScriptType="text/ecmascript" contentStyleType="text/css">

	<g id="Layer_1">

		<path fill="none" stroke="#000000" stroke-width="0.25" d="M29.125,16.458h-29V0.125h29V16.458z"/>

		<path fill="none" stroke="#000000" stroke-width="0.25" d="M4.25,2.563c0,0.587-0.476,1.063-1.063,1.063S2.125,3.149,2.125,2.563    S2.601,1.5,3.188,1.5S4.25,1.976,4.25,2.563z"/>

		<path fill="none" stroke="#000000" stroke-width="0.25" d="M3.844,3.531l1.469,1.656"/>

		<path fill="none" stroke="#000000" stroke-width="0.25" d="M4.25,2.219l2.438-0.188"/>

		<path fill="none" stroke="#000000" stroke-width="0.25" d="M4.156,2.969L7,4.25"/>

		<g a:adobe-knockout="true">

			<path stroke="#000000" stroke-width="0.25" a:adobe-knockout="false" d="M8.313,4.688l2.889,1.432"/>

			<path stroke="#000000" stroke-width="0.25" a:adobe-knockout="false" d="M10.532,6.521l2.455,0.456l-1.905-1.66L10.532,6.521z"/>

		</g>

		<path fill="none" stroke="#000000" stroke-width="0.25" d="M4.25,14.04c0-0.587-0.476-1.063-1.063-1.063s-1.063,0.476-1.063,1.063    s0.476,1.063,1.063,1.063S4.25,14.627,4.25,14.04z"/>

		<path fill="none" stroke="#000000" stroke-width="0.25" d="M3.844,13.071l1.469-1.656"/>

		<path fill="none" stroke="#000000" stroke-width="0.25" d="M4.25,14.384l2.438,0.188"/>

		<path fill="none" stroke="#000000" stroke-width="0.25" d="M4.156,13.634L7,12.353"/>

		<g a:adobe-knockout="true">

			<path stroke="#000000" stroke-width="0.25" a:adobe-knockout="false" d="M8.313,11.915l2.863-1.484"/>

			<path stroke="#000000" stroke-width="0.25" a:adobe-knockout="false" d="M10.512,10.015l2.433-0.472l-1.888,1.72L10.512,10.015z     "/>

		</g>

		<path fill="none" stroke="#000000" stroke-width="0.25" d="M25.028,2.563c0,0.587,0.476,1.063,1.063,1.063    s1.063-0.476,1.063-1.063S26.678,1.5,26.091,1.5S25.028,1.976,25.028,2.563z"/>

		<path fill="none" stroke="#000000" stroke-width="0.25" d="M25.435,3.531l-1.469,1.656"/>

		<path fill="none" stroke="#000000" stroke-width="0.25" d="M25.028,2.219l-2.438-0.188"/>

		<path fill="none" stroke="#000000" stroke-width="0.25" d="M25.122,2.969L22.278,4.25"/>

		<g a:adobe-knockout="true">

			<path stroke="#000000" stroke-width="0.25" a:adobe-knockout="false" d="M20.966,4.688l-3.095,1.51"/>

			<path stroke="#000000" stroke-width="0.25" a:adobe-knockout="false" d="M18.587,6.621l-2.629,0.48l2.041-1.75L18.587,6.621z"/>

		</g>

		<path fill="none" stroke="#000000" stroke-width="0.25" d="M25.028,14.04c0-0.587,0.476-1.063,1.063-1.063    s1.063,0.476,1.063,1.063s-0.476,1.063-1.063,1.063S25.028,14.627,25.028,14.04z"/>

		<path fill="none" stroke="#000000" stroke-width="0.25" d="M25.435,13.071l-1.469-1.656"/>

		<path fill="none" stroke="#000000" stroke-width="0.25" d="M25.028,14.384l-2.438,0.188"/>

		<path fill="none" stroke="#000000" stroke-width="0.25" d="M25.122,13.634l-2.844-1.281"/>

		<g a:adobe-knockout="true">

			<path stroke="#000000" stroke-width="0.25" a:adobe-knockout="false" d="M20.966,11.915l-3.044-1.537"/>

			<path stroke="#000000" stroke-width="0.25" a:adobe-knockout="false" d="M18.627,9.948l-2.586-0.489l2.007,1.781L18.627,9.948z"/>

		</g>

	</g>

</svg>
