<!-- Generator: Adobe Illustrator 10.0, SVG Export Plug-In . SVG Version: 3.0.0 Build 76)  -->
<svg xmlns="http://www.w3.org/2000/svg" xmlns:xlink="http://www.w3.org/1999/xlink" xmlns:a="http://ns.adobe.com/AdobeSVGViewerExtensions/3.0/" width="27" height="42.333" viewBox="0 0 27 42.333" overflow="visible" enable-background="new 0 0 27 42.333" xml:space="preserve">

	<g id="Layer_1">

		<path fill="#FFFFFF" stroke="#000000" stroke-width="0.25" d="M18.625,10.333c5.208-0.292,6.542-2.447,6.542-5.208     c0-2.762-2.239-5-5-5c-0.07,0-9.14,0.001-9.209,0.004L9.5,1.583v11.958l0.667,1"/>

		<path stroke="#000000" stroke-width="0.25" d="M26.875,42.208H0.125v-3.25h26.75V42.208z"/>

		<path fill="#B4B4B4" stroke="#000000" stroke-width="0.5" d="M5,38.75l-1.708-0.208l-0.833-0.583l0.792-0.667l1.708-0.25h17.167     l1.5,0.292L24.542,38l-0.75,0.542l-1.625,0.208H5z"/>

		<path fill="#B4B4B4" stroke="#000000" stroke-width="0.5" d="M4.917,36.792l-1.708-0.208L2.375,36l0.792-0.667l1.708-0.25h17.167     l1.5,0.292l0.917,0.667l-0.75,0.542l-1.625,0.208H4.917z"/>

		<path fill="#B4B4B4" stroke="#000000" stroke-width="0.5" d="M4.833,34.833l-1.708-0.208l-0.833-0.583l0.792-0.667l1.708-0.25     h17.167l1.5,0.292l0.917,0.667l-0.75,0.542L22,34.833H4.833z"/>

		<path stroke="#000000" stroke-width="0.25" d="M4.792,32.875h3.042l0.417-0.542h10.458l0.375,0.542h2.833"/>

		<path fill="#FFFFFF" stroke="#000000" stroke-width="0.2503" d="M17,1.042v4.805l-1.292,1.044h-4.833L10.25,7.935v20.848     l-1.375,1.629H6.792v1.671h13.375v-1.671h-2.125l-1.083-1.254V12.28l1.708-1.964"/>

		<g>

			<path fill="none" stroke="#000000" stroke-width="0.25" d="M16.875,2.333h-5.417l-1.167,0.625"/>

			<path fill="none" stroke="#000000" stroke-width="0.25" d="M17.25,0.208v0.75h-5.542L10.25,1.875v3.917l0.625,1.083"/>

		</g>

		<path fill="#B4B4B4" stroke="#000000" stroke-width="0.25" d="M14.333,4.438c0,0.472-0.382,0.854-0.854,0.854     c-0.472,0-0.854-0.382-0.854-0.854c0-0.472,0.382-0.854,0.854-0.854C13.951,3.583,14.333,3.966,14.333,4.438z"/>

		<path fill="#FFFFFF" stroke="#000000" stroke-width="0.25" d="M13.833,4.479c0,0.207-0.168,0.375-0.375,0.375     s-0.375-0.168-0.375-0.375s0.168-0.375,0.375-0.375S13.833,4.272,13.833,4.479z"/>

		<path fill="#B4B4B4" stroke="#000000" stroke-width="0.25" d="M22.958,4.187c0,0.955-0.942,1.729-2.104,1.729     c-1.162,0-2.104-0.774-2.104-1.729c0-0.954,0.942-1.729,2.104-1.729C22.017,2.458,22.958,3.233,22.958,4.187z"/>

		<path fill="none" stroke="#000000" stroke-width="0.25" d="M22.042,4.208c0,0.575-0.513,1.042-1.146,1.042     S19.75,4.784,19.75,4.208c0-0.576,0.513-1.042,1.146-1.042S22.042,3.633,22.042,4.208z"/>

		<path fill="#FFFFFF" stroke="#000000" stroke-width="0.25" d="M21.396,4.292c0,0.207-0.238,0.375-0.531,0.375     s-0.531-0.168-0.531-0.375s0.238-0.375,0.531-0.375S21.396,4.084,21.396,4.292z"/>

	</g>

</svg>
