<!-- Generator: Adobe Illustrator 10.0, SVG Export Plug-In . SVG Version: 3.0.0 Build 76)  -->
<svg xmlns="http://www.w3.org/2000/svg" xmlns:xlink="http://www.w3.org/1999/xlink" xmlns:a="http://ns.adobe.com/AdobeSVGViewerExtensions/3.0/" width="63.219" height="63.473" viewBox="0 0 63.219 63.473" overflow="visible" enable-background="new 0 0 63.219 63.473" xml:space="preserve" preserveAspectRatio="xMidYMid meet" zoomAndPan="magnify" version="1.0" contentScriptType="text/ecmascript" contentStyleType="text/css">
	<g id="Layer_1">
		<path fill="#FF9F00" d="M63.215,63.467H0.014V0h63.201V63.467z"/>
		<path d="M10.415,0l-10.4,10.667V0H10.415z"/>
		<path stroke="#000000" stroke-width="12" d="M28.54,0.119"/>
		<path d="M0.015,21.867V35.6L35.481,0H21.748L0.015,21.867z"/>
		<path d="M0,48.723v13.813L62.348,0h-13.8L0,48.723z"/>
		<path d="M12.415,63.467l14.117,0.006l36.688-36.516v-14.5L12.415,63.467z"/>
		<path d="M40.469,63.473h13.469l9.266-9.156V40.707L40.469,63.473z"/>
		<path fill="#656565" d="M53.615,50.133h-43.2V13.066h43.2V50.133z"/>
		<path fill="none" stroke="#FFFFFF" stroke-width="2" d="M31.748,17.6l-14.133,7.467V39.2l14.133,6.933l14.4-6.933V24.8    L31.748,17.6z"/>
		<path fill="#FFFFFF" d="M31.768,19.701l-12.053,6.297v11.921l12.053,5.848l12.28-5.848V25.773L31.768,19.701z"/>
		<path fill="none" stroke="#656565" stroke-width="2" d="M44.548,36.533H19.481v-8.8h25.067V36.533z"/>
		<path fill="#656565" d="M19.748,34.4h-2.667v-4.267h2.667V34.4z"/>
		<path fill="#656565" d="M46.437,34.4H44.26v-4.268h2.177V34.4z"/>
		<path fill="#BBBBBB" stroke="#656565" d="M10.148,57.2c0,1.988-1.612,3.6-3.6,3.6s-3.6-1.612-3.6-3.6V6.8    c0-1.988,1.612-3.6,3.6-3.6s3.6,1.612,3.6,3.6V57.2z"/>
		<path fill="#FFFFFF" d="M9.348,56.387c0,1.929-1.289,3.492-2.88,3.492s-2.88-1.563-2.88-3.492V7.492C3.588,5.563,4.877,4,6.468,4    s2.88,1.563,2.88,3.492V56.387z"/>
		<path fill="#BBBBBB" stroke="#656565" d="M60.548,57.2c0,1.988-1.612,3.6-3.6,3.6s-3.6-1.612-3.6-3.6V6.8    c0-1.988,1.612-3.6,3.6-3.6s3.6,1.612,3.6,3.6V57.2z"/>
		<path fill="#FFFFFF" d="M59.748,56.387c0,1.929-1.29,3.492-2.88,3.492c-1.59,0-2.88-1.563-2.88-3.492V7.492    c0-1.929,1.29-3.492,2.88-3.492c1.591,0,2.88,1.563,2.88,3.492V56.387z"/>
	</g>
</svg>
