<!-- Generator: Adobe Illustrator 10.0, SVG Export Plug-In . SVG Version: 3.0.0 Build 76)  -->
<svg xmlns="http://www.w3.org/2000/svg" xmlns:xlink="http://www.w3.org/1999/xlink" xmlns:a="http://ns.adobe.com/AdobeSVGViewerExtensions/3.0/" width="28.351" height="31.073" viewBox="0 0 28.351 31.073" overflow="visible" enable-background="new 0 0 28.351 31.073" xml:space="preserve" preserveAspectRatio="xMidYMid meet" zoomAndPan="magnify" version="1.0" contentScriptType="text/ecmascript" contentStyleType="text/css">
	<g id="Layer_1">
		<path fill="none" stroke="#000000" stroke-width="0.5" d="M18.05,2.103c2.32,0.117,4.608,0.823,6.369,2.311    c5.222,4.411,4.867,13.415-0.791,20.113c-5.658,6.698-14.477,8.551-19.697,4.141c-4.784-4.041-4.875-12.336-0.506-18.783V8.166    l14.625-7.75V2.103z"/>
		<path fill="none" stroke="#000000" stroke-width="0.25" d="M20.55,2.509c4.979,4.067,6.187,11.635,2.683,18.148    c-4.308,8.008-14.371,9.07-19.433,6.508c-1.28-0.648-2.188-1.5-2.75-2.609"/>
		<path fill="none" stroke="#000000" stroke-width="0.25" d="M3.3,9.999l14.708-7.833"/>
		<path fill="none" stroke="#000000" stroke-width="0.2623" d="M7.522,23.145c-2.32-0.402-2.985-1.874-3.573-3.524    c-1.194-3.355-0.344-8.668,1.856-10.595"/>
		<path fill="none" stroke="#000000" stroke-width="0.25" d="M16.763,6.095c2.105,0.657,3.906,2.031,4.979,4.02    c1.965,3.644,0.86,8.2-2.401,11.132"/>
		<path fill="none" stroke="#000000" stroke-width="0.2611" d="M7.362,19.978c0.066,0.135,0.271,0.438,0.313,0.792    c0.083,0.705-0.525,1.083-1.25,1.083s-1.479-0.583-1.208-1.75l3.917-6.563L7.362,19.978z"/>
		<path fill="none" stroke="#000000" stroke-width="0.25" d="M11.404,12.749l7.328,6.641c0.272,0.175,0.596,0.276,0.943,0.276    c0.966,0,1.75-0.784,1.75-1.75c0-0.563-0.266-1.063-0.678-1.383l-8.634-4.492"/>
		<path fill="none" stroke="#000000" stroke-width="0.25" d="M11.446,12.791c-0.333-0.528-0.099-0.854,0.417-0.854    c0.146,0,0.241,0.128,0.313,0.143"/>
		<path fill="none" stroke="#000000" stroke-width="0.25" d="M15.841,16.853c-0.059,0.93-0.909,1.679-1.938,1.771    c-0.938,0.083-1.958-0.625-1.937-1.77c0.028-1.528,1.166-2.063,2.144-1.688"/>
		<path fill="none" stroke="#000000" stroke-width="0.25" d="M10.472,12.134c-0.344-0.672-0.318-1.125-0.318-1.74    c0-1.45,0.883-2.57,2.146-2.646c1.042-0.063,1.75,0.432,1.453,1.088"/>
		<path fill="none" stroke="#000000" stroke-width="0.25" d="M10.404,11.978L12.8,7.707"/>
		<path fill="none" stroke="#000000" stroke-width="0.25" d="M10.472,12.004l3.313-3.198"/>
		<path stroke="#000000" stroke-width="0.4928" d="M5.55,8.982l6.625,6.621l0.438-0.438l0.854-0.375L6.758,8.416L5.55,8.982z"/>
		<path stroke="#000000" stroke-width="0.25" d="M11.091,5.478c0,0.38-0.345,0.688-0.771,0.688c-0.425,0-0.771-0.308-0.771-0.688    s0.345-0.688,0.771-0.688C10.746,4.791,11.091,5.098,11.091,5.478z"/>
	</g>
</svg>
