<!-- Generator: Adobe Illustrator 10.0, SVG Export Plug-In . SVG Version: 3.0.0 Build 76)  -->
<svg xmlns="http://www.w3.org/2000/svg" xmlns:xlink="http://www.w3.org/1999/xlink" xmlns:a="http://ns.adobe.com/AdobeSVGViewerExtensions/3.0/" width="54.995" height="54.995" viewBox="0 0 54.995 54.995" overflow="visible" enable-background="new 0 0 54.995 54.995" xml:space="preserve" preserveAspectRatio="xMidYMid meet" zoomAndPan="magnify" version="1.0" contentScriptType="text/ecmascript" contentStyleType="text/css">
	<g id="Layer_1">
		<path fill="#FFFFFF" d="M0.831,26.831l0.5,6.167l4.5,0.167l18.833,0.333h16.167l12.5-0.167l1.167-3.667l-0.5-4.333l-0.333-2.833    l-0.333-1.333L1.664,21.331l-1.167,4.833L0.831,26.831z"/>
		<path fill="none" stroke="#000000" d="M54.498,27.498c0,14.912-12.088,27-27,27s-27-12.088-27-27s12.088-27,27-27    S54.498,12.586,54.498,27.498z"/>
		<path fill="#FFFFFF" stroke="#000000" d="M53.998,33.748H1.248"/>
		<path fill="#FFFFFF" stroke="#000000" d="M53.998,21.248H1.248"/>
		<path d="M22.81,46.498v-0.793c-0.394,0.623-0.972,0.934-1.735,0.934c-0.495,0-0.95-0.137-1.365-0.411    c-0.415-0.273-0.736-0.656-0.964-1.147s-0.342-1.056-0.342-1.693c0-0.622,0.103-1.187,0.309-1.693s0.515-0.896,0.927-1.165    c0.412-0.271,0.873-0.405,1.383-0.405c0.373,0,0.706,0.079,0.997,0.238c0.292,0.159,0.529,0.365,0.712,0.62v-3.076h1.063v8.594    H22.81z M19.482,43.383c0,0.797,0.168,1.394,0.505,1.788s0.734,0.592,1.192,0.592c0.462,0,0.854-0.188,1.178-0.565    c0.323-0.377,0.484-0.953,0.484-1.727c0-0.852-0.165-1.477-0.493-1.876c-0.329-0.398-0.734-0.598-1.216-0.598    c-0.47,0-0.862,0.191-1.178,0.574C19.639,41.955,19.482,42.559,19.482,43.383z"/>
		<path d="M29.722,44.482l1.086,0.141c-0.172,0.639-0.49,1.134-0.955,1.487c-0.465,0.353-1.058,0.529-1.781,0.529    c-0.91,0-1.631-0.281-2.164-0.842c-0.533-0.562-0.8-1.349-0.8-2.363c0-1.049,0.27-1.862,0.809-2.441    c0.539-0.579,1.237-0.869,2.097-0.869c0.832,0,1.511,0.284,2.038,0.852s0.791,1.367,0.791,2.397c0,0.063-0.002,0.157-0.006,0.282    h-4.65c0.039,0.682,0.233,1.204,0.582,1.566c0.35,0.362,0.785,0.543,1.306,0.543c0.388,0,0.719-0.102,0.994-0.306    C29.343,45.254,29.561,44.929,29.722,44.482z M26.25,42.779h3.484c-0.047-0.521-0.181-0.913-0.399-1.174    c-0.337-0.405-0.774-0.607-1.311-0.607c-0.486,0-0.894,0.162-1.225,0.485S26.285,42.238,26.25,42.779z"/>
		<path d="M31.939,47.013l1.031,0.141c0.043,0.321,0.162,0.556,0.357,0.702c0.261,0.198,0.619,0.298,1.071,0.298    c0.488,0,0.864-0.098,1.13-0.293c0.265-0.196,0.444-0.47,0.538-0.821c0.055-0.215,0.08-0.667,0.076-1.354    c-0.462,0.542-1.038,0.813-1.727,0.813c-0.857,0-1.521-0.309-1.991-0.928c-0.47-0.618-0.705-1.359-0.705-2.225    c0-0.595,0.107-1.144,0.322-1.646s0.527-0.892,0.936-1.165c0.409-0.274,0.889-0.411,1.44-0.411c0.735,0,1.341,0.302,1.818,0.906    v-0.766h0.969v5.39c0,0.971-0.099,1.659-0.295,2.064c-0.197,0.405-0.509,0.725-0.936,0.96c-0.428,0.235-0.953,0.352-1.577,0.352    c-0.741,0-1.34-0.167-1.796-0.502C32.144,48.191,31.923,47.687,31.939,47.013z M32.798,43.269c0,0.818,0.163,1.415,0.489,1.79    c0.326,0.376,0.735,0.563,1.227,0.563c0.487,0,0.896-0.187,1.227-0.561c0.33-0.374,0.495-0.959,0.495-1.758    c0-0.763-0.17-1.338-0.51-1.726c-0.34-0.387-0.75-0.581-1.229-0.581c-0.472,0-0.873,0.191-1.203,0.572    C32.963,41.952,32.798,42.518,32.798,43.269z"/>
	</g>
</svg>
