<!-- Generator: Adobe Illustrator 10.0, SVG Export Plug-In . SVG Version: 3.0.0 Build 76)  -->
<svg xmlns="http://www.w3.org/2000/svg" xmlns:xlink="http://www.w3.org/1999/xlink" xmlns:a="http://ns.adobe.com/AdobeSVGViewerExtensions/3.0/" width="28" height="28" viewBox="0 0 28 28" overflow="visible" enable-background="new 0 0 28 28" xml:space="preserve" preserveAspectRatio="xMidYMid meet" zoomAndPan="magnify" version="1.0" contentScriptType="text/ecmascript" contentStyleType="text/css">
	<g id="Layer_1">
	</g>
	<g id="Layer_2">
		<path fill="#FFFFFF" stroke="#000000" d="M27.5,27.5h-27v-27h27V27.5z"/>
		<path d="M4.348,17.76v-5.75h0.641v0.535c0.151-0.209,0.322-0.367,0.513-0.472c0.191-0.104,0.422-0.157,0.693-0.157    c0.355,0,0.669,0.091,0.94,0.274s0.477,0.44,0.615,0.773s0.208,0.697,0.208,1.094c0,0.425-0.076,0.808-0.229,1.148    c-0.152,0.341-0.375,0.602-0.666,0.783c-0.292,0.181-0.597,0.272-0.918,0.272c-0.235,0-0.446-0.05-0.633-0.148    s-0.34-0.224-0.46-0.375v2.023H4.348z M4.973,14.11c0,0.536,0.109,0.932,0.327,1.188c0.218,0.256,0.482,0.384,0.792,0.384    c0.315,0,0.585-0.133,0.81-0.398s0.337-0.676,0.337-1.233c0-0.53-0.11-0.928-0.329-1.192s-0.481-0.396-0.786-0.396    c-0.302,0-0.569,0.141-0.802,0.422C5.089,13.166,4.973,13.575,4.973,14.11z"/>
		<path d="M8.797,17.76v-5.75h0.641v0.535c0.151-0.209,0.322-0.367,0.513-0.472c0.191-0.104,0.422-0.157,0.693-0.157    c0.355,0,0.669,0.091,0.94,0.274s0.477,0.44,0.615,0.773s0.208,0.697,0.208,1.094c0,0.425-0.076,0.808-0.229,1.148    c-0.152,0.341-0.375,0.602-0.666,0.783c-0.292,0.181-0.597,0.272-0.918,0.272c-0.235,0-0.446-0.05-0.633-0.148    s-0.34-0.224-0.46-0.375v2.023H8.797z M9.422,14.11c0,0.536,0.109,0.932,0.327,1.188c0.218,0.256,0.482,0.384,0.792,0.384    c0.315,0,0.585-0.133,0.81-0.398s0.337-0.676,0.337-1.233c0-0.53-0.11-0.928-0.329-1.192s-0.481-0.396-0.786-0.396    c-0.302,0-0.569,0.141-0.802,0.422C9.539,13.166,9.422,13.575,9.422,14.11z"/>
		<path d="M13.122,13.375c0-0.95,0.254-1.693,0.762-2.231s1.165-0.806,1.968-0.806c0.526,0,1.001,0.126,1.424,0.379    c0.422,0.252,0.745,0.604,0.966,1.056c0.222,0.452,0.333,0.964,0.333,1.536c0,0.581-0.117,1.1-0.35,1.558s-0.564,0.805-0.992,1.04    c-0.428,0.236-0.89,0.354-1.385,0.354c-0.537,0-1.017-0.13-1.439-0.391c-0.423-0.26-0.743-0.615-0.96-1.065    S13.122,13.878,13.122,13.375z M13.903,13.385c0,0.688,0.185,1.229,0.553,1.625c0.369,0.396,0.832,0.594,1.388,0.594    c0.567,0,1.033-0.2,1.399-0.6c0.366-0.399,0.55-0.967,0.55-1.701c0-0.464-0.078-0.87-0.235-1.217    c-0.157-0.346-0.386-0.615-0.687-0.806c-0.302-0.19-0.641-0.286-1.016-0.286c-0.533,0-0.992,0.184-1.376,0.551    S13.903,12.526,13.903,13.385z"/>
		<path d="M22.977,16.495v0.672H19.18c-0.005-0.169,0.022-0.332,0.083-0.488c0.097-0.258,0.252-0.511,0.467-0.76    c0.214-0.249,0.521-0.537,0.92-0.864c0.62-0.516,1.04-0.923,1.261-1.221s0.332-0.58,0.332-0.849c0-0.278-0.1-0.513-0.299-0.704    s-0.46-0.287-0.781-0.287c-0.339,0-0.61,0.104-0.814,0.311s-0.307,0.494-0.309,0.861l-0.719-0.094    c0.049-0.539,0.235-0.95,0.558-1.232c0.323-0.282,0.756-0.424,1.3-0.424c0.549,0,0.983,0.152,1.303,0.457s0.48,0.683,0.48,1.133    c0,0.229-0.047,0.455-0.14,0.676c-0.094,0.221-0.248,0.454-0.465,0.699c-0.216,0.245-0.576,0.581-1.081,1.009    c-0.423,0.355-0.695,0.596-0.815,0.722c-0.12,0.126-0.219,0.253-0.297,0.381H22.977z"/>
		<path fill="none" d="M25.5,11.5H4.833V1.167H25.5V11.5z"/>
	</g>
</svg>
