<!-- Generator: Adobe Illustrator 10.0, SVG Export Plug-In . SVG Version: 3.0.0 Build 76)  -->
<svg xmlns="http://www.w3.org/2000/svg" xmlns:xlink="http://www.w3.org/1999/xlink" xmlns:a="http://ns.adobe.com/AdobeSVGViewerExtensions/3.0/" width="28" height="28" viewBox="0 0 28 28" overflow="visible" enable-background="new 0 0 28 28" xml:space="preserve" preserveAspectRatio="xMidYMid meet" zoomAndPan="magnify" version="1.0" contentScriptType="text/ecmascript" contentStyleType="text/css">
	<g id="Layer_1">
	</g>
	<g id="Layer_2">
		<path fill="#FFFFFF" stroke="#000000" d="M27.5,27.5h-27v-27h27V27.5z"/>
		<path d="M3.286,17.557v-5.023h0.563v0.478c0.133-0.185,0.283-0.324,0.45-0.417c0.167-0.093,0.37-0.139,0.607-0.139    c0.311,0,0.585,0.08,0.824,0.239c0.238,0.159,0.417,0.384,0.539,0.674c0.121,0.29,0.182,0.608,0.182,0.954    c0,0.371-0.067,0.705-0.201,1.002c-0.134,0.297-0.329,0.524-0.583,0.683c-0.255,0.158-0.523,0.237-0.805,0.237    c-0.206,0-0.391-0.043-0.554-0.13s-0.298-0.197-0.403-0.33v1.772H3.286z M3.848,14.371c0,0.466,0.095,0.81,0.284,1.032    s0.419,0.334,0.688,0.334c0.273,0,0.508-0.115,0.703-0.346c0.195-0.23,0.293-0.588,0.293-1.071c0-0.461-0.095-0.807-0.286-1.036    c-0.19-0.229-0.418-0.344-0.683-0.344c-0.263,0-0.495,0.122-0.697,0.366C3.949,13.55,3.848,13.905,3.848,14.371z"/>
		<path d="M7.179,17.557v-5.023h0.563v0.478c0.133-0.185,0.283-0.324,0.45-0.417c0.167-0.093,0.369-0.139,0.607-0.139    c0.311,0,0.586,0.08,0.824,0.239c0.238,0.159,0.417,0.384,0.539,0.674c0.122,0.29,0.182,0.608,0.182,0.954    c0,0.371-0.067,0.705-0.201,1.002s-0.329,0.524-0.583,0.683c-0.255,0.158-0.523,0.237-0.805,0.237    c-0.206,0-0.391-0.043-0.554-0.13s-0.298-0.197-0.403-0.33v1.772H7.179z M7.741,14.371c0,0.466,0.095,0.81,0.284,1.032    s0.419,0.334,0.688,0.334c0.274,0,0.509-0.115,0.704-0.346c0.195-0.23,0.292-0.588,0.292-1.071c0-0.461-0.095-0.807-0.286-1.036    c-0.191-0.229-0.418-0.344-0.684-0.344c-0.262,0-0.495,0.122-0.696,0.366C7.842,13.55,7.741,13.905,7.741,14.371z"/>
		<path d="M14.736,14.407l0.664,0.167c-0.139,0.546-0.389,0.962-0.75,1.248c-0.361,0.287-0.803,0.43-1.325,0.43    c-0.54,0-0.979-0.11-1.318-0.33c-0.338-0.22-0.596-0.539-0.772-0.957c-0.176-0.417-0.265-0.866-0.265-1.345    c0-0.522,0.1-0.978,0.299-1.367c0.199-0.389,0.483-0.684,0.851-0.886c0.368-0.202,0.773-0.303,1.215-0.303    c0.501,0,0.922,0.128,1.264,0.384s0.58,0.615,0.714,1.079l-0.656,0.154c-0.116-0.364-0.284-0.63-0.504-0.796    c-0.221-0.167-0.498-0.25-0.832-0.25c-0.384,0-0.705,0.092-0.963,0.277c-0.258,0.185-0.439,0.432-0.544,0.744    c-0.104,0.311-0.157,0.632-0.157,0.962c0,0.426,0.062,0.798,0.186,1.116c0.124,0.317,0.317,0.555,0.579,0.712    c0.261,0.157,0.544,0.236,0.85,0.236c0.371,0,0.685-0.107,0.942-0.321C14.471,15.147,14.645,14.829,14.736,14.407z"/>
		<path d="M16.01,13.725c0-0.832,0.224-1.483,0.67-1.954c0.447-0.471,1.024-0.706,1.731-0.706c0.463,0,0.88,0.11,1.252,0.332    c0.372,0.221,0.655,0.529,0.851,0.925c0.195,0.396,0.292,0.844,0.292,1.346c0,0.508-0.103,0.963-0.308,1.364    c-0.205,0.401-0.496,0.705-0.872,0.911c-0.377,0.207-0.783,0.31-1.218,0.31c-0.472,0-0.894-0.114-1.266-0.342    c-0.372-0.228-0.653-0.539-0.845-0.934C16.105,14.583,16.01,14.166,16.01,13.725z M16.697,13.734c0,0.604,0.162,1.08,0.487,1.427    c0.324,0.348,0.731,0.521,1.221,0.521c0.499,0,0.909-0.175,1.231-0.526c0.322-0.351,0.483-0.849,0.483-1.494    c0-0.408-0.069-0.764-0.207-1.068c-0.138-0.305-0.339-0.54-0.604-0.708c-0.266-0.167-0.563-0.251-0.893-0.251    c-0.469,0-0.873,0.161-1.21,0.483C16.866,12.441,16.697,12.98,16.697,13.734z"/>
		<path d="M24.641,16.573v0.594h-3.32c-0.005-0.148,0.02-0.292,0.072-0.429c0.085-0.227,0.221-0.449,0.407-0.668    c0.187-0.219,0.456-0.471,0.808-0.757c0.545-0.448,0.913-0.803,1.105-1.064S24,13.739,24,13.505c0-0.245-0.087-0.451-0.262-0.618    c-0.175-0.168-0.403-0.252-0.684-0.252c-0.297,0-0.534,0.089-0.713,0.268c-0.178,0.178-0.269,0.425-0.271,0.74l-0.633-0.063    c0.043-0.473,0.207-0.833,0.49-1.081c0.283-0.248,0.663-0.372,1.141-0.372c0.481,0,0.863,0.133,1.144,0.4    c0.281,0.267,0.421,0.598,0.421,0.992c0,0.201-0.041,0.398-0.123,0.592c-0.083,0.194-0.219,0.398-0.409,0.612    s-0.507,0.509-0.949,0.883c-0.37,0.311-0.607,0.521-0.713,0.632c-0.105,0.111-0.192,0.222-0.26,0.334H24.641z"/>
		<path fill="none" d="M25.5,11.5H4.833V1.167H25.5V11.5z"/>
	</g>
</svg>
