<!-- Generator: Adobe Illustrator 10.0, SVG Export Plug-In . SVG Version: 3.0.0 Build 76)  -->
<svg xmlns="http://www.w3.org/2000/svg" xmlns:xlink="http://www.w3.org/1999/xlink" xmlns:a="http://ns.adobe.com/AdobeSVGViewerExtensions/3.0/" width="28" height="28" viewBox="0 0 28 28" overflow="visible" enable-background="new 0 0 28 28" xml:space="preserve" preserveAspectRatio="xMidYMid meet" zoomAndPan="magnify" version="1.0" contentScriptType="text/ecmascript" contentStyleType="text/css">
	<g id="Layer_1">
	</g>
	<g id="Layer_2">
		<path fill="#FFFFFF" stroke="#000000" d="M27.5,27.5h-27v-27h27V27.5z"/>
		<path fill="none" d="M25.5,11.5H4.833V1.167H25.5V11.5z"/>
		<g>
			<path d="M7.782,9.397v3.948h4.564V9.397h1.232v9.436h-1.232V14.41H7.782v4.424H6.55V9.397H7.782z"/>
			<path d="M21.32,16.985c0,0.7,0.014,1.316,0.056,1.848h-1.092l-0.07-1.106h-0.028c-0.308,0.546-1.036,1.26-2.24,1.26     c-1.064,0-2.338-0.602-2.338-2.968v-3.962h1.232v3.738c0,1.288,0.406,2.17,1.512,2.17c0.826,0,1.4-0.574,1.624-1.134     c0.07-0.168,0.112-0.392,0.112-0.63v-4.144h1.232V16.985z"/>
		</g>
	</g>
</svg>
