<!-- Generator: Adobe Illustrator 10.0, SVG Export Plug-In . SVG Version: 3.0.0 Build 76)  -->
<svg xmlns="http://www.w3.org/2000/svg" xmlns:xlink="http://www.w3.org/1999/xlink" xmlns:a="http://ns.adobe.com/AdobeSVGViewerExtensions/3.0/" width="28" height="28" viewBox="0 0 28 28" overflow="visible" enable-background="new 0 0 28 28" xml:space="preserve" preserveAspectRatio="xMidYMid meet" zoomAndPan="magnify" version="1.0" contentScriptType="text/ecmascript" contentStyleType="text/css">
	<g id="Layer_1">
	</g>
	<g id="Layer_2">
		<path fill="#FFFFFF" stroke="#000000" d="M27.5,27.5h-27v-27h27V27.5z"/>
		<path d="M17.502,18.088c0.617,0.427,1.185,0.738,1.706,0.936l-0.387,0.923c-0.722-0.26-1.44-0.67-2.157-1.231    c-0.741,0.416-1.561,0.623-2.457,0.623c-0.906,0-1.727-0.219-2.464-0.656c-0.737-0.438-1.305-1.054-1.703-1.847    c-0.398-0.793-0.597-1.687-0.597-2.681c0-0.989,0.2-1.89,0.601-2.702s0.971-1.429,1.711-1.854c0.74-0.424,1.568-0.636,2.483-0.636    c0.925,0,1.758,0.22,2.5,0.66c0.742,0.44,1.308,1.055,1.698,1.845c0.389,0.791,0.584,1.683,0.584,2.676    c0,0.825-0.126,1.566-0.378,2.225C18.39,17.028,18.01,17.601,17.502,18.088z M14.592,16.393c0.763,0.214,1.392,0.533,1.888,0.957    c0.776-0.711,1.165-1.779,1.165-3.206c0-0.811-0.138-1.52-0.412-2.126c-0.275-0.606-0.677-1.077-1.206-1.412    s-1.124-0.502-1.782-0.502c-0.986,0-1.804,0.338-2.453,1.015c-0.65,0.677-0.975,1.688-0.975,3.032    c0,1.304,0.321,2.304,0.964,3.001c0.643,0.697,1.464,1.046,2.464,1.046c0.473,0,0.918-0.089,1.336-0.267    c-0.414-0.269-0.85-0.46-1.309-0.574L14.592,16.393z"/>
		<path fill="none" d="M25.5,11.5H4.833V1.167H25.5V11.5z"/>
	</g>
</svg>
