<!-- Generator: Adobe Illustrator 10.0, SVG Export Plug-In . SVG Version: 3.0.0 Build 76)  -->
<svg xmlns="http://www.w3.org/2000/svg" xmlns:xlink="http://www.w3.org/1999/xlink" xmlns:a="http://ns.adobe.com/AdobeSVGViewerExtensions/3.0/" width="29.333" height="29.333" viewBox="0 0 29.333 29.333" overflow="visible" enable-background="new 0 0 29.333 29.333" xml:space="preserve" preserveAspectRatio="xMidYMid meet" zoomAndPan="magnify" version="1.0" contentScriptType="text/ecmascript" contentStyleType="text/css">
	<g id="Layer_1">
	</g>
	<g id="Layer_2">
		<path fill="#FFFFFF" stroke="#000000" d="M28.833,28.833H0.5V0.5h28.333V28.833z"/>
		<path d="M12.735,15.981l1.328,0.335c-0.278,1.091-0.778,1.923-1.5,2.496s-1.605,0.859-2.649,0.859c-1.08,0-1.958-0.22-2.635-0.661    c-0.677-0.44-1.192-1.078-1.545-1.913s-0.53-1.731-0.53-2.689c0-1.045,0.199-1.957,0.598-2.734    c0.399-0.778,0.966-1.369,1.702-1.772c0.736-0.404,1.546-0.606,2.43-0.606c1.002,0,1.845,0.256,2.529,0.767    c0.684,0.512,1.16,1.231,1.429,2.158l-1.313,0.308c-0.232-0.729-0.568-1.26-1.009-1.593c-0.441-0.333-0.996-0.499-1.664-0.499    c-0.768,0-1.41,0.185-1.926,0.554c-0.517,0.369-0.879,0.865-1.088,1.487s-0.313,1.264-0.313,1.924    c0,0.852,0.124,1.596,0.372,2.232s0.633,1.111,1.157,1.425c0.523,0.314,1.089,0.472,1.7,0.472c0.741,0,1.369-0.214,1.884-0.643    C12.205,17.46,12.553,16.825,12.735,15.981z"/>
		<path d="M15.283,14.618c0-1.664,0.447-2.967,1.341-3.908c0.895-0.941,2.049-1.413,3.463-1.413c0.926,0,1.761,0.221,2.504,0.664    s1.31,1.059,1.701,1.85c0.39,0.791,0.585,1.688,0.585,2.691c0,1.017-0.205,1.927-0.616,2.729c-0.41,0.802-0.992,1.41-1.745,1.823    c-0.753,0.412-1.565,0.619-2.436,0.619c-0.944,0-1.788-0.228-2.532-0.684c-0.743-0.456-1.307-1.078-1.69-1.867    C15.474,16.333,15.283,15.498,15.283,14.618z M16.658,14.635c0,1.208,0.324,2.159,0.973,2.854    c0.649,0.695,1.463,1.042,2.442,1.042c0.997,0,1.818-0.351,2.462-1.053c0.645-0.702,0.967-1.698,0.967-2.987    c0-0.816-0.138-1.528-0.413-2.136s-0.679-1.08-1.209-1.415c-0.531-0.335-1.126-0.502-1.786-0.502    c-0.938,0-1.745,0.323-2.421,0.967C16.996,12.05,16.658,13.126,16.658,14.635z"/>
	</g>
</svg>
