<!-- Generator: Adobe Illustrator 10.0, SVG Export Plug-In . SVG Version: 3.0.0 Build 76)  -->
<svg xmlns="http://www.w3.org/2000/svg" xmlns:xlink="http://www.w3.org/1999/xlink" xmlns:a="http://ns.adobe.com/AdobeSVGViewerExtensions/3.0/" width="28" height="28" viewBox="0 0 28 28" overflow="visible" enable-background="new 0 0 28 28" xml:space="preserve" preserveAspectRatio="xMidYMid meet" zoomAndPan="magnify" version="1.0" contentScriptType="text/ecmascript" contentStyleType="text/css">
	<g id="Layer_1">
	</g>
	<g id="Layer_2">
		<path fill="#FFFFFF" stroke="#000000" d="M27.5,27.5h-27v-27h27V27.5z"/>
		<path d="M5.473,15.948l1.25-0.109c0.059,0.502,0.196,0.914,0.411,1.235c0.216,0.321,0.55,0.581,1.004,0.779    c0.453,0.199,0.964,0.298,1.53,0.298c0.504,0,0.948-0.075,1.333-0.226s0.672-0.357,0.861-0.619    c0.188-0.263,0.282-0.548,0.282-0.857c0-0.314-0.089-0.588-0.267-0.822c-0.178-0.234-0.477-0.432-0.895-0.591    c-0.269-0.104-0.862-0.268-1.781-0.488s-1.563-0.43-1.932-0.626c-0.479-0.251-0.836-0.563-1.07-0.936    c-0.235-0.372-0.353-0.789-0.353-1.251c0-0.508,0.144-0.982,0.43-1.423C6.565,9.87,6.983,9.535,7.534,9.306    c0.55-0.229,1.162-0.343,1.836-0.343c0.741,0,1.396,0.12,1.962,0.359c0.566,0.24,1.002,0.593,1.307,1.059s0.468,0.993,0.491,1.582    l-1.266,0.094c-0.068-0.628-0.299-1.104-0.692-1.425c-0.394-0.321-0.975-0.481-1.743-0.481c-0.8,0-1.384,0.147-1.75,0.44    c-0.366,0.294-0.549,0.648-0.549,1.063c0,0.36,0.129,0.656,0.389,0.888c0.255,0.232,0.92,0.47,1.995,0.714    c1.076,0.244,1.813,0.457,2.212,0.639c0.581,0.269,1.009,0.609,1.286,1.021s0.415,0.887,0.415,1.424    c0,0.533-0.152,1.035-0.457,1.506c-0.304,0.471-0.741,0.838-1.312,1.1s-1.212,0.393-1.925,0.393c-0.904,0-1.662-0.132-2.273-0.396    c-0.611-0.264-1.09-0.662-1.438-1.193S5.491,16.618,5.473,15.948z"/>
		<path d="M14.811,15.948l1.25-0.109c0.059,0.502,0.196,0.914,0.411,1.235c0.216,0.321,0.55,0.581,1.004,0.779    c0.453,0.199,0.964,0.298,1.53,0.298c0.504,0,0.948-0.075,1.333-0.226s0.672-0.357,0.861-0.619    c0.188-0.263,0.282-0.548,0.282-0.857c0-0.314-0.089-0.588-0.267-0.822c-0.178-0.234-0.477-0.432-0.895-0.591    c-0.269-0.104-0.862-0.268-1.781-0.488s-1.563-0.43-1.932-0.626c-0.479-0.251-0.836-0.563-1.07-0.936    c-0.235-0.372-0.353-0.789-0.353-1.251c0-0.508,0.144-0.982,0.43-1.423c0.287-0.441,0.705-0.776,1.256-1.005    c0.55-0.229,1.162-0.343,1.836-0.343c0.741,0,1.396,0.12,1.962,0.359c0.566,0.24,1.002,0.593,1.307,1.059s0.468,0.993,0.491,1.582    l-1.266,0.094c-0.068-0.628-0.299-1.104-0.692-1.425c-0.394-0.321-0.975-0.481-1.743-0.481c-0.8,0-1.384,0.147-1.75,0.44    c-0.366,0.294-0.549,0.648-0.549,1.063c0,0.36,0.129,0.656,0.389,0.888c0.255,0.232,0.92,0.47,1.995,0.714    c1.076,0.244,1.813,0.457,2.212,0.639c0.581,0.269,1.009,0.609,1.286,1.021s0.415,0.887,0.415,1.424    c0,0.533-0.152,1.035-0.457,1.506c-0.304,0.471-0.741,0.838-1.312,1.1s-1.212,0.393-1.925,0.393c-0.904,0-1.662-0.132-2.273-0.396    c-0.611-0.264-1.09-0.662-1.438-1.193S14.829,16.618,14.811,15.948z"/>
	</g>
</svg>
