<!-- Generator: Adobe Illustrator 10.0, SVG Export Plug-In . SVG Version: 3.0.0 Build 76)  -->
<svg xmlns="http://www.w3.org/2000/svg" xmlns:xlink="http://www.w3.org/1999/xlink" xmlns:a="http://ns.adobe.com/AdobeSVGViewerExtensions/3.0/" width="263.313" height="167.625" viewBox="0 0 263.313 167.625" overflow="visible" enable-background="new 0 0 263.313 167.625" xml:space="preserve" preserveAspectRatio="xMidYMid meet" zoomAndPan="magnify" version="1.0" contentScriptType="text/ecmascript" contentStyleType="text/css">
	<g id="Layer_1">
	</g>
	<g id="Layer_2">
		<path stroke="#000000" d="M0.5,60.063v39.25l19.125-19.125L0.5,60.063z"/>
		<path stroke="#000000" d="M262.813,100.188v-39.25l-19.125,19.125L262.813,100.188z"/>
		<path stroke="#000000" d="M152.875,0.5h-39.25l19.125,19.125L152.875,0.5z"/>
		<path stroke="#000000" d="M112.625,167.125h39.25L132.75,148L112.625,167.125z"/>
		<path stroke="#000000" d="M32.75,115.563c0,2.899-2.351,5.25-5.25,5.25s-5.25-2.351-5.25-5.25s2.351-5.25,5.25-5.25    S32.75,112.663,32.75,115.563z"/>
		<path stroke="#000000" d="M77.5,151.063c0,2.899-2.351,5.25-5.25,5.25s-5.25-2.351-5.25-5.25s2.351-5.25,5.25-5.25    S77.5,148.163,77.5,151.063z"/>
		<path stroke="#000000" d="M127,119.063c0,2.899-2.351,5.25-5.25,5.25s-5.25-2.351-5.25-5.25s2.351-5.25,5.25-5.25    S127,116.163,127,119.063z"/>
		<path stroke="#000000" d="M120,67.063c0,2.899-2.351,5.25-5.25,5.25s-5.25-2.351-5.25-5.25s2.351-5.25,5.25-5.25    S120,64.163,120,67.063z"/>
		<path stroke="#000000" d="M168,39.063c0,2.899-2.351,5.25-5.25,5.25s-5.25-2.351-5.25-5.25s2.351-5.25,5.25-5.25    S168,36.163,168,39.063z"/>
		<path stroke="#000000" d="M214,33.063c0,2.899-2.351,5.25-5.25,5.25s-5.25-2.351-5.25-5.25s2.351-5.25,5.25-5.25    S214,30.163,214,33.063z"/>
		<path stroke="#000000" d="M252,42.063c0,2.899-2.351,5.25-5.25,5.25s-5.25-2.351-5.25-5.25s2.351-5.25,5.25-5.25    S252,39.163,252,42.063z"/>
		<path stroke="#000000" stroke-width="3" d="M36.25,109.813l69-39"/>
		<path stroke="#000000" stroke-width="3" d="M33.25,120.313l32.5,26.5"/>
		<path stroke="#000000" stroke-width="3" d="M79.75,146.313l35-23"/>
		<path stroke="#000000" stroke-width="3" d="M121.25,108.813l-4.5-33.5"/>
		<path stroke="#000000" stroke-width="3" d="M122.75,62.313l32-18.5"/>
		<path stroke="#000000" stroke-width="3" d="M170.75,36.813l29-3.5"/>
		<path stroke="#000000" stroke-width="3" d="M217.75,34.313l20.5,4.5"/>
	</g>
</svg>
