<!-- Generator: Adobe Illustrator 10.0, SVG Export Plug-In . SVG Version: 3.0.0 Build 76)  -->
<svg xmlns="http://www.w3.org/2000/svg" xmlns:xlink="http://www.w3.org/1999/xlink" xmlns:a="http://ns.adobe.com/AdobeSVGViewerExtensions/3.0/" width="25.192" height="23.852" viewBox="0 0 25.192 23.852" overflow="visible" enable-background="new 0 0 25.192 23.852" xml:space="preserve" preserveAspectRatio="xMidYMid meet" zoomAndPan="magnify" version="1.0" contentScriptType="text/ecmascript" contentStyleType="text/css">
	<g id="Layer_1">
		<path fill="none" stroke="#000000" d="M0.559,23.352l8.75-8.75"/>
		<path fill="none" stroke="#000000" d="M9.059,14.727h13.5"/>
		<path fill="none" stroke="#000000" d="M9.184,14.602V0.727"/>
		<path fill="none" stroke="#000000" d="M0.5,19.828v3.524h3.625"/>
		<path fill="none" stroke="#000000" d="M20.115,17.184l2.492-2.492l-2.563-2.563"/>
		<path fill="none" stroke="#000000" d="M11.687,3.199L9.195,0.707L6.631,3.271"/>
		<path d="M18.28,1.033c-1.152,0.432-1.584,0.756-1.962,1.386c-0.954,1.566-0.846,3.636-0.63,4.842    c0.18,0.936,0.396,1.314,0.72,1.62c0.36,0.342,0.756,0.432,1.26,0.288c1.188-0.342,1.278-1.818,1.368-2.16    c-0.324-0.936-0.684-2.07-0.432-3.51C18.748,2.707,19,2.293,19.468,2.293c0.468,0,0.72,0.414,0.864,1.206    c0.252,1.44-0.108,2.574-0.432,3.51c0.09,0.342,0.18,1.818,1.368,2.16c0.504,0.144,0.9,0.054,1.26-0.288    c0.324-0.306,0.54-0.684,0.72-1.62c0.216-1.206,0.324-3.276-0.63-4.842c-0.378-0.63-0.81-0.954-1.962-1.386V0.727    c0.63,0.036,1.692-0.09,2.646,0.63c1.134,0.864,1.746,2.016,1.89,3.582c0.126,1.296,0,2.106-0.396,3.06    c-0.324,0.774-1.008,1.512-1.62,1.782c-0.504,0.234-1.422,0.468-2.304-0.054c-0.63-0.36-0.918-0.63-1.404-1.476    c-0.486,0.846-0.774,1.116-1.404,1.476c-0.882,0.522-1.8,0.288-2.304,0.054c-0.612-0.27-1.296-1.008-1.62-1.782    c-0.396-0.954-0.522-1.764-0.396-3.06c0.144-1.566,0.756-2.718,1.89-3.582c0.954-0.72,2.016-0.594,2.646-0.63V1.033z"/>
	</g>
</svg>
