<!-- Generator: Adobe Illustrator 10.0, SVG Export Plug-In . SVG Version: 3.0.0 Build 76)  -->
<svg xmlns="http://www.w3.org/2000/svg" xmlns:xlink="http://www.w3.org/1999/xlink" xmlns:a="http://ns.adobe.com/AdobeSVGViewerExtensions/3.0/" width="346.5" height="250.232" viewBox="0 0 346.5 250.232" overflow="visible" enable-background="new 0 0 346.5 250.232" xml:space="preserve" preserveAspectRatio="xMidYMid meet" zoomAndPan="magnify" version="1.0" contentScriptType="text/ecmascript" contentStyleType="text/css">
	<g id="Layer_1">
		<g>
			<path fill="#B4B4B4" stroke="#000000" stroke-width="0.5" d="M155.479,51.454V9.229l-0.3-1.752l-0.514-1.051l-0.686-1.008     l-0.858-0.92l-0.858-0.701l-0.986-0.701l-1.201-0.744l-1.415-0.613l-1.415-0.482l-1.372-0.395l-1.33-0.263l-1.286-0.219     l-1.5-0.088l-1.415-0.043l-1.501,0.087l-1.373,0.131l-1.287,0.219l-1.372,0.306l-1.459,0.438l-1.415,0.503l-1.243,0.635     l-1.994,1.336l-1.051,0.986l-0.708,0.81l-0.771,1.292l-0.365,1.183l-0.343,2.935l-0.386,1.446l-0.515,1.095l-0.665,1.007     l-0.579,0.833l-0.729,0.832l-2.016,1.752l-0.558,0.438l-0.858,0.526l-0.9,0.481l-1.158,0.57l-1.158,0.438l-1.072,0.438     l-1.458,0.394l-1.415,0.263l-1.416,0.175l-1.458,0.044l-1.844-0.044l-1.373-0.131l-1.673-0.307l-1.415-0.394l-1.415-0.438     l-1.244-0.569l-1.115-0.57l-1.158-0.701l-1.072-0.789l-0.686-0.525l-2.251-2.584l0.042,36.94"/>
			<path fill="#B4B4B4" stroke="#000000" stroke-width="0.5" d="M155.341,17.458h-25.687"/>
			<path fill="#B4B4B4" stroke="#000000" stroke-width="0.5" d="M155.341,28.693h-25.725"/>
			<path fill="#B4B4B4" stroke="#000000" stroke-width="0.5" d="M129.66,3.316v48.333"/>
			<path fill="#B4B4B4" stroke="#000000" stroke-width="0.5" d="M121.78,16.982v34.342"/>
			<path fill="#B4B4B4" stroke="#000000" stroke-width="0.5" d="M121.66,40.028H94.02"/>
			<path fill="#B4B4B4" stroke="#000000" stroke-width="0.5" d="M121.612,28.838H93.825"/>
			<path fill="#B4B4B4" stroke="#000000" stroke-width="0.5" d="M155.424,39.982H129.7"/>
		</g>
		<path fill="#B4B4B4" stroke="#000000" stroke-width="0.5" d="M0.25,126.607V41.274h70.667l10,10H188.25l7.333,14l54,20h8    l15.667-15.667h61.666l11.334,15.667v41.333"/>
		<path fill="#A4A4A4" d="M155.042,50"/>
		<g>
			<path fill="#B4B4B4" stroke="#000000" stroke-width="0.5" d="M155.479,198.778v42.225l-0.3,1.752l-0.514,1.051l-0.686,1.008     l-0.858,0.92l-0.858,0.701l-0.986,0.701l-1.201,0.744l-1.415,0.613l-1.415,0.482l-1.372,0.395l-1.33,0.263l-1.286,0.219     l-1.5,0.088l-1.415,0.043l-1.501-0.087l-1.373-0.131l-1.287-0.219l-1.372-0.306l-1.459-0.438l-1.415-0.503l-1.243-0.635     l-1.994-1.336l-1.051-0.986l-0.708-0.81l-0.771-1.292l-0.365-1.183l-0.343-2.935l-0.386-1.446l-0.515-1.095l-0.665-1.007     l-0.579-0.833l-0.729-0.832l-2.016-1.752l-0.558-0.438l-0.858-0.526l-0.9-0.481l-1.158-0.57l-1.158-0.438l-1.072-0.438     l-1.458-0.394l-1.415-0.263l-1.416-0.175l-1.458-0.044l-1.844,0.044l-1.373,0.131l-1.673,0.307l-1.415,0.394l-1.415,0.438     l-1.244,0.569l-1.115,0.57l-1.158,0.701l-1.072,0.789l-0.686,0.525l-2.251,2.584l0.042-36.94"/>
			<path fill="#B4B4B4" stroke="#000000" stroke-width="0.5" d="M155.341,232.773h-25.687"/>
			<path fill="#B4B4B4" stroke="#000000" stroke-width="0.5" d="M155.341,221.539h-25.725"/>
			<path fill="#B4B4B4" stroke="#000000" stroke-width="0.5" d="M129.66,246.916v-48.333"/>
			<path fill="#B4B4B4" stroke="#000000" stroke-width="0.5" d="M121.78,233.25v-34.342"/>
			<path fill="#B4B4B4" stroke="#000000" stroke-width="0.5" d="M121.66,210.204H94.02"/>
			<path fill="#B4B4B4" stroke="#000000" stroke-width="0.5" d="M121.612,221.394H93.825"/>
			<path fill="#B4B4B4" stroke="#000000" stroke-width="0.5" d="M155.424,210.25H129.7"/>
		</g>
		<path fill="#B4B4B4" stroke="#000000" stroke-width="0.5" d="M0.25,123.274v85.333h70.667l10-10H188.25l7.333-14l54-20h8    l15.667,15.667h61.667l11.333-15.667v-41.333"/>
	</g>
</svg>
