<!-- Generator: Adobe Illustrator 10.0, SVG Export Plug-In . SVG Version: 3.0.0 Build 76)  -->
<svg xmlns="http://www.w3.org/2000/svg" xmlns:xlink="http://www.w3.org/1999/xlink" xmlns:a="http://ns.adobe.com/AdobeSVGViewerExtensions/3.0/" width="207.563" height="130.422" viewBox="0 0 207.563 130.422" overflow="visible" enable-background="new 0 0 207.563 130.422" xml:space="preserve" preserveAspectRatio="xMidYMid meet" zoomAndPan="magnify" version="1.0" contentScriptType="text/ecmascript" contentStyleType="text/css">
	<g id="Layer_1">
		<path fill="#B4B4B4" stroke="#000000" stroke-width="0.5" stroke-dasharray="9" d="M52.75,100.75H0.25v-71.5h52.5"/>
		<path fill="#B4B4B4" d="M164.206,107.321H84.25V22.75h79.956V107.321z"/>
		<path fill="#B4B4B4" d="M179.473,47v36.5h9.499v-4h11.501v-4h7.02V55l-7.148-0.094V51h-11.531v-4H179.473z"/>
		<path fill="#B4B4B4" d="M164.25,22.75v84.571L179.473,83.5V47L164.25,22.75z"/>
		<path fill="#B4B4B4" d="M52.75,29.25l31.356-6.512v84.512l-31.356-6.5V29.25z"/>
		<path fill="#B4B4B4" stroke="#000000" stroke-width="0.5" d="M52.75,29.25v71.5"/>
		<path fill="#B4B4B4" stroke="#000000" stroke-width="0.5" stroke-dasharray="9" d="M164.25,107.25h-80"/>
		<path fill="#B4B4B4" stroke="#000000" stroke-width="0.5" d="M164.25,22.75v84.5"/>
		<path fill="#B4B4B4" stroke="#000000" stroke-width="0.5" stroke-dasharray="9" d="M84.25,22.75h80"/>
		<path fill="#B4B4B4" stroke="#000000" stroke-width="0.5" d="M84.25,107.25v-84.5"/>
		<path fill="none" stroke="#000000" stroke-width="0.5" stroke-dasharray="9" d="M52.829,100.738l31.277,6.516L52.829,100.738z"/>
		<path fill="none" stroke="#000000" stroke-width="0.5" stroke-dasharray="9" d="M164.206,107.321l15.281-23.719"/>
		<path fill="none" stroke="#000000" stroke-width="0.5" stroke-dasharray="9" d="M179.313,47L164.25,22.846"/>
		<path fill="none" stroke="#000000" stroke-width="0.5" d="M179.487,83.696V47.09"/>
		<path fill="none" stroke="#000000" stroke-width="0.5" stroke-dasharray="9" d="M207.313,75.648V55h-7v-4h-11.5v-4h-9.5"/>
		<path fill="none" stroke="#000000" stroke-width="0.5" stroke-dasharray="9" d="M207.493,75.5h-7.02v4h-11.501v4h-9.499"/>
		<path fill="#B4B4B4" stroke="#000000" stroke-width="0.5" stroke-dasharray="9" d="M37.375,0.25H25.75v16h28v-13h-4v4h-5V4.375    h-7.375V0.25z"/>
		<path fill="none" stroke="#000000" stroke-width="0.5" d="M38.25,16.25v13"/>
		<path fill="none" stroke="#000000" stroke-width="0.5" stroke-dasharray="9" d="M84.106,22.738l-31.277,6.516L84.106,22.738z"/>
		<path fill="#B4B4B4" stroke="#000000" stroke-width="0.5" stroke-dasharray="9" d="M39.125,130.172H50.75v-16h-28v13h4v-4h5v2.875    h7.375V130.172z"/>
		<path fill="none" stroke="#000000" stroke-width="0.5" d="M38.25,114.172v-13"/>
		<path fill="none" stroke="#000000" stroke-width="0.75" d="M52.829,29.254"/>
	</g>
</svg>
