<!-- Generator: Adobe Illustrator 10.0, SVG Export Plug-In . SVG Version: 3.0.0 Build 76)  -->
<svg xmlns="http://www.w3.org/2000/svg" xmlns:xlink="http://www.w3.org/1999/xlink" xmlns:a="http://ns.adobe.com/AdobeSVGViewerExtensions/3.0/" width="90.91" height="144.125" viewBox="0 0 90.91 144.125" overflow="visible" enable-background="new 0 0 90.91 144.125" xml:space="preserve" preserveAspectRatio="xMidYMid meet" zoomAndPan="magnify" version="1.0" contentScriptType="text/ecmascript" contentStyleType="text/css">
	<g id="Layer_1">
		<path fill="#B4B4B4" stroke="#000000" stroke-width="0.5" d="M45.191,0.25h27.188v8.438l2.062,2.063l1.688,1.688l1.501,1.969    l1.312,1.969l1.501,3L81.566,22l1.125,4.125l0.749,4.5l0.563,4.5l0.188,3.562l0.188,4.875l-0.188,3.188l0.75,1.313l1.078,1.922    l1.358,3.141l0.938,2.437L89.065,58l0.751,3.187l0.374,2.625l0.47,5.578v3.234l-0.094,0.188l-0.328,3.609l-0.797,3.703    l-1.125,3.938l-1.313,3.375l-1.5,2.813l-1.501,2.625l-1.312,1.875v28.312l-11.063,11.813v9H45.191"/>
		<path fill="#B4B4B4" stroke="#000000" stroke-width="0.5" d="M45.719,0.25H18.531v8.438l-2.062,2.063l-1.688,1.688l-1.5,1.969    l-1.312,1.969l-1.5,3L9.344,22l-1.125,4.125l-0.75,4.5l-0.563,4.5l-0.188,3.563l-0.188,4.875l0.188,3.188l-0.75,1.313    l-1.078,1.922l-1.359,3.141l-0.938,2.438L1.844,58l-0.75,3.188l-0.375,2.625L0.25,69.391v3.234l0.094,0.188l0.328,3.609    l0.797,3.703l1.125,3.938l1.313,3.375l1.5,2.813l1.5,2.625l1.312,1.875v28.313l11.063,11.813v9h26.438"/>
		<path fill="#999999" stroke="#000000" stroke-width="0.5" d="M18.696,8.565h53.625"/>
		<path fill="#999999" stroke="#000000" stroke-width="0.5" d="M8.391,123.104h74.156"/>
		<path fill="#999999" stroke="#000000" stroke-width="0.5" d="M19.094,135h52.542"/>
	</g>
</svg>
