<!-- Generator: Adobe Illustrator 10.0, SVG Export Plug-In . SVG Version: 3.0.0 Build 76)  -->
<svg xmlns="http://www.w3.org/2000/svg" xmlns:cc="http://web.resource.org/cc/" xmlns:inkscape="http://www.inkscape.org/namespaces/inkscape" xmlns:sodipodi="http://sodipodi.sourceforge.net/DTD/sodipodi-0.dtd" xmlns:rdf="http://www.w3.org/1999/02/22-rdf-syntax-ns#" xmlns:dc="http://purl.org/dc/elements/1.1/" xmlns:xlink="http://www.w3.org/1999/xlink" width="91.000000pt" height="91.000000pt" viewBox="0 0 112.958 95.02" overflow="visible" enable-background="new 0 0 112.958 95.02" xml:space="preserve" id="svg10853" sodipodi:version="0.32" inkscape:version="0.40+cvs" sodipodi:docname="U1_Valve_Three_Way_Motor_L.svg" sodipodi:docbase="E:\prj\uss\main\share\icons\esl\icons" preserveAspectRatio="xMidYMid meet" zoomAndPan="magnify" version="1.0" contentScriptType="text/ecmascript" contentStyleType="text/css"><defs id="defs10872"/>


<metadata id="metadata10871">
  <rdf:RDF id="RDF10873">
    <cc:Work rdf:about="" id="Work10874">
      <dc:format id="format10875">image/svg+xml</dc:format>


      <dc:type id="type10877" rdf:resource="http://purl.org/dc/dcmitype/StillImage"/>


    </cc:Work>


  </rdf:RDF>


</metadata>


<sodipodi:namedview id="base" pagecolor="#ffffff" bordercolor="#666666" borderopacity="1.0" inkscape:pageopacity="0.0" inkscape:pageshadow="2" inkscape:zoom="0.22338325" inkscape:cx="220.74443" inkscape:cy="-602.60862" inkscape:window-width="1272" inkscape:window-height="967" gridoriginx="0.00000000mm" inkscape:window-x="0" inkscape:window-y="0" inkscape:current-layer="svg10853"/>



	<g id="Layer_1" transform="matrix(3.366592e-3,-0.901848,0.883763,3.286508e-3,14.70614,97.81511)">
	</g>



	<g id="Layer_2" transform="matrix(3.366592e-3,-0.901848,0.883763,3.286508e-3,14.70614,97.81511)">
	</g>



	<g id="lineart" transform="matrix(2.542410e-23,-1.000000,1.000000,2.542410e-23,17.15060,104.0851)">
		<path d="M 1.5000000,2.7690000 L 55.167000,37.769000 L 1.5000000,73.019000 L 1.5000000,2.7690000 z " id="path10863" style="fill:#ffffff;stroke:#000000;stroke-width:3.0000000"/>



		<path d="M 111.45800,2.7690000 L 57.791000,37.769000 L 111.45800,73.019000 L 111.45800,2.7690000 z " id="path10865" style="fill:#ffffff;stroke:#000000;stroke-width:3.0000000"/>



		<path d="M 21.438000,93.520000 L 56.438000,39.853000 L 91.688000,93.520000 L 21.438000,93.520000 z " id="path10867" style="fill:#ffffff;stroke:#000000;stroke-width:3.0000000"/>



	</g>



<g id="g10984" transform="matrix(2.000000,-4.710317e-16,4.710317e-16,2.000000,1.524010,26.63507)">
		<path d="M 21.072000,10.806000 C 21.072000,16.476000 16.476000,21.072000 10.805000,21.072000 C 5.1350000,21.072000 0.53900000,16.476000 0.53900000,10.806000 C 0.53900000,5.1360000 5.1350000,0.53900000 10.805000,0.53900000 C 16.476000,0.53900000 21.072000,5.1350000 21.072000,10.806000 z " id="path10968" style="fill:#ffffff;stroke:#000000;stroke-width:1.1000000"/>



		<g id="g10970">
			<path d="M 6.6960000,15.472000 L 6.6960000,6.8780000 L 8.3980000,6.8780000 L 10.434000,12.960000 C 10.622000,13.526000 10.758000,13.950000 10.845000,14.231000 C 10.944000,13.918000 11.097000,13.460000 11.306000,12.854000 L 13.381000,6.8770000 L 14.899000,6.8770000 L 14.899000,15.471000 L 13.805000,15.471000 L 13.805000,8.2850000 L 11.294000,15.473000 L 10.270000,15.473000 L 7.7900000,8.1600000 L 7.7900000,15.473000 L 6.6960000,15.473000 L 6.6960000,15.472000 z " id="path10972"/>



		</g>



	</g>


<path style="fill:none;fill-opacity:0.75000000;fill-rule:evenodd;stroke:#000000;stroke-width:2.2027647pt;stroke-linecap:butt;stroke-linejoin:miter;stroke-opacity:1.0000000" d="M 43.177735,47.705409 C 56.053754,47.753126 56.203471,47.753680 56.203471,47.753680" id="path10994"/>


<g id="g1097" transform="matrix(3.366592e-3,-0.901848,0.883763,3.286508e-3,14.70614,97.81511)">
	</g>
<g id="g1099" transform="matrix(3.366592e-3,-0.901848,0.883763,3.286508e-3,14.70614,97.81511)">
	</g>
<g id="g1101" transform="matrix(2.542410e-23,-1.000000,1.000000,2.542410e-23,17.15060,104.0851)">
		<path d="M 1.5000000,2.7690000 L 55.167000,37.769000 L 1.5000000,73.019000 L 1.5000000,2.7690000 z " id="path1103" style="fill:#ffffff;stroke:#000000;stroke-width:3.0000000"/>



		<path d="M 111.45800,2.7690000 L 57.791000,37.769000 L 111.45800,73.019000 L 111.45800,2.7690000 z " id="path1105" style="fill:#ffffff;stroke:#000000;stroke-width:3.0000000"/>



		<path d="M 21.438000,93.520000 L 56.438000,39.853000 L 91.688000,93.520000 L 21.438000,93.520000 z " id="path1107" style="fill:#ffffff;stroke:#000000;stroke-width:3.0000000"/>



	</g>
<g id="g1109" transform="matrix(2.000000,-4.710317e-16,4.710317e-16,2.000000,1.524010,26.63507)">
		<path d="M 21.072000,10.806000 C 21.072000,16.476000 16.476000,21.072000 10.805000,21.072000 C 5.1350000,21.072000 0.53900000,16.476000 0.53900000,10.806000 C 0.53900000,5.1360000 5.1350000,0.53900000 10.805000,0.53900000 C 16.476000,0.53900000 21.072000,5.1350000 21.072000,10.806000 z " id="path1111" style="fill:#ffffff;stroke:#000000;stroke-width:1.1000000"/>



		<g id="g1113">
			<path d="M 6.6960000,15.472000 L 6.6960000,6.8780000 L 8.3980000,6.8780000 L 10.434000,12.960000 C 10.622000,13.526000 10.758000,13.950000 10.845000,14.231000 C 10.944000,13.918000 11.097000,13.460000 11.306000,12.854000 L 13.381000,6.8770000 L 14.899000,6.8770000 L 14.899000,15.471000 L 13.805000,15.471000 L 13.805000,8.2850000 L 11.294000,15.473000 L 10.270000,15.473000 L 7.7900000,8.1600000 L 7.7900000,15.473000 L 6.6960000,15.473000 L 6.6960000,15.472000 z " id="path1115"/>



		</g>



	</g>
<path style="fill:none;fill-opacity:0.75000000;fill-rule:evenodd;stroke:#000000;stroke-width:2.2027647pt;stroke-linecap:butt;stroke-linejoin:miter;stroke-opacity:1.0000000" d="M 43.177735,47.705409 C 56.053754,47.753126 56.203471,47.753680 56.203471,47.753680" id="path1118"/>
</svg>
