<!-- Generator: Adobe Illustrator 10.0, SVG Export Plug-In . SVG Version: 3.0.0 Build 76)  -->
<svg xmlns="http://www.w3.org/2000/svg" xmlns:sodipodi="http://sodipodi.sourceforge.net/DTD/sodipodi-0.dtd" xmlns:inkscape="http://www.inkscape.org/namespaces/inkscape" xmlns:xlink="http://www.w3.org/1999/xlink" xmlns:rdf="http://www.w3.org/1999/02/22-rdf-syntax-ns#" xmlns:cc="http://web.resource.org/cc/" xmlns:dc="http://purl.org/dc/elements/1.1/" width="112.958" height="90.640000pt" viewBox="0 0 112.958 75.799" overflow="visible" enable-background="new 0 0 112.958 75.799" xml:space="preserve" id="svg1101" sodipodi:version="0.32" inkscape:version="0.40+cvs" sodipodi:docname="U5_Valve_Two_Way_ManMot_V.svg" sodipodi:docbase="E:\prj\uss\main\share\icons\esl" preserveAspectRatio="xMidYMid meet" zoomAndPan="magnify" version="1.0" contentScriptType="text/ecmascript" contentStyleType="text/css">
<metadata id="metadata1117">
  <rdf:RDF id="RDF1119">
    <cc:Work rdf:about="" id="Work1120">
      <dc:format id="format1121">image/svg+xml</dc:format>
      <dc:type id="type1123" rdf:resource="http://purl.org/dc/dcmitype/StillImage"/>
    </cc:Work>
  </rdf:RDF>
</metadata>
<sodipodi:namedview id="base" pagecolor="#ffffff" bordercolor="#666666" borderopacity="1.0" inkscape:pageopacity="0.0" inkscape:pageshadow="2" inkscape:zoom="4.9119411" inkscape:cx="69.819949" inkscape:cy="46.968048" inkscape:window-width="1272" inkscape:window-height="989" inkscape:window-x="0" inkscape:window-y="0" inkscape:current-layer="svg1101"/>

	<g id="Layer_1" transform="matrix(-4.742272e-4,-1.000000,1.000000,-4.742272e-4,11.73871,94.59652)">
	</g>

	<g id="Layer_2" transform="matrix(-4.742272e-4,-1.000000,1.000000,-4.742272e-4,11.73871,94.59652)">
	</g>

	<g id="lineart" transform="matrix(-4.742272e-4,-1.000000,1.000000,-4.742272e-4,11.73871,94.59652)">
		<path d="M 1.5000000,2.7690000 L 55.167000,37.769000 L 1.5000000,73.019000 L 1.5000000,2.7690000 z " id="path1111" style="fill:#ffffff;stroke:#000000;stroke-width:3.0000000"/>

		<path d="M 111.45800,2.7690000 L 57.791000,37.769000 L 111.45800,73.019000 L 111.45800,2.7690000 z " id="path1113" style="fill:#ffffff;stroke:#000000;stroke-width:3.0000000"/>

	</g>

<path style="fill:none;fill-opacity:0.75000000;fill-rule:evenodd;stroke:#000000;stroke-width:2.5566034pt;stroke-linecap:butt;stroke-linejoin:miter;stroke-opacity:1.0000000" d="M 3.8051896,38.232544 C 48.784666,38.211212 48.784666,38.211212 48.784666,38.211212 L 48.784666,38.211212" id="path1124"/>
<path style="fill:none;fill-opacity:0.75000000;fill-rule:evenodd;stroke:#000000;stroke-width:2.5566034pt;stroke-linecap:butt;stroke-linejoin:miter;stroke-opacity:1.0000000" d="M 2.4649361,16.125389 C 2.2827020,61.104501 2.2827020,61.104501 2.2827020,61.104501 L 2.2827020,61.104501" id="path1125"/>
<g id="g1183" transform="matrix(2.235127,-1.997528e-2,2.039477e-2,2.282065,64.14359,13.49487)">
		<path d="M 21.072000,10.806000 C 21.072000,16.476000 16.476000,21.072000 10.805000,21.072000 C 5.1350000,21.072000 0.53900000,16.476000 0.53900000,10.806000 C 0.53900000,5.1360000 5.1350000,0.53900000 10.805000,0.53900000 C 16.476000,0.53900000 21.072000,5.1350000 21.072000,10.806000 z " id="path1167" style="fill:#ffffff;stroke:#000000;stroke-width:1.1000000"/>

		<g id="g1169">
			<path d="M 6.6960000,15.472000 L 6.6960000,6.8780000 L 8.3980000,6.8780000 L 10.434000,12.960000 C 10.622000,13.526000 10.758000,13.950000 10.845000,14.231000 C 10.944000,13.918000 11.097000,13.460000 11.306000,12.854000 L 13.381000,6.8770000 L 14.899000,6.8770000 L 14.899000,15.471000 L 13.805000,15.471000 L 13.805000,8.2850000 L 11.294000,15.473000 L 10.270000,15.473000 L 7.7900000,8.1600000 L 7.7900000,15.473000 L 6.6960000,15.473000 L 6.6960000,15.472000 z " id="path1171"/>

		</g>

	</g>
<path style="fill:none;fill-opacity:1.0000000;fill-rule:evenodd;stroke:#000000;stroke-width:2.6381205pt;stroke-linecap:butt;stroke-linejoin:miter;stroke-opacity:1.0000000" d="M 47.377279,38.211881 C 65.270293,38.203395 65.270293,38.203395 65.270293,38.203395 L 65.270293,38.203395" id="path1192"/>
</svg>
