<?xml version="1.0" encoding="UTF-8" standalone="no"?>
<!DOCTYPE svg PUBLIC "-//W3C//DTD SVG 1.0//EN" "C:\SeeVisioDTD\svg10.dtd">
<!-- Généré par Microsoft Visio 11.0, SVG Export, v1.0 OL_EE0722.svg Page 1 -->
<svg xmlns="http://www.w3.org/2000/svg" xmlns:v="http://schemas.microsoft.com/visio/2003/SVGExtensions/" width="0.374331in"
		height="0.736389in" viewBox="0 0 26.9518 53.02" xml:space="preserve" color-interpolation-filters="sRGB" class="st4">
	<v:documentProperties v:langID="1036" v:metric="true" v:viewMarkup="false"/>
	<style type="text/css">
	<![CDATA[
		.st1 {fill:#ffffff;stroke:none;stroke-linecap:round;stroke-linejoin:round;stroke-width:0.72}
		.st2 {fill:none}
		.st3 {stroke:#000000;stroke-linecap:round;stroke-linejoin:round;stroke-width:1}
		.st4 {fill:none;fill-rule:evenodd;font-size:12;overflow:visible;stroke-linecap:square;stroke-miterlimit:3}
	]]>
	</style>
	<g v:mID="0" v:index="1" v:groupContext="foregroundPage">
		<title>Page 1</title>
		<v:pageProperties v:drawingScale="0.0393701" v:pageScale="0.0393701" v:drawingUnits="24" v:shadowOffsetX="8.50394"
				v:shadowOffsetY="-8.50394"/>
		<g id="group1-1" transform="translate(0.72,-0.99641)" v:mID="1" v:groupContext="group">
			<title>Feuille.1</title>
			<g id="shape2-2" v:mID="2" v:groupContext="shape" transform="translate(0,-50.9917)">
				<title>Feuille.2</title>
				<rect x="0" y="52.9881" width="0.0159449" height="0.0318898" class="st1"/>
			</g>
			<g id="shape3-4" v:mID="3" v:groupContext="shape" transform="translate(25.4959,7.10543E-015)">
				<title>Feuille.3</title>
				<rect x="0" y="52.9881" width="0.0159449" height="0.0318898" class="st1"/>
			</g>
		</g>
		<g id="shape4-6" v:mID="4" v:groupContext="shape" transform="translate(66.4846,1) rotate(90)">
			<title>Feuille.4</title>
			<path d="M0 53.02 L17.01 53.02 L0 53.02 Z" class="st2"/>
			<path d="M0 53.02 L17.01 53.02" class="st3"/>
		</g>
		<g id="shape5-9" v:mID="5" v:groupContext="shape" transform="translate(4.96258,-1)">
			<title>Feuille.5</title>
			<path d="M0 19.01 L8.5 36.02 L8.5 53.02 L0 19.01 Z" class="st2"/>
			<path d="M0 19.01 L8.5 36.02 L8.5 53.02" class="st3"/>
		</g>
		<g id="shape6-12" v:mID="6" v:groupContext="shape" transform="translate(54.2701,22.0574) rotate(90)">
			<title>Feuille.6</title>
			<path d="M0 53.02 L8.5 53.02 L0 53.02 Z" class="st2"/>
			<path d="M0 53.02 L8.5 53.02" class="st3"/>
		</g>
		<g id="shape7-15" v:mID="7" v:groupContext="shape" transform="translate(1.57039,-26.5118)">
			<title>Feuille.7</title>
			<path d="M0 53.02 L4.25 53.02 L0 53.02 Z" class="st2"/>
			<path d="M0 53.02 L4.25 53.02" class="st3"/>
		</g>
	</g>
</svg>
